<?xml version="1.0" encoding="utf-8" standalone="no"?>
<!DOCTYPE svg PUBLIC "-//W3C//DTD SVG 1.1//EN"
  "http://www.w3.org/Graphics/SVG/1.1/DTD/svg11.dtd">
<svg xmlns:xlink="http://www.w3.org/1999/xlink" width="196.251656pt" height="267.558656pt" viewBox="0 0 196.251656 267.558656" xmlns="http://www.w3.org/2000/svg" version="1.1">
 <metadata>
  <rdf:RDF xmlns:dc="http://purl.org/dc/elements/1.1/" xmlns:cc="http://creativecommons.org/ns#" xmlns:rdf="http://www.w3.org/1999/02/22-rdf-syntax-ns#">
   <cc:Work>
    <dc:type rdf:resource="http://purl.org/dc/dcmitype/StillImage"/>
    <dc:date>2025-05-27T13:27:03.470300</dc:date>
    <dc:format>image/svg+xml</dc:format>
    <dc:creator>
     <cc:Agent>
      <dc:title>Matplotlib v3.8.4, https://matplotlib.org/</dc:title>
     </cc:Agent>
    </dc:creator>
   </cc:Work>
  </rdf:RDF>
 </metadata>
 <defs>
  <style type="text/css">*{stroke-linejoin: round; stroke-linecap: butt}</style>
 </defs>
 <g id="figure_1">
  <g id="patch_1">
   <path d="M 0 267.558656 
L 196.251656 267.558656 
L 196.251656 0 
L 0 0 
L 0 267.558656 
z
" style="fill: none"/>
  </g>
  <g id="axes_1">
   <g id="patch_2">
    <path d="M 35.211656 48.405 
L 196.251656 48.405 
L 196.251656 0 
L 35.211656 0 
L 35.211656 48.405 
z
" style="fill: none"/>
   </g>
   <g id="PolyCollection_1">
    <defs>
     <path id="m18a03ee0c8" d="M 55.312602 -226.83699 
L 55.312602 -219.153656 
L 56.293765 -219.153656 
L 56.293765 -219.153656 
L 57.274927 -219.153656 
L 57.274927 -219.153656 
L 58.25609 -219.153656 
L 58.25609 -219.153656 
L 59.237253 -219.153656 
L 59.237253 -219.153656 
L 60.218416 -219.153656 
L 60.218416 -219.153656 
L 61.199579 -219.153656 
L 61.199579 -219.153656 
L 62.180742 -219.153656 
L 62.180742 -219.153656 
L 63.161905 -219.153656 
L 63.161905 -219.153656 
L 64.143068 -219.153656 
L 64.143068 -219.153656 
L 65.124231 -219.153656 
L 65.124231 -219.153656 
L 66.105394 -219.153656 
L 66.105394 -219.153656 
L 67.086557 -219.153656 
L 67.086557 -219.153656 
L 68.06772 -219.153656 
L 68.06772 -219.153656 
L 69.048883 -219.153656 
L 69.048883 -219.153656 
L 70.030046 -219.153656 
L 70.030046 -219.153656 
L 71.011209 -219.153656 
L 71.011209 -219.153656 
L 71.992372 -219.153656 
L 71.992372 -219.153656 
L 72.973535 -219.153656 
L 72.973535 -219.153656 
L 73.954698 -219.153656 
L 73.954698 -219.153656 
L 74.935861 -219.153656 
L 74.935861 -219.153656 
L 75.917024 -219.153656 
L 75.917024 -219.153656 
L 76.898187 -219.153656 
L 76.898187 -219.153656 
L 77.87935 -219.153656 
L 77.87935 -219.153656 
L 78.860513 -219.153656 
L 78.860513 -219.153656 
L 79.841676 -219.153656 
L 79.841676 -219.153656 
L 80.822839 -219.153656 
L 80.822839 -219.153656 
L 81.804002 -219.153656 
L 81.804002 -219.153656 
L 82.785165 -219.153656 
L 82.785165 -219.153656 
L 83.766327 -219.153656 
L 83.766327 -219.153656 
L 84.74749 -219.153656 
L 84.74749 -219.153656 
L 85.728653 -219.153656 
L 85.728653 -219.153656 
L 86.709816 -219.153656 
L 86.709816 -219.153656 
L 87.690979 -219.153656 
L 87.690979 -219.153656 
L 88.672142 -219.153656 
L 88.672142 -219.153656 
L 89.653305 -219.153656 
L 89.653305 -219.153656 
L 90.634468 -219.153656 
L 90.634468 -219.153656 
L 91.615631 -219.153656 
L 91.615631 -219.153656 
L 92.596794 -219.153656 
L 92.596794 -219.153656 
L 93.577957 -219.153656 
L 93.577957 -219.153656 
L 94.55912 -219.153656 
L 94.55912 -219.153656 
L 95.540283 -219.153656 
L 95.540283 -219.153656 
L 96.521446 -219.153656 
L 96.521446 -219.153656 
L 97.502609 -219.153656 
L 97.502609 -219.153656 
L 98.483772 -219.153656 
L 98.483772 -219.153656 
L 99.464935 -219.153656 
L 99.464935 -219.153656 
L 100.446098 -219.153656 
L 100.446098 -219.153656 
L 101.427261 -219.153656 
L 101.427261 -219.153656 
L 102.408424 -219.153656 
L 102.408424 -219.153656 
L 103.389587 -219.153656 
L 103.389587 -219.153656 
L 104.37075 -219.153656 
L 104.37075 -219.153656 
L 105.351913 -219.153656 
L 105.351913 -219.153656 
L 106.333076 -219.153656 
L 106.333076 -219.153656 
L 107.314239 -219.153656 
L 107.314239 -219.153656 
L 108.295402 -219.153656 
L 108.295402 -219.153656 
L 109.276565 -219.153656 
L 109.276565 -219.153656 
L 110.257727 -219.153656 
L 110.257727 -219.153656 
L 111.23889 -219.153656 
L 111.23889 -219.153656 
L 112.220053 -219.153656 
L 112.220053 -219.153656 
L 113.201216 -219.153656 
L 113.201216 -219.153656 
L 114.182379 -219.153656 
L 114.182379 -219.153656 
L 115.163542 -219.153656 
L 115.163542 -219.153656 
L 116.144705 -219.153656 
L 116.144705 -219.153656 
L 117.125868 -219.153656 
L 117.125868 -219.153656 
L 118.107031 -219.153656 
L 118.107031 -219.153656 
L 119.088194 -219.153656 
L 119.088194 -219.153656 
L 120.069357 -219.153656 
L 120.069357 -219.153656 
L 121.05052 -219.153656 
L 121.05052 -219.153656 
L 122.031683 -219.153656 
L 122.031683 -219.153656 
L 123.012846 -219.153656 
L 123.012846 -219.153656 
L 123.994009 -219.153656 
L 123.994009 -219.153656 
L 124.975172 -219.153656 
L 124.975172 -219.153656 
L 125.956335 -219.153656 
L 125.956335 -219.153656 
L 126.937498 -219.153656 
L 126.937498 -219.153656 
L 127.918661 -219.153656 
L 127.918661 -219.153656 
L 128.899824 -219.153656 
L 128.899824 -219.153656 
L 129.880987 -219.153656 
L 129.880987 -219.153656 
L 130.86215 -219.153656 
L 130.86215 -219.153656 
L 131.843313 -219.153656 
L 131.843313 -219.153656 
L 132.824476 -219.153656 
L 132.824476 -219.153656 
L 133.805639 -219.153656 
L 133.805639 -219.153656 
L 134.786802 -219.153656 
L 134.786802 -219.153656 
L 135.767965 -219.153656 
L 135.767965 -219.153656 
L 136.749127 -219.153656 
L 136.749127 -219.153656 
L 137.73029 -219.153656 
L 137.73029 -219.153656 
L 138.711453 -219.153656 
L 138.711453 -219.153656 
L 139.692616 -219.153656 
L 139.692616 -219.153656 
L 140.673779 -219.153656 
L 140.673779 -219.153656 
L 141.654942 -219.153656 
L 141.654942 -219.153656 
L 142.636105 -219.153656 
L 142.636105 -219.153656 
L 143.617268 -219.153656 
L 143.617268 -219.153656 
L 144.598431 -219.153656 
L 144.598431 -219.153656 
L 145.579594 -219.153656 
L 145.579594 -219.153656 
L 146.560757 -219.153656 
L 146.560757 -219.153656 
L 147.54192 -219.153656 
L 147.54192 -219.153656 
L 148.523083 -219.153656 
L 148.523083 -219.153656 
L 149.504246 -219.153656 
L 149.504246 -219.153656 
L 150.485409 -219.153656 
L 150.485409 -219.153656 
L 151.466572 -219.153656 
L 151.466572 -219.153656 
L 152.447735 -219.153656 
L 152.447735 -219.153656 
L 153.428898 -219.153656 
L 153.428898 -219.153656 
L 153.428898 -221.714767 
L 153.428898 -221.714767 
L 153.428898 -221.714767 
L 152.447735 -221.714767 
L 152.447735 -219.153656 
L 151.466572 -219.153656 
L 151.466572 -219.153656 
L 150.485409 -219.153656 
L 150.485409 -219.153656 
L 149.504246 -219.153656 
L 149.504246 -219.153656 
L 148.523083 -219.153656 
L 148.523083 -219.153656 
L 147.54192 -219.153656 
L 147.54192 -219.153656 
L 146.560757 -219.153656 
L 146.560757 -219.153656 
L 145.579594 -219.153656 
L 145.579594 -219.153656 
L 144.598431 -219.153656 
L 144.598431 -219.153656 
L 143.617268 -219.153656 
L 143.617268 -219.153656 
L 142.636105 -219.153656 
L 142.636105 -219.153656 
L 141.654942 -219.153656 
L 141.654942 -219.153656 
L 140.673779 -219.153656 
L 140.673779 -219.153656 
L 139.692616 -219.153656 
L 139.692616 -219.153656 
L 138.711453 -219.153656 
L 138.711453 -219.153656 
L 137.73029 -219.153656 
L 137.73029 -219.153656 
L 136.749127 -219.153656 
L 136.749127 -219.153656 
L 135.767965 -219.153656 
L 135.767965 -219.153656 
L 134.786802 -219.153656 
L 134.786802 -219.153656 
L 133.805639 -219.153656 
L 133.805639 -219.153656 
L 132.824476 -219.153656 
L 132.824476 -219.153656 
L 131.843313 -219.153656 
L 131.843313 -219.153656 
L 130.86215 -219.153656 
L 130.86215 -219.153656 
L 129.880987 -219.153656 
L 129.880987 -219.153656 
L 128.899824 -219.153656 
L 128.899824 -219.153656 
L 127.918661 -219.153656 
L 127.918661 -219.153656 
L 126.937498 -219.153656 
L 126.937498 -219.153656 
L 125.956335 -219.153656 
L 125.956335 -219.153656 
L 124.975172 -219.153656 
L 124.975172 -219.153656 
L 123.994009 -219.153656 
L 123.994009 -219.153656 
L 123.012846 -219.153656 
L 123.012846 -219.153656 
L 122.031683 -219.153656 
L 122.031683 -219.153656 
L 121.05052 -219.153656 
L 121.05052 -219.153656 
L 120.069357 -219.153656 
L 120.069357 -219.153656 
L 119.088194 -219.153656 
L 119.088194 -219.153656 
L 118.107031 -219.153656 
L 118.107031 -219.153656 
L 117.125868 -219.153656 
L 117.125868 -219.153656 
L 116.144705 -219.153656 
L 116.144705 -219.153656 
L 115.163542 -219.153656 
L 115.163542 -219.153656 
L 114.182379 -219.153656 
L 114.182379 -219.153656 
L 113.201216 -219.153656 
L 113.201216 -219.153656 
L 112.220053 -219.153656 
L 112.220053 -219.153656 
L 111.23889 -219.153656 
L 111.23889 -219.153656 
L 110.257727 -219.153656 
L 110.257727 -219.153656 
L 109.276565 -219.153656 
L 109.276565 -219.153656 
L 108.295402 -219.153656 
L 108.295402 -219.153656 
L 107.314239 -219.153656 
L 107.314239 -224.275878 
L 106.333076 -224.275878 
L 106.333076 -219.153656 
L 105.351913 -219.153656 
L 105.351913 -219.153656 
L 104.37075 -219.153656 
L 104.37075 -219.153656 
L 103.389587 -219.153656 
L 103.389587 -219.153656 
L 102.408424 -219.153656 
L 102.408424 -226.83699 
L 101.427261 -226.83699 
L 101.427261 -224.275878 
L 100.446098 -224.275878 
L 100.446098 -219.153656 
L 99.464935 -219.153656 
L 99.464935 -221.714767 
L 98.483772 -221.714767 
L 98.483772 -219.153656 
L 97.502609 -219.153656 
L 97.502609 -224.275878 
L 96.521446 -224.275878 
L 96.521446 -219.153656 
L 95.540283 -219.153656 
L 95.540283 -229.398101 
L 94.55912 -229.398101 
L 94.55912 -229.398101 
L 93.577957 -229.398101 
L 93.577957 -221.714767 
L 92.596794 -221.714767 
L 92.596794 -229.398101 
L 91.615631 -229.398101 
L 91.615631 -224.275878 
L 90.634468 -224.275878 
L 90.634468 -231.959212 
L 89.653305 -231.959212 
L 89.653305 -224.275878 
L 88.672142 -224.275878 
L 88.672142 -224.275878 
L 87.690979 -224.275878 
L 87.690979 -229.398101 
L 86.709816 -229.398101 
L 86.709816 -234.520323 
L 85.728653 -234.520323 
L 85.728653 -231.959212 
L 84.74749 -231.959212 
L 84.74749 -242.203656 
L 83.766327 -242.203656 
L 83.766327 -244.764767 
L 82.785165 -244.764767 
L 82.785165 -244.764767 
L 81.804002 -244.764767 
L 81.804002 -242.203656 
L 80.822839 -242.203656 
L 80.822839 -239.642545 
L 79.841676 -239.642545 
L 79.841676 -239.642545 
L 78.860513 -239.642545 
L 78.860513 -265.253656 
L 77.87935 -265.253656 
L 77.87935 -249.88699 
L 76.898187 -249.88699 
L 76.898187 -234.520323 
L 75.917024 -234.520323 
L 75.917024 -252.448101 
L 74.935861 -252.448101 
L 74.935861 -244.764767 
L 73.954698 -244.764767 
L 73.954698 -231.959212 
L 72.973535 -231.959212 
L 72.973535 -237.081434 
L 71.992372 -237.081434 
L 71.992372 -231.959212 
L 71.011209 -231.959212 
L 71.011209 -244.764767 
L 70.030046 -244.764767 
L 70.030046 -247.325878 
L 69.048883 -247.325878 
L 69.048883 -237.081434 
L 68.06772 -237.081434 
L 68.06772 -237.081434 
L 67.086557 -237.081434 
L 67.086557 -239.642545 
L 66.105394 -239.642545 
L 66.105394 -234.520323 
L 65.124231 -234.520323 
L 65.124231 -224.275878 
L 64.143068 -224.275878 
L 64.143068 -226.83699 
L 63.161905 -226.83699 
L 63.161905 -221.714767 
L 62.180742 -221.714767 
L 62.180742 -219.153656 
L 61.199579 -219.153656 
L 61.199579 -219.153656 
L 60.218416 -219.153656 
L 60.218416 -219.153656 
L 59.237253 -219.153656 
L 59.237253 -219.153656 
L 58.25609 -219.153656 
L 58.25609 -221.714767 
L 57.274927 -221.714767 
L 57.274927 -221.714767 
L 56.293765 -221.714767 
L 56.293765 -226.83699 
L 55.312602 -226.83699 
z
" style="stroke: #1f77b4; stroke-width: 0.8"/>
    </defs>
    <g clip-path="url(#pa6f9389b8c)">
     <use xlink:href="#m18a03ee0c8" x="0" y="267.558656" style="fill: #1f77b4; fill-opacity: 0.75; stroke: #1f77b4; stroke-width: 0.8"/>
    </g>
   </g>
   <g id="matplotlib.axis_1">
    <g id="xtick_1">
     <g id="line2d_1">
      <defs>
       <path id="m6732a3c6a0" d="M 0 0 
L 0 4.8 
" style="stroke: #000000; stroke-width: 0.5"/>
      </defs>
      <g>
       <use xlink:href="#m6732a3c6a0" x="78.814341" y="48.405" style="stroke: #000000; stroke-width: 0.5"/>
      </g>
     </g>
    </g>
    <g id="xtick_2">
     <g id="line2d_2">
      <g>
       <use xlink:href="#m6732a3c6a0" x="126.467669" y="48.405" style="stroke: #000000; stroke-width: 0.5"/>
      </g>
     </g>
    </g>
    <g id="xtick_3">
     <g id="line2d_3">
      <g>
       <use xlink:href="#m6732a3c6a0" x="174.120996" y="48.405" style="stroke: #000000; stroke-width: 0.5"/>
      </g>
     </g>
    </g>
   </g>
   <g id="matplotlib.axis_2">
    <g id="ytick_1">
     <g id="line2d_4">
      <defs>
       <path id="mf85279c087" d="M 0 0 
L -4.8 0 
" style="stroke: #000000; stroke-width: 0.5"/>
      </defs>
      <g>
       <use xlink:href="#mf85279c087" x="35.211656" y="48.405" style="stroke: #000000; stroke-width: 0.5"/>
      </g>
     </g>
     <g id="text_1">
      <!-- 0 -->
      <g transform="translate(22.018031 51.554438) scale(0.088 -0.088)">
       <defs>
        <path id="ArialMT-30" d="M 266 2259 
Q 266 3072 433 3567 
Q 600 4063 929 4331 
Q 1259 4600 1759 4600 
Q 2128 4600 2406 4451 
Q 2684 4303 2865 4023 
Q 3047 3744 3150 3342 
Q 3253 2941 3253 2259 
Q 3253 1453 3087 958 
Q 2922 463 2592 192 
Q 2263 -78 1759 -78 
Q 1097 -78 719 397 
Q 266 969 266 2259 
z
M 844 2259 
Q 844 1131 1108 757 
Q 1372 384 1759 384 
Q 2147 384 2411 759 
Q 2675 1134 2675 2259 
Q 2675 3391 2411 3762 
Q 2147 4134 1753 4134 
Q 1366 4134 1134 3806 
Q 844 3388 844 2259 
z
" transform="scale(0.015625)"/>
       </defs>
       <use xlink:href="#ArialMT-30"/>
      </g>
     </g>
    </g>
    <g id="ytick_2">
     <g id="line2d_5">
      <g>
       <use xlink:href="#mf85279c087" x="35.211656" y="22.793889" style="stroke: #000000; stroke-width: 0.5"/>
      </g>
     </g>
     <g id="text_2">
      <!-- 10 -->
      <g transform="translate(17.124406 25.943326) scale(0.088 -0.088)">
       <defs>
        <path id="ArialMT-31" d="M 2384 0 
L 1822 0 
L 1822 3584 
Q 1619 3391 1289 3197 
Q 959 3003 697 2906 
L 697 3450 
Q 1169 3672 1522 3987 
Q 1875 4303 2022 4600 
L 2384 4600 
L 2384 0 
z
" transform="scale(0.015625)"/>
       </defs>
       <use xlink:href="#ArialMT-31"/>
       <use xlink:href="#ArialMT-30" x="55.615234"/>
      </g>
     </g>
    </g>
    <g id="text_3">
     <!-- 250 -->
     <g transform="translate(11.335656 31.709766) rotate(-90) scale(0.09 -0.09)">
      <defs>
       <path id="ArialMT-32" d="M 3222 541 
L 3222 0 
L 194 0 
Q 188 203 259 391 
Q 375 700 629 1000 
Q 884 1300 1366 1694 
Q 2113 2306 2375 2664 
Q 2638 3022 2638 3341 
Q 2638 3675 2398 3904 
Q 2159 4134 1775 4134 
Q 1369 4134 1125 3890 
Q 881 3647 878 3216 
L 300 3275 
Q 359 3922 746 4261 
Q 1134 4600 1788 4600 
Q 2447 4600 2831 4234 
Q 3216 3869 3216 3328 
Q 3216 3053 3103 2787 
Q 2991 2522 2730 2228 
Q 2469 1934 1863 1422 
Q 1356 997 1212 845 
Q 1069 694 975 541 
L 3222 541 
z
" transform="scale(0.015625)"/>
       <path id="ArialMT-35" d="M 266 1200 
L 856 1250 
Q 922 819 1161 601 
Q 1400 384 1738 384 
Q 2144 384 2425 690 
Q 2706 997 2706 1503 
Q 2706 1984 2436 2262 
Q 2166 2541 1728 2541 
Q 1456 2541 1237 2417 
Q 1019 2294 894 2097 
L 366 2166 
L 809 4519 
L 3088 4519 
L 3088 3981 
L 1259 3981 
L 1013 2750 
Q 1425 3038 1878 3038 
Q 2478 3038 2890 2622 
Q 3303 2206 3303 1553 
Q 3303 931 2941 478 
Q 2500 -78 1738 -78 
Q 1113 -78 717 272 
Q 322 622 266 1200 
z
" transform="scale(0.015625)"/>
      </defs>
      <use xlink:href="#ArialMT-32"/>
      <use xlink:href="#ArialMT-35" x="55.615234"/>
      <use xlink:href="#ArialMT-30" x="111.230469"/>
     </g>
    </g>
   </g>
   <g id="line2d_6">
    <path d="M 77.964623 48.405 
L 77.964623 -1 
" clip-path="url(#pa6f9389b8c)" style="fill: none; stroke: #000000; stroke-width: 1.2; stroke-linecap: square"/>
   </g>
   <g id="line2d_7">
    <path d="M 84.119359 48.405 
L 84.119359 -1 
" clip-path="url(#pa6f9389b8c)" style="fill: none; stroke-dasharray: 4.44,1.92; stroke-dashoffset: 0; stroke: #000000; stroke-width: 1.2"/>
   </g>
   <g id="line2d_8">
    <path d="M 90.274095 48.405 
L 90.274095 -1 
" clip-path="url(#pa6f9389b8c)" style="fill: none; stroke-dasharray: 4.44,1.92; stroke-dashoffset: 0; stroke: #000000; stroke-width: 1.2"/>
   </g>
   <g id="patch_3">
    <path d="M 35.211656 48.405 
L 35.211656 0 
" style="fill: none; stroke: #000000; stroke-width: 0.5; stroke-linejoin: miter; stroke-linecap: square"/>
   </g>
   <g id="patch_4">
    <path d="M 196.251656 48.405 
L 196.251656 0 
" style="fill: none; stroke: #000000; stroke-width: 0.5; stroke-linejoin: miter; stroke-linecap: square"/>
   </g>
   <g id="patch_5">
    <path d="M 35.211656 48.405 
L 196.251656 48.405 
" style="fill: none; stroke: #000000; stroke-width: 0.5; stroke-linejoin: miter; stroke-linecap: square"/>
   </g>
   <g id="patch_6">
    <path d="M 35.211656 0 
L 196.251656 0 
" style="fill: none; stroke: #000000; stroke-width: 0.5; stroke-linejoin: miter; stroke-linecap: square"/>
   </g>
   <g id="text_4">
    <!-- mad + median = 1.11 -->
    <g transform="translate(112.788707 10.56675) scale(0.08 -0.08)">
     <defs>
      <path id="ArialMT-6d" d="M 422 0 
L 422 3319 
L 925 3319 
L 925 2853 
Q 1081 3097 1340 3245 
Q 1600 3394 1931 3394 
Q 2300 3394 2536 3241 
Q 2772 3088 2869 2813 
Q 3263 3394 3894 3394 
Q 4388 3394 4653 3120 
Q 4919 2847 4919 2278 
L 4919 0 
L 4359 0 
L 4359 2091 
Q 4359 2428 4304 2576 
Q 4250 2725 4106 2815 
Q 3963 2906 3769 2906 
Q 3419 2906 3187 2673 
Q 2956 2441 2956 1928 
L 2956 0 
L 2394 0 
L 2394 2156 
Q 2394 2531 2256 2718 
Q 2119 2906 1806 2906 
Q 1569 2906 1367 2781 
Q 1166 2656 1075 2415 
Q 984 2175 984 1722 
L 984 0 
L 422 0 
z
" transform="scale(0.015625)"/>
      <path id="ArialMT-61" d="M 2588 409 
Q 2275 144 1986 34 
Q 1697 -75 1366 -75 
Q 819 -75 525 192 
Q 231 459 231 875 
Q 231 1119 342 1320 
Q 453 1522 633 1644 
Q 813 1766 1038 1828 
Q 1203 1872 1538 1913 
Q 2219 1994 2541 2106 
Q 2544 2222 2544 2253 
Q 2544 2597 2384 2738 
Q 2169 2928 1744 2928 
Q 1347 2928 1158 2789 
Q 969 2650 878 2297 
L 328 2372 
Q 403 2725 575 2942 
Q 747 3159 1072 3276 
Q 1397 3394 1825 3394 
Q 2250 3394 2515 3294 
Q 2781 3194 2906 3042 
Q 3031 2891 3081 2659 
Q 3109 2516 3109 2141 
L 3109 1391 
Q 3109 606 3145 398 
Q 3181 191 3288 0 
L 2700 0 
Q 2613 175 2588 409 
z
M 2541 1666 
Q 2234 1541 1622 1453 
Q 1275 1403 1131 1340 
Q 988 1278 909 1158 
Q 831 1038 831 891 
Q 831 666 1001 516 
Q 1172 366 1500 366 
Q 1825 366 2078 508 
Q 2331 650 2450 897 
Q 2541 1088 2541 1459 
L 2541 1666 
z
" transform="scale(0.015625)"/>
      <path id="ArialMT-64" d="M 2575 0 
L 2575 419 
Q 2259 -75 1647 -75 
Q 1250 -75 917 144 
Q 584 363 401 755 
Q 219 1147 219 1656 
Q 219 2153 384 2558 
Q 550 2963 881 3178 
Q 1213 3394 1622 3394 
Q 1922 3394 2156 3267 
Q 2391 3141 2538 2938 
L 2538 4581 
L 3097 4581 
L 3097 0 
L 2575 0 
z
M 797 1656 
Q 797 1019 1065 703 
Q 1334 388 1700 388 
Q 2069 388 2326 689 
Q 2584 991 2584 1609 
Q 2584 2291 2321 2609 
Q 2059 2928 1675 2928 
Q 1300 2928 1048 2622 
Q 797 2316 797 1656 
z
" transform="scale(0.015625)"/>
      <path id="ArialMT-20" transform="scale(0.015625)"/>
      <path id="ArialMT-2b" d="M 1603 741 
L 1603 1997 
L 356 1997 
L 356 2522 
L 1603 2522 
L 1603 3769 
L 2134 3769 
L 2134 2522 
L 3381 2522 
L 3381 1997 
L 2134 1997 
L 2134 741 
L 1603 741 
z
" transform="scale(0.015625)"/>
      <path id="ArialMT-65" d="M 2694 1069 
L 3275 997 
Q 3138 488 2766 206 
Q 2394 -75 1816 -75 
Q 1088 -75 661 373 
Q 234 822 234 1631 
Q 234 2469 665 2931 
Q 1097 3394 1784 3394 
Q 2450 3394 2872 2941 
Q 3294 2488 3294 1666 
Q 3294 1616 3291 1516 
L 816 1516 
Q 847 969 1125 678 
Q 1403 388 1819 388 
Q 2128 388 2347 550 
Q 2566 713 2694 1069 
z
M 847 1978 
L 2700 1978 
Q 2663 2397 2488 2606 
Q 2219 2931 1791 2931 
Q 1403 2931 1139 2672 
Q 875 2413 847 1978 
z
" transform="scale(0.015625)"/>
      <path id="ArialMT-69" d="M 425 3934 
L 425 4581 
L 988 4581 
L 988 3934 
L 425 3934 
z
M 425 0 
L 425 3319 
L 988 3319 
L 988 0 
L 425 0 
z
" transform="scale(0.015625)"/>
      <path id="ArialMT-6e" d="M 422 0 
L 422 3319 
L 928 3319 
L 928 2847 
Q 1294 3394 1984 3394 
Q 2284 3394 2536 3286 
Q 2788 3178 2913 3003 
Q 3038 2828 3088 2588 
Q 3119 2431 3119 2041 
L 3119 0 
L 2556 0 
L 2556 2019 
Q 2556 2363 2490 2533 
Q 2425 2703 2258 2804 
Q 2091 2906 1866 2906 
Q 1506 2906 1245 2678 
Q 984 2450 984 1813 
L 984 0 
L 422 0 
z
" transform="scale(0.015625)"/>
      <path id="ArialMT-3d" d="M 3381 2694 
L 356 2694 
L 356 3219 
L 3381 3219 
L 3381 2694 
z
M 3381 1303 
L 356 1303 
L 356 1828 
L 3381 1828 
L 3381 1303 
z
" transform="scale(0.015625)"/>
      <path id="ArialMT-2e" d="M 581 0 
L 581 641 
L 1222 641 
L 1222 0 
L 581 0 
z
" transform="scale(0.015625)"/>
     </defs>
     <use xlink:href="#ArialMT-6d"/>
     <use xlink:href="#ArialMT-61" x="83.300781"/>
     <use xlink:href="#ArialMT-64" x="138.916016"/>
     <use xlink:href="#ArialMT-20" x="194.53125"/>
     <use xlink:href="#ArialMT-2b" x="222.314453"/>
     <use xlink:href="#ArialMT-20" x="280.712891"/>
     <use xlink:href="#ArialMT-6d" x="308.496094"/>
     <use xlink:href="#ArialMT-65" x="391.796875"/>
     <use xlink:href="#ArialMT-64" x="447.412109"/>
     <use xlink:href="#ArialMT-69" x="503.027344"/>
     <use xlink:href="#ArialMT-61" x="525.244141"/>
     <use xlink:href="#ArialMT-6e" x="580.859375"/>
     <use xlink:href="#ArialMT-20" x="636.474609"/>
     <use xlink:href="#ArialMT-3d" x="664.257812"/>
     <use xlink:href="#ArialMT-20" x="722.65625"/>
     <use xlink:href="#ArialMT-31" x="750.439453"/>
     <use xlink:href="#ArialMT-2e" x="806.054688"/>
     <use xlink:href="#ArialMT-31" x="833.837891"/>
     <use xlink:href="#ArialMT-31" x="882.078125"/>
    </g>
   </g>
  </g>
  <g id="axes_2">
   <g id="patch_7">
    <path d="M 35.211656 111.93 
L 196.251656 111.93 
L 196.251656 63.525 
L 35.211656 63.525 
L 35.211656 111.93 
z
" style="fill: none"/>
   </g>
   <g id="PolyCollection_2">
    <defs>
     <path id="mebef3c0bea" d="M 50.083532 -156.909212 
L 50.083532 -155.628656 
L 51.472014 -155.628656 
L 51.472014 -155.628656 
L 52.860495 -155.628656 
L 52.860495 -155.628656 
L 54.248976 -155.628656 
L 54.248976 -155.628656 
L 55.637457 -155.628656 
L 55.637457 -155.628656 
L 57.025939 -155.628656 
L 57.025939 -155.628656 
L 58.41442 -155.628656 
L 58.41442 -155.628656 
L 59.802901 -155.628656 
L 59.802901 -155.628656 
L 61.191382 -155.628656 
L 61.191382 -155.628656 
L 62.579863 -155.628656 
L 62.579863 -155.628656 
L 63.968345 -155.628656 
L 63.968345 -155.628656 
L 65.356826 -155.628656 
L 65.356826 -155.628656 
L 66.745307 -155.628656 
L 66.745307 -155.628656 
L 68.133788 -155.628656 
L 68.133788 -155.628656 
L 69.52227 -155.628656 
L 69.52227 -155.628656 
L 70.910751 -155.628656 
L 70.910751 -155.628656 
L 72.299232 -155.628656 
L 72.299232 -155.628656 
L 73.687713 -155.628656 
L 73.687713 -155.628656 
L 75.076195 -155.628656 
L 75.076195 -155.628656 
L 76.464676 -155.628656 
L 76.464676 -155.628656 
L 77.853157 -155.628656 
L 77.853157 -155.628656 
L 79.241638 -155.628656 
L 79.241638 -155.628656 
L 80.63012 -155.628656 
L 80.63012 -155.628656 
L 82.018601 -155.628656 
L 82.018601 -155.628656 
L 83.407082 -155.628656 
L 83.407082 -155.628656 
L 84.795563 -155.628656 
L 84.795563 -155.628656 
L 86.184045 -155.628656 
L 86.184045 -155.628656 
L 87.572526 -155.628656 
L 87.572526 -155.628656 
L 88.961007 -155.628656 
L 88.961007 -155.628656 
L 90.349488 -155.628656 
L 90.349488 -155.628656 
L 91.73797 -155.628656 
L 91.73797 -155.628656 
L 93.126451 -155.628656 
L 93.126451 -155.628656 
L 94.514932 -155.628656 
L 94.514932 -155.628656 
L 95.903413 -155.628656 
L 95.903413 -155.628656 
L 97.291894 -155.628656 
L 97.291894 -155.628656 
L 98.680376 -155.628656 
L 98.680376 -155.628656 
L 100.068857 -155.628656 
L 100.068857 -155.628656 
L 101.457338 -155.628656 
L 101.457338 -155.628656 
L 102.845819 -155.628656 
L 102.845819 -155.628656 
L 104.234301 -155.628656 
L 104.234301 -155.628656 
L 105.622782 -155.628656 
L 105.622782 -155.628656 
L 107.011263 -155.628656 
L 107.011263 -155.628656 
L 108.399744 -155.628656 
L 108.399744 -155.628656 
L 109.788226 -155.628656 
L 109.788226 -155.628656 
L 111.176707 -155.628656 
L 111.176707 -155.628656 
L 112.565188 -155.628656 
L 112.565188 -155.628656 
L 113.953669 -155.628656 
L 113.953669 -155.628656 
L 115.342151 -155.628656 
L 115.342151 -155.628656 
L 116.730632 -155.628656 
L 116.730632 -155.628656 
L 118.119113 -155.628656 
L 118.119113 -155.628656 
L 119.507594 -155.628656 
L 119.507594 -155.628656 
L 120.896076 -155.628656 
L 120.896076 -155.628656 
L 122.284557 -155.628656 
L 122.284557 -155.628656 
L 123.673038 -155.628656 
L 123.673038 -155.628656 
L 125.061519 -155.628656 
L 125.061519 -155.628656 
L 126.45 -155.628656 
L 126.45 -155.628656 
L 127.838482 -155.628656 
L 127.838482 -155.628656 
L 129.226963 -155.628656 
L 129.226963 -155.628656 
L 130.615444 -155.628656 
L 130.615444 -155.628656 
L 132.003925 -155.628656 
L 132.003925 -155.628656 
L 133.392407 -155.628656 
L 133.392407 -155.628656 
L 134.780888 -155.628656 
L 134.780888 -155.628656 
L 136.169369 -155.628656 
L 136.169369 -155.628656 
L 137.55785 -155.628656 
L 137.55785 -155.628656 
L 138.946332 -155.628656 
L 138.946332 -155.628656 
L 140.334813 -155.628656 
L 140.334813 -155.628656 
L 141.723294 -155.628656 
L 141.723294 -155.628656 
L 143.111775 -155.628656 
L 143.111775 -155.628656 
L 144.500257 -155.628656 
L 144.500257 -155.628656 
L 145.888738 -155.628656 
L 145.888738 -155.628656 
L 147.277219 -155.628656 
L 147.277219 -155.628656 
L 148.6657 -155.628656 
L 148.6657 -155.628656 
L 150.054182 -155.628656 
L 150.054182 -155.628656 
L 151.442663 -155.628656 
L 151.442663 -155.628656 
L 152.831144 -155.628656 
L 152.831144 -155.628656 
L 154.219625 -155.628656 
L 154.219625 -155.628656 
L 155.608107 -155.628656 
L 155.608107 -155.628656 
L 156.996588 -155.628656 
L 156.996588 -155.628656 
L 158.385069 -155.628656 
L 158.385069 -155.628656 
L 159.77355 -155.628656 
L 159.77355 -155.628656 
L 161.162031 -155.628656 
L 161.162031 -155.628656 
L 162.550513 -155.628656 
L 162.550513 -155.628656 
L 163.938994 -155.628656 
L 163.938994 -155.628656 
L 165.327475 -155.628656 
L 165.327475 -155.628656 
L 166.715956 -155.628656 
L 166.715956 -155.628656 
L 168.104438 -155.628656 
L 168.104438 -155.628656 
L 169.492919 -155.628656 
L 169.492919 -155.628656 
L 170.8814 -155.628656 
L 170.8814 -155.628656 
L 172.269881 -155.628656 
L 172.269881 -155.628656 
L 173.658363 -155.628656 
L 173.658363 -155.628656 
L 175.046844 -155.628656 
L 175.046844 -155.628656 
L 176.435325 -155.628656 
L 176.435325 -155.628656 
L 177.823806 -155.628656 
L 177.823806 -155.628656 
L 179.212288 -155.628656 
L 179.212288 -155.628656 
L 180.600769 -155.628656 
L 180.600769 -155.628656 
L 181.98925 -155.628656 
L 181.98925 -155.628656 
L 183.377731 -155.628656 
L 183.377731 -155.628656 
L 184.766213 -155.628656 
L 184.766213 -155.628656 
L 186.154694 -155.628656 
L 186.154694 -155.628656 
L 187.543175 -155.628656 
L 187.543175 -155.628656 
L 188.931656 -155.628656 
L 188.931656 -155.628656 
L 188.931656 -156.909212 
L 188.931656 -156.909212 
L 188.931656 -156.909212 
L 187.543175 -156.909212 
L 187.543175 -155.628656 
L 186.154694 -155.628656 
L 186.154694 -155.628656 
L 184.766213 -155.628656 
L 184.766213 -155.628656 
L 183.377731 -155.628656 
L 183.377731 -155.628656 
L 181.98925 -155.628656 
L 181.98925 -155.628656 
L 180.600769 -155.628656 
L 180.600769 -155.628656 
L 179.212288 -155.628656 
L 179.212288 -155.628656 
L 177.823806 -155.628656 
L 177.823806 -155.628656 
L 176.435325 -155.628656 
L 176.435325 -155.628656 
L 175.046844 -155.628656 
L 175.046844 -155.628656 
L 173.658363 -155.628656 
L 173.658363 -155.628656 
L 172.269881 -155.628656 
L 172.269881 -155.628656 
L 170.8814 -155.628656 
L 170.8814 -155.628656 
L 169.492919 -155.628656 
L 169.492919 -155.628656 
L 168.104438 -155.628656 
L 168.104438 -155.628656 
L 166.715956 -155.628656 
L 166.715956 -155.628656 
L 165.327475 -155.628656 
L 165.327475 -155.628656 
L 163.938994 -155.628656 
L 163.938994 -155.628656 
L 162.550513 -155.628656 
L 162.550513 -155.628656 
L 161.162031 -155.628656 
L 161.162031 -155.628656 
L 159.77355 -155.628656 
L 159.77355 -155.628656 
L 158.385069 -155.628656 
L 158.385069 -155.628656 
L 156.996588 -155.628656 
L 156.996588 -155.628656 
L 155.608107 -155.628656 
L 155.608107 -155.628656 
L 154.219625 -155.628656 
L 154.219625 -155.628656 
L 152.831144 -155.628656 
L 152.831144 -155.628656 
L 151.442663 -155.628656 
L 151.442663 -155.628656 
L 150.054182 -155.628656 
L 150.054182 -155.628656 
L 148.6657 -155.628656 
L 148.6657 -155.628656 
L 147.277219 -155.628656 
L 147.277219 -155.628656 
L 145.888738 -155.628656 
L 145.888738 -155.628656 
L 144.500257 -155.628656 
L 144.500257 -155.628656 
L 143.111775 -155.628656 
L 143.111775 -155.628656 
L 141.723294 -155.628656 
L 141.723294 -155.628656 
L 140.334813 -155.628656 
L 140.334813 -155.628656 
L 138.946332 -155.628656 
L 138.946332 -155.628656 
L 137.55785 -155.628656 
L 137.55785 -155.628656 
L 136.169369 -155.628656 
L 136.169369 -155.628656 
L 134.780888 -155.628656 
L 134.780888 -155.628656 
L 133.392407 -155.628656 
L 133.392407 -155.628656 
L 132.003925 -155.628656 
L 132.003925 -155.628656 
L 130.615444 -155.628656 
L 130.615444 -155.628656 
L 129.226963 -155.628656 
L 129.226963 -155.628656 
L 127.838482 -155.628656 
L 127.838482 -155.628656 
L 126.45 -155.628656 
L 126.45 -155.628656 
L 125.061519 -155.628656 
L 125.061519 -155.628656 
L 123.673038 -155.628656 
L 123.673038 -155.628656 
L 122.284557 -155.628656 
L 122.284557 -156.909212 
L 120.896076 -156.909212 
L 120.896076 -155.628656 
L 119.507594 -155.628656 
L 119.507594 -155.628656 
L 118.119113 -155.628656 
L 118.119113 -158.189767 
L 116.730632 -158.189767 
L 116.730632 -158.189767 
L 115.342151 -158.189767 
L 115.342151 -155.628656 
L 113.953669 -155.628656 
L 113.953669 -155.628656 
L 112.565188 -155.628656 
L 112.565188 -156.909212 
L 111.176707 -156.909212 
L 111.176707 -158.189767 
L 109.788226 -158.189767 
L 109.788226 -155.628656 
L 108.399744 -155.628656 
L 108.399744 -159.470323 
L 107.011263 -159.470323 
L 107.011263 -159.470323 
L 105.622782 -159.470323 
L 105.622782 -158.189767 
L 104.234301 -158.189767 
L 104.234301 -156.909212 
L 102.845819 -156.909212 
L 102.845819 -160.750878 
L 101.457338 -160.750878 
L 101.457338 -158.189767 
L 100.068857 -158.189767 
L 100.068857 -158.189767 
L 98.680376 -158.189767 
L 98.680376 -163.31199 
L 97.291894 -163.31199 
L 97.291894 -159.470323 
L 95.903413 -159.470323 
L 95.903413 -158.189767 
L 94.514932 -158.189767 
L 94.514932 -165.873101 
L 93.126451 -165.873101 
L 93.126451 -163.31199 
L 91.73797 -163.31199 
L 91.73797 -170.995323 
L 90.349488 -170.995323 
L 90.349488 -163.31199 
L 88.961007 -163.31199 
L 88.961007 -165.873101 
L 87.572526 -165.873101 
L 87.572526 -164.592545 
L 86.184045 -164.592545 
L 86.184045 -165.873101 
L 84.795563 -165.873101 
L 84.795563 -173.556434 
L 83.407082 -173.556434 
L 83.407082 -183.800878 
L 82.018601 -183.800878 
L 82.018601 -174.83699 
L 80.63012 -174.83699 
L 80.63012 -186.36199 
L 79.241638 -186.36199 
L 79.241638 -191.484212 
L 77.853157 -191.484212 
L 77.853157 -185.081434 
L 76.464676 -185.081434 
L 76.464676 -188.923101 
L 75.076195 -188.923101 
L 75.076195 -191.484212 
L 73.687713 -191.484212 
L 73.687713 -194.045323 
L 72.299232 -194.045323 
L 72.299232 -197.88699 
L 70.910751 -197.88699 
L 70.910751 -201.728656 
L 69.52227 -201.728656 
L 69.52227 -194.045323 
L 68.133788 -194.045323 
L 68.133788 -188.923101 
L 66.745307 -188.923101 
L 66.745307 -179.959212 
L 65.356826 -179.959212 
L 65.356826 -176.117545 
L 63.968345 -176.117545 
L 63.968345 -173.556434 
L 62.579863 -173.556434 
L 62.579863 -165.873101 
L 61.191382 -165.873101 
L 61.191382 -162.031434 
L 59.802901 -162.031434 
L 59.802901 -160.750878 
L 58.41442 -160.750878 
L 58.41442 -158.189767 
L 57.025939 -158.189767 
L 57.025939 -156.909212 
L 55.637457 -156.909212 
L 55.637457 -158.189767 
L 54.248976 -158.189767 
L 54.248976 -155.628656 
L 52.860495 -155.628656 
L 52.860495 -155.628656 
L 51.472014 -155.628656 
L 51.472014 -156.909212 
L 50.083532 -156.909212 
z
" style="stroke: #1f77b4; stroke-width: 0.8"/>
    </defs>
    <g clip-path="url(#p2a99048b5b)">
     <use xlink:href="#mebef3c0bea" x="0" y="267.558656" style="fill: #1f77b4; fill-opacity: 0.75; stroke: #1f77b4; stroke-width: 0.8"/>
    </g>
   </g>
   <g id="matplotlib.axis_3">
    <g id="xtick_4">
     <g id="line2d_9">
      <g>
       <use xlink:href="#m6732a3c6a0" x="78.814341" y="111.93" style="stroke: #000000; stroke-width: 0.5"/>
      </g>
     </g>
    </g>
    <g id="xtick_5">
     <g id="line2d_10">
      <g>
       <use xlink:href="#m6732a3c6a0" x="126.467669" y="111.93" style="stroke: #000000; stroke-width: 0.5"/>
      </g>
     </g>
    </g>
    <g id="xtick_6">
     <g id="line2d_11">
      <g>
       <use xlink:href="#m6732a3c6a0" x="174.120996" y="111.93" style="stroke: #000000; stroke-width: 0.5"/>
      </g>
     </g>
    </g>
   </g>
   <g id="matplotlib.axis_4">
    <g id="ytick_3">
     <g id="line2d_12">
      <g>
       <use xlink:href="#mf85279c087" x="35.211656" y="111.93" style="stroke: #000000; stroke-width: 0.5"/>
      </g>
     </g>
     <g id="text_5">
      <!-- 0 -->
      <g transform="translate(22.018031 115.079438) scale(0.088 -0.088)">
       <use xlink:href="#ArialMT-30"/>
      </g>
     </g>
    </g>
    <g id="ytick_4">
     <g id="line2d_13">
      <g>
       <use xlink:href="#mf85279c087" x="35.211656" y="86.318889" style="stroke: #000000; stroke-width: 0.5"/>
      </g>
     </g>
     <g id="text_6">
      <!-- 20 -->
      <g transform="translate(17.124406 89.468326) scale(0.088 -0.088)">
       <use xlink:href="#ArialMT-32"/>
       <use xlink:href="#ArialMT-30" x="55.615234"/>
      </g>
     </g>
    </g>
    <g id="text_7">
     <!-- 500 -->
     <g transform="translate(11.335656 95.234766) rotate(-90) scale(0.09 -0.09)">
      <use xlink:href="#ArialMT-35"/>
      <use xlink:href="#ArialMT-30" x="55.615234"/>
      <use xlink:href="#ArialMT-30" x="111.230469"/>
     </g>
    </g>
   </g>
   <g id="line2d_14">
    <path d="M 74.645888 111.93 
L 74.645888 -1 
" clip-path="url(#p2a99048b5b)" style="fill: none; stroke: #000000; stroke-width: 1.2; stroke-linecap: square"/>
   </g>
   <g id="line2d_15">
    <path d="M 80.693319 111.93 
L 80.693319 -1 
" clip-path="url(#p2a99048b5b)" style="fill: none; stroke-dasharray: 4.44,1.92; stroke-dashoffset: 0; stroke: #000000; stroke-width: 1.2"/>
   </g>
   <g id="line2d_16">
    <path d="M 86.74075 111.93 
L 86.74075 -1 
" clip-path="url(#p2a99048b5b)" style="fill: none; stroke-dasharray: 4.44,1.92; stroke-dashoffset: 0; stroke: #000000; stroke-width: 1.2"/>
   </g>
   <g id="patch_8">
    <path d="M 35.211656 111.93 
L 35.211656 63.525 
" style="fill: none; stroke: #000000; stroke-width: 0.5; stroke-linejoin: miter; stroke-linecap: square"/>
   </g>
   <g id="patch_9">
    <path d="M 196.251656 111.93 
L 196.251656 63.525 
" style="fill: none; stroke: #000000; stroke-width: 0.5; stroke-linejoin: miter; stroke-linecap: square"/>
   </g>
   <g id="patch_10">
    <path d="M 35.211656 111.93 
L 196.251656 111.93 
" style="fill: none; stroke: #000000; stroke-width: 0.5; stroke-linejoin: miter; stroke-linecap: square"/>
   </g>
   <g id="patch_11">
    <path d="M 35.211656 63.525 
L 196.251656 63.525 
" style="fill: none; stroke: #000000; stroke-width: 0.5; stroke-linejoin: miter; stroke-linecap: square"/>
   </g>
   <g id="text_8">
    <!-- mad + median = 1.04 -->
    <g transform="translate(112.493707 74.09175) scale(0.08 -0.08)">
     <defs>
      <path id="ArialMT-34" d="M 2069 0 
L 2069 1097 
L 81 1097 
L 81 1613 
L 2172 4581 
L 2631 4581 
L 2631 1613 
L 3250 1613 
L 3250 1097 
L 2631 1097 
L 2631 0 
L 2069 0 
z
M 2069 1613 
L 2069 3678 
L 634 1613 
L 2069 1613 
z
" transform="scale(0.015625)"/>
     </defs>
     <use xlink:href="#ArialMT-6d"/>
     <use xlink:href="#ArialMT-61" x="83.300781"/>
     <use xlink:href="#ArialMT-64" x="138.916016"/>
     <use xlink:href="#ArialMT-20" x="194.53125"/>
     <use xlink:href="#ArialMT-2b" x="222.314453"/>
     <use xlink:href="#ArialMT-20" x="280.712891"/>
     <use xlink:href="#ArialMT-6d" x="308.496094"/>
     <use xlink:href="#ArialMT-65" x="391.796875"/>
     <use xlink:href="#ArialMT-64" x="447.412109"/>
     <use xlink:href="#ArialMT-69" x="503.027344"/>
     <use xlink:href="#ArialMT-61" x="525.244141"/>
     <use xlink:href="#ArialMT-6e" x="580.859375"/>
     <use xlink:href="#ArialMT-20" x="636.474609"/>
     <use xlink:href="#ArialMT-3d" x="664.257812"/>
     <use xlink:href="#ArialMT-20" x="722.65625"/>
     <use xlink:href="#ArialMT-31" x="750.439453"/>
     <use xlink:href="#ArialMT-2e" x="806.054688"/>
     <use xlink:href="#ArialMT-30" x="833.837891"/>
     <use xlink:href="#ArialMT-34" x="889.453125"/>
    </g>
   </g>
  </g>
  <g id="axes_3">
   <g id="patch_12">
    <path d="M 35.211656 175.455 
L 196.251656 175.455 
L 196.251656 127.05 
L 35.211656 127.05 
L 35.211656 175.455 
z
" style="fill: none"/>
   </g>
   <g id="PolyCollection_3">
    <defs>
     <path id="m15684e0ae6" d="M 53.976087 -94.573299 
L 53.976087 -92.103656 
L 55.135724 -92.103656 
L 55.135724 -92.103656 
L 56.29536 -92.103656 
L 56.29536 -92.103656 
L 57.454997 -92.103656 
L 57.454997 -92.103656 
L 58.614633 -92.103656 
L 58.614633 -92.103656 
L 59.77427 -92.103656 
L 59.77427 -92.103656 
L 60.933907 -92.103656 
L 60.933907 -92.103656 
L 62.093543 -92.103656 
L 62.093543 -92.103656 
L 63.25318 -92.103656 
L 63.25318 -92.103656 
L 64.412816 -92.103656 
L 64.412816 -92.103656 
L 65.572453 -92.103656 
L 65.572453 -92.103656 
L 66.73209 -92.103656 
L 66.73209 -92.103656 
L 67.891726 -92.103656 
L 67.891726 -92.103656 
L 69.051363 -92.103656 
L 69.051363 -92.103656 
L 70.210999 -92.103656 
L 70.210999 -92.103656 
L 71.370636 -92.103656 
L 71.370636 -92.103656 
L 72.530273 -92.103656 
L 72.530273 -92.103656 
L 73.689909 -92.103656 
L 73.689909 -92.103656 
L 74.849546 -92.103656 
L 74.849546 -92.103656 
L 76.009182 -92.103656 
L 76.009182 -92.103656 
L 77.168819 -92.103656 
L 77.168819 -92.103656 
L 78.328456 -92.103656 
L 78.328456 -92.103656 
L 79.488092 -92.103656 
L 79.488092 -92.103656 
L 80.647729 -92.103656 
L 80.647729 -92.103656 
L 81.807365 -92.103656 
L 81.807365 -92.103656 
L 82.967002 -92.103656 
L 82.967002 -92.103656 
L 84.126639 -92.103656 
L 84.126639 -92.103656 
L 85.286275 -92.103656 
L 85.286275 -92.103656 
L 86.445912 -92.103656 
L 86.445912 -92.103656 
L 87.605548 -92.103656 
L 87.605548 -92.103656 
L 88.765185 -92.103656 
L 88.765185 -92.103656 
L 89.924822 -92.103656 
L 89.924822 -92.103656 
L 91.084458 -92.103656 
L 91.084458 -92.103656 
L 92.244095 -92.103656 
L 92.244095 -92.103656 
L 93.403731 -92.103656 
L 93.403731 -92.103656 
L 94.563368 -92.103656 
L 94.563368 -92.103656 
L 95.723005 -92.103656 
L 95.723005 -92.103656 
L 96.882641 -92.103656 
L 96.882641 -92.103656 
L 98.042278 -92.103656 
L 98.042278 -92.103656 
L 99.201914 -92.103656 
L 99.201914 -92.103656 
L 100.361551 -92.103656 
L 100.361551 -92.103656 
L 101.521187 -92.103656 
L 101.521187 -92.103656 
L 102.680824 -92.103656 
L 102.680824 -92.103656 
L 103.840461 -92.103656 
L 103.840461 -92.103656 
L 105.000097 -92.103656 
L 105.000097 -92.103656 
L 106.159734 -92.103656 
L 106.159734 -92.103656 
L 107.31937 -92.103656 
L 107.31937 -92.103656 
L 108.479007 -92.103656 
L 108.479007 -92.103656 
L 109.638644 -92.103656 
L 109.638644 -92.103656 
L 110.79828 -92.103656 
L 110.79828 -92.103656 
L 111.957917 -92.103656 
L 111.957917 -92.103656 
L 113.117553 -92.103656 
L 113.117553 -92.103656 
L 114.27719 -92.103656 
L 114.27719 -92.103656 
L 115.436827 -92.103656 
L 115.436827 -92.103656 
L 116.596463 -92.103656 
L 116.596463 -92.103656 
L 117.7561 -92.103656 
L 117.7561 -92.103656 
L 118.915736 -92.103656 
L 118.915736 -92.103656 
L 120.075373 -92.103656 
L 120.075373 -92.103656 
L 121.23501 -92.103656 
L 121.23501 -92.103656 
L 122.394646 -92.103656 
L 122.394646 -92.103656 
L 123.554283 -92.103656 
L 123.554283 -92.103656 
L 124.713919 -92.103656 
L 124.713919 -92.103656 
L 125.873556 -92.103656 
L 125.873556 -92.103656 
L 127.033193 -92.103656 
L 127.033193 -92.103656 
L 128.192829 -92.103656 
L 128.192829 -92.103656 
L 129.352466 -92.103656 
L 129.352466 -92.103656 
L 130.512102 -92.103656 
L 130.512102 -92.103656 
L 131.671739 -92.103656 
L 131.671739 -92.103656 
L 132.831376 -92.103656 
L 132.831376 -92.103656 
L 133.991012 -92.103656 
L 133.991012 -92.103656 
L 135.150649 -92.103656 
L 135.150649 -92.103656 
L 136.310285 -92.103656 
L 136.310285 -92.103656 
L 137.469922 -92.103656 
L 137.469922 -92.103656 
L 138.629559 -92.103656 
L 138.629559 -92.103656 
L 139.789195 -92.103656 
L 139.789195 -92.103656 
L 140.948832 -92.103656 
L 140.948832 -92.103656 
L 142.108468 -92.103656 
L 142.108468 -92.103656 
L 143.268105 -92.103656 
L 143.268105 -92.103656 
L 144.427742 -92.103656 
L 144.427742 -92.103656 
L 145.587378 -92.103656 
L 145.587378 -92.103656 
L 146.747015 -92.103656 
L 146.747015 -92.103656 
L 147.906651 -92.103656 
L 147.906651 -92.103656 
L 149.066288 -92.103656 
L 149.066288 -92.103656 
L 150.225925 -92.103656 
L 150.225925 -92.103656 
L 151.385561 -92.103656 
L 151.385561 -92.103656 
L 152.545198 -92.103656 
L 152.545198 -92.103656 
L 153.704834 -92.103656 
L 153.704834 -92.103656 
L 154.864471 -92.103656 
L 154.864471 -92.103656 
L 156.024108 -92.103656 
L 156.024108 -92.103656 
L 157.183744 -92.103656 
L 157.183744 -92.103656 
L 158.343381 -92.103656 
L 158.343381 -92.103656 
L 159.503017 -92.103656 
L 159.503017 -92.103656 
L 160.662654 -92.103656 
L 160.662654 -92.103656 
L 161.822291 -92.103656 
L 161.822291 -92.103656 
L 162.981927 -92.103656 
L 162.981927 -92.103656 
L 164.141564 -92.103656 
L 164.141564 -92.103656 
L 165.3012 -92.103656 
L 165.3012 -92.103656 
L 166.460837 -92.103656 
L 166.460837 -92.103656 
L 167.620473 -92.103656 
L 167.620473 -92.103656 
L 168.78011 -92.103656 
L 168.78011 -92.103656 
L 169.939747 -92.103656 
L 169.939747 -92.103656 
L 169.939747 -92.926871 
L 169.939747 -92.926871 
L 169.939747 -92.926871 
L 168.78011 -92.926871 
L 168.78011 -92.103656 
L 167.620473 -92.103656 
L 167.620473 -92.103656 
L 166.460837 -92.103656 
L 166.460837 -92.103656 
L 165.3012 -92.103656 
L 165.3012 -92.103656 
L 164.141564 -92.103656 
L 164.141564 -92.103656 
L 162.981927 -92.103656 
L 162.981927 -92.103656 
L 161.822291 -92.103656 
L 161.822291 -92.103656 
L 160.662654 -92.103656 
L 160.662654 -92.103656 
L 159.503017 -92.103656 
L 159.503017 -92.103656 
L 158.343381 -92.103656 
L 158.343381 -92.103656 
L 157.183744 -92.103656 
L 157.183744 -92.103656 
L 156.024108 -92.103656 
L 156.024108 -92.103656 
L 154.864471 -92.103656 
L 154.864471 -92.103656 
L 153.704834 -92.103656 
L 153.704834 -92.103656 
L 152.545198 -92.103656 
L 152.545198 -92.103656 
L 151.385561 -92.103656 
L 151.385561 -92.103656 
L 150.225925 -92.103656 
L 150.225925 -92.103656 
L 149.066288 -92.103656 
L 149.066288 -92.103656 
L 147.906651 -92.103656 
L 147.906651 -92.103656 
L 146.747015 -92.103656 
L 146.747015 -92.103656 
L 145.587378 -92.103656 
L 145.587378 -92.103656 
L 144.427742 -92.103656 
L 144.427742 -92.103656 
L 143.268105 -92.103656 
L 143.268105 -92.103656 
L 142.108468 -92.103656 
L 142.108468 -92.103656 
L 140.948832 -92.103656 
L 140.948832 -92.103656 
L 139.789195 -92.103656 
L 139.789195 -92.103656 
L 138.629559 -92.103656 
L 138.629559 -92.103656 
L 137.469922 -92.103656 
L 137.469922 -92.103656 
L 136.310285 -92.103656 
L 136.310285 -92.926871 
L 135.150649 -92.926871 
L 135.150649 -92.103656 
L 133.991012 -92.103656 
L 133.991012 -92.926871 
L 132.831376 -92.926871 
L 132.831376 -92.103656 
L 131.671739 -92.103656 
L 131.671739 -92.103656 
L 130.512102 -92.103656 
L 130.512102 -94.573299 
L 129.352466 -94.573299 
L 129.352466 -92.103656 
L 128.192829 -92.103656 
L 128.192829 -92.103656 
L 127.033193 -92.103656 
L 127.033193 -92.926871 
L 125.873556 -92.926871 
L 125.873556 -92.103656 
L 124.713919 -92.103656 
L 124.713919 -92.926871 
L 123.554283 -92.926871 
L 123.554283 -92.103656 
L 122.394646 -92.103656 
L 122.394646 -92.926871 
L 121.23501 -92.926871 
L 121.23501 -92.103656 
L 120.075373 -92.103656 
L 120.075373 -92.926871 
L 118.915736 -92.926871 
L 118.915736 -92.926871 
L 117.7561 -92.926871 
L 117.7561 -92.926871 
L 116.596463 -92.926871 
L 116.596463 -92.103656 
L 115.436827 -92.103656 
L 115.436827 -93.750085 
L 114.27719 -93.750085 
L 114.27719 -92.103656 
L 113.117553 -92.103656 
L 113.117553 -94.573299 
L 111.957917 -94.573299 
L 111.957917 -93.750085 
L 110.79828 -93.750085 
L 110.79828 -93.750085 
L 109.638644 -93.750085 
L 109.638644 -92.926871 
L 108.479007 -92.926871 
L 108.479007 -98.689371 
L 107.31937 -98.689371 
L 107.31937 -96.219728 
L 106.159734 -96.219728 
L 106.159734 -94.573299 
L 105.000097 -94.573299 
L 105.000097 -98.689371 
L 103.840461 -98.689371 
L 103.840461 -92.926871 
L 102.680824 -92.926871 
L 102.680824 -97.866156 
L 101.521187 -97.866156 
L 101.521187 -99.512585 
L 100.361551 -99.512585 
L 100.361551 -99.512585 
L 99.201914 -99.512585 
L 99.201914 -101.159013 
L 98.042278 -101.159013 
L 98.042278 -101.159013 
L 96.882641 -101.159013 
L 96.882641 -98.689371 
L 95.723005 -98.689371 
L 95.723005 -106.098299 
L 94.563368 -106.098299 
L 94.563368 -104.451871 
L 93.403731 -104.451871 
L 93.403731 -111.860799 
L 92.244095 -111.860799 
L 92.244095 -109.391156 
L 91.084458 -109.391156 
L 91.084458 -110.214371 
L 89.924822 -110.214371 
L 89.924822 -102.805442 
L 88.765185 -102.805442 
L 88.765185 -106.098299 
L 87.605548 -106.098299 
L 87.605548 -116.800085 
L 86.445912 -116.800085 
L 86.445912 -115.153656 
L 85.286275 -115.153656 
L 85.286275 -123.385799 
L 84.126639 -123.385799 
L 84.126639 -117.623299 
L 82.967002 -117.623299 
L 82.967002 -118.446513 
L 81.807365 -118.446513 
L 81.807365 -137.380442 
L 80.647729 -137.380442 
L 80.647729 -125.032228 
L 79.488092 -125.032228 
L 79.488092 -125.855442 
L 78.328456 -125.855442 
L 78.328456 -130.794728 
L 77.168819 -130.794728 
L 77.168819 -128.325085 
L 76.009182 -128.325085 
L 76.009182 -133.264371 
L 74.849546 -133.264371 
L 74.849546 -138.203656 
L 73.689909 -138.203656 
L 73.689909 -127.501871 
L 72.530273 -127.501871 
L 72.530273 -113.507228 
L 71.370636 -113.507228 
L 71.370636 -114.330442 
L 70.210999 -114.330442 
L 70.210999 -111.860799 
L 69.051363 -111.860799 
L 69.051363 -112.684013 
L 67.891726 -112.684013 
L 67.891726 -103.628656 
L 66.73209 -103.628656 
L 66.73209 -103.628656 
L 65.572453 -103.628656 
L 65.572453 -106.098299 
L 64.412816 -106.098299 
L 64.412816 -102.805442 
L 63.25318 -102.805442 
L 63.25318 -97.042942 
L 62.093543 -97.042942 
L 62.093543 -98.689371 
L 60.933907 -98.689371 
L 60.933907 -93.750085 
L 59.77427 -93.750085 
L 59.77427 -97.042942 
L 58.614633 -97.042942 
L 58.614633 -92.926871 
L 57.454997 -92.926871 
L 57.454997 -92.926871 
L 56.29536 -92.926871 
L 56.29536 -92.926871 
L 55.135724 -92.926871 
L 55.135724 -94.573299 
L 53.976087 -94.573299 
z
" style="stroke: #1f77b4; stroke-width: 0.8"/>
    </defs>
    <g clip-path="url(#pc0a4beae77)">
     <use xlink:href="#m15684e0ae6" x="0" y="267.558656" style="fill: #1f77b4; fill-opacity: 0.75; stroke: #1f77b4; stroke-width: 0.8"/>
    </g>
   </g>
   <g id="matplotlib.axis_5">
    <g id="xtick_7">
     <g id="line2d_17">
      <g>
       <use xlink:href="#m6732a3c6a0" x="78.814341" y="175.455" style="stroke: #000000; stroke-width: 0.5"/>
      </g>
     </g>
    </g>
    <g id="xtick_8">
     <g id="line2d_18">
      <g>
       <use xlink:href="#m6732a3c6a0" x="126.467669" y="175.455" style="stroke: #000000; stroke-width: 0.5"/>
      </g>
     </g>
    </g>
    <g id="xtick_9">
     <g id="line2d_19">
      <g>
       <use xlink:href="#m6732a3c6a0" x="174.120996" y="175.455" style="stroke: #000000; stroke-width: 0.5"/>
      </g>
     </g>
    </g>
   </g>
   <g id="matplotlib.axis_6">
    <g id="ytick_5">
     <g id="line2d_20">
      <g>
       <use xlink:href="#mf85279c087" x="35.211656" y="175.455" style="stroke: #000000; stroke-width: 0.5"/>
      </g>
     </g>
     <g id="text_9">
      <!-- 0 -->
      <g transform="translate(22.018031 178.604438) scale(0.088 -0.088)">
       <use xlink:href="#ArialMT-30"/>
      </g>
     </g>
    </g>
    <g id="ytick_6">
     <g id="line2d_21">
      <g>
       <use xlink:href="#mf85279c087" x="35.211656" y="134.294286" style="stroke: #000000; stroke-width: 0.5"/>
      </g>
     </g>
     <g id="text_10">
      <!-- 50 -->
      <g transform="translate(17.124406 137.443723) scale(0.088 -0.088)">
       <use xlink:href="#ArialMT-35"/>
       <use xlink:href="#ArialMT-30" x="55.615234"/>
      </g>
     </g>
    </g>
    <g id="text_11">
     <!-- 1K -->
     <g transform="translate(11.335656 156.756563) rotate(-90) scale(0.09 -0.09)">
      <defs>
       <path id="ArialMT-4b" d="M 469 0 
L 469 4581 
L 1075 4581 
L 1075 2309 
L 3350 4581 
L 4172 4581 
L 2250 2725 
L 4256 0 
L 3456 0 
L 1825 2319 
L 1075 1588 
L 1075 0 
L 469 0 
z
" transform="scale(0.015625)"/>
      </defs>
      <use xlink:href="#ArialMT-31"/>
      <use xlink:href="#ArialMT-4b" x="55.615234"/>
     </g>
    </g>
   </g>
   <g id="line2d_22">
    <path d="M 79.800804 175.455 
L 79.800804 -1 
" clip-path="url(#pc0a4beae77)" style="fill: none; stroke: #000000; stroke-width: 1.2; stroke-linecap: square"/>
   </g>
   <g id="line2d_23">
    <path d="M 86.45754 175.455 
L 86.45754 -1 
" clip-path="url(#pc0a4beae77)" style="fill: none; stroke-dasharray: 4.44,1.92; stroke-dashoffset: 0; stroke: #000000; stroke-width: 1.2"/>
   </g>
   <g id="line2d_24">
    <path d="M 93.114276 175.455 
L 93.114276 -1 
" clip-path="url(#pc0a4beae77)" style="fill: none; stroke-dasharray: 4.44,1.92; stroke-dashoffset: 0; stroke: #000000; stroke-width: 1.2"/>
   </g>
   <g id="patch_13">
    <path d="M 35.211656 175.455 
L 35.211656 127.05 
" style="fill: none; stroke: #000000; stroke-width: 0.5; stroke-linejoin: miter; stroke-linecap: square"/>
   </g>
   <g id="patch_14">
    <path d="M 196.251656 175.455 
L 196.251656 127.05 
" style="fill: none; stroke: #000000; stroke-width: 0.5; stroke-linejoin: miter; stroke-linecap: square"/>
   </g>
   <g id="patch_15">
    <path d="M 35.211656 175.455 
L 196.251656 175.455 
" style="fill: none; stroke: #000000; stroke-width: 0.5; stroke-linejoin: miter; stroke-linecap: square"/>
   </g>
   <g id="patch_16">
    <path d="M 35.211656 127.05 
L 196.251656 127.05 
" style="fill: none; stroke: #000000; stroke-width: 0.5; stroke-linejoin: miter; stroke-linecap: square"/>
   </g>
   <g id="text_12">
    <!-- mad + median = 1.16 -->
    <g transform="translate(112.493707 137.61675) scale(0.08 -0.08)">
     <defs>
      <path id="ArialMT-36" d="M 3184 3459 
L 2625 3416 
Q 2550 3747 2413 3897 
Q 2184 4138 1850 4138 
Q 1581 4138 1378 3988 
Q 1113 3794 959 3422 
Q 806 3050 800 2363 
Q 1003 2672 1297 2822 
Q 1591 2972 1913 2972 
Q 2475 2972 2870 2558 
Q 3266 2144 3266 1488 
Q 3266 1056 3080 686 
Q 2894 316 2569 119 
Q 2244 -78 1831 -78 
Q 1128 -78 684 439 
Q 241 956 241 2144 
Q 241 3472 731 4075 
Q 1159 4600 1884 4600 
Q 2425 4600 2770 4297 
Q 3116 3994 3184 3459 
z
M 888 1484 
Q 888 1194 1011 928 
Q 1134 663 1356 523 
Q 1578 384 1822 384 
Q 2178 384 2434 671 
Q 2691 959 2691 1453 
Q 2691 1928 2437 2201 
Q 2184 2475 1800 2475 
Q 1419 2475 1153 2201 
Q 888 1928 888 1484 
z
" transform="scale(0.015625)"/>
     </defs>
     <use xlink:href="#ArialMT-6d"/>
     <use xlink:href="#ArialMT-61" x="83.300781"/>
     <use xlink:href="#ArialMT-64" x="138.916016"/>
     <use xlink:href="#ArialMT-20" x="194.53125"/>
     <use xlink:href="#ArialMT-2b" x="222.314453"/>
     <use xlink:href="#ArialMT-20" x="280.712891"/>
     <use xlink:href="#ArialMT-6d" x="308.496094"/>
     <use xlink:href="#ArialMT-65" x="391.796875"/>
     <use xlink:href="#ArialMT-64" x="447.412109"/>
     <use xlink:href="#ArialMT-69" x="503.027344"/>
     <use xlink:href="#ArialMT-61" x="525.244141"/>
     <use xlink:href="#ArialMT-6e" x="580.859375"/>
     <use xlink:href="#ArialMT-20" x="636.474609"/>
     <use xlink:href="#ArialMT-3d" x="664.257812"/>
     <use xlink:href="#ArialMT-20" x="722.65625"/>
     <use xlink:href="#ArialMT-31" x="750.439453"/>
     <use xlink:href="#ArialMT-2e" x="806.054688"/>
     <use xlink:href="#ArialMT-31" x="833.837891"/>
     <use xlink:href="#ArialMT-36" x="889.453125"/>
    </g>
   </g>
  </g>
  <g id="axes_4">
   <g id="patch_17">
    <path d="M 35.211656 238.98 
L 196.251656 238.98 
L 196.251656 190.575 
L 35.211656 190.575 
L 35.211656 238.98 
z
" style="fill: none"/>
   </g>
   <g id="PolyCollection_4">
    <defs>
     <path id="m3a2afb8cc5" d="M 42.531656 -29.214518 
L 42.531656 -28.578656 
L 43.698575 -28.578656 
L 43.698575 -28.578656 
L 44.865494 -28.578656 
L 44.865494 -28.578656 
L 46.032413 -28.578656 
L 46.032413 -28.578656 
L 47.199332 -28.578656 
L 47.199332 -28.578656 
L 48.366251 -28.578656 
L 48.366251 -28.578656 
L 49.53317 -28.578656 
L 49.53317 -28.578656 
L 50.700089 -28.578656 
L 50.700089 -28.578656 
L 51.867008 -28.578656 
L 51.867008 -28.578656 
L 53.033927 -28.578656 
L 53.033927 -28.578656 
L 54.200846 -28.578656 
L 54.200846 -28.578656 
L 55.367765 -28.578656 
L 55.367765 -28.578656 
L 56.534685 -28.578656 
L 56.534685 -28.578656 
L 57.701604 -28.578656 
L 57.701604 -28.578656 
L 58.868523 -28.578656 
L 58.868523 -28.578656 
L 60.035442 -28.578656 
L 60.035442 -28.578656 
L 61.202361 -28.578656 
L 61.202361 -28.578656 
L 62.36928 -28.578656 
L 62.36928 -28.578656 
L 63.536199 -28.578656 
L 63.536199 -28.578656 
L 64.703118 -28.578656 
L 64.703118 -28.578656 
L 65.870037 -28.578656 
L 65.870037 -28.578656 
L 67.036956 -28.578656 
L 67.036956 -28.578656 
L 68.203875 -28.578656 
L 68.203875 -28.578656 
L 69.370794 -28.578656 
L 69.370794 -28.578656 
L 70.537713 -28.578656 
L 70.537713 -28.578656 
L 71.704632 -28.578656 
L 71.704632 -28.578656 
L 72.871551 -28.578656 
L 72.871551 -28.578656 
L 74.03847 -28.578656 
L 74.03847 -28.578656 
L 75.205389 -28.578656 
L 75.205389 -28.578656 
L 76.372308 -28.578656 
L 76.372308 -28.578656 
L 77.539227 -28.578656 
L 77.539227 -28.578656 
L 78.706146 -28.578656 
L 78.706146 -28.578656 
L 79.873065 -28.578656 
L 79.873065 -28.578656 
L 81.039984 -28.578656 
L 81.039984 -28.578656 
L 82.206903 -28.578656 
L 82.206903 -28.578656 
L 83.373822 -28.578656 
L 83.373822 -28.578656 
L 84.540741 -28.578656 
L 84.540741 -28.578656 
L 85.70766 -28.578656 
L 85.70766 -28.578656 
L 86.874579 -28.578656 
L 86.874579 -28.578656 
L 88.041498 -28.578656 
L 88.041498 -28.578656 
L 89.208417 -28.578656 
L 89.208417 -28.578656 
L 90.375336 -28.578656 
L 90.375336 -28.578656 
L 91.542255 -28.578656 
L 91.542255 -28.578656 
L 92.709174 -28.578656 
L 92.709174 -28.578656 
L 93.876093 -28.578656 
L 93.876093 -28.578656 
L 95.043012 -28.578656 
L 95.043012 -28.578656 
L 96.209931 -28.578656 
L 96.209931 -28.578656 
L 97.37685 -28.578656 
L 97.37685 -28.578656 
L 98.543769 -28.578656 
L 98.543769 -28.578656 
L 99.710688 -28.578656 
L 99.710688 -28.578656 
L 100.877607 -28.578656 
L 100.877607 -28.578656 
L 102.044526 -28.578656 
L 102.044526 -28.578656 
L 103.211445 -28.578656 
L 103.211445 -28.578656 
L 104.378364 -28.578656 
L 104.378364 -28.578656 
L 105.545283 -28.578656 
L 105.545283 -28.578656 
L 106.712202 -28.578656 
L 106.712202 -28.578656 
L 107.879121 -28.578656 
L 107.879121 -28.578656 
L 109.046041 -28.578656 
L 109.046041 -28.578656 
L 110.21296 -28.578656 
L 110.21296 -28.578656 
L 111.379879 -28.578656 
L 111.379879 -28.578656 
L 112.546798 -28.578656 
L 112.546798 -28.578656 
L 113.713717 -28.578656 
L 113.713717 -28.578656 
L 114.880636 -28.578656 
L 114.880636 -28.578656 
L 116.047555 -28.578656 
L 116.047555 -28.578656 
L 117.214474 -28.578656 
L 117.214474 -28.578656 
L 118.381393 -28.578656 
L 118.381393 -28.578656 
L 119.548312 -28.578656 
L 119.548312 -28.578656 
L 120.715231 -28.578656 
L 120.715231 -28.578656 
L 121.88215 -28.578656 
L 121.88215 -28.578656 
L 123.049069 -28.578656 
L 123.049069 -28.578656 
L 124.215988 -28.578656 
L 124.215988 -28.578656 
L 125.382907 -28.578656 
L 125.382907 -28.578656 
L 126.549826 -28.578656 
L 126.549826 -28.578656 
L 127.716745 -28.578656 
L 127.716745 -28.578656 
L 128.883664 -28.578656 
L 128.883664 -28.578656 
L 130.050583 -28.578656 
L 130.050583 -28.578656 
L 131.217502 -28.578656 
L 131.217502 -28.578656 
L 132.384421 -28.578656 
L 132.384421 -28.578656 
L 133.55134 -28.578656 
L 133.55134 -28.578656 
L 134.718259 -28.578656 
L 134.718259 -28.578656 
L 135.885178 -28.578656 
L 135.885178 -28.578656 
L 137.052097 -28.578656 
L 137.052097 -28.578656 
L 138.219016 -28.578656 
L 138.219016 -28.578656 
L 139.385935 -28.578656 
L 139.385935 -28.578656 
L 140.552854 -28.578656 
L 140.552854 -28.578656 
L 141.719773 -28.578656 
L 141.719773 -28.578656 
L 142.886692 -28.578656 
L 142.886692 -28.578656 
L 144.053611 -28.578656 
L 144.053611 -28.578656 
L 145.22053 -28.578656 
L 145.22053 -28.578656 
L 146.387449 -28.578656 
L 146.387449 -28.578656 
L 147.554368 -28.578656 
L 147.554368 -28.578656 
L 148.721287 -28.578656 
L 148.721287 -28.578656 
L 149.888206 -28.578656 
L 149.888206 -28.578656 
L 151.055125 -28.578656 
L 151.055125 -28.578656 
L 152.222044 -28.578656 
L 152.222044 -28.578656 
L 153.388963 -28.578656 
L 153.388963 -28.578656 
L 154.555882 -28.578656 
L 154.555882 -28.578656 
L 155.722801 -28.578656 
L 155.722801 -28.578656 
L 156.88972 -28.578656 
L 156.88972 -28.578656 
L 158.056639 -28.578656 
L 158.056639 -28.578656 
L 159.223558 -28.578656 
L 159.223558 -28.578656 
L 159.223558 -28.896587 
L 159.223558 -28.896587 
L 159.223558 -28.896587 
L 158.056639 -28.896587 
L 158.056639 -28.578656 
L 156.88972 -28.578656 
L 156.88972 -28.578656 
L 155.722801 -28.578656 
L 155.722801 -28.578656 
L 154.555882 -28.578656 
L 154.555882 -28.578656 
L 153.388963 -28.578656 
L 153.388963 -28.578656 
L 152.222044 -28.578656 
L 152.222044 -28.578656 
L 151.055125 -28.578656 
L 151.055125 -28.578656 
L 149.888206 -28.578656 
L 149.888206 -28.578656 
L 148.721287 -28.578656 
L 148.721287 -28.578656 
L 147.554368 -28.578656 
L 147.554368 -28.578656 
L 146.387449 -28.578656 
L 146.387449 -28.578656 
L 145.22053 -28.578656 
L 145.22053 -28.578656 
L 144.053611 -28.578656 
L 144.053611 -28.578656 
L 142.886692 -28.578656 
L 142.886692 -28.578656 
L 141.719773 -28.578656 
L 141.719773 -28.578656 
L 140.552854 -28.578656 
L 140.552854 -28.578656 
L 139.385935 -28.578656 
L 139.385935 -28.578656 
L 138.219016 -28.578656 
L 138.219016 -28.578656 
L 137.052097 -28.578656 
L 137.052097 -28.578656 
L 135.885178 -28.578656 
L 135.885178 -28.578656 
L 134.718259 -28.578656 
L 134.718259 -28.578656 
L 133.55134 -28.578656 
L 133.55134 -28.578656 
L 132.384421 -28.578656 
L 132.384421 -28.578656 
L 131.217502 -28.578656 
L 131.217502 -28.578656 
L 130.050583 -28.578656 
L 130.050583 -28.896587 
L 128.883664 -28.896587 
L 128.883664 -28.578656 
L 127.716745 -28.578656 
L 127.716745 -28.578656 
L 126.549826 -28.578656 
L 126.549826 -28.578656 
L 125.382907 -28.578656 
L 125.382907 -28.578656 
L 124.215988 -28.578656 
L 124.215988 -28.578656 
L 123.049069 -28.578656 
L 123.049069 -28.578656 
L 121.88215 -28.578656 
L 121.88215 -28.578656 
L 120.715231 -28.578656 
L 120.715231 -28.578656 
L 119.548312 -28.578656 
L 119.548312 -29.532449 
L 118.381393 -29.532449 
L 118.381393 -28.578656 
L 117.214474 -28.578656 
L 117.214474 -28.578656 
L 116.047555 -28.578656 
L 116.047555 -28.896587 
L 114.880636 -28.896587 
L 114.880636 -28.578656 
L 113.713717 -28.578656 
L 113.713717 -29.214518 
L 112.546798 -29.214518 
L 112.546798 -28.578656 
L 111.379879 -28.578656 
L 111.379879 -28.896587 
L 110.21296 -28.896587 
L 110.21296 -28.896587 
L 109.046041 -28.896587 
L 109.046041 -29.214518 
L 107.879121 -29.214518 
L 107.879121 -29.214518 
L 106.712202 -29.214518 
L 106.712202 -29.85038 
L 105.545283 -29.85038 
L 105.545283 -29.85038 
L 104.378364 -29.85038 
L 104.378364 -31.440036 
L 103.211445 -31.440036 
L 103.211445 -31.122105 
L 102.044526 -31.122105 
L 102.044526 -29.214518 
L 100.877607 -29.214518 
L 100.877607 -29.532449 
L 99.710688 -29.532449 
L 99.710688 -32.075898 
L 98.543769 -32.075898 
L 98.543769 -32.075898 
L 97.37685 -32.075898 
L 97.37685 -32.075898 
L 96.209931 -32.075898 
L 96.209931 -34.619346 
L 95.043012 -34.619346 
L 95.043012 -34.619346 
L 93.876093 -34.619346 
L 93.876093 -32.393829 
L 92.709174 -32.393829 
L 92.709174 -35.89107 
L 91.542255 -35.89107 
L 91.542255 -37.798656 
L 90.375336 -37.798656 
L 90.375336 -36.844863 
L 89.208417 -36.844863 
L 89.208417 -39.07038 
L 88.041498 -39.07038 
L 88.041498 -45.11107 
L 86.874579 -45.11107 
L 86.874579 -42.249691 
L 85.70766 -42.249691 
L 85.70766 -45.746932 
L 84.540741 -45.746932 
L 84.540741 -45.429001 
L 83.373822 -45.429001 
L 83.373822 -53.377277 
L 82.206903 -53.377277 
L 82.206903 -52.105553 
L 81.039984 -52.105553 
L 81.039984 -55.284863 
L 79.873065 -55.284863 
L 79.873065 -61.325553 
L 78.706146 -61.325553 
L 78.706146 -74.678656 
L 77.539227 -74.678656 
L 77.539227 -69.59176 
L 76.372308 -69.59176 
L 76.372308 -69.273829 
L 75.205389 -69.273829 
L 75.205389 -69.273829 
L 74.03847 -69.273829 
L 74.03847 -67.684173 
L 72.871551 -67.684173 
L 72.871551 -67.048311 
L 71.704632 -67.048311 
L 71.704632 -53.695208 
L 70.537713 -53.695208 
L 70.537713 -56.556587 
L 69.370794 -56.556587 
L 69.370794 -47.336587 
L 68.203875 -47.336587 
L 68.203875 -41.93176 
L 67.036956 -41.93176 
L 67.036956 -37.162794 
L 65.870037 -37.162794 
L 65.870037 -36.526932 
L 64.703118 -36.526932 
L 64.703118 -32.71176 
L 63.536199 -32.71176 
L 63.536199 -31.440036 
L 62.36928 -31.440036 
L 62.36928 -30.804173 
L 61.202361 -30.804173 
L 61.202361 -30.486242 
L 60.035442 -30.486242 
L 60.035442 -30.486242 
L 58.868523 -30.486242 
L 58.868523 -31.122105 
L 57.701604 -31.122105 
L 57.701604 -28.896587 
L 56.534685 -28.896587 
L 56.534685 -30.168311 
L 55.367765 -30.168311 
L 55.367765 -29.85038 
L 54.200846 -29.85038 
L 54.200846 -30.486242 
L 53.033927 -30.486242 
L 53.033927 -30.168311 
L 51.867008 -30.168311 
L 51.867008 -29.214518 
L 50.700089 -29.214518 
L 50.700089 -28.578656 
L 49.53317 -28.578656 
L 49.53317 -28.578656 
L 48.366251 -28.578656 
L 48.366251 -29.214518 
L 47.199332 -29.214518 
L 47.199332 -28.578656 
L 46.032413 -28.578656 
L 46.032413 -28.896587 
L 44.865494 -28.896587 
L 44.865494 -28.578656 
L 43.698575 -28.578656 
L 43.698575 -29.214518 
L 42.531656 -29.214518 
z
" style="stroke: #1f77b4; stroke-width: 0.8"/>
    </defs>
    <g clip-path="url(#pe2939116fb)">
     <use xlink:href="#m3a2afb8cc5" x="0" y="267.558656" style="fill: #1f77b4; fill-opacity: 0.75; stroke: #1f77b4; stroke-width: 0.8"/>
    </g>
   </g>
   <g id="matplotlib.axis_7">
    <g id="xtick_10">
     <g id="line2d_25">
      <g>
       <use xlink:href="#m6732a3c6a0" x="78.814341" y="238.98" style="stroke: #000000; stroke-width: 0.5"/>
      </g>
     </g>
     <g id="text_13">
      <!-- 1 -->
      <g transform="translate(76.367528 253.578875) scale(0.088 -0.088)">
       <use xlink:href="#ArialMT-31"/>
      </g>
     </g>
    </g>
    <g id="xtick_11">
     <g id="line2d_26">
      <g>
       <use xlink:href="#m6732a3c6a0" x="126.467669" y="238.98" style="stroke: #000000; stroke-width: 0.5"/>
      </g>
     </g>
     <g id="text_14">
      <!-- 2 -->
      <g transform="translate(124.020856 253.578875) scale(0.088 -0.088)">
       <use xlink:href="#ArialMT-32"/>
      </g>
     </g>
    </g>
    <g id="xtick_12">
     <g id="line2d_27">
      <g>
       <use xlink:href="#m6732a3c6a0" x="174.120996" y="238.98" style="stroke: #000000; stroke-width: 0.5"/>
      </g>
     </g>
     <g id="text_15">
      <!-- 3 -->
      <g transform="translate(171.674184 253.578875) scale(0.088 -0.088)">
       <defs>
        <path id="ArialMT-33" d="M 269 1209 
L 831 1284 
Q 928 806 1161 595 
Q 1394 384 1728 384 
Q 2125 384 2398 659 
Q 2672 934 2672 1341 
Q 2672 1728 2419 1979 
Q 2166 2231 1775 2231 
Q 1616 2231 1378 2169 
L 1441 2663 
Q 1497 2656 1531 2656 
Q 1891 2656 2178 2843 
Q 2466 3031 2466 3422 
Q 2466 3731 2256 3934 
Q 2047 4138 1716 4138 
Q 1388 4138 1169 3931 
Q 950 3725 888 3313 
L 325 3413 
Q 428 3978 793 4289 
Q 1159 4600 1703 4600 
Q 2078 4600 2393 4439 
Q 2709 4278 2876 4000 
Q 3044 3722 3044 3409 
Q 3044 3113 2884 2869 
Q 2725 2625 2413 2481 
Q 2819 2388 3044 2092 
Q 3269 1797 3269 1353 
Q 3269 753 2831 336 
Q 2394 -81 1725 -81 
Q 1122 -81 723 278 
Q 325 638 269 1209 
z
" transform="scale(0.015625)"/>
       </defs>
       <use xlink:href="#ArialMT-33"/>
      </g>
     </g>
    </g>
    <g id="text_16">
     <!-- Ratio -->
     <g transform="translate(105.226969 265.769906) scale(0.09 -0.09)">
      <defs>
       <path id="ArialMT-52" d="M 503 0 
L 503 4581 
L 2534 4581 
Q 3147 4581 3465 4457 
Q 3784 4334 3975 4021 
Q 4166 3709 4166 3331 
Q 4166 2844 3850 2509 
Q 3534 2175 2875 2084 
Q 3116 1969 3241 1856 
Q 3506 1613 3744 1247 
L 4541 0 
L 3778 0 
L 3172 953 
Q 2906 1366 2734 1584 
Q 2563 1803 2427 1890 
Q 2291 1978 2150 2013 
Q 2047 2034 1813 2034 
L 1109 2034 
L 1109 0 
L 503 0 
z
M 1109 2559 
L 2413 2559 
Q 2828 2559 3062 2645 
Q 3297 2731 3419 2920 
Q 3541 3109 3541 3331 
Q 3541 3656 3305 3865 
Q 3069 4075 2559 4075 
L 1109 4075 
L 1109 2559 
z
" transform="scale(0.015625)"/>
       <path id="ArialMT-74" d="M 1650 503 
L 1731 6 
Q 1494 -44 1306 -44 
Q 1000 -44 831 53 
Q 663 150 594 308 
Q 525 466 525 972 
L 525 2881 
L 113 2881 
L 113 3319 
L 525 3319 
L 525 4141 
L 1084 4478 
L 1084 3319 
L 1650 3319 
L 1650 2881 
L 1084 2881 
L 1084 941 
Q 1084 700 1114 631 
Q 1144 563 1211 522 
Q 1278 481 1403 481 
Q 1497 481 1650 503 
z
" transform="scale(0.015625)"/>
       <path id="ArialMT-6f" d="M 213 1659 
Q 213 2581 725 3025 
Q 1153 3394 1769 3394 
Q 2453 3394 2887 2945 
Q 3322 2497 3322 1706 
Q 3322 1066 3130 698 
Q 2938 331 2570 128 
Q 2203 -75 1769 -75 
Q 1072 -75 642 372 
Q 213 819 213 1659 
z
M 791 1659 
Q 791 1022 1069 705 
Q 1347 388 1769 388 
Q 2188 388 2466 706 
Q 2744 1025 2744 1678 
Q 2744 2294 2464 2611 
Q 2184 2928 1769 2928 
Q 1347 2928 1069 2612 
Q 791 2297 791 1659 
z
" transform="scale(0.015625)"/>
      </defs>
      <use xlink:href="#ArialMT-52"/>
      <use xlink:href="#ArialMT-61" x="72.216797"/>
      <use xlink:href="#ArialMT-74" x="127.832031"/>
      <use xlink:href="#ArialMT-69" x="155.615234"/>
      <use xlink:href="#ArialMT-6f" x="177.832031"/>
     </g>
    </g>
   </g>
   <g id="matplotlib.axis_8">
    <g id="ytick_7">
     <g id="line2d_28">
      <g>
       <use xlink:href="#mf85279c087" x="35.211656" y="238.98" style="stroke: #000000; stroke-width: 0.5"/>
      </g>
     </g>
     <g id="text_17">
      <!-- 0 -->
      <g transform="translate(22.018031 242.129438) scale(0.088 -0.088)">
       <use xlink:href="#ArialMT-30"/>
      </g>
     </g>
    </g>
    <g id="ytick_8">
     <g id="line2d_29">
      <g>
       <use xlink:href="#mf85279c087" x="35.211656" y="207.186897" style="stroke: #000000; stroke-width: 0.5"/>
      </g>
     </g>
     <g id="text_18">
      <!-- 100 -->
      <g transform="translate(12.230781 210.336334) scale(0.088 -0.088)">
       <use xlink:href="#ArialMT-31"/>
       <use xlink:href="#ArialMT-30" x="55.615234"/>
       <use xlink:href="#ArialMT-30" x="111.230469"/>
      </g>
     </g>
    </g>
    <g id="text_19">
     <!-- 2K -->
     <g transform="translate(6.442031 220.281563) rotate(-90) scale(0.09 -0.09)">
      <use xlink:href="#ArialMT-32"/>
      <use xlink:href="#ArialMT-4b" x="55.615234"/>
     </g>
    </g>
   </g>
   <g id="line2d_30">
    <path d="M 77.046235 238.98 
L 77.046235 -1 
" clip-path="url(#pe2939116fb)" style="fill: none; stroke: #000000; stroke-width: 1.2; stroke-linecap: square"/>
   </g>
   <g id="line2d_31">
    <path d="M 81.92302 238.98 
L 81.92302 -1 
" clip-path="url(#pe2939116fb)" style="fill: none; stroke-dasharray: 4.44,1.92; stroke-dashoffset: 0; stroke: #000000; stroke-width: 1.2"/>
   </g>
   <g id="line2d_32">
    <path d="M 86.799804 238.98 
L 86.799804 -1 
" clip-path="url(#pe2939116fb)" style="fill: none; stroke-dasharray: 4.44,1.92; stroke-dashoffset: 0; stroke: #000000; stroke-width: 1.2"/>
   </g>
   <g id="patch_18">
    <path d="M 35.211656 238.98 
L 35.211656 190.575 
" style="fill: none; stroke: #000000; stroke-width: 0.5; stroke-linejoin: miter; stroke-linecap: square"/>
   </g>
   <g id="patch_19">
    <path d="M 196.251656 238.98 
L 196.251656 190.575 
" style="fill: none; stroke: #000000; stroke-width: 0.5; stroke-linejoin: miter; stroke-linecap: square"/>
   </g>
   <g id="patch_20">
    <path d="M 35.211656 238.98 
L 196.251656 238.98 
" style="fill: none; stroke: #000000; stroke-width: 0.5; stroke-linejoin: miter; stroke-linecap: square"/>
   </g>
   <g id="patch_21">
    <path d="M 35.211656 190.575 
L 196.251656 190.575 
" style="fill: none; stroke: #000000; stroke-width: 0.5; stroke-linejoin: miter; stroke-linecap: square"/>
   </g>
   <g id="text_20">
    <!-- mad + median = 1.07 -->
    <g transform="translate(112.493707 201.14175) scale(0.08 -0.08)">
     <defs>
      <path id="ArialMT-37" d="M 303 3981 
L 303 4522 
L 3269 4522 
L 3269 4084 
Q 2831 3619 2401 2847 
Q 1972 2075 1738 1259 
Q 1569 684 1522 0 
L 944 0 
Q 953 541 1156 1306 
Q 1359 2072 1739 2783 
Q 2119 3494 2547 3981 
L 303 3981 
z
" transform="scale(0.015625)"/>
     </defs>
     <use xlink:href="#ArialMT-6d"/>
     <use xlink:href="#ArialMT-61" x="83.300781"/>
     <use xlink:href="#ArialMT-64" x="138.916016"/>
     <use xlink:href="#ArialMT-20" x="194.53125"/>
     <use xlink:href="#ArialMT-2b" x="222.314453"/>
     <use xlink:href="#ArialMT-20" x="280.712891"/>
     <use xlink:href="#ArialMT-6d" x="308.496094"/>
     <use xlink:href="#ArialMT-65" x="391.796875"/>
     <use xlink:href="#ArialMT-64" x="447.412109"/>
     <use xlink:href="#ArialMT-69" x="503.027344"/>
     <use xlink:href="#ArialMT-61" x="525.244141"/>
     <use xlink:href="#ArialMT-6e" x="580.859375"/>
     <use xlink:href="#ArialMT-20" x="636.474609"/>
     <use xlink:href="#ArialMT-3d" x="664.257812"/>
     <use xlink:href="#ArialMT-20" x="722.65625"/>
     <use xlink:href="#ArialMT-31" x="750.439453"/>
     <use xlink:href="#ArialMT-2e" x="806.054688"/>
     <use xlink:href="#ArialMT-30" x="833.837891"/>
     <use xlink:href="#ArialMT-37" x="889.453125"/>
    </g>
   </g>
  </g>
 </g>
 <defs>
  <clipPath id="pa6f9389b8c">
   <rect x="35.211656" y="0" width="161.04" height="48.405"/>
  </clipPath>
  <clipPath id="p2a99048b5b">
   <rect x="35.211656" y="63.525" width="161.04" height="48.405"/>
  </clipPath>
  <clipPath id="pc0a4beae77">
   <rect x="35.211656" y="127.05" width="161.04" height="48.405"/>
  </clipPath>
  <clipPath id="pe2939116fb">
   <rect x="35.211656" y="190.575" width="161.04" height="48.405"/>
  </clipPath>
 </defs>
</svg>
