<?xml version="1.0" encoding="utf-8" standalone="no"?>
<!DOCTYPE svg PUBLIC "-//W3C//DTD SVG 1.1//EN"
  "http://www.w3.org/Graphics/SVG/1.1/DTD/svg11.dtd">
<svg xmlns:xlink="http://www.w3.org/1999/xlink" width="160.775165pt" height="159.558656pt" viewBox="0 0 160.775165 159.558656" xmlns="http://www.w3.org/2000/svg" version="1.1">
 <metadata>
  <rdf:RDF xmlns:dc="http://purl.org/dc/elements/1.1/" xmlns:cc="http://creativecommons.org/ns#" xmlns:rdf="http://www.w3.org/1999/02/22-rdf-syntax-ns#">
   <cc:Work>
    <dc:type rdf:resource="http://purl.org/dc/dcmitype/StillImage"/>
    <dc:date>2025-05-27T13:27:53.628121</dc:date>
    <dc:format>image/svg+xml</dc:format>
    <dc:creator>
     <cc:Agent>
      <dc:title>Matplotlib v3.8.4, https://matplotlib.org/</dc:title>
     </cc:Agent>
    </dc:creator>
   </cc:Work>
  </rdf:RDF>
 </metadata>
 <defs>
  <style type="text/css">*{stroke-linejoin: round; stroke-linecap: butt}</style>
 </defs>
 <g id="figure_1">
  <g id="patch_1">
   <path d="M 0 159.558656 
L 160.775165 159.558656 
L 160.775165 0 
L 0 0 
L 0 159.558656 
z
" style="fill: none"/>
  </g>
  <g id="axes_1">
   <g id="patch_2">
    <path d="M 38.008 130.98 
L 157.833214 130.98 
L 157.833214 0 
L 38.008 0 
L 38.008 130.98 
z
" style="fill: none"/>
   </g>
   <g id="PolyCollection_1"/>
   <g id="PolyCollection_2">
    <defs>
     <path id="m1823435d6f" d="M 43.454601 -60.059741 
L 43.454601 -34.532293 
L 44.001998 -34.590694 
L 44.549395 -34.653242 
L 45.096792 -34.720224 
L 45.644189 -34.791948 
L 46.191586 -34.86874 
L 46.738983 -34.950949 
L 47.28638 -35.038947 
L 47.833777 -35.133128 
L 48.381174 -35.233911 
L 48.928571 -35.341744 
L 49.475968 -35.4571 
L 50.023365 -35.580483 
L 50.570762 -35.712425 
L 51.118159 -35.853492 
L 51.665556 -36.004283 
L 52.212953 -36.16543 
L 52.76035 -36.337603 
L 53.307748 -36.521507 
L 53.855145 -36.717886 
L 54.402542 -36.927523 
L 54.949939 -37.151242 
L 55.497336 -37.389906 
L 56.044733 -37.644422 
L 56.59213 -37.915735 
L 57.139527 -38.204835 
L 57.686924 -38.51275 
L 58.234321 -38.840552 
L 58.781718 -39.189348 
L 59.329115 -39.560286 
L 59.876512 -39.954546 
L 60.423909 -40.373343 
L 60.971306 -40.817917 
L 61.518703 -41.289535 
L 62.0661 -41.789479 
L 62.613497 -42.319046 
L 63.160894 -42.879536 
L 63.708291 -43.472245 
L 64.255689 -44.098457 
L 64.803086 -44.759431 
L 65.350483 -45.456391 
L 65.89788 -46.190512 
L 66.445277 -46.962906 
L 66.992674 -47.774609 
L 67.540071 -48.62656 
L 68.087468 -49.51959 
L 68.634865 -50.4544 
L 69.182262 -51.431544 
L 69.729659 -52.451414 
L 70.277056 -53.514215 
L 70.824453 -54.619955 
L 71.37185 -55.768421 
L 71.919247 -56.95917 
L 72.466644 -58.191509 
L 73.014041 -59.464486 
L 73.561438 -60.776883 
L 74.108835 -62.127202 
L 74.656232 -63.513673 
L 75.203629 -64.934243 
L 75.751027 -66.38659 
L 76.298424 -67.868127 
L 76.845821 -69.376018 
L 77.393218 -70.907193 
L 77.940615 -72.458372 
L 78.488012 -74.026089 
L 79.035409 -75.606724 
L 79.582806 -77.196532 
L 80.130203 -78.791679 
L 80.6776 -80.388282 
L 81.224997 -81.98244 
L 81.772394 -83.570279 
L 82.319791 -85.147984 
L 82.867188 -86.71184 
L 83.414585 -88.258261 
L 83.961982 -89.783827 
L 84.509379 -91.285308 
L 85.056776 -92.759694 
L 85.604173 -94.204207 
L 86.15157 -95.616329 
L 86.698968 -96.993804 
L 87.246365 -98.334652 
L 87.793762 -99.63717 
L 88.341159 -100.899935 
L 88.888556 -102.121793 
L 89.435953 -103.301862 
L 89.98335 -104.439513 
L 90.530747 -105.534361 
L 91.078144 -106.586254 
L 91.625541 -107.595248 
L 92.172938 -108.5616 
L 92.720335 -109.485743 
L 93.267732 -110.368272 
L 93.815129 -111.20992 
L 94.362526 -112.011549 
L 94.909923 -112.774125 
L 95.45732 -113.498703 
L 96.004717 -114.186412 
L 96.552114 -114.838443 
L 97.099511 -115.456028 
L 97.646908 -116.040434 
L 98.194306 -116.59295 
L 98.741703 -117.114872 
L 99.2891 -117.607502 
L 99.836497 -118.072132 
L 100.383894 -118.510043 
L 100.931291 -118.922493 
L 101.478688 -119.310718 
L 102.026085 -119.675924 
L 102.573482 -120.019283 
L 103.120879 -120.341932 
L 103.668276 -120.64497 
L 104.215673 -120.929458 
L 104.76307 -121.196414 
L 105.310467 -121.446817 
L 105.857864 -121.681603 
L 106.405261 -121.901666 
L 106.952658 -122.107861 
L 107.500055 -122.301 
L 108.047452 -122.481856 
L 108.594849 -122.651164 
L 109.142247 -122.80962 
L 109.689644 -122.957883 
L 110.237041 -123.096578 
L 110.784438 -123.226295 
L 111.331835 -123.34759 
L 111.879232 -123.460989 
L 112.426629 -123.566989 
L 112.974026 -123.666055 
L 113.521423 -123.758627 
L 114.06882 -123.845118 
L 114.616217 -123.925918 
L 115.163614 -124.001391 
L 115.711011 -124.071881 
L 116.258408 -124.137709 
L 116.805805 -124.199178 
L 117.353202 -124.25657 
L 117.900599 -124.310151 
L 118.447996 -124.360171 
L 118.995393 -124.406863 
L 119.54279 -124.450444 
L 120.090188 -124.491119 
L 120.637585 -124.52908 
L 121.184982 -124.564506 
L 121.732379 -124.597564 
L 122.279776 -124.628411 
L 122.827173 -124.657194 
L 123.37457 -124.684049 
L 123.921967 -124.709104 
L 124.469364 -124.73248 
L 125.016761 -124.754288 
L 125.564158 -124.774632 
L 126.111555 -124.79361 
L 126.658952 -124.811314 
L 127.206349 -124.827828 
L 127.753746 -124.843232 
L 128.301143 -124.857601 
L 128.84854 -124.871003 
L 129.395937 -124.883504 
L 129.943334 -124.895163 
L 130.490731 -124.906037 
L 131.038128 -124.91618 
L 131.585526 -124.925639 
L 132.132923 -124.934462 
L 132.68032 -124.94269 
L 133.227717 -124.950363 
L 133.775114 -124.95752 
L 134.322511 -124.964194 
L 134.869908 -124.970418 
L 135.417305 -124.976223 
L 135.964702 -124.981636 
L 136.512099 -124.986684 
L 137.059496 -124.991392 
L 137.606893 -124.995782 
L 138.15429 -124.999876 
L 138.701687 -125.003694 
L 139.249084 -125.007255 
L 139.796481 -125.010575 
L 140.343878 -125.013671 
L 140.891275 -125.016558 
L 141.438672 -125.01925 
L 141.986069 -125.021761 
L 142.533467 -125.024102 
L 143.080864 -125.026285 
L 143.628261 -125.028321 
L 144.175658 -125.03022 
L 144.723055 -125.03199 
L 145.270452 -125.033641 
L 145.817849 -125.03518 
L 146.365246 -125.036616 
L 146.912643 -125.037954 
L 147.46004 -125.039202 
L 148.007437 -125.040366 
L 148.554834 -125.041451 
L 149.102231 -125.042463 
L 149.649628 -125.043407 
L 150.197025 -125.044287 
L 150.744422 -125.045108 
L 151.291819 -125.045873 
L 151.839216 -125.046586 
L 152.386613 -125.047251 
L 152.386613 -150.5747 
L 152.386613 -150.5747 
L 151.839216 -150.574035 
L 151.291819 -150.573321 
L 150.744422 -150.572556 
L 150.197025 -150.571735 
L 149.649628 -150.570856 
L 149.102231 -150.569912 
L 148.554834 -150.5689 
L 148.007437 -150.567815 
L 147.46004 -150.566651 
L 146.912643 -150.565403 
L 146.365246 -150.564064 
L 145.817849 -150.562629 
L 145.270452 -150.561089 
L 144.723055 -150.559439 
L 144.175658 -150.557668 
L 143.628261 -150.55577 
L 143.080864 -150.553734 
L 142.533467 -150.551551 
L 141.986069 -150.54921 
L 141.438672 -150.546699 
L 140.891275 -150.544007 
L 140.343878 -150.541119 
L 139.796481 -150.538023 
L 139.249084 -150.534703 
L 138.701687 -150.531143 
L 138.15429 -150.527325 
L 137.606893 -150.523231 
L 137.059496 -150.51884 
L 136.512099 -150.514133 
L 135.964702 -150.509084 
L 135.417305 -150.503671 
L 134.869908 -150.497867 
L 134.322511 -150.491642 
L 133.775114 -150.484968 
L 133.227717 -150.477812 
L 132.68032 -150.470138 
L 132.132923 -150.46191 
L 131.585526 -150.453088 
L 131.038128 -150.443628 
L 130.490731 -150.433486 
L 129.943334 -150.422611 
L 129.395937 -150.410952 
L 128.84854 -150.398452 
L 128.301143 -150.385049 
L 127.753746 -150.370681 
L 127.206349 -150.355277 
L 126.658952 -150.338762 
L 126.111555 -150.321059 
L 125.564158 -150.30208 
L 125.016761 -150.281736 
L 124.469364 -150.259928 
L 123.921967 -150.236553 
L 123.37457 -150.211497 
L 122.827173 -150.184642 
L 122.279776 -150.15586 
L 121.732379 -150.125013 
L 121.184982 -150.091955 
L 120.637585 -150.056529 
L 120.090188 -150.018568 
L 119.54279 -149.977892 
L 118.995393 -149.934311 
L 118.447996 -149.88762 
L 117.900599 -149.8376 
L 117.353202 -149.784018 
L 116.805805 -149.726626 
L 116.258408 -149.665158 
L 115.711011 -149.59933 
L 115.163614 -149.52884 
L 114.616217 -149.453367 
L 114.06882 -149.372567 
L 113.521423 -149.286075 
L 112.974026 -149.193503 
L 112.426629 -149.094437 
L 111.879232 -148.988438 
L 111.331835 -148.875039 
L 110.784438 -148.753743 
L 110.237041 -148.624027 
L 109.689644 -148.485332 
L 109.142247 -148.337069 
L 108.594849 -148.178613 
L 108.047452 -148.009305 
L 107.500055 -147.828448 
L 106.952658 -147.635309 
L 106.405261 -147.429115 
L 105.857864 -147.209051 
L 105.310467 -146.974266 
L 104.76307 -146.723863 
L 104.215673 -146.456906 
L 103.668276 -146.172419 
L 103.120879 -145.86938 
L 102.573482 -145.546731 
L 102.026085 -145.203372 
L 101.478688 -144.838167 
L 100.931291 -144.449942 
L 100.383894 -144.037491 
L 99.836497 -143.599581 
L 99.2891 -143.134951 
L 98.741703 -142.642321 
L 98.194306 -142.120398 
L 97.646908 -141.567883 
L 97.099511 -140.983476 
L 96.552114 -140.365891 
L 96.004717 -139.713861 
L 95.45732 -139.026151 
L 94.909923 -138.301573 
L 94.362526 -137.538998 
L 93.815129 -136.737369 
L 93.267732 -135.89572 
L 92.720335 -135.013192 
L 92.172938 -134.089049 
L 91.625541 -133.122697 
L 91.078144 -132.113702 
L 90.530747 -131.06181 
L 89.98335 -129.966961 
L 89.435953 -128.829311 
L 88.888556 -127.649242 
L 88.341159 -126.427383 
L 87.793762 -125.164619 
L 87.246365 -123.8621 
L 86.698968 -122.521252 
L 86.15157 -121.143777 
L 85.604173 -119.731656 
L 85.056776 -118.287142 
L 84.509379 -116.812757 
L 83.961982 -115.311275 
L 83.414585 -113.785709 
L 82.867188 -112.239288 
L 82.319791 -110.675433 
L 81.772394 -109.097727 
L 81.224997 -107.509889 
L 80.6776 -105.91573 
L 80.130203 -104.319128 
L 79.582806 -102.72398 
L 79.035409 -101.134172 
L 78.488012 -99.553538 
L 77.940615 -97.98582 
L 77.393218 -96.434642 
L 76.845821 -94.903467 
L 76.298424 -93.395576 
L 75.751027 -91.914039 
L 75.203629 -90.461691 
L 74.656232 -89.041121 
L 74.108835 -87.654651 
L 73.561438 -86.304331 
L 73.014041 -84.991935 
L 72.466644 -83.718957 
L 71.919247 -82.486618 
L 71.37185 -81.29587 
L 70.824453 -80.147403 
L 70.277056 -79.041664 
L 69.729659 -77.978862 
L 69.182262 -76.958993 
L 68.634865 -75.981848 
L 68.087468 -75.047039 
L 67.540071 -74.154009 
L 66.992674 -73.302057 
L 66.445277 -72.490355 
L 65.89788 -71.717961 
L 65.350483 -70.98384 
L 64.803086 -70.28688 
L 64.255689 -69.625906 
L 63.708291 -68.999694 
L 63.160894 -68.406985 
L 62.613497 -67.846495 
L 62.0661 -67.316928 
L 61.518703 -66.816984 
L 60.971306 -66.345366 
L 60.423909 -65.900792 
L 59.876512 -65.481995 
L 59.329115 -65.087734 
L 58.781718 -64.716797 
L 58.234321 -64.368 
L 57.686924 -64.040199 
L 57.139527 -63.732283 
L 56.59213 -63.443183 
L 56.044733 -63.17187 
L 55.497336 -62.917355 
L 54.949939 -62.67869 
L 54.402542 -62.454971 
L 53.855145 -62.245334 
L 53.307748 -62.048955 
L 52.76035 -61.865051 
L 52.212953 -61.692878 
L 51.665556 -61.531731 
L 51.118159 -61.38094 
L 50.570762 -61.239873 
L 50.023365 -61.107931 
L 49.475968 -60.984549 
L 48.928571 -60.869193 
L 48.381174 -60.76136 
L 47.833777 -60.660576 
L 47.28638 -60.566396 
L 46.738983 -60.478398 
L 46.191586 -60.396188 
L 45.644189 -60.319396 
L 45.096792 -60.247673 
L 44.549395 -60.18069 
L 44.001998 -60.118142 
L 43.454601 -60.059741 
z
" style="stroke: #87ceeb; stroke-opacity: 0.2; stroke-width: 0.8"/>
    </defs>
    <g clip-path="url(#pd588bbea3f)">
     <use xlink:href="#m1823435d6f" x="0" y="159.558656" style="fill: #87ceeb; fill-opacity: 0.2; stroke: #87ceeb; stroke-opacity: 0.2; stroke-width: 0.8"/>
    </g>
   </g>
   <g id="PathCollection_1">
    <defs>
     <path id="C0_0_4b452a645b" d="M 0 1.936492 
C 0.513564 1.936492 1.006162 1.732451 1.369306 1.369306 
C 1.732451 1.006162 1.936492 0.513564 1.936492 -0 
C 1.936492 -0.513564 1.732451 -1.006162 1.369306 -1.369306 
C 1.006162 -1.732451 0.513564 -1.936492 0 -1.936492 
C -0.513564 -1.936492 -1.006162 -1.732451 -1.369306 -1.369306 
C -1.732451 -1.006162 -1.936492 -0.513564 -1.936492 0 
C -1.936492 0.513564 -1.732451 1.006162 -1.369306 1.369306 
C -1.006162 1.732451 -0.513564 1.936492 0 1.936492 
z
"/>
    </defs>
    <g clip-path="url(#pd588bbea3f)">
     <use xlink:href="#C0_0_4b452a645b" x="65.876844" y="111.405403" style="stroke: #000000; stroke-width: 0.309839"/>
    </g>
    <g clip-path="url(#pd588bbea3f)">
     <use xlink:href="#C0_0_4b452a645b" x="75.585123" y="105.977888" style="stroke: #000000; stroke-width: 0.309839"/>
    </g>
    <g clip-path="url(#pd588bbea3f)">
     <use xlink:href="#C0_0_4b452a645b" x="71.759571" y="77.922407" style="stroke: #000000; stroke-width: 0.309839"/>
    </g>
    <g clip-path="url(#pd588bbea3f)">
     <use xlink:href="#C0_0_4b452a645b" x="70.405124" y="112.166149" style="stroke: #000000; stroke-width: 0.309839"/>
    </g>
    <g clip-path="url(#pd588bbea3f)">
     <use xlink:href="#C0_0_4b452a645b" x="151.543784" y="11.940735" style="stroke: #000000; stroke-width: 0.309839"/>
    </g>
    <g clip-path="url(#pd588bbea3f)">
     <use xlink:href="#C0_0_4b452a645b" x="55.764461" y="100.521285" style="stroke: #000000; stroke-width: 0.309839"/>
    </g>
    <g clip-path="url(#pd588bbea3f)">
     <use xlink:href="#C0_0_4b452a645b" x="149.815211" y="18.747304" style="stroke: #000000; stroke-width: 0.309839"/>
    </g>
    <g clip-path="url(#pd588bbea3f)">
     <use xlink:href="#C0_0_4b452a645b" x="65.690484" y="104.175639" style="stroke: #000000; stroke-width: 0.309839"/>
    </g>
    <g clip-path="url(#pd588bbea3f)">
     <use xlink:href="#C0_0_4b452a645b" x="66.994357" y="100.797472" style="stroke: #000000; stroke-width: 0.309839"/>
    </g>
    <g clip-path="url(#pd588bbea3f)">
     <use xlink:href="#C0_0_4b452a645b" x="79.567643" y="97.582789" style="stroke: #000000; stroke-width: 0.309839"/>
    </g>
    <g clip-path="url(#pd588bbea3f)">
     <use xlink:href="#C0_0_4b452a645b" x="82.307688" y="53.154849" style="stroke: #000000; stroke-width: 0.309839"/>
    </g>
    <g clip-path="url(#pd588bbea3f)">
     <use xlink:href="#C0_0_4b452a645b" x="152.386613" y="11.317743" style="stroke: #000000; stroke-width: 0.309839"/>
    </g>
    <g clip-path="url(#pd588bbea3f)">
     <use xlink:href="#C0_0_4b452a645b" x="87.506684" y="62.181353" style="stroke: #000000; stroke-width: 0.309839"/>
    </g>
    <g clip-path="url(#pd588bbea3f)">
     <use xlink:href="#C0_0_4b452a645b" x="117.761851" y="38.485072" style="stroke: #000000; stroke-width: 0.309839"/>
    </g>
    <g clip-path="url(#pd588bbea3f)">
     <use xlink:href="#C0_0_4b452a645b" x="81.212722" y="34.124929" style="stroke: #000000; stroke-width: 0.309839"/>
    </g>
    <g clip-path="url(#pd588bbea3f)">
     <use xlink:href="#C0_0_4b452a645b" x="127.729444" y="17.309761" style="stroke: #000000; stroke-width: 0.309839"/>
    </g>
    <g clip-path="url(#pd588bbea3f)">
     <use xlink:href="#C0_0_4b452a645b" x="145.310739" y="18.005369" style="stroke: #000000; stroke-width: 0.309839"/>
    </g>
    <g clip-path="url(#pd588bbea3f)">
     <use xlink:href="#C0_0_4b452a645b" x="94.454912" y="44.364523" style="stroke: #000000; stroke-width: 0.309839"/>
    </g>
    <g clip-path="url(#pd588bbea3f)">
     <use xlink:href="#C0_0_4b452a645b" x="120.522082" y="27.960511" style="stroke: #000000; stroke-width: 0.309839"/>
    </g>
    <g clip-path="url(#pd588bbea3f)">
     <use xlink:href="#C0_0_4b452a645b" x="96.788419" y="18.550298" style="stroke: #000000; stroke-width: 0.309839"/>
    </g>
    <g clip-path="url(#pd588bbea3f)">
     <use xlink:href="#C0_0_4b452a645b" x="51.186646" y="118.176966" style="stroke: #000000; stroke-width: 0.309839"/>
    </g>
    <g clip-path="url(#pd588bbea3f)">
     <use xlink:href="#C0_0_4b452a645b" x="79.170654" y="60.845644" style="stroke: #000000; stroke-width: 0.309839"/>
    </g>
    <g clip-path="url(#pd588bbea3f)">
     <use xlink:href="#C0_0_4b452a645b" x="63.314828" y="74.968186" style="stroke: #000000; stroke-width: 0.309839"/>
    </g>
    <g clip-path="url(#pd588bbea3f)">
     <use xlink:href="#C0_0_4b452a645b" x="76.282631" y="80.297007" style="stroke: #000000; stroke-width: 0.309839"/>
    </g>
    <g clip-path="url(#pd588bbea3f)">
     <use xlink:href="#C0_0_4b452a645b" x="120.261455" y="42.940613" style="stroke: #000000; stroke-width: 0.309839"/>
    </g>
    <g clip-path="url(#pd588bbea3f)">
     <use xlink:href="#C0_0_4b452a645b" x="133.730195" y="28.96282" style="stroke: #000000; stroke-width: 0.309839"/>
    </g>
    <g clip-path="url(#pd588bbea3f)">
     <use xlink:href="#C0_0_4b452a645b" x="61.378858" y="111.405403" style="fill: #ff6347; stroke: #ff6347; stroke-width: 0.309839"/>
    </g>
    <g clip-path="url(#pd588bbea3f)">
     <use xlink:href="#C0_0_4b452a645b" x="69.231786" y="105.977888" style="fill: #ff6347; stroke: #ff6347; stroke-width: 0.309839"/>
    </g>
    <g clip-path="url(#pd588bbea3f)">
     <use xlink:href="#C0_0_4b452a645b" x="65.130553" y="77.922407" style="fill: #ff6347; stroke: #ff6347; stroke-width: 0.309839"/>
    </g>
    <g clip-path="url(#pd588bbea3f)">
     <use xlink:href="#C0_0_4b452a645b" x="63.123114" y="112.166149" style="fill: #ff6347; stroke: #ff6347; stroke-width: 0.309839"/>
    </g>
    <g clip-path="url(#pd588bbea3f)">
     <use xlink:href="#C0_0_4b452a645b" x="145.040053" y="11.940735" style="fill: #ff6347; stroke: #ff6347; stroke-width: 0.309839"/>
    </g>
    <g clip-path="url(#pd588bbea3f)">
     <use xlink:href="#C0_0_4b452a645b" x="62.859686" y="100.521285" style="fill: #ff6347; stroke: #ff6347; stroke-width: 0.309839"/>
    </g>
    <g clip-path="url(#pd588bbea3f)">
     <use xlink:href="#C0_0_4b452a645b" x="132.809574" y="18.747304" style="fill: #ff6347; stroke: #ff6347; stroke-width: 0.309839"/>
    </g>
    <g clip-path="url(#pd588bbea3f)">
     <use xlink:href="#C0_0_4b452a645b" x="59.49816" y="104.175639" style="fill: #ff6347; stroke: #ff6347; stroke-width: 0.309839"/>
    </g>
    <g clip-path="url(#pd588bbea3f)">
     <use xlink:href="#C0_0_4b452a645b" x="69.60988" y="100.797472" style="fill: #ff6347; stroke: #ff6347; stroke-width: 0.309839"/>
    </g>
    <g clip-path="url(#pd588bbea3f)">
     <use xlink:href="#C0_0_4b452a645b" x="68.899332" y="97.582789" style="fill: #ff6347; stroke: #ff6347; stroke-width: 0.309839"/>
    </g>
    <g clip-path="url(#pd588bbea3f)">
     <use xlink:href="#C0_0_4b452a645b" x="81.811811" y="53.154849" style="fill: #ff6347; stroke: #ff6347; stroke-width: 0.309839"/>
    </g>
    <g clip-path="url(#pd588bbea3f)">
     <use xlink:href="#C0_0_4b452a645b" x="129.67183" y="11.317743" style="fill: #ff6347; stroke: #ff6347; stroke-width: 0.309839"/>
    </g>
    <g clip-path="url(#pd588bbea3f)">
     <use xlink:href="#C0_0_4b452a645b" x="76.4174" y="62.181353" style="fill: #ff6347; stroke: #ff6347; stroke-width: 0.309839"/>
    </g>
    <g clip-path="url(#pd588bbea3f)">
     <use xlink:href="#C0_0_4b452a645b" x="111.341442" y="38.485072" style="fill: #ff6347; stroke: #ff6347; stroke-width: 0.309839"/>
    </g>
    <g clip-path="url(#pd588bbea3f)">
     <use xlink:href="#C0_0_4b452a645b" x="91.070236" y="34.124929" style="fill: #ff6347; stroke: #ff6347; stroke-width: 0.309839"/>
    </g>
    <g clip-path="url(#pd588bbea3f)">
     <use xlink:href="#C0_0_4b452a645b" x="107.850266" y="17.309761" style="fill: #ff6347; stroke: #ff6347; stroke-width: 0.309839"/>
    </g>
    <g clip-path="url(#pd588bbea3f)">
     <use xlink:href="#C0_0_4b452a645b" x="130.678169" y="18.005369" style="fill: #ff6347; stroke: #ff6347; stroke-width: 0.309839"/>
    </g>
    <g clip-path="url(#pd588bbea3f)">
     <use xlink:href="#C0_0_4b452a645b" x="98.053458" y="44.364523" style="fill: #ff6347; stroke: #ff6347; stroke-width: 0.309839"/>
    </g>
    <g clip-path="url(#pd588bbea3f)">
     <use xlink:href="#C0_0_4b452a645b" x="98.506133" y="18.550298" style="fill: #ff6347; stroke: #ff6347; stroke-width: 0.309839"/>
    </g>
    <g clip-path="url(#pd588bbea3f)">
     <use xlink:href="#C0_0_4b452a645b" x="43.454601" y="118.176966" style="fill: #ff6347; stroke: #ff6347; stroke-width: 0.309839"/>
    </g>
    <g clip-path="url(#pd588bbea3f)">
     <use xlink:href="#C0_0_4b452a645b" x="87.02494" y="60.845644" style="fill: #ff6347; stroke: #ff6347; stroke-width: 0.309839"/>
    </g>
    <g clip-path="url(#pd588bbea3f)">
     <use xlink:href="#C0_0_4b452a645b" x="79.475296" y="74.968186" style="fill: #ff6347; stroke: #ff6347; stroke-width: 0.309839"/>
    </g>
    <g clip-path="url(#pd588bbea3f)">
     <use xlink:href="#C0_0_4b452a645b" x="79.061286" y="80.297007" style="fill: #ff6347; stroke: #ff6347; stroke-width: 0.309839"/>
    </g>
    <g clip-path="url(#pd588bbea3f)">
     <use xlink:href="#C0_0_4b452a645b" x="82.92048" y="42.940613" style="fill: #ff6347; stroke: #ff6347; stroke-width: 0.309839"/>
    </g>
    <g clip-path="url(#pd588bbea3f)">
     <use xlink:href="#C0_0_4b452a645b" x="111.639677" y="28.96282" style="fill: #ff6347; stroke: #ff6347; stroke-width: 0.309839"/>
    </g>
   </g>
   <g id="matplotlib.axis_1">
    <g id="xtick_1">
     <g id="line2d_1">
      <defs>
       <path id="m77e3a3e69c" d="M 0 0 
L 0 4.8 
" style="stroke: #000000; stroke-width: 0.5"/>
      </defs>
      <g>
       <use xlink:href="#m77e3a3e69c" x="47.264325" y="130.98" style="stroke: #000000; stroke-width: 0.5"/>
      </g>
     </g>
     <g id="text_1">
      <!-- 0.5 -->
      <g transform="translate(41.148325 145.578875) scale(0.088 -0.088)">
       <defs>
        <path id="ArialMT-30" d="M 266 2259 
Q 266 3072 433 3567 
Q 600 4063 929 4331 
Q 1259 4600 1759 4600 
Q 2128 4600 2406 4451 
Q 2684 4303 2865 4023 
Q 3047 3744 3150 3342 
Q 3253 2941 3253 2259 
Q 3253 1453 3087 958 
Q 2922 463 2592 192 
Q 2263 -78 1759 -78 
Q 1097 -78 719 397 
Q 266 969 266 2259 
z
M 844 2259 
Q 844 1131 1108 757 
Q 1372 384 1759 384 
Q 2147 384 2411 759 
Q 2675 1134 2675 2259 
Q 2675 3391 2411 3762 
Q 2147 4134 1753 4134 
Q 1366 4134 1134 3806 
Q 844 3388 844 2259 
z
" transform="scale(0.015625)"/>
        <path id="ArialMT-2e" d="M 581 0 
L 581 641 
L 1222 641 
L 1222 0 
L 581 0 
z
" transform="scale(0.015625)"/>
        <path id="ArialMT-35" d="M 266 1200 
L 856 1250 
Q 922 819 1161 601 
Q 1400 384 1738 384 
Q 2144 384 2425 690 
Q 2706 997 2706 1503 
Q 2706 1984 2436 2262 
Q 2166 2541 1728 2541 
Q 1456 2541 1237 2417 
Q 1019 2294 894 2097 
L 366 2166 
L 809 4519 
L 3088 4519 
L 3088 3981 
L 1259 3981 
L 1013 2750 
Q 1425 3038 1878 3038 
Q 2478 3038 2890 2622 
Q 3303 2206 3303 1553 
Q 3303 931 2941 478 
Q 2500 -78 1738 -78 
Q 1113 -78 717 272 
Q 322 622 266 1200 
z
" transform="scale(0.015625)"/>
       </defs>
       <use xlink:href="#ArialMT-30"/>
       <use xlink:href="#ArialMT-2e" x="55.615234"/>
       <use xlink:href="#ArialMT-35" x="83.398438"/>
      </g>
     </g>
    </g>
    <g id="xtick_2">
     <g id="line2d_2">
      <g>
       <use xlink:href="#m77e3a3e69c" x="83.062605" y="130.98" style="stroke: #000000; stroke-width: 0.5"/>
      </g>
     </g>
     <g id="text_2">
      <!-- 1.0 -->
      <g transform="translate(76.946605 145.578875) scale(0.088 -0.088)">
       <defs>
        <path id="ArialMT-31" d="M 2384 0 
L 1822 0 
L 1822 3584 
Q 1619 3391 1289 3197 
Q 959 3003 697 2906 
L 697 3450 
Q 1169 3672 1522 3987 
Q 1875 4303 2022 4600 
L 2384 4600 
L 2384 0 
z
" transform="scale(0.015625)"/>
       </defs>
       <use xlink:href="#ArialMT-31"/>
       <use xlink:href="#ArialMT-2e" x="55.615234"/>
       <use xlink:href="#ArialMT-30" x="83.398438"/>
      </g>
     </g>
    </g>
    <g id="xtick_3">
     <g id="line2d_3">
      <g>
       <use xlink:href="#m77e3a3e69c" x="118.860885" y="130.98" style="stroke: #000000; stroke-width: 0.5"/>
      </g>
     </g>
     <g id="text_3">
      <!-- 1.5 -->
      <g transform="translate(112.744885 145.578875) scale(0.088 -0.088)">
       <use xlink:href="#ArialMT-31"/>
       <use xlink:href="#ArialMT-2e" x="55.615234"/>
       <use xlink:href="#ArialMT-35" x="83.398438"/>
      </g>
     </g>
    </g>
    <g id="xtick_4">
     <g id="line2d_4">
      <g>
       <use xlink:href="#m77e3a3e69c" x="154.659165" y="130.98" style="stroke: #000000; stroke-width: 0.5"/>
      </g>
     </g>
     <g id="text_4">
      <!-- 2.0 -->
      <g transform="translate(148.543165 145.578875) scale(0.088 -0.088)">
       <defs>
        <path id="ArialMT-32" d="M 3222 541 
L 3222 0 
L 194 0 
Q 188 203 259 391 
Q 375 700 629 1000 
Q 884 1300 1366 1694 
Q 2113 2306 2375 2664 
Q 2638 3022 2638 3341 
Q 2638 3675 2398 3904 
Q 2159 4134 1775 4134 
Q 1369 4134 1125 3890 
Q 881 3647 878 3216 
L 300 3275 
Q 359 3922 746 4261 
Q 1134 4600 1788 4600 
Q 2447 4600 2831 4234 
Q 3216 3869 3216 3328 
Q 3216 3053 3103 2787 
Q 2991 2522 2730 2228 
Q 2469 1934 1863 1422 
Q 1356 997 1212 845 
Q 1069 694 975 541 
L 3222 541 
z
" transform="scale(0.015625)"/>
       </defs>
       <use xlink:href="#ArialMT-32"/>
       <use xlink:href="#ArialMT-2e" x="55.615234"/>
       <use xlink:href="#ArialMT-30" x="83.398438"/>
      </g>
     </g>
    </g>
    <g id="text_5">
     <!-- Ratio -->
     <g transform="translate(87.41592 157.769906) scale(0.09 -0.09)">
      <defs>
       <path id="ArialMT-52" d="M 503 0 
L 503 4581 
L 2534 4581 
Q 3147 4581 3465 4457 
Q 3784 4334 3975 4021 
Q 4166 3709 4166 3331 
Q 4166 2844 3850 2509 
Q 3534 2175 2875 2084 
Q 3116 1969 3241 1856 
Q 3506 1613 3744 1247 
L 4541 0 
L 3778 0 
L 3172 953 
Q 2906 1366 2734 1584 
Q 2563 1803 2427 1890 
Q 2291 1978 2150 2013 
Q 2047 2034 1813 2034 
L 1109 2034 
L 1109 0 
L 503 0 
z
M 1109 2559 
L 2413 2559 
Q 2828 2559 3062 2645 
Q 3297 2731 3419 2920 
Q 3541 3109 3541 3331 
Q 3541 3656 3305 3865 
Q 3069 4075 2559 4075 
L 1109 4075 
L 1109 2559 
z
" transform="scale(0.015625)"/>
       <path id="ArialMT-61" d="M 2588 409 
Q 2275 144 1986 34 
Q 1697 -75 1366 -75 
Q 819 -75 525 192 
Q 231 459 231 875 
Q 231 1119 342 1320 
Q 453 1522 633 1644 
Q 813 1766 1038 1828 
Q 1203 1872 1538 1913 
Q 2219 1994 2541 2106 
Q 2544 2222 2544 2253 
Q 2544 2597 2384 2738 
Q 2169 2928 1744 2928 
Q 1347 2928 1158 2789 
Q 969 2650 878 2297 
L 328 2372 
Q 403 2725 575 2942 
Q 747 3159 1072 3276 
Q 1397 3394 1825 3394 
Q 2250 3394 2515 3294 
Q 2781 3194 2906 3042 
Q 3031 2891 3081 2659 
Q 3109 2516 3109 2141 
L 3109 1391 
Q 3109 606 3145 398 
Q 3181 191 3288 0 
L 2700 0 
Q 2613 175 2588 409 
z
M 2541 1666 
Q 2234 1541 1622 1453 
Q 1275 1403 1131 1340 
Q 988 1278 909 1158 
Q 831 1038 831 891 
Q 831 666 1001 516 
Q 1172 366 1500 366 
Q 1825 366 2078 508 
Q 2331 650 2450 897 
Q 2541 1088 2541 1459 
L 2541 1666 
z
" transform="scale(0.015625)"/>
       <path id="ArialMT-74" d="M 1650 503 
L 1731 6 
Q 1494 -44 1306 -44 
Q 1000 -44 831 53 
Q 663 150 594 308 
Q 525 466 525 972 
L 525 2881 
L 113 2881 
L 113 3319 
L 525 3319 
L 525 4141 
L 1084 4478 
L 1084 3319 
L 1650 3319 
L 1650 2881 
L 1084 2881 
L 1084 941 
Q 1084 700 1114 631 
Q 1144 563 1211 522 
Q 1278 481 1403 481 
Q 1497 481 1650 503 
z
" transform="scale(0.015625)"/>
       <path id="ArialMT-69" d="M 425 3934 
L 425 4581 
L 988 4581 
L 988 3934 
L 425 3934 
z
M 425 0 
L 425 3319 
L 988 3319 
L 988 0 
L 425 0 
z
" transform="scale(0.015625)"/>
       <path id="ArialMT-6f" d="M 213 1659 
Q 213 2581 725 3025 
Q 1153 3394 1769 3394 
Q 2453 3394 2887 2945 
Q 3322 2497 3322 1706 
Q 3322 1066 3130 698 
Q 2938 331 2570 128 
Q 2203 -75 1769 -75 
Q 1072 -75 642 372 
Q 213 819 213 1659 
z
M 791 1659 
Q 791 1022 1069 705 
Q 1347 388 1769 388 
Q 2188 388 2466 706 
Q 2744 1025 2744 1678 
Q 2744 2294 2464 2611 
Q 2184 2928 1769 2928 
Q 1347 2928 1069 2612 
Q 791 2297 791 1659 
z
" transform="scale(0.015625)"/>
      </defs>
      <use xlink:href="#ArialMT-52"/>
      <use xlink:href="#ArialMT-61" x="72.216797"/>
      <use xlink:href="#ArialMT-74" x="127.832031"/>
      <use xlink:href="#ArialMT-69" x="155.615234"/>
      <use xlink:href="#ArialMT-6f" x="177.832031"/>
     </g>
    </g>
   </g>
   <g id="matplotlib.axis_2">
    <g id="ytick_1">
     <g id="line2d_5">
      <defs>
       <path id="m3d685595a4" d="M 0 0 
L -4.8 0 
" style="stroke: #000000; stroke-width: 0.5"/>
      </defs>
      <g>
       <use xlink:href="#m3d685595a4" x="38.008" y="110.848891" style="stroke: #000000; stroke-width: 0.5"/>
      </g>
     </g>
     <g id="text_6">
      <!-- −2.5 -->
      <g transform="translate(12.33625 113.998328) scale(0.088 -0.088)">
       <defs>
        <path id="ArialMT-2212" d="M 3381 1997 
L 356 1997 
L 356 2522 
L 3381 2522 
L 3381 1997 
z
" transform="scale(0.015625)"/>
       </defs>
       <use xlink:href="#ArialMT-2212"/>
       <use xlink:href="#ArialMT-32" x="58.398438"/>
       <use xlink:href="#ArialMT-2e" x="114.013672"/>
       <use xlink:href="#ArialMT-35" x="141.796875"/>
      </g>
     </g>
    </g>
    <g id="ytick_2">
     <g id="line2d_6">
      <g>
       <use xlink:href="#m3d685595a4" x="38.008" y="87.950609" style="stroke: #000000; stroke-width: 0.5"/>
      </g>
     </g>
     <g id="text_7">
      <!-- 0.0 -->
      <g transform="translate(17.476 91.100047) scale(0.088 -0.088)">
       <use xlink:href="#ArialMT-30"/>
       <use xlink:href="#ArialMT-2e" x="55.615234"/>
       <use xlink:href="#ArialMT-30" x="83.398438"/>
      </g>
     </g>
    </g>
    <g id="ytick_3">
     <g id="line2d_7">
      <g>
       <use xlink:href="#m3d685595a4" x="38.008" y="65.052327" style="stroke: #000000; stroke-width: 0.5"/>
      </g>
     </g>
     <g id="text_8">
      <!-- 2.5 -->
      <g transform="translate(17.476 68.201765) scale(0.088 -0.088)">
       <use xlink:href="#ArialMT-32"/>
       <use xlink:href="#ArialMT-2e" x="55.615234"/>
       <use xlink:href="#ArialMT-35" x="83.398438"/>
      </g>
     </g>
    </g>
    <g id="ytick_4">
     <g id="line2d_8">
      <g>
       <use xlink:href="#m3d685595a4" x="38.008" y="42.154045" style="stroke: #000000; stroke-width: 0.5"/>
      </g>
     </g>
     <g id="text_9">
      <!-- 5.0 -->
      <g transform="translate(17.476 45.303483) scale(0.088 -0.088)">
       <use xlink:href="#ArialMT-35"/>
       <use xlink:href="#ArialMT-2e" x="55.615234"/>
       <use xlink:href="#ArialMT-30" x="83.398438"/>
      </g>
     </g>
    </g>
    <g id="ytick_5">
     <g id="line2d_9">
      <g>
       <use xlink:href="#m3d685595a4" x="38.008" y="19.255764" style="stroke: #000000; stroke-width: 0.5"/>
      </g>
     </g>
     <g id="text_10">
      <!-- 7.5 -->
      <g transform="translate(17.476 22.405201) scale(0.088 -0.088)">
       <defs>
        <path id="ArialMT-37" d="M 303 3981 
L 303 4522 
L 3269 4522 
L 3269 4084 
Q 2831 3619 2401 2847 
Q 1972 2075 1738 1259 
Q 1569 684 1522 0 
L 944 0 
Q 953 541 1156 1306 
Q 1359 2072 1739 2783 
Q 2119 3494 2547 3981 
L 303 3981 
z
" transform="scale(0.015625)"/>
       </defs>
       <use xlink:href="#ArialMT-37"/>
       <use xlink:href="#ArialMT-2e" x="55.615234"/>
       <use xlink:href="#ArialMT-35" x="83.398438"/>
      </g>
     </g>
    </g>
    <g id="text_11">
     <!-- logRFP -->
     <g transform="translate(6.442031 80.494688) rotate(-90) scale(0.09 -0.09)">
      <defs>
       <path id="ArialMT-6c" d="M 409 0 
L 409 4581 
L 972 4581 
L 972 0 
L 409 0 
z
" transform="scale(0.015625)"/>
       <path id="ArialMT-67" d="M 319 -275 
L 866 -356 
Q 900 -609 1056 -725 
Q 1266 -881 1628 -881 
Q 2019 -881 2231 -725 
Q 2444 -569 2519 -288 
Q 2563 -116 2559 434 
Q 2191 0 1641 0 
Q 956 0 581 494 
Q 206 988 206 1678 
Q 206 2153 378 2554 
Q 550 2956 876 3175 
Q 1203 3394 1644 3394 
Q 2231 3394 2613 2919 
L 2613 3319 
L 3131 3319 
L 3131 450 
Q 3131 -325 2973 -648 
Q 2816 -972 2473 -1159 
Q 2131 -1347 1631 -1347 
Q 1038 -1347 672 -1080 
Q 306 -813 319 -275 
z
M 784 1719 
Q 784 1066 1043 766 
Q 1303 466 1694 466 
Q 2081 466 2343 764 
Q 2606 1063 2606 1700 
Q 2606 2309 2336 2618 
Q 2066 2928 1684 2928 
Q 1309 2928 1046 2623 
Q 784 2319 784 1719 
z
" transform="scale(0.015625)"/>
       <path id="ArialMT-46" d="M 525 0 
L 525 4581 
L 3616 4581 
L 3616 4041 
L 1131 4041 
L 1131 2622 
L 3281 2622 
L 3281 2081 
L 1131 2081 
L 1131 0 
L 525 0 
z
" transform="scale(0.015625)"/>
       <path id="ArialMT-50" d="M 494 0 
L 494 4581 
L 2222 4581 
Q 2678 4581 2919 4538 
Q 3256 4481 3484 4323 
Q 3713 4166 3852 3881 
Q 3991 3597 3991 3256 
Q 3991 2672 3619 2267 
Q 3247 1863 2275 1863 
L 1100 1863 
L 1100 0 
L 494 0 
z
M 1100 2403 
L 2284 2403 
Q 2872 2403 3119 2622 
Q 3366 2841 3366 3238 
Q 3366 3525 3220 3729 
Q 3075 3934 2838 4000 
Q 2684 4041 2272 4041 
L 1100 4041 
L 1100 2403 
z
" transform="scale(0.015625)"/>
      </defs>
      <use xlink:href="#ArialMT-6c"/>
      <use xlink:href="#ArialMT-6f" x="22.216797"/>
      <use xlink:href="#ArialMT-67" x="77.832031"/>
      <use xlink:href="#ArialMT-52" x="133.447266"/>
      <use xlink:href="#ArialMT-46" x="205.664062"/>
      <use xlink:href="#ArialMT-50" x="266.748047"/>
     </g>
    </g>
   </g>
   <g id="line2d_10">
    <path d="M 43.454601 112.262639 
L 47.28638 111.755985 
L 50.570762 111.082507 
L 53.307748 110.273425 
L 55.497336 109.405026 
L 57.686924 108.282182 
L 59.329115 107.234646 
L 60.971306 105.977014 
L 62.613497 104.475886 
L 64.255689 102.696475 
L 65.89788 100.60442 
L 67.540071 98.168372 
L 69.182262 95.363388 
L 70.824453 92.174977 
L 73.014041 87.330446 
L 75.203629 81.860689 
L 77.940615 74.33656 
L 85.604173 52.590725 
L 87.793762 47.157762 
L 89.98335 42.355419 
L 91.625541 39.199684 
L 93.267732 36.42666 
L 94.909923 34.020807 
L 96.552114 31.956489 
L 98.194306 30.201982 
L 99.836497 28.7228 
L 101.478688 27.484214 
L 103.668276 26.149962 
L 105.857864 25.113329 
L 108.047452 24.313076 
L 110.784438 23.568637 
L 114.06882 22.949814 
L 117.900599 22.484781 
L 122.827173 22.137738 
L 129.943334 21.899769 
L 141.438672 21.775682 
L 152.386613 21.747681 
L 152.386613 21.747681 
" clip-path="url(#pd588bbea3f)" style="fill: none; stroke: #87ceeb; stroke-linecap: square"/>
   </g>
   <g id="line2d_11"/>
   <g id="line2d_12"/>
   <g id="LineCollection_1">
    <path d="M 65.876844 118.964532 
L 65.876844 103.846274 
" clip-path="url(#pd588bbea3f)" style="fill: none; stroke: #000000; stroke-opacity: 0.8; stroke-width: 0.5"/>
    <path d="M 75.585123 113.120515 
L 75.585123 98.835262 
" clip-path="url(#pd588bbea3f)" style="fill: none; stroke: #000000; stroke-opacity: 0.8; stroke-width: 0.5"/>
    <path d="M 71.759571 81.643447 
L 71.759571 74.201368 
" clip-path="url(#pd588bbea3f)" style="fill: none; stroke: #000000; stroke-opacity: 0.8; stroke-width: 0.5"/>
    <path d="M 70.405124 120.371134 
L 70.405124 103.961164 
" clip-path="url(#pd588bbea3f)" style="fill: none; stroke: #000000; stroke-opacity: 0.8; stroke-width: 0.5"/>
    <path d="M 151.543784 17.927833 
L 151.543784 5.953636 
" clip-path="url(#pd588bbea3f)" style="fill: none; stroke: #000000; stroke-opacity: 0.8; stroke-width: 0.5"/>
    <path d="M 55.764461 107.855833 
L 55.764461 93.186737 
" clip-path="url(#pd588bbea3f)" style="fill: none; stroke: #000000; stroke-opacity: 0.8; stroke-width: 0.5"/>
    <path d="M 149.815211 26.268581 
L 149.815211 11.226026 
" clip-path="url(#pd588bbea3f)" style="fill: none; stroke: #000000; stroke-opacity: 0.8; stroke-width: 0.5"/>
    <path d="M 65.690484 116.916714 
L 65.690484 91.434564 
" clip-path="url(#pd588bbea3f)" style="fill: none; stroke: #000000; stroke-opacity: 0.8; stroke-width: 0.5"/>
    <path d="M 66.994357 108.248327 
L 66.994357 93.346618 
" clip-path="url(#pd588bbea3f)" style="fill: none; stroke: #000000; stroke-opacity: 0.8; stroke-width: 0.5"/>
    <path d="M 79.567643 106.60726 
L 79.567643 88.558317 
" clip-path="url(#pd588bbea3f)" style="fill: none; stroke: #000000; stroke-opacity: 0.8; stroke-width: 0.5"/>
    <path d="M 82.307688 58.463957 
L 82.307688 47.84574 
" clip-path="url(#pd588bbea3f)" style="fill: none; stroke: #000000; stroke-opacity: 0.8; stroke-width: 0.5"/>
    <path d="M 152.386613 14.843421 
L 152.386613 7.792064 
" clip-path="url(#pd588bbea3f)" style="fill: none; stroke: #000000; stroke-opacity: 0.8; stroke-width: 0.5"/>
    <path d="M 87.506684 72.653122 
L 87.506684 51.709584 
" clip-path="url(#pd588bbea3f)" style="fill: none; stroke: #000000; stroke-opacity: 0.8; stroke-width: 0.5"/>
    <path d="M 117.761851 53.116209 
L 117.761851 23.853935 
" clip-path="url(#pd588bbea3f)" style="fill: none; stroke: #000000; stroke-opacity: 0.8; stroke-width: 0.5"/>
    <path d="M 81.212722 50.124064 
L 81.212722 18.125794 
" clip-path="url(#pd588bbea3f)" style="fill: none; stroke: #000000; stroke-opacity: 0.8; stroke-width: 0.5"/>
    <path d="M 127.729444 24.293086 
L 127.729444 10.326437 
" clip-path="url(#pd588bbea3f)" style="fill: none; stroke: #000000; stroke-opacity: 0.8; stroke-width: 0.5"/>
    <path d="M 145.310739 27.424947 
L 145.310739 8.58579 
" clip-path="url(#pd588bbea3f)" style="fill: none; stroke: #000000; stroke-opacity: 0.8; stroke-width: 0.5"/>
    <path d="M 94.454912 56.745553 
L 94.454912 31.983492 
" clip-path="url(#pd588bbea3f)" style="fill: none; stroke: #000000; stroke-opacity: 0.8; stroke-width: 0.5"/>
    <path d="M 120.522082 37.881591 
L 120.522082 18.039431 
" clip-path="url(#pd588bbea3f)" style="fill: none; stroke: #000000; stroke-opacity: 0.8; stroke-width: 0.5"/>
    <path d="M 96.788419 20.771549 
L 96.788419 16.329047 
" clip-path="url(#pd588bbea3f)" style="fill: none; stroke: #000000; stroke-opacity: 0.8; stroke-width: 0.5"/>
    <path d="M 51.186646 123.344713 
L 51.186646 113.009219 
" clip-path="url(#pd588bbea3f)" style="fill: none; stroke: #000000; stroke-opacity: 0.8; stroke-width: 0.5"/>
    <path d="M 79.170654 72.876925 
L 79.170654 48.814364 
" clip-path="url(#pd588bbea3f)" style="fill: none; stroke: #000000; stroke-opacity: 0.8; stroke-width: 0.5"/>
    <path d="M 63.314828 84.612053 
L 63.314828 65.324319 
" clip-path="url(#pd588bbea3f)" style="fill: none; stroke: #000000; stroke-opacity: 0.8; stroke-width: 0.5"/>
    <path d="M 76.282631 84.717949 
L 76.282631 75.876065 
" clip-path="url(#pd588bbea3f)" style="fill: none; stroke: #000000; stroke-opacity: 0.8; stroke-width: 0.5"/>
    <path d="M 120.261455 54.665291 
L 120.261455 31.215936 
" clip-path="url(#pd588bbea3f)" style="fill: none; stroke: #000000; stroke-opacity: 0.8; stroke-width: 0.5"/>
    <path d="M 133.730195 43.524058 
L 133.730195 14.401583 
" clip-path="url(#pd588bbea3f)" style="fill: none; stroke: #000000; stroke-opacity: 0.8; stroke-width: 0.5"/>
   </g>
   <g id="LineCollection_2">
    <path d="M 61.378858 118.964532 
L 61.378858 103.846274 
" clip-path="url(#pd588bbea3f)" style="fill: none; stroke: #ff6347; stroke-opacity: 0.8; stroke-width: 0.5"/>
    <path d="M 69.231786 113.120515 
L 69.231786 98.835262 
" clip-path="url(#pd588bbea3f)" style="fill: none; stroke: #ff6347; stroke-opacity: 0.8; stroke-width: 0.5"/>
    <path d="M 65.130553 81.643447 
L 65.130553 74.201368 
" clip-path="url(#pd588bbea3f)" style="fill: none; stroke: #ff6347; stroke-opacity: 0.8; stroke-width: 0.5"/>
    <path d="M 63.123114 120.371134 
L 63.123114 103.961164 
" clip-path="url(#pd588bbea3f)" style="fill: none; stroke: #ff6347; stroke-opacity: 0.8; stroke-width: 0.5"/>
    <path d="M 145.040053 17.927833 
L 145.040053 5.953636 
" clip-path="url(#pd588bbea3f)" style="fill: none; stroke: #ff6347; stroke-opacity: 0.8; stroke-width: 0.5"/>
    <path d="M 62.859686 107.855833 
L 62.859686 93.186737 
" clip-path="url(#pd588bbea3f)" style="fill: none; stroke: #ff6347; stroke-opacity: 0.8; stroke-width: 0.5"/>
    <path d="M 132.809574 26.268581 
L 132.809574 11.226026 
" clip-path="url(#pd588bbea3f)" style="fill: none; stroke: #ff6347; stroke-opacity: 0.8; stroke-width: 0.5"/>
    <path d="M 59.49816 116.916714 
L 59.49816 91.434564 
" clip-path="url(#pd588bbea3f)" style="fill: none; stroke: #ff6347; stroke-opacity: 0.8; stroke-width: 0.5"/>
    <path d="M 69.60988 108.248327 
L 69.60988 93.346618 
" clip-path="url(#pd588bbea3f)" style="fill: none; stroke: #ff6347; stroke-opacity: 0.8; stroke-width: 0.5"/>
    <path d="M 68.899332 106.60726 
L 68.899332 88.558317 
" clip-path="url(#pd588bbea3f)" style="fill: none; stroke: #ff6347; stroke-opacity: 0.8; stroke-width: 0.5"/>
    <path d="M 81.811811 58.463957 
L 81.811811 47.84574 
" clip-path="url(#pd588bbea3f)" style="fill: none; stroke: #ff6347; stroke-opacity: 0.8; stroke-width: 0.5"/>
    <path d="M 129.67183 14.843421 
L 129.67183 7.792064 
" clip-path="url(#pd588bbea3f)" style="fill: none; stroke: #ff6347; stroke-opacity: 0.8; stroke-width: 0.5"/>
    <path d="M 76.4174 72.653122 
L 76.4174 51.709584 
" clip-path="url(#pd588bbea3f)" style="fill: none; stroke: #ff6347; stroke-opacity: 0.8; stroke-width: 0.5"/>
    <path d="M 111.341442 53.116209 
L 111.341442 23.853935 
" clip-path="url(#pd588bbea3f)" style="fill: none; stroke: #ff6347; stroke-opacity: 0.8; stroke-width: 0.5"/>
    <path d="M 91.070236 50.124064 
L 91.070236 18.125794 
" clip-path="url(#pd588bbea3f)" style="fill: none; stroke: #ff6347; stroke-opacity: 0.8; stroke-width: 0.5"/>
    <path d="M 107.850266 24.293086 
L 107.850266 10.326437 
" clip-path="url(#pd588bbea3f)" style="fill: none; stroke: #ff6347; stroke-opacity: 0.8; stroke-width: 0.5"/>
    <path d="M 130.678169 27.424947 
L 130.678169 8.58579 
" clip-path="url(#pd588bbea3f)" style="fill: none; stroke: #ff6347; stroke-opacity: 0.8; stroke-width: 0.5"/>
    <path d="M 98.053458 56.745553 
L 98.053458 31.983492 
" clip-path="url(#pd588bbea3f)" style="fill: none; stroke: #ff6347; stroke-opacity: 0.8; stroke-width: 0.5"/>
    <path d="M 98.506133 20.771549 
L 98.506133 16.329047 
" clip-path="url(#pd588bbea3f)" style="fill: none; stroke: #ff6347; stroke-opacity: 0.8; stroke-width: 0.5"/>
    <path d="M 43.454601 123.344713 
L 43.454601 113.009219 
" clip-path="url(#pd588bbea3f)" style="fill: none; stroke: #ff6347; stroke-opacity: 0.8; stroke-width: 0.5"/>
    <path d="M 87.02494 72.876925 
L 87.02494 48.814364 
" clip-path="url(#pd588bbea3f)" style="fill: none; stroke: #ff6347; stroke-opacity: 0.8; stroke-width: 0.5"/>
    <path d="M 79.475296 84.612053 
L 79.475296 65.324319 
" clip-path="url(#pd588bbea3f)" style="fill: none; stroke: #ff6347; stroke-opacity: 0.8; stroke-width: 0.5"/>
    <path d="M 79.061286 84.717949 
L 79.061286 75.876065 
" clip-path="url(#pd588bbea3f)" style="fill: none; stroke: #ff6347; stroke-opacity: 0.8; stroke-width: 0.5"/>
    <path d="M 82.92048 54.665291 
L 82.92048 31.215936 
" clip-path="url(#pd588bbea3f)" style="fill: none; stroke: #ff6347; stroke-opacity: 0.8; stroke-width: 0.5"/>
    <path d="M 111.639677 43.524058 
L 111.639677 14.401583 
" clip-path="url(#pd588bbea3f)" style="fill: none; stroke: #ff6347; stroke-opacity: 0.8; stroke-width: 0.5"/>
   </g>
   <g id="line2d_13">
    <path d="M 38.008 67.407601 
L 157.833214 67.407601 
" clip-path="url(#pd588bbea3f)" style="fill: none; stroke-dasharray: 1.85,0.8; stroke-dashoffset: 0; stroke: #808080; stroke-width: 0.5"/>
   </g>
   <g id="line2d_14">
    <path d="M 84.829517 130.98 
L 84.829517 0 
" clip-path="url(#pd588bbea3f)" style="fill: none; stroke-dasharray: 1.85,0.8; stroke-dashoffset: 0; stroke: #808080; stroke-width: 0.5"/>
   </g>
   <g id="patch_3">
    <path d="M 38.008 130.98 
L 38.008 -0 
" style="fill: none; stroke: #000000; stroke-width: 0.5; stroke-linejoin: miter; stroke-linecap: square"/>
   </g>
   <g id="patch_4">
    <path d="M 157.833214 130.98 
L 157.833214 -0 
" style="fill: none; stroke: #000000; stroke-width: 0.5; stroke-linejoin: miter; stroke-linecap: square"/>
   </g>
   <g id="patch_5">
    <path d="M 38.008 130.98 
L 157.833214 130.98 
" style="fill: none; stroke: #000000; stroke-width: 0.5; stroke-linejoin: miter; stroke-linecap: square"/>
   </g>
   <g id="patch_6">
    <path d="M 38.008 0 
L 157.833214 0 
" style="fill: none; stroke: #000000; stroke-width: 0.5; stroke-linejoin: miter; stroke-linecap: square"/>
   </g>
   <g id="legend_1">
    <g id="line2d_15">
     <defs>
      <path id="me038e06247" d="M 0 1.936492 
C 0.513564 1.936492 1.006162 1.732451 1.369306 1.369306 
C 1.732451 1.006162 1.936492 0.513564 1.936492 0 
C 1.936492 -0.513564 1.732451 -1.006162 1.369306 -1.369306 
C 1.006162 -1.732451 0.513564 -1.936492 0 -1.936492 
C -0.513564 -1.936492 -1.006162 -1.732451 -1.369306 -1.369306 
C -1.732451 -1.006162 -1.936492 -0.513564 -1.936492 0 
C -1.936492 0.513564 -1.732451 1.006162 -1.369306 1.369306 
C -1.006162 1.732451 -0.513564 1.936492 0 1.936492 
z
" style="stroke: #000000; stroke-width: 0.309839"/>
     </defs>
     <g>
      <use xlink:href="#me038e06247" x="98.849839" y="105.757" style="stroke: #000000; stroke-width: 0.309839"/>
     </g>
    </g>
    <g id="text_12">
     <!-- Replicate 1 -->
     <g transform="translate(105.889839 108.837) scale(0.088 -0.088)">
      <defs>
       <path id="ArialMT-65" d="M 2694 1069 
L 3275 997 
Q 3138 488 2766 206 
Q 2394 -75 1816 -75 
Q 1088 -75 661 373 
Q 234 822 234 1631 
Q 234 2469 665 2931 
Q 1097 3394 1784 3394 
Q 2450 3394 2872 2941 
Q 3294 2488 3294 1666 
Q 3294 1616 3291 1516 
L 816 1516 
Q 847 969 1125 678 
Q 1403 388 1819 388 
Q 2128 388 2347 550 
Q 2566 713 2694 1069 
z
M 847 1978 
L 2700 1978 
Q 2663 2397 2488 2606 
Q 2219 2931 1791 2931 
Q 1403 2931 1139 2672 
Q 875 2413 847 1978 
z
" transform="scale(0.015625)"/>
       <path id="ArialMT-70" d="M 422 -1272 
L 422 3319 
L 934 3319 
L 934 2888 
Q 1116 3141 1344 3267 
Q 1572 3394 1897 3394 
Q 2322 3394 2647 3175 
Q 2972 2956 3137 2557 
Q 3303 2159 3303 1684 
Q 3303 1175 3120 767 
Q 2938 359 2589 142 
Q 2241 -75 1856 -75 
Q 1575 -75 1351 44 
Q 1128 163 984 344 
L 984 -1272 
L 422 -1272 
z
M 931 1641 
Q 931 1000 1190 694 
Q 1450 388 1819 388 
Q 2194 388 2461 705 
Q 2728 1022 2728 1688 
Q 2728 2322 2467 2637 
Q 2206 2953 1844 2953 
Q 1484 2953 1207 2617 
Q 931 2281 931 1641 
z
" transform="scale(0.015625)"/>
       <path id="ArialMT-63" d="M 2588 1216 
L 3141 1144 
Q 3050 572 2676 248 
Q 2303 -75 1759 -75 
Q 1078 -75 664 370 
Q 250 816 250 1647 
Q 250 2184 428 2587 
Q 606 2991 970 3192 
Q 1334 3394 1763 3394 
Q 2303 3394 2647 3120 
Q 2991 2847 3088 2344 
L 2541 2259 
Q 2463 2594 2264 2762 
Q 2066 2931 1784 2931 
Q 1359 2931 1093 2626 
Q 828 2322 828 1663 
Q 828 994 1084 691 
Q 1341 388 1753 388 
Q 2084 388 2306 591 
Q 2528 794 2588 1216 
z
" transform="scale(0.015625)"/>
       <path id="ArialMT-20" transform="scale(0.015625)"/>
      </defs>
      <use xlink:href="#ArialMT-52"/>
      <use xlink:href="#ArialMT-65" x="72.216797"/>
      <use xlink:href="#ArialMT-70" x="127.832031"/>
      <use xlink:href="#ArialMT-6c" x="183.447266"/>
      <use xlink:href="#ArialMT-69" x="205.664062"/>
      <use xlink:href="#ArialMT-63" x="227.880859"/>
      <use xlink:href="#ArialMT-61" x="277.880859"/>
      <use xlink:href="#ArialMT-74" x="333.496094"/>
      <use xlink:href="#ArialMT-65" x="361.279297"/>
      <use xlink:href="#ArialMT-20" x="416.894531"/>
      <use xlink:href="#ArialMT-31" x="444.677734"/>
     </g>
    </g>
    <g id="line2d_16">
     <defs>
      <path id="m4c9b6fdb41" d="M 0 1.936492 
C 0.513564 1.936492 1.006162 1.732451 1.369306 1.369306 
C 1.732451 1.006162 1.936492 0.513564 1.936492 0 
C 1.936492 -0.513564 1.732451 -1.006162 1.369306 -1.369306 
C 1.006162 -1.732451 0.513564 -1.936492 0 -1.936492 
C -0.513564 -1.936492 -1.006162 -1.732451 -1.369306 -1.369306 
C -1.732451 -1.006162 -1.936492 -0.513564 -1.936492 0 
C -1.936492 0.513564 -1.732451 1.006162 -1.369306 1.369306 
C -1.006162 1.732451 -0.513564 1.936492 0 1.936492 
z
" style="stroke: #ff6347; stroke-width: 0.309839"/>
     </defs>
     <g>
      <use xlink:href="#m4c9b6fdb41" x="98.849839" y="118.231" style="fill: #ff6347; stroke: #ff6347; stroke-width: 0.309839"/>
     </g>
    </g>
    <g id="text_13">
     <!-- Replicate 2 -->
     <g transform="translate(105.889839 121.311) scale(0.088 -0.088)">
      <use xlink:href="#ArialMT-52"/>
      <use xlink:href="#ArialMT-65" x="72.216797"/>
      <use xlink:href="#ArialMT-70" x="127.832031"/>
      <use xlink:href="#ArialMT-6c" x="183.447266"/>
      <use xlink:href="#ArialMT-69" x="205.664062"/>
      <use xlink:href="#ArialMT-63" x="227.880859"/>
      <use xlink:href="#ArialMT-61" x="277.880859"/>
      <use xlink:href="#ArialMT-74" x="333.496094"/>
      <use xlink:href="#ArialMT-65" x="361.279297"/>
      <use xlink:href="#ArialMT-20" x="416.894531"/>
      <use xlink:href="#ArialMT-32" x="444.677734"/>
     </g>
    </g>
   </g>
  </g>
 </g>
 <defs>
  <clipPath id="pd588bbea3f">
   <rect x="38.008" y="0" width="119.825214" height="130.98"/>
  </clipPath>
 </defs>
</svg>
