<?xml version="1.0" encoding="utf-8" standalone="no"?>
<!DOCTYPE svg PUBLIC "-//W3C//DTD SVG 1.1//EN"
  "http://www.w3.org/Graphics/SVG/1.1/DTD/svg11.dtd">
<svg xmlns:xlink="http://www.w3.org/1999/xlink" width="160.299625pt" height="159.558656pt" viewBox="0 0 160.299625 159.558656" xmlns="http://www.w3.org/2000/svg" version="1.1">
 <metadata>
  <rdf:RDF xmlns:dc="http://purl.org/dc/elements/1.1/" xmlns:cc="http://creativecommons.org/ns#" xmlns:rdf="http://www.w3.org/1999/02/22-rdf-syntax-ns#">
   <cc:Work>
    <dc:type rdf:resource="http://purl.org/dc/dcmitype/StillImage"/>
    <dc:date>2025-05-27T13:27:53.967189</dc:date>
    <dc:format>image/svg+xml</dc:format>
    <dc:creator>
     <cc:Agent>
      <dc:title>Matplotlib v3.8.4, https://matplotlib.org/</dc:title>
     </cc:Agent>
    </dc:creator>
   </cc:Work>
  </rdf:RDF>
 </metadata>
 <defs>
  <style type="text/css">*{stroke-linejoin: round; stroke-linecap: butt}</style>
 </defs>
 <g id="figure_1">
  <g id="patch_1">
   <path d="M 0 159.558656 
L 160.299625 159.558656 
L 160.299625 0 
L 0 0 
L 0 159.558656 
z
" style="fill: none"/>
  </g>
  <g id="axes_1">
   <g id="patch_2">
    <path d="M 30.669625 130.98 
L 160.299625 130.98 
L 160.299625 0 
L 30.669625 0 
L 30.669625 130.98 
z
" style="fill: none"/>
   </g>
   <g id="PolyCollection_1"/>
   <g id="PolyCollection_2">
    <defs>
     <path id="m31eca66f6b" d="M 36.561898 -79.060671 
L 36.561898 -55.193021 
L 37.154086 -55.193073 
L 37.746274 -55.193135 
L 38.338462 -55.193209 
L 38.930651 -55.193298 
L 39.522839 -55.193404 
L 40.115027 -55.19353 
L 40.707215 -55.193681 
L 41.299403 -55.193862 
L 41.891592 -55.194078 
L 42.48378 -55.194336 
L 43.075968 -55.194644 
L 43.668156 -55.195013 
L 44.260345 -55.195453 
L 44.852533 -55.19598 
L 45.444721 -55.196609 
L 46.036909 -55.197361 
L 46.629097 -55.198259 
L 47.221286 -55.199333 
L 47.813474 -55.200616 
L 48.405662 -55.202149 
L 48.99785 -55.203982 
L 49.590038 -55.206172 
L 50.182227 -55.208789 
L 50.774415 -55.211917 
L 51.366603 -55.215654 
L 51.958791 -55.22012 
L 52.550979 -55.225457 
L 53.143168 -55.231833 
L 53.735356 -55.239452 
L 54.327544 -55.248555 
L 54.919732 -55.259431 
L 55.511921 -55.272424 
L 56.104109 -55.287946 
L 56.696297 -55.306485 
L 57.288485 -55.328628 
L 57.880673 -55.35507 
L 58.472862 -55.386643 
L 59.06505 -55.424334 
L 59.657238 -55.46932 
L 60.249426 -55.522999 
L 60.841614 -55.587031 
L 61.433803 -55.663384 
L 62.025991 -55.754391 
L 62.618179 -55.862808 
L 63.210367 -55.991884 
L 63.802556 -56.145445 
L 64.394744 -56.327974 
L 64.986932 -56.54471 
L 65.57912 -56.801748 
L 66.171308 -57.106135 
L 66.763497 -57.46597 
L 67.355685 -57.890481 
L 67.947873 -58.390084 
L 68.540061 -58.976395 
L 69.132249 -59.662168 
L 69.724438 -60.461155 
L 70.316626 -61.387826 
L 70.908814 -62.456938 
L 71.501002 -63.682916 
L 72.093191 -65.079022 
L 72.685379 -66.656312 
L 73.277567 -68.422425 
L 73.869755 -70.380255 
L 74.461943 -72.526665 
L 75.054132 -74.851378 
L 75.64632 -77.336281 
L 76.238508 -79.955319 
L 76.830696 -82.675134 
L 77.422884 -85.456488 
L 78.015073 -88.256387 
L 78.607261 -91.030682 
L 79.199449 -93.736817 
L 79.791637 -96.336372 
L 80.383826 -98.797085 
L 80.976014 -101.094156 
L 81.568202 -103.210757 
L 82.16039 -105.137817 
L 82.752578 -106.87325 
L 83.344767 -108.420804 
L 83.936955 -109.788753 
L 84.529143 -110.988587 
L 85.121331 -112.033818 
L 85.713519 -112.938975 
L 86.305708 -113.718807 
L 86.897896 -114.387692 
L 87.490084 -114.959237 
L 88.082272 -115.446021 
L 88.674461 -115.859467 
L 89.266649 -116.209799 
L 89.858837 -116.506059 
L 90.451025 -116.756172 
L 91.043213 -116.967024 
L 91.635402 -117.144565 
L 92.22759 -117.293907 
L 92.819778 -117.419421 
L 93.411966 -117.524834 
L 94.004154 -117.613312 
L 94.596343 -117.687539 
L 95.188531 -117.749783 
L 95.780719 -117.80196 
L 96.372907 -117.845686 
L 96.965096 -117.88232 
L 97.557284 -117.913006 
L 98.149472 -117.938705 
L 98.74166 -117.960225 
L 99.333848 -117.978242 
L 99.926037 -117.993326 
L 100.518225 -118.005953 
L 101.110413 -118.016523 
L 101.702601 -118.025369 
L 102.294789 -118.032774 
L 102.886978 -118.03897 
L 103.479166 -118.044156 
L 104.071354 -118.048496 
L 104.663542 -118.052128 
L 105.255731 -118.055167 
L 105.847919 -118.057711 
L 106.440107 -118.059839 
L 107.032295 -118.06162 
L 107.624483 -118.06311 
L 108.216672 -118.064357 
L 108.80886 -118.0654 
L 109.401048 -118.066273 
L 109.993236 -118.067004 
L 110.585424 -118.067615 
L 111.177613 -118.068127 
L 111.769801 -118.068555 
L 112.361989 -118.068913 
L 112.954177 -118.069213 
L 113.546366 -118.069463 
L 114.138554 -118.069673 
L 114.730742 -118.069849 
L 115.32293 -118.069996 
L 115.915118 -118.070119 
L 116.507307 -118.070221 
L 117.099495 -118.070308 
L 117.691683 -118.07038 
L 118.283871 -118.07044 
L 118.876059 -118.07049 
L 119.468248 -118.070532 
L 120.060436 -118.070568 
L 120.652624 -118.070597 
L 121.244812 -118.070622 
L 121.837001 -118.070643 
L 122.429189 -118.07066 
L 123.021377 -118.070674 
L 123.613565 -118.070686 
L 124.205753 -118.070697 
L 124.797942 -118.070705 
L 125.39013 -118.070712 
L 125.982318 -118.070718 
L 126.574506 -118.070723 
L 127.166694 -118.070727 
L 127.758883 -118.070731 
L 128.351071 -118.070734 
L 128.943259 -118.070736 
L 129.535447 -118.070738 
L 130.127636 -118.07074 
L 130.719824 -118.070741 
L 131.312012 -118.070742 
L 131.9042 -118.070743 
L 132.496388 -118.070744 
L 133.088577 -118.070745 
L 133.680765 -118.070746 
L 134.272953 -118.070746 
L 134.865141 -118.070746 
L 135.457329 -118.070747 
L 136.049518 -118.070747 
L 136.641706 -118.070747 
L 137.233894 -118.070748 
L 137.826082 -118.070748 
L 138.418271 -118.070748 
L 139.010459 -118.070748 
L 139.602647 -118.070748 
L 140.194835 -118.070748 
L 140.787023 -118.070748 
L 141.379212 -118.070748 
L 141.9714 -118.070748 
L 142.563588 -118.070748 
L 143.155776 -118.070748 
L 143.747964 -118.070748 
L 144.340153 -118.070748 
L 144.932341 -118.070748 
L 145.524529 -118.070748 
L 146.116717 -118.070749 
L 146.708905 -118.070749 
L 147.301094 -118.070749 
L 147.893282 -118.070749 
L 148.48547 -118.070749 
L 149.077658 -118.070749 
L 149.669847 -118.070749 
L 150.262035 -118.070749 
L 150.854223 -118.070749 
L 151.446411 -118.070749 
L 152.038599 -118.070749 
L 152.630788 -118.070749 
L 153.222976 -118.070749 
L 153.815164 -118.070749 
L 154.407352 -118.070749 
L 154.407352 -141.938398 
L 154.407352 -141.938398 
L 153.815164 -141.938398 
L 153.222976 -141.938398 
L 152.630788 -141.938398 
L 152.038599 -141.938398 
L 151.446411 -141.938398 
L 150.854223 -141.938398 
L 150.262035 -141.938398 
L 149.669847 -141.938398 
L 149.077658 -141.938398 
L 148.48547 -141.938398 
L 147.893282 -141.938398 
L 147.301094 -141.938398 
L 146.708905 -141.938398 
L 146.116717 -141.938398 
L 145.524529 -141.938398 
L 144.932341 -141.938398 
L 144.340153 -141.938398 
L 143.747964 -141.938398 
L 143.155776 -141.938398 
L 142.563588 -141.938398 
L 141.9714 -141.938398 
L 141.379212 -141.938398 
L 140.787023 -141.938398 
L 140.194835 -141.938398 
L 139.602647 -141.938398 
L 139.010459 -141.938398 
L 138.418271 -141.938397 
L 137.826082 -141.938397 
L 137.233894 -141.938397 
L 136.641706 -141.938397 
L 136.049518 -141.938397 
L 135.457329 -141.938396 
L 134.865141 -141.938396 
L 134.272953 -141.938396 
L 133.680765 -141.938395 
L 133.088577 -141.938395 
L 132.496388 -141.938394 
L 131.9042 -141.938393 
L 131.312012 -141.938392 
L 130.719824 -141.938391 
L 130.127636 -141.938389 
L 129.535447 -141.938388 
L 128.943259 -141.938386 
L 128.351071 -141.938383 
L 127.758883 -141.93838 
L 127.166694 -141.938377 
L 126.574506 -141.938373 
L 125.982318 -141.938368 
L 125.39013 -141.938362 
L 124.797942 -141.938355 
L 124.205753 -141.938346 
L 123.613565 -141.938336 
L 123.021377 -141.938324 
L 122.429189 -141.938309 
L 121.837001 -141.938292 
L 121.244812 -141.938271 
L 120.652624 -141.938247 
L 120.060436 -141.938217 
L 119.468248 -141.938182 
L 118.876059 -141.93814 
L 118.283871 -141.938089 
L 117.691683 -141.938029 
L 117.099495 -141.937957 
L 116.507307 -141.937871 
L 115.915118 -141.937768 
L 115.32293 -141.937645 
L 114.730742 -141.937498 
L 114.138554 -141.937323 
L 113.546366 -141.937113 
L 112.954177 -141.936862 
L 112.361989 -141.936563 
L 111.769801 -141.936204 
L 111.177613 -141.935776 
L 110.585424 -141.935265 
L 109.993236 -141.934654 
L 109.401048 -141.933923 
L 108.80886 -141.93305 
L 108.216672 -141.932006 
L 107.624483 -141.930759 
L 107.032295 -141.929269 
L 106.440107 -141.927488 
L 105.847919 -141.92536 
L 105.255731 -141.922817 
L 104.663542 -141.919778 
L 104.071354 -141.916146 
L 103.479166 -141.911806 
L 102.886978 -141.90662 
L 102.294789 -141.900423 
L 101.702601 -141.893019 
L 101.110413 -141.884172 
L 100.518225 -141.873603 
L 99.926037 -141.860976 
L 99.333848 -141.845892 
L 98.74166 -141.827874 
L 98.149472 -141.806354 
L 97.557284 -141.780655 
L 96.965096 -141.749969 
L 96.372907 -141.713335 
L 95.780719 -141.66961 
L 95.188531 -141.617432 
L 94.596343 -141.555188 
L 94.004154 -141.480962 
L 93.411966 -141.392484 
L 92.819778 -141.28707 
L 92.22759 -141.161556 
L 91.635402 -141.012214 
L 91.043213 -140.834673 
L 90.451025 -140.623821 
L 89.858837 -140.373709 
L 89.266649 -140.077448 
L 88.674461 -139.727117 
L 88.082272 -139.313671 
L 87.490084 -138.826887 
L 86.897896 -138.255342 
L 86.305708 -137.586456 
L 85.713519 -136.806624 
L 85.121331 -135.901467 
L 84.529143 -134.856236 
L 83.936955 -133.656403 
L 83.344767 -132.288454 
L 82.752578 -130.7409 
L 82.16039 -129.005467 
L 81.568202 -127.078406 
L 80.976014 -124.961806 
L 80.383826 -122.664735 
L 79.791637 -120.204021 
L 79.199449 -117.604466 
L 78.607261 -114.898331 
L 78.015073 -112.124036 
L 77.422884 -109.324137 
L 76.830696 -106.542784 
L 76.238508 -103.822969 
L 75.64632 -101.20393 
L 75.054132 -98.719027 
L 74.461943 -96.394314 
L 73.869755 -94.247905 
L 73.277567 -92.290074 
L 72.685379 -90.523962 
L 72.093191 -88.946671 
L 71.501002 -87.550566 
L 70.908814 -86.324587 
L 70.316626 -85.255475 
L 69.724438 -84.328805 
L 69.132249 -83.529818 
L 68.540061 -82.844044 
L 67.947873 -82.257734 
L 67.355685 -81.75813 
L 66.763497 -81.333619 
L 66.171308 -80.973785 
L 65.57912 -80.669398 
L 64.986932 -80.41236 
L 64.394744 -80.195623 
L 63.802556 -80.013094 
L 63.210367 -79.859534 
L 62.618179 -79.730457 
L 62.025991 -79.622041 
L 61.433803 -79.531034 
L 60.841614 -79.45468 
L 60.249426 -79.390648 
L 59.657238 -79.33697 
L 59.06505 -79.291984 
L 58.472862 -79.254292 
L 57.880673 -79.22272 
L 57.288485 -79.196277 
L 56.696297 -79.174135 
L 56.104109 -79.155595 
L 55.511921 -79.140074 
L 54.919732 -79.127081 
L 54.327544 -79.116205 
L 53.735356 -79.107102 
L 53.143168 -79.099483 
L 52.550979 -79.093106 
L 51.958791 -79.08777 
L 51.366603 -79.083304 
L 50.774415 -79.079566 
L 50.182227 -79.076439 
L 49.590038 -79.073822 
L 48.99785 -79.071632 
L 48.405662 -79.069799 
L 47.813474 -79.068265 
L 47.221286 -79.066982 
L 46.629097 -79.065909 
L 46.036909 -79.06501 
L 45.444721 -79.064258 
L 44.852533 -79.063629 
L 44.260345 -79.063103 
L 43.668156 -79.062662 
L 43.075968 -79.062294 
L 42.48378 -79.061985 
L 41.891592 -79.061727 
L 41.299403 -79.061511 
L 40.707215 -79.061331 
L 40.115027 -79.06118 
L 39.522839 -79.061053 
L 38.930651 -79.060947 
L 38.338462 -79.060859 
L 37.746274 -79.060785 
L 37.154086 -79.060723 
L 36.561898 -79.060671 
z
" style="stroke: #87ceeb; stroke-opacity: 0.2; stroke-width: 0.8"/>
    </defs>
    <g clip-path="url(#p2637ac3421)">
     <use xlink:href="#m31eca66f6b" x="0" y="159.558656" style="fill: #87ceeb; fill-opacity: 0.2; stroke: #87ceeb; stroke-opacity: 0.2; stroke-width: 0.8"/>
    </g>
   </g>
   <g id="PathCollection_1">
    <defs>
     <path id="C0_0_6e0658418d" d="M 0 1.936492 
C 0.513564 1.936492 1.006162 1.732451 1.369306 1.369306 
C 1.732451 1.006162 1.936492 0.513564 1.936492 -0 
C 1.936492 -0.513564 1.732451 -1.006162 1.369306 -1.369306 
C 1.006162 -1.732451 0.513564 -1.936492 0 -1.936492 
C -0.513564 -1.936492 -1.006162 -1.732451 -1.369306 -1.369306 
C -1.732451 -1.006162 -1.936492 -0.513564 -1.936492 0 
C -1.936492 0.513564 -1.732451 1.006162 -1.369306 1.369306 
C -1.006162 1.732451 -0.513564 1.936492 0 1.936492 
z
"/>
    </defs>
    <g clip-path="url(#p2637ac3421)">
     <use xlink:href="#C0_0_6e0658418d" x="90.886394" y="20.774779" style="stroke: #000000; stroke-width: 0.309839"/>
    </g>
    <g clip-path="url(#p2637ac3421)">
     <use xlink:href="#C0_0_6e0658418d" x="154.407352" y="20.30987" style="stroke: #000000; stroke-width: 0.309839"/>
    </g>
    <g clip-path="url(#p2637ac3421)">
     <use xlink:href="#C0_0_6e0658418d" x="38.880804" y="83.541752" style="stroke: #000000; stroke-width: 0.309839"/>
    </g>
    <g clip-path="url(#p2637ac3421)">
     <use xlink:href="#C0_0_6e0658418d" x="64.244713" y="84.94648" style="stroke: #000000; stroke-width: 0.309839"/>
    </g>
    <g clip-path="url(#p2637ac3421)">
     <use xlink:href="#C0_0_6e0658418d" x="100.235423" y="34.41203" style="stroke: #000000; stroke-width: 0.309839"/>
    </g>
    <g clip-path="url(#p2637ac3421)">
     <use xlink:href="#C0_0_6e0658418d" x="78.443505" y="46.213895" style="stroke: #000000; stroke-width: 0.309839"/>
    </g>
    <g clip-path="url(#p2637ac3421)">
     <use xlink:href="#C0_0_6e0658418d" x="57.119145" y="93.246553" style="stroke: #000000; stroke-width: 0.309839"/>
    </g>
    <g clip-path="url(#p2637ac3421)">
     <use xlink:href="#C0_0_6e0658418d" x="94.043171" y="31.549958" style="stroke: #000000; stroke-width: 0.309839"/>
    </g>
    <g clip-path="url(#p2637ac3421)">
     <use xlink:href="#C0_0_6e0658418d" x="65.059743" y="102.163567" style="stroke: #000000; stroke-width: 0.309839"/>
    </g>
    <g clip-path="url(#p2637ac3421)">
     <use xlink:href="#C0_0_6e0658418d" x="68.093815" y="89.805016" style="stroke: #000000; stroke-width: 0.309839"/>
    </g>
    <g clip-path="url(#p2637ac3421)">
     <use xlink:href="#C0_0_6e0658418d" x="113.938556" y="27.377125" style="stroke: #000000; stroke-width: 0.309839"/>
    </g>
    <g clip-path="url(#p2637ac3421)">
     <use xlink:href="#C0_0_6e0658418d" x="81.473718" y="33.160895" style="stroke: #000000; stroke-width: 0.309839"/>
    </g>
    <g clip-path="url(#p2637ac3421)">
     <use xlink:href="#C0_0_6e0658418d" x="56.373901" y="71.568168" style="stroke: #000000; stroke-width: 0.309839"/>
    </g>
    <g clip-path="url(#p2637ac3421)">
     <use xlink:href="#C0_0_6e0658418d" x="72.042311" y="98.941252" style="stroke: #000000; stroke-width: 0.309839"/>
    </g>
    <g clip-path="url(#p2637ac3421)">
     <use xlink:href="#C0_0_6e0658418d" x="76.14041" y="95.032507" style="stroke: #000000; stroke-width: 0.309839"/>
    </g>
    <g clip-path="url(#p2637ac3421)">
     <use xlink:href="#C0_0_6e0658418d" x="92.177923" y="42.338423" style="stroke: #000000; stroke-width: 0.309839"/>
    </g>
    <g clip-path="url(#p2637ac3421)">
     <use xlink:href="#C0_0_6e0658418d" x="43.536612" y="98.495284" style="stroke: #000000; stroke-width: 0.309839"/>
    </g>
    <g clip-path="url(#p2637ac3421)">
     <use xlink:href="#C0_0_6e0658418d" x="50.066688" y="114.81079" style="stroke: #000000; stroke-width: 0.309839"/>
    </g>
    <g clip-path="url(#p2637ac3421)">
     <use xlink:href="#C0_0_6e0658418d" x="73.102855" y="82.624099" style="stroke: #000000; stroke-width: 0.309839"/>
    </g>
    <g clip-path="url(#p2637ac3421)">
     <use xlink:href="#C0_0_6e0658418d" x="36.561898" y="80.460273" style="stroke: #000000; stroke-width: 0.309839"/>
    </g>
    <g clip-path="url(#p2637ac3421)">
     <use xlink:href="#C0_0_6e0658418d" x="78.638147" y="68.022756" style="stroke: #000000; stroke-width: 0.309839"/>
    </g>
    <g clip-path="url(#p2637ac3421)">
     <use xlink:href="#C0_0_6e0658418d" x="64.374015" y="88.064932" style="stroke: #000000; stroke-width: 0.309839"/>
    </g>
    <g clip-path="url(#p2637ac3421)">
     <use xlink:href="#C0_0_6e0658418d" x="102.758923" y="33.214651" style="stroke: #000000; stroke-width: 0.309839"/>
    </g>
    <g clip-path="url(#p2637ac3421)">
     <use xlink:href="#C0_0_6e0658418d" x="65.861814" y="88.639425" style="stroke: #000000; stroke-width: 0.309839"/>
    </g>
    <g clip-path="url(#p2637ac3421)">
     <use xlink:href="#C0_0_6e0658418d" x="74.667114" y="88.460201" style="stroke: #000000; stroke-width: 0.309839"/>
    </g>
    <g clip-path="url(#p2637ac3421)">
     <use xlink:href="#C0_0_6e0658418d" x="104.957012" y="20.774779" style="fill: #ff6347; stroke: #ff6347; stroke-width: 0.309839"/>
    </g>
    <g clip-path="url(#p2637ac3421)">
     <use xlink:href="#C0_0_6e0658418d" x="141.401717" y="20.30987" style="fill: #ff6347; stroke: #ff6347; stroke-width: 0.309839"/>
    </g>
    <g clip-path="url(#p2637ac3421)">
     <use xlink:href="#C0_0_6e0658418d" x="52.206456" y="83.541752" style="fill: #ff6347; stroke: #ff6347; stroke-width: 0.309839"/>
    </g>
    <g clip-path="url(#p2637ac3421)">
     <use xlink:href="#C0_0_6e0658418d" x="69.375244" y="84.94648" style="fill: #ff6347; stroke: #ff6347; stroke-width: 0.309839"/>
    </g>
    <g clip-path="url(#p2637ac3421)">
     <use xlink:href="#C0_0_6e0658418d" x="105.77037" y="34.41203" style="fill: #ff6347; stroke: #ff6347; stroke-width: 0.309839"/>
    </g>
    <g clip-path="url(#p2637ac3421)">
     <use xlink:href="#C0_0_6e0658418d" x="86.235735" y="46.213895" style="fill: #ff6347; stroke: #ff6347; stroke-width: 0.309839"/>
    </g>
    <g clip-path="url(#p2637ac3421)">
     <use xlink:href="#C0_0_6e0658418d" x="62.854459" y="93.246553" style="fill: #ff6347; stroke: #ff6347; stroke-width: 0.309839"/>
    </g>
    <g clip-path="url(#p2637ac3421)">
     <use xlink:href="#C0_0_6e0658418d" x="94.092532" y="31.549958" style="fill: #ff6347; stroke: #ff6347; stroke-width: 0.309839"/>
    </g>
    <g clip-path="url(#p2637ac3421)">
     <use xlink:href="#C0_0_6e0658418d" x="64.506208" y="102.163567" style="fill: #ff6347; stroke: #ff6347; stroke-width: 0.309839"/>
    </g>
    <g clip-path="url(#p2637ac3421)">
     <use xlink:href="#C0_0_6e0658418d" x="64.160987" y="89.805016" style="fill: #ff6347; stroke: #ff6347; stroke-width: 0.309839"/>
    </g>
    <g clip-path="url(#p2637ac3421)">
     <use xlink:href="#C0_0_6e0658418d" x="115.970906" y="27.377125" style="fill: #ff6347; stroke: #ff6347; stroke-width: 0.309839"/>
    </g>
    <g clip-path="url(#p2637ac3421)">
     <use xlink:href="#C0_0_6e0658418d" x="74.483516" y="33.160895" style="fill: #ff6347; stroke: #ff6347; stroke-width: 0.309839"/>
    </g>
    <g clip-path="url(#p2637ac3421)">
     <use xlink:href="#C0_0_6e0658418d" x="72.839355" y="71.568168" style="fill: #ff6347; stroke: #ff6347; stroke-width: 0.309839"/>
    </g>
    <g clip-path="url(#p2637ac3421)">
     <use xlink:href="#C0_0_6e0658418d" x="69.964782" y="98.941252" style="fill: #ff6347; stroke: #ff6347; stroke-width: 0.309839"/>
    </g>
    <g clip-path="url(#p2637ac3421)">
     <use xlink:href="#C0_0_6e0658418d" x="48.583323" y="95.032507" style="fill: #ff6347; stroke: #ff6347; stroke-width: 0.309839"/>
    </g>
    <g clip-path="url(#p2637ac3421)">
     <use xlink:href="#C0_0_6e0658418d" x="91.512118" y="42.338423" style="fill: #ff6347; stroke: #ff6347; stroke-width: 0.309839"/>
    </g>
    <g clip-path="url(#p2637ac3421)">
     <use xlink:href="#C0_0_6e0658418d" x="48.722543" y="98.495284" style="fill: #ff6347; stroke: #ff6347; stroke-width: 0.309839"/>
    </g>
    <g clip-path="url(#p2637ac3421)">
     <use xlink:href="#C0_0_6e0658418d" x="40.694869" y="114.81079" style="fill: #ff6347; stroke: #ff6347; stroke-width: 0.309839"/>
    </g>
    <g clip-path="url(#p2637ac3421)">
     <use xlink:href="#C0_0_6e0658418d" x="70.801536" y="82.624099" style="fill: #ff6347; stroke: #ff6347; stroke-width: 0.309839"/>
    </g>
    <g clip-path="url(#p2637ac3421)">
     <use xlink:href="#C0_0_6e0658418d" x="57.699592" y="80.460273" style="fill: #ff6347; stroke: #ff6347; stroke-width: 0.309839"/>
    </g>
    <g clip-path="url(#p2637ac3421)">
     <use xlink:href="#C0_0_6e0658418d" x="70.622182" y="68.022756" style="fill: #ff6347; stroke: #ff6347; stroke-width: 0.309839"/>
    </g>
    <g clip-path="url(#p2637ac3421)">
     <use xlink:href="#C0_0_6e0658418d" x="62.875091" y="88.064932" style="fill: #ff6347; stroke: #ff6347; stroke-width: 0.309839"/>
    </g>
    <g clip-path="url(#p2637ac3421)">
     <use xlink:href="#C0_0_6e0658418d" x="83.065173" y="33.214651" style="fill: #ff6347; stroke: #ff6347; stroke-width: 0.309839"/>
    </g>
    <g clip-path="url(#p2637ac3421)">
     <use xlink:href="#C0_0_6e0658418d" x="61.027401" y="88.639425" style="fill: #ff6347; stroke: #ff6347; stroke-width: 0.309839"/>
    </g>
    <g clip-path="url(#p2637ac3421)">
     <use xlink:href="#C0_0_6e0658418d" x="72.30857" y="88.460201" style="fill: #ff6347; stroke: #ff6347; stroke-width: 0.309839"/>
    </g>
   </g>
   <g id="matplotlib.axis_1">
    <g id="xtick_1">
     <g id="line2d_1">
      <defs>
       <path id="mcc2a6ce19b" d="M 0 0 
L 0 4.8 
" style="stroke: #000000; stroke-width: 0.5"/>
      </defs>
      <g>
       <use xlink:href="#mcc2a6ce19b" x="38.758511" y="130.98" style="stroke: #000000; stroke-width: 0.5"/>
      </g>
     </g>
     <g id="text_1">
      <!-- 0.5 -->
      <g transform="translate(32.642511 145.578875) scale(0.088 -0.088)">
       <defs>
        <path id="ArialMT-30" d="M 266 2259 
Q 266 3072 433 3567 
Q 600 4063 929 4331 
Q 1259 4600 1759 4600 
Q 2128 4600 2406 4451 
Q 2684 4303 2865 4023 
Q 3047 3744 3150 3342 
Q 3253 2941 3253 2259 
Q 3253 1453 3087 958 
Q 2922 463 2592 192 
Q 2263 -78 1759 -78 
Q 1097 -78 719 397 
Q 266 969 266 2259 
z
M 844 2259 
Q 844 1131 1108 757 
Q 1372 384 1759 384 
Q 2147 384 2411 759 
Q 2675 1134 2675 2259 
Q 2675 3391 2411 3762 
Q 2147 4134 1753 4134 
Q 1366 4134 1134 3806 
Q 844 3388 844 2259 
z
" transform="scale(0.015625)"/>
        <path id="ArialMT-2e" d="M 581 0 
L 581 641 
L 1222 641 
L 1222 0 
L 581 0 
z
" transform="scale(0.015625)"/>
        <path id="ArialMT-35" d="M 266 1200 
L 856 1250 
Q 922 819 1161 601 
Q 1400 384 1738 384 
Q 2144 384 2425 690 
Q 2706 997 2706 1503 
Q 2706 1984 2436 2262 
Q 2166 2541 1728 2541 
Q 1456 2541 1237 2417 
Q 1019 2294 894 2097 
L 366 2166 
L 809 4519 
L 3088 4519 
L 3088 3981 
L 1259 3981 
L 1013 2750 
Q 1425 3038 1878 3038 
Q 2478 3038 2890 2622 
Q 3303 2206 3303 1553 
Q 3303 931 2941 478 
Q 2500 -78 1738 -78 
Q 1113 -78 717 272 
Q 322 622 266 1200 
z
" transform="scale(0.015625)"/>
       </defs>
       <use xlink:href="#ArialMT-30"/>
       <use xlink:href="#ArialMT-2e" x="55.615234"/>
       <use xlink:href="#ArialMT-35" x="83.398438"/>
      </g>
     </g>
    </g>
    <g id="xtick_2">
     <g id="line2d_2">
      <g>
       <use xlink:href="#mcc2a6ce19b" x="73.778546" y="130.98" style="stroke: #000000; stroke-width: 0.5"/>
      </g>
     </g>
     <g id="text_2">
      <!-- 1.0 -->
      <g transform="translate(67.662546 145.578875) scale(0.088 -0.088)">
       <defs>
        <path id="ArialMT-31" d="M 2384 0 
L 1822 0 
L 1822 3584 
Q 1619 3391 1289 3197 
Q 959 3003 697 2906 
L 697 3450 
Q 1169 3672 1522 3987 
Q 1875 4303 2022 4600 
L 2384 4600 
L 2384 0 
z
" transform="scale(0.015625)"/>
       </defs>
       <use xlink:href="#ArialMT-31"/>
       <use xlink:href="#ArialMT-2e" x="55.615234"/>
       <use xlink:href="#ArialMT-30" x="83.398438"/>
      </g>
     </g>
    </g>
    <g id="xtick_3">
     <g id="line2d_3">
      <g>
       <use xlink:href="#mcc2a6ce19b" x="108.798581" y="130.98" style="stroke: #000000; stroke-width: 0.5"/>
      </g>
     </g>
     <g id="text_3">
      <!-- 1.5 -->
      <g transform="translate(102.682581 145.578875) scale(0.088 -0.088)">
       <use xlink:href="#ArialMT-31"/>
       <use xlink:href="#ArialMT-2e" x="55.615234"/>
       <use xlink:href="#ArialMT-35" x="83.398438"/>
      </g>
     </g>
    </g>
    <g id="xtick_4">
     <g id="line2d_4">
      <g>
       <use xlink:href="#mcc2a6ce19b" x="143.818616" y="130.98" style="stroke: #000000; stroke-width: 0.5"/>
      </g>
     </g>
     <g id="text_4">
      <!-- 2.0 -->
      <g transform="translate(137.702616 145.578875) scale(0.088 -0.088)">
       <defs>
        <path id="ArialMT-32" d="M 3222 541 
L 3222 0 
L 194 0 
Q 188 203 259 391 
Q 375 700 629 1000 
Q 884 1300 1366 1694 
Q 2113 2306 2375 2664 
Q 2638 3022 2638 3341 
Q 2638 3675 2398 3904 
Q 2159 4134 1775 4134 
Q 1369 4134 1125 3890 
Q 881 3647 878 3216 
L 300 3275 
Q 359 3922 746 4261 
Q 1134 4600 1788 4600 
Q 2447 4600 2831 4234 
Q 3216 3869 3216 3328 
Q 3216 3053 3103 2787 
Q 2991 2522 2730 2228 
Q 2469 1934 1863 1422 
Q 1356 997 1212 845 
Q 1069 694 975 541 
L 3222 541 
z
" transform="scale(0.015625)"/>
       </defs>
       <use xlink:href="#ArialMT-32"/>
       <use xlink:href="#ArialMT-2e" x="55.615234"/>
       <use xlink:href="#ArialMT-30" x="83.398438"/>
      </g>
     </g>
    </g>
    <g id="text_5">
     <!-- Ratio -->
     <g transform="translate(84.979938 157.769906) scale(0.09 -0.09)">
      <defs>
       <path id="ArialMT-52" d="M 503 0 
L 503 4581 
L 2534 4581 
Q 3147 4581 3465 4457 
Q 3784 4334 3975 4021 
Q 4166 3709 4166 3331 
Q 4166 2844 3850 2509 
Q 3534 2175 2875 2084 
Q 3116 1969 3241 1856 
Q 3506 1613 3744 1247 
L 4541 0 
L 3778 0 
L 3172 953 
Q 2906 1366 2734 1584 
Q 2563 1803 2427 1890 
Q 2291 1978 2150 2013 
Q 2047 2034 1813 2034 
L 1109 2034 
L 1109 0 
L 503 0 
z
M 1109 2559 
L 2413 2559 
Q 2828 2559 3062 2645 
Q 3297 2731 3419 2920 
Q 3541 3109 3541 3331 
Q 3541 3656 3305 3865 
Q 3069 4075 2559 4075 
L 1109 4075 
L 1109 2559 
z
" transform="scale(0.015625)"/>
       <path id="ArialMT-61" d="M 2588 409 
Q 2275 144 1986 34 
Q 1697 -75 1366 -75 
Q 819 -75 525 192 
Q 231 459 231 875 
Q 231 1119 342 1320 
Q 453 1522 633 1644 
Q 813 1766 1038 1828 
Q 1203 1872 1538 1913 
Q 2219 1994 2541 2106 
Q 2544 2222 2544 2253 
Q 2544 2597 2384 2738 
Q 2169 2928 1744 2928 
Q 1347 2928 1158 2789 
Q 969 2650 878 2297 
L 328 2372 
Q 403 2725 575 2942 
Q 747 3159 1072 3276 
Q 1397 3394 1825 3394 
Q 2250 3394 2515 3294 
Q 2781 3194 2906 3042 
Q 3031 2891 3081 2659 
Q 3109 2516 3109 2141 
L 3109 1391 
Q 3109 606 3145 398 
Q 3181 191 3288 0 
L 2700 0 
Q 2613 175 2588 409 
z
M 2541 1666 
Q 2234 1541 1622 1453 
Q 1275 1403 1131 1340 
Q 988 1278 909 1158 
Q 831 1038 831 891 
Q 831 666 1001 516 
Q 1172 366 1500 366 
Q 1825 366 2078 508 
Q 2331 650 2450 897 
Q 2541 1088 2541 1459 
L 2541 1666 
z
" transform="scale(0.015625)"/>
       <path id="ArialMT-74" d="M 1650 503 
L 1731 6 
Q 1494 -44 1306 -44 
Q 1000 -44 831 53 
Q 663 150 594 308 
Q 525 466 525 972 
L 525 2881 
L 113 2881 
L 113 3319 
L 525 3319 
L 525 4141 
L 1084 4478 
L 1084 3319 
L 1650 3319 
L 1650 2881 
L 1084 2881 
L 1084 941 
Q 1084 700 1114 631 
Q 1144 563 1211 522 
Q 1278 481 1403 481 
Q 1497 481 1650 503 
z
" transform="scale(0.015625)"/>
       <path id="ArialMT-69" d="M 425 3934 
L 425 4581 
L 988 4581 
L 988 3934 
L 425 3934 
z
M 425 0 
L 425 3319 
L 988 3319 
L 988 0 
L 425 0 
z
" transform="scale(0.015625)"/>
       <path id="ArialMT-6f" d="M 213 1659 
Q 213 2581 725 3025 
Q 1153 3394 1769 3394 
Q 2453 3394 2887 2945 
Q 3322 2497 3322 1706 
Q 3322 1066 3130 698 
Q 2938 331 2570 128 
Q 2203 -75 1769 -75 
Q 1072 -75 642 372 
Q 213 819 213 1659 
z
M 791 1659 
Q 791 1022 1069 705 
Q 1347 388 1769 388 
Q 2188 388 2466 706 
Q 2744 1025 2744 1678 
Q 2744 2294 2464 2611 
Q 2184 2928 1769 2928 
Q 1347 2928 1069 2612 
Q 791 2297 791 1659 
z
" transform="scale(0.015625)"/>
      </defs>
      <use xlink:href="#ArialMT-52"/>
      <use xlink:href="#ArialMT-61" x="72.216797"/>
      <use xlink:href="#ArialMT-74" x="127.832031"/>
      <use xlink:href="#ArialMT-69" x="155.615234"/>
      <use xlink:href="#ArialMT-6f" x="177.832031"/>
     </g>
    </g>
   </g>
   <g id="matplotlib.axis_2">
    <g id="ytick_1">
     <g id="line2d_5">
      <defs>
       <path id="m70666a3c6f" d="M 0 0 
L -4.8 0 
" style="stroke: #000000; stroke-width: 0.5"/>
      </defs>
      <g>
       <use xlink:href="#m70666a3c6f" x="30.669625" y="121.984504" style="stroke: #000000; stroke-width: 0.5"/>
      </g>
     </g>
     <g id="text_6">
      <!-- −1 -->
      <g transform="translate(12.33625 125.133941) scale(0.088 -0.088)">
       <defs>
        <path id="ArialMT-2212" d="M 3381 1997 
L 356 1997 
L 356 2522 
L 3381 2522 
L 3381 1997 
z
" transform="scale(0.015625)"/>
       </defs>
       <use xlink:href="#ArialMT-2212"/>
       <use xlink:href="#ArialMT-31" x="58.398438"/>
      </g>
     </g>
    </g>
    <g id="ytick_2">
     <g id="line2d_6">
      <g>
       <use xlink:href="#m70666a3c6f" x="30.669625" y="98.932707" style="stroke: #000000; stroke-width: 0.5"/>
      </g>
     </g>
     <g id="text_7">
      <!-- 0 -->
      <g transform="translate(17.476 102.082144) scale(0.088 -0.088)">
       <use xlink:href="#ArialMT-30"/>
      </g>
     </g>
    </g>
    <g id="ytick_3">
     <g id="line2d_7">
      <g>
       <use xlink:href="#m70666a3c6f" x="30.669625" y="75.880909" style="stroke: #000000; stroke-width: 0.5"/>
      </g>
     </g>
     <g id="text_8">
      <!-- 1 -->
      <g transform="translate(17.476 79.030347) scale(0.088 -0.088)">
       <use xlink:href="#ArialMT-31"/>
      </g>
     </g>
    </g>
    <g id="ytick_4">
     <g id="line2d_8">
      <g>
       <use xlink:href="#m70666a3c6f" x="30.669625" y="52.829112" style="stroke: #000000; stroke-width: 0.5"/>
      </g>
     </g>
     <g id="text_9">
      <!-- 2 -->
      <g transform="translate(17.476 55.97855) scale(0.088 -0.088)">
       <use xlink:href="#ArialMT-32"/>
      </g>
     </g>
    </g>
    <g id="ytick_5">
     <g id="line2d_9">
      <g>
       <use xlink:href="#m70666a3c6f" x="30.669625" y="29.777315" style="stroke: #000000; stroke-width: 0.5"/>
      </g>
     </g>
     <g id="text_10">
      <!-- 3 -->
      <g transform="translate(17.476 32.926753) scale(0.088 -0.088)">
       <defs>
        <path id="ArialMT-33" d="M 269 1209 
L 831 1284 
Q 928 806 1161 595 
Q 1394 384 1728 384 
Q 2125 384 2398 659 
Q 2672 934 2672 1341 
Q 2672 1728 2419 1979 
Q 2166 2231 1775 2231 
Q 1616 2231 1378 2169 
L 1441 2663 
Q 1497 2656 1531 2656 
Q 1891 2656 2178 2843 
Q 2466 3031 2466 3422 
Q 2466 3731 2256 3934 
Q 2047 4138 1716 4138 
Q 1388 4138 1169 3931 
Q 950 3725 888 3313 
L 325 3413 
Q 428 3978 793 4289 
Q 1159 4600 1703 4600 
Q 2078 4600 2393 4439 
Q 2709 4278 2876 4000 
Q 3044 3722 3044 3409 
Q 3044 3113 2884 2869 
Q 2725 2625 2413 2481 
Q 2819 2388 3044 2092 
Q 3269 1797 3269 1353 
Q 3269 753 2831 336 
Q 2394 -81 1725 -81 
Q 1122 -81 723 278 
Q 325 638 269 1209 
z
" transform="scale(0.015625)"/>
       </defs>
       <use xlink:href="#ArialMT-33"/>
      </g>
     </g>
    </g>
    <g id="ytick_6">
     <g id="line2d_10">
      <g>
       <use xlink:href="#m70666a3c6f" x="30.669625" y="6.725518" style="stroke: #000000; stroke-width: 0.5"/>
      </g>
     </g>
     <g id="text_11">
      <!-- 4 -->
      <g transform="translate(17.476 9.874956) scale(0.088 -0.088)">
       <defs>
        <path id="ArialMT-34" d="M 2069 0 
L 2069 1097 
L 81 1097 
L 81 1613 
L 2172 4581 
L 2631 4581 
L 2631 1613 
L 3250 1613 
L 3250 1097 
L 2631 1097 
L 2631 0 
L 2069 0 
z
M 2069 1613 
L 2069 3678 
L 634 1613 
L 2069 1613 
z
" transform="scale(0.015625)"/>
       </defs>
       <use xlink:href="#ArialMT-34"/>
      </g>
     </g>
    </g>
    <g id="text_12">
     <!-- logRFP -->
     <g transform="translate(6.442031 80.494688) rotate(-90) scale(0.09 -0.09)">
      <defs>
       <path id="ArialMT-6c" d="M 409 0 
L 409 4581 
L 972 4581 
L 972 0 
L 409 0 
z
" transform="scale(0.015625)"/>
       <path id="ArialMT-67" d="M 319 -275 
L 866 -356 
Q 900 -609 1056 -725 
Q 1266 -881 1628 -881 
Q 2019 -881 2231 -725 
Q 2444 -569 2519 -288 
Q 2563 -116 2559 434 
Q 2191 0 1641 0 
Q 956 0 581 494 
Q 206 988 206 1678 
Q 206 2153 378 2554 
Q 550 2956 876 3175 
Q 1203 3394 1644 3394 
Q 2231 3394 2613 2919 
L 2613 3319 
L 3131 3319 
L 3131 450 
Q 3131 -325 2973 -648 
Q 2816 -972 2473 -1159 
Q 2131 -1347 1631 -1347 
Q 1038 -1347 672 -1080 
Q 306 -813 319 -275 
z
M 784 1719 
Q 784 1066 1043 766 
Q 1303 466 1694 466 
Q 2081 466 2343 764 
Q 2606 1063 2606 1700 
Q 2606 2309 2336 2618 
Q 2066 2928 1684 2928 
Q 1309 2928 1046 2623 
Q 784 2319 784 1719 
z
" transform="scale(0.015625)"/>
       <path id="ArialMT-46" d="M 525 0 
L 525 4581 
L 3616 4581 
L 3616 4041 
L 1131 4041 
L 1131 2622 
L 3281 2622 
L 3281 2081 
L 1131 2081 
L 1131 0 
L 525 0 
z
" transform="scale(0.015625)"/>
       <path id="ArialMT-50" d="M 494 0 
L 494 4581 
L 2222 4581 
Q 2678 4581 2919 4538 
Q 3256 4481 3484 4323 
Q 3713 4166 3852 3881 
Q 3991 3597 3991 3256 
Q 3991 2672 3619 2267 
Q 3247 1863 2275 1863 
L 1100 1863 
L 1100 0 
L 494 0 
z
M 1100 2403 
L 2284 2403 
Q 2872 2403 3119 2622 
Q 3366 2841 3366 3238 
Q 3366 3525 3220 3729 
Q 3075 3934 2838 4000 
Q 2684 4041 2272 4041 
L 1100 4041 
L 1100 2403 
z
" transform="scale(0.015625)"/>
      </defs>
      <use xlink:href="#ArialMT-6c"/>
      <use xlink:href="#ArialMT-6f" x="22.216797"/>
      <use xlink:href="#ArialMT-67" x="77.832031"/>
      <use xlink:href="#ArialMT-52" x="133.447266"/>
      <use xlink:href="#ArialMT-46" x="205.664062"/>
      <use xlink:href="#ArialMT-50" x="266.748047"/>
     </g>
    </g>
   </g>
   <g id="line2d_11">
    <path d="M 36.561898 92.43181 
L 56.104109 92.336886 
L 60.249426 92.101833 
L 62.618179 91.762024 
L 64.394744 91.296858 
L 65.57912 90.823083 
L 66.763497 90.158862 
L 67.947873 89.234747 
L 69.132249 87.962663 
L 70.316626 86.237006 
L 71.501002 83.941916 
L 72.685379 80.968519 
L 73.869755 77.244576 
L 75.054132 72.773454 
L 76.830696 64.949697 
L 79.791637 51.28846 
L 80.976014 46.530675 
L 82.16039 42.487014 
L 83.344767 39.204027 
L 84.529143 36.636245 
L 85.713519 34.685857 
L 86.897896 33.237139 
L 88.082272 32.17881 
L 89.266649 31.415033 
L 90.451025 30.86866 
L 92.22759 30.330925 
L 94.596343 29.937293 
L 97.557284 29.711826 
L 102.886978 29.585861 
L 118.876059 29.554341 
L 154.407352 29.554083 
L 154.407352 29.554083 
" clip-path="url(#p2637ac3421)" style="fill: none; stroke: #87ceeb; stroke-linecap: square"/>
   </g>
   <g id="line2d_12"/>
   <g id="line2d_13"/>
   <g id="LineCollection_1">
    <path d="M 90.886394 25.124288 
L 90.886394 16.42527 
" clip-path="url(#p2637ac3421)" style="fill: none; stroke: #000000; stroke-opacity: 0.8; stroke-width: 0.5"/>
    <path d="M 154.407352 34.666104 
L 154.407352 5.953636 
" clip-path="url(#p2637ac3421)" style="fill: none; stroke: #000000; stroke-opacity: 0.8; stroke-width: 0.5"/>
    <path d="M 38.880804 90.641151 
L 38.880804 76.442353 
" clip-path="url(#p2637ac3421)" style="fill: none; stroke: #000000; stroke-opacity: 0.8; stroke-width: 0.5"/>
    <path d="M 64.244713 92.136223 
L 64.244713 77.756738 
" clip-path="url(#p2637ac3421)" style="fill: none; stroke: #000000; stroke-opacity: 0.8; stroke-width: 0.5"/>
    <path d="M 100.235423 42.744464 
L 100.235423 26.079597 
" clip-path="url(#p2637ac3421)" style="fill: none; stroke: #000000; stroke-opacity: 0.8; stroke-width: 0.5"/>
    <path d="M 78.443505 67.292024 
L 78.443505 25.135766 
" clip-path="url(#p2637ac3421)" style="fill: none; stroke: #000000; stroke-opacity: 0.8; stroke-width: 0.5"/>
    <path d="M 57.119145 98.671918 
L 57.119145 87.821187 
" clip-path="url(#p2637ac3421)" style="fill: none; stroke: #000000; stroke-opacity: 0.8; stroke-width: 0.5"/>
    <path d="M 94.043171 43.404086 
L 94.043171 19.695831 
" clip-path="url(#p2637ac3421)" style="fill: none; stroke: #000000; stroke-opacity: 0.8; stroke-width: 0.5"/>
    <path d="M 65.059743 113.830775 
L 65.059743 90.49636 
" clip-path="url(#p2637ac3421)" style="fill: none; stroke: #000000; stroke-opacity: 0.8; stroke-width: 0.5"/>
    <path d="M 68.093815 94.92608 
L 68.093815 84.683952 
" clip-path="url(#p2637ac3421)" style="fill: none; stroke: #000000; stroke-opacity: 0.8; stroke-width: 0.5"/>
    <path d="M 113.938556 37.398211 
L 113.938556 17.356039 
" clip-path="url(#p2637ac3421)" style="fill: none; stroke: #000000; stroke-opacity: 0.8; stroke-width: 0.5"/>
    <path d="M 81.473718 44.803667 
L 81.473718 21.518123 
" clip-path="url(#p2637ac3421)" style="fill: none; stroke: #000000; stroke-opacity: 0.8; stroke-width: 0.5"/>
    <path d="M 56.373901 80.282302 
L 56.373901 62.854034 
" clip-path="url(#p2637ac3421)" style="fill: none; stroke: #000000; stroke-opacity: 0.8; stroke-width: 0.5"/>
    <path d="M 72.042311 105.313064 
L 72.042311 92.56944 
" clip-path="url(#p2637ac3421)" style="fill: none; stroke: #000000; stroke-opacity: 0.8; stroke-width: 0.5"/>
    <path d="M 76.14041 102.191906 
L 76.14041 87.873108 
" clip-path="url(#p2637ac3421)" style="fill: none; stroke: #000000; stroke-opacity: 0.8; stroke-width: 0.5"/>
    <path d="M 92.177923 65.254018 
L 92.177923 19.422828 
" clip-path="url(#p2637ac3421)" style="fill: none; stroke: #000000; stroke-opacity: 0.8; stroke-width: 0.5"/>
    <path d="M 43.536612 107.430844 
L 43.536612 89.559725 
" clip-path="url(#p2637ac3421)" style="fill: none; stroke: #000000; stroke-opacity: 0.8; stroke-width: 0.5"/>
    <path d="M 50.066688 125.026364 
L 50.066688 104.595216 
" clip-path="url(#p2637ac3421)" style="fill: none; stroke: #000000; stroke-opacity: 0.8; stroke-width: 0.5"/>
    <path d="M 73.102855 89.571832 
L 73.102855 75.676366 
" clip-path="url(#p2637ac3421)" style="fill: none; stroke: #000000; stroke-opacity: 0.8; stroke-width: 0.5"/>
    <path d="M 36.561898 89.215015 
L 36.561898 71.705532 
" clip-path="url(#p2637ac3421)" style="fill: none; stroke: #000000; stroke-opacity: 0.8; stroke-width: 0.5"/>
    <path d="M 78.638147 85.991646 
L 78.638147 50.053866 
" clip-path="url(#p2637ac3421)" style="fill: none; stroke: #000000; stroke-opacity: 0.8; stroke-width: 0.5"/>
    <path d="M 64.374015 96.807324 
L 64.374015 79.32254 
" clip-path="url(#p2637ac3421)" style="fill: none; stroke: #000000; stroke-opacity: 0.8; stroke-width: 0.5"/>
    <path d="M 102.758923 39.863451 
L 102.758923 26.565851 
" clip-path="url(#p2637ac3421)" style="fill: none; stroke: #000000; stroke-opacity: 0.8; stroke-width: 0.5"/>
    <path d="M 65.861814 95.814036 
L 65.861814 81.464815 
" clip-path="url(#p2637ac3421)" style="fill: none; stroke: #000000; stroke-opacity: 0.8; stroke-width: 0.5"/>
    <path d="M 74.667114 103.082406 
L 74.667114 73.837995 
" clip-path="url(#p2637ac3421)" style="fill: none; stroke: #000000; stroke-opacity: 0.8; stroke-width: 0.5"/>
   </g>
   <g id="LineCollection_2">
    <path d="M 104.957012 25.124288 
L 104.957012 16.42527 
" clip-path="url(#p2637ac3421)" style="fill: none; stroke: #ff6347; stroke-opacity: 0.8; stroke-width: 0.5"/>
    <path d="M 141.401717 34.666104 
L 141.401717 5.953636 
" clip-path="url(#p2637ac3421)" style="fill: none; stroke: #ff6347; stroke-opacity: 0.8; stroke-width: 0.5"/>
    <path d="M 52.206456 90.641151 
L 52.206456 76.442353 
" clip-path="url(#p2637ac3421)" style="fill: none; stroke: #ff6347; stroke-opacity: 0.8; stroke-width: 0.5"/>
    <path d="M 69.375244 92.136223 
L 69.375244 77.756738 
" clip-path="url(#p2637ac3421)" style="fill: none; stroke: #ff6347; stroke-opacity: 0.8; stroke-width: 0.5"/>
    <path d="M 105.77037 42.744464 
L 105.77037 26.079597 
" clip-path="url(#p2637ac3421)" style="fill: none; stroke: #ff6347; stroke-opacity: 0.8; stroke-width: 0.5"/>
    <path d="M 86.235735 67.292024 
L 86.235735 25.135766 
" clip-path="url(#p2637ac3421)" style="fill: none; stroke: #ff6347; stroke-opacity: 0.8; stroke-width: 0.5"/>
    <path d="M 62.854459 98.671918 
L 62.854459 87.821187 
" clip-path="url(#p2637ac3421)" style="fill: none; stroke: #ff6347; stroke-opacity: 0.8; stroke-width: 0.5"/>
    <path d="M 94.092532 43.404086 
L 94.092532 19.695831 
" clip-path="url(#p2637ac3421)" style="fill: none; stroke: #ff6347; stroke-opacity: 0.8; stroke-width: 0.5"/>
    <path d="M 64.506208 113.830775 
L 64.506208 90.49636 
" clip-path="url(#p2637ac3421)" style="fill: none; stroke: #ff6347; stroke-opacity: 0.8; stroke-width: 0.5"/>
    <path d="M 64.160987 94.92608 
L 64.160987 84.683952 
" clip-path="url(#p2637ac3421)" style="fill: none; stroke: #ff6347; stroke-opacity: 0.8; stroke-width: 0.5"/>
    <path d="M 115.970906 37.398211 
L 115.970906 17.356039 
" clip-path="url(#p2637ac3421)" style="fill: none; stroke: #ff6347; stroke-opacity: 0.8; stroke-width: 0.5"/>
    <path d="M 74.483516 44.803667 
L 74.483516 21.518123 
" clip-path="url(#p2637ac3421)" style="fill: none; stroke: #ff6347; stroke-opacity: 0.8; stroke-width: 0.5"/>
    <path d="M 72.839355 80.282302 
L 72.839355 62.854034 
" clip-path="url(#p2637ac3421)" style="fill: none; stroke: #ff6347; stroke-opacity: 0.8; stroke-width: 0.5"/>
    <path d="M 69.964782 105.313064 
L 69.964782 92.56944 
" clip-path="url(#p2637ac3421)" style="fill: none; stroke: #ff6347; stroke-opacity: 0.8; stroke-width: 0.5"/>
    <path d="M 48.583323 102.191906 
L 48.583323 87.873108 
" clip-path="url(#p2637ac3421)" style="fill: none; stroke: #ff6347; stroke-opacity: 0.8; stroke-width: 0.5"/>
    <path d="M 91.512118 65.254018 
L 91.512118 19.422828 
" clip-path="url(#p2637ac3421)" style="fill: none; stroke: #ff6347; stroke-opacity: 0.8; stroke-width: 0.5"/>
    <path d="M 48.722543 107.430844 
L 48.722543 89.559725 
" clip-path="url(#p2637ac3421)" style="fill: none; stroke: #ff6347; stroke-opacity: 0.8; stroke-width: 0.5"/>
    <path d="M 40.694869 125.026364 
L 40.694869 104.595216 
" clip-path="url(#p2637ac3421)" style="fill: none; stroke: #ff6347; stroke-opacity: 0.8; stroke-width: 0.5"/>
    <path d="M 70.801536 89.571832 
L 70.801536 75.676366 
" clip-path="url(#p2637ac3421)" style="fill: none; stroke: #ff6347; stroke-opacity: 0.8; stroke-width: 0.5"/>
    <path d="M 57.699592 89.215015 
L 57.699592 71.705532 
" clip-path="url(#p2637ac3421)" style="fill: none; stroke: #ff6347; stroke-opacity: 0.8; stroke-width: 0.5"/>
    <path d="M 70.622182 85.991646 
L 70.622182 50.053866 
" clip-path="url(#p2637ac3421)" style="fill: none; stroke: #ff6347; stroke-opacity: 0.8; stroke-width: 0.5"/>
    <path d="M 62.875091 96.807324 
L 62.875091 79.32254 
" clip-path="url(#p2637ac3421)" style="fill: none; stroke: #ff6347; stroke-opacity: 0.8; stroke-width: 0.5"/>
    <path d="M 83.065173 39.863451 
L 83.065173 26.565851 
" clip-path="url(#p2637ac3421)" style="fill: none; stroke: #ff6347; stroke-opacity: 0.8; stroke-width: 0.5"/>
    <path d="M 61.027401 95.814036 
L 61.027401 81.464815 
" clip-path="url(#p2637ac3421)" style="fill: none; stroke: #ff6347; stroke-opacity: 0.8; stroke-width: 0.5"/>
    <path d="M 72.30857 103.082406 
L 72.30857 73.837995 
" clip-path="url(#p2637ac3421)" style="fill: none; stroke: #ff6347; stroke-opacity: 0.8; stroke-width: 0.5"/>
   </g>
   <g id="line2d_14">
    <path d="M 30.669625 60.99308 
L 160.299625 60.99308 
" clip-path="url(#p2637ac3421)" style="fill: none; stroke-dasharray: 1.85,0.8; stroke-dashoffset: 0; stroke: #808080; stroke-width: 0.5"/>
   </g>
   <g id="line2d_15">
    <path d="M 80.32647 130.98 
L 80.32647 0 
" clip-path="url(#p2637ac3421)" style="fill: none; stroke-dasharray: 1.85,0.8; stroke-dashoffset: 0; stroke: #808080; stroke-width: 0.5"/>
   </g>
   <g id="patch_3">
    <path d="M 30.669625 130.98 
L 30.669625 -0 
" style="fill: none; stroke: #000000; stroke-width: 0.5; stroke-linejoin: miter; stroke-linecap: square"/>
   </g>
   <g id="patch_4">
    <path d="M 160.299625 130.98 
L 160.299625 -0 
" style="fill: none; stroke: #000000; stroke-width: 0.5; stroke-linejoin: miter; stroke-linecap: square"/>
   </g>
   <g id="patch_5">
    <path d="M 30.669625 130.98 
L 160.299625 130.98 
" style="fill: none; stroke: #000000; stroke-width: 0.5; stroke-linejoin: miter; stroke-linecap: square"/>
   </g>
   <g id="patch_6">
    <path d="M 30.669625 0 
L 160.299625 0 
" style="fill: none; stroke: #000000; stroke-width: 0.5; stroke-linejoin: miter; stroke-linecap: square"/>
   </g>
   <g id="legend_1">
    <g id="line2d_16">
     <defs>
      <path id="mda0062e5b7" d="M 0 1.936492 
C 0.513564 1.936492 1.006162 1.732451 1.369306 1.369306 
C 1.732451 1.006162 1.936492 0.513564 1.936492 0 
C 1.936492 -0.513564 1.732451 -1.006162 1.369306 -1.369306 
C 1.006162 -1.732451 0.513564 -1.936492 0 -1.936492 
C -0.513564 -1.936492 -1.006162 -1.732451 -1.369306 -1.369306 
C -1.732451 -1.006162 -1.936492 -0.513564 -1.936492 0 
C -1.936492 0.513564 -1.732451 1.006162 -1.369306 1.369306 
C -1.006162 1.732451 -0.513564 1.936492 0 1.936492 
z
" style="stroke: #000000; stroke-width: 0.309839"/>
     </defs>
     <g>
      <use xlink:href="#mda0062e5b7" x="101.31625" y="105.757" style="stroke: #000000; stroke-width: 0.309839"/>
     </g>
    </g>
    <g id="text_13">
     <!-- Replicate 1 -->
     <g transform="translate(108.35625 108.837) scale(0.088 -0.088)">
      <defs>
       <path id="ArialMT-65" d="M 2694 1069 
L 3275 997 
Q 3138 488 2766 206 
Q 2394 -75 1816 -75 
Q 1088 -75 661 373 
Q 234 822 234 1631 
Q 234 2469 665 2931 
Q 1097 3394 1784 3394 
Q 2450 3394 2872 2941 
Q 3294 2488 3294 1666 
Q 3294 1616 3291 1516 
L 816 1516 
Q 847 969 1125 678 
Q 1403 388 1819 388 
Q 2128 388 2347 550 
Q 2566 713 2694 1069 
z
M 847 1978 
L 2700 1978 
Q 2663 2397 2488 2606 
Q 2219 2931 1791 2931 
Q 1403 2931 1139 2672 
Q 875 2413 847 1978 
z
" transform="scale(0.015625)"/>
       <path id="ArialMT-70" d="M 422 -1272 
L 422 3319 
L 934 3319 
L 934 2888 
Q 1116 3141 1344 3267 
Q 1572 3394 1897 3394 
Q 2322 3394 2647 3175 
Q 2972 2956 3137 2557 
Q 3303 2159 3303 1684 
Q 3303 1175 3120 767 
Q 2938 359 2589 142 
Q 2241 -75 1856 -75 
Q 1575 -75 1351 44 
Q 1128 163 984 344 
L 984 -1272 
L 422 -1272 
z
M 931 1641 
Q 931 1000 1190 694 
Q 1450 388 1819 388 
Q 2194 388 2461 705 
Q 2728 1022 2728 1688 
Q 2728 2322 2467 2637 
Q 2206 2953 1844 2953 
Q 1484 2953 1207 2617 
Q 931 2281 931 1641 
z
" transform="scale(0.015625)"/>
       <path id="ArialMT-63" d="M 2588 1216 
L 3141 1144 
Q 3050 572 2676 248 
Q 2303 -75 1759 -75 
Q 1078 -75 664 370 
Q 250 816 250 1647 
Q 250 2184 428 2587 
Q 606 2991 970 3192 
Q 1334 3394 1763 3394 
Q 2303 3394 2647 3120 
Q 2991 2847 3088 2344 
L 2541 2259 
Q 2463 2594 2264 2762 
Q 2066 2931 1784 2931 
Q 1359 2931 1093 2626 
Q 828 2322 828 1663 
Q 828 994 1084 691 
Q 1341 388 1753 388 
Q 2084 388 2306 591 
Q 2528 794 2588 1216 
z
" transform="scale(0.015625)"/>
       <path id="ArialMT-20" transform="scale(0.015625)"/>
      </defs>
      <use xlink:href="#ArialMT-52"/>
      <use xlink:href="#ArialMT-65" x="72.216797"/>
      <use xlink:href="#ArialMT-70" x="127.832031"/>
      <use xlink:href="#ArialMT-6c" x="183.447266"/>
      <use xlink:href="#ArialMT-69" x="205.664062"/>
      <use xlink:href="#ArialMT-63" x="227.880859"/>
      <use xlink:href="#ArialMT-61" x="277.880859"/>
      <use xlink:href="#ArialMT-74" x="333.496094"/>
      <use xlink:href="#ArialMT-65" x="361.279297"/>
      <use xlink:href="#ArialMT-20" x="416.894531"/>
      <use xlink:href="#ArialMT-31" x="444.677734"/>
     </g>
    </g>
    <g id="line2d_17">
     <defs>
      <path id="m2d34e17edf" d="M 0 1.936492 
C 0.513564 1.936492 1.006162 1.732451 1.369306 1.369306 
C 1.732451 1.006162 1.936492 0.513564 1.936492 0 
C 1.936492 -0.513564 1.732451 -1.006162 1.369306 -1.369306 
C 1.006162 -1.732451 0.513564 -1.936492 0 -1.936492 
C -0.513564 -1.936492 -1.006162 -1.732451 -1.369306 -1.369306 
C -1.732451 -1.006162 -1.936492 -0.513564 -1.936492 0 
C -1.936492 0.513564 -1.732451 1.006162 -1.369306 1.369306 
C -1.006162 1.732451 -0.513564 1.936492 0 1.936492 
z
" style="stroke: #ff6347; stroke-width: 0.309839"/>
     </defs>
     <g>
      <use xlink:href="#m2d34e17edf" x="101.31625" y="118.231" style="fill: #ff6347; stroke: #ff6347; stroke-width: 0.309839"/>
     </g>
    </g>
    <g id="text_14">
     <!-- Replicate 2 -->
     <g transform="translate(108.35625 121.311) scale(0.088 -0.088)">
      <use xlink:href="#ArialMT-52"/>
      <use xlink:href="#ArialMT-65" x="72.216797"/>
      <use xlink:href="#ArialMT-70" x="127.832031"/>
      <use xlink:href="#ArialMT-6c" x="183.447266"/>
      <use xlink:href="#ArialMT-69" x="205.664062"/>
      <use xlink:href="#ArialMT-63" x="227.880859"/>
      <use xlink:href="#ArialMT-61" x="277.880859"/>
      <use xlink:href="#ArialMT-74" x="333.496094"/>
      <use xlink:href="#ArialMT-65" x="361.279297"/>
      <use xlink:href="#ArialMT-20" x="416.894531"/>
      <use xlink:href="#ArialMT-32" x="444.677734"/>
     </g>
    </g>
   </g>
  </g>
 </g>
 <defs>
  <clipPath id="p2637ac3421">
   <rect x="30.669625" y="0" width="129.63" height="130.98"/>
  </clipPath>
 </defs>
</svg>
