<?xml version="1.0" encoding="utf-8" standalone="no"?>
<!DOCTYPE svg PUBLIC "-//W3C//DTD SVG 1.1//EN"
  "http://www.w3.org/Graphics/SVG/1.1/DTD/svg11.dtd">
<svg xmlns:xlink="http://www.w3.org/1999/xlink" width="160.258pt" height="159.558656pt" viewBox="0 0 160.258 159.558656" xmlns="http://www.w3.org/2000/svg" version="1.1">
 <metadata>
  <rdf:RDF xmlns:dc="http://purl.org/dc/elements/1.1/" xmlns:cc="http://creativecommons.org/ns#" xmlns:rdf="http://www.w3.org/1999/02/22-rdf-syntax-ns#">
   <cc:Work>
    <dc:type rdf:resource="http://purl.org/dc/dcmitype/StillImage"/>
    <dc:date>2025-05-27T13:27:53.455832</dc:date>
    <dc:format>image/svg+xml</dc:format>
    <dc:creator>
     <cc:Agent>
      <dc:title>Matplotlib v3.8.4, https://matplotlib.org/</dc:title>
     </cc:Agent>
    </dc:creator>
   </cc:Work>
  </rdf:RDF>
 </metadata>
 <defs>
  <style type="text/css">*{stroke-linejoin: round; stroke-linecap: butt}</style>
 </defs>
 <g id="figure_1">
  <g id="patch_1">
   <path d="M 0 159.558656 
L 160.258 159.558656 
L 160.258 0 
L 0 0 
L 0 159.558656 
z
" style="fill: none"/>
  </g>
  <g id="axes_1">
   <g id="patch_2">
    <path d="M 38.008 130.98 
L 160.258 130.98 
L 160.258 -0 
L 38.008 -0 
L 38.008 130.98 
z
" style="fill: none"/>
   </g>
   <g id="PolyCollection_1"/>
   <g id="PolyCollection_2">
    <defs>
     <path id="mbc33522c38" d="M 43.564818 -64.770851 
L 43.564818 -37.127363 
L 44.123292 -37.166401 
L 44.681767 -37.208611 
L 45.240241 -37.254246 
L 45.798715 -37.303579 
L 46.357189 -37.356907 
L 46.915663 -37.414546 
L 47.474138 -37.476838 
L 48.032612 -37.544153 
L 48.591086 -37.616884 
L 49.14956 -37.695459 
L 49.708034 -37.780334 
L 50.266508 -37.872 
L 50.824983 -37.970983 
L 51.383457 -38.07785 
L 51.941931 -38.193204 
L 52.500405 -38.317693 
L 53.058879 -38.452011 
L 53.617354 -38.596898 
L 54.175828 -38.753143 
L 54.734302 -38.92159 
L 55.292776 -39.103134 
L 55.85125 -39.298729 
L 56.409725 -39.509387 
L 56.968199 -39.736181 
L 57.526673 -39.980245 
L 58.085147 -40.242776 
L 58.643621 -40.525037 
L 59.202095 -40.828352 
L 59.76057 -41.154112 
L 60.319044 -41.503769 
L 60.877518 -41.878834 
L 61.435992 -42.280879 
L 61.994466 -42.711526 
L 62.552941 -43.172447 
L 63.111415 -43.665352 
L 63.669889 -44.191987 
L 64.228363 -44.754116 
L 64.786837 -45.353515 
L 65.345312 -45.991952 
L 65.903786 -46.671175 
L 66.46226 -47.392893 
L 67.020734 -48.158749 
L 67.579208 -48.970305 
L 68.137683 -49.82901 
L 68.696157 -50.736175 
L 69.254631 -51.692945 
L 69.813105 -52.700266 
L 70.371579 -53.758853 
L 70.930053 -54.869162 
L 71.488528 -56.031354 
L 72.047002 -57.24527 
L 72.605476 -58.510394 
L 73.16395 -59.825838 
L 73.722424 -61.190314 
L 74.280899 -62.602117 
L 74.839373 -64.05912 
L 75.397847 -65.558765 
L 75.956321 -67.098068 
L 76.514795 -68.673634 
L 77.07327 -70.281673 
L 77.631744 -71.918031 
L 78.190218 -73.578228 
L 78.748692 -75.257501 
L 79.307166 -76.950858 
L 79.86564 -78.653133 
L 80.424115 -80.359051 
L 80.982589 -82.063292 
L 81.541063 -83.760554 
L 82.099537 -85.445625 
L 82.658011 -87.113441 
L 83.216486 -88.759148 
L 83.77496 -90.378156 
L 84.333434 -91.966186 
L 84.891908 -93.519309 
L 85.450382 -95.033982 
L 86.008857 -96.507067 
L 86.567331 -97.935847 
L 87.125805 -99.318036 
L 87.684279 -100.651775 
L 88.242753 -101.935622 
L 88.801228 -103.168544 
L 89.359702 -104.349891 
L 89.918176 -105.479375 
L 90.47665 -106.557041 
L 91.035124 -107.58324 
L 91.593598 -108.558595 
L 92.152073 -109.483971 
L 92.710547 -110.360443 
L 93.269021 -111.189264 
L 93.827495 -111.971835 
L 94.385969 -112.709679 
L 94.944444 -113.404412 
L 95.502918 -114.057723 
L 96.061392 -114.671345 
L 96.619866 -115.247042 
L 97.17834 -115.78659 
L 97.736815 -116.291757 
L 98.295289 -116.764299 
L 98.853763 -117.205938 
L 99.412237 -117.618363 
L 99.970711 -118.003214 
L 100.529185 -118.362083 
L 101.08766 -118.696503 
L 101.646134 -119.007949 
L 102.204608 -119.297834 
L 102.763082 -119.567507 
L 103.321556 -119.818254 
L 103.880031 -120.051295 
L 104.438505 -120.267789 
L 104.996979 -120.468831 
L 105.555453 -120.655454 
L 106.113927 -120.828634 
L 106.672402 -120.989288 
L 107.230876 -121.138278 
L 107.78935 -121.276414 
L 108.347824 -121.404453 
L 108.906298 -121.523105 
L 109.464772 -121.633036 
L 110.023247 -121.734865 
L 110.581721 -121.829173 
L 111.140195 -121.916499 
L 111.698669 -121.997347 
L 112.257143 -122.072187 
L 112.815618 -122.141456 
L 113.374092 -122.20556 
L 113.932566 -122.264878 
L 114.49104 -122.319761 
L 115.049514 -122.370535 
L 115.607989 -122.417504 
L 116.166463 -122.460949 
L 116.724937 -122.501131 
L 117.283411 -122.538293 
L 117.841885 -122.572659 
L 118.40036 -122.604438 
L 118.958834 -122.633822 
L 119.517308 -122.660991 
L 120.075782 -122.68611 
L 120.634256 -122.709334 
L 121.19273 -122.730803 
L 121.751205 -122.75065 
L 122.309679 -122.768997 
L 122.868153 -122.785957 
L 123.426627 -122.801633 
L 123.985101 -122.816123 
L 124.543576 -122.829517 
L 125.10205 -122.841896 
L 125.660524 -122.853337 
L 126.218998 -122.863911 
L 126.777472 -122.873685 
L 127.335947 -122.882717 
L 127.894421 -122.891065 
L 128.452895 -122.898779 
L 129.011369 -122.905909 
L 129.569843 -122.912497 
L 130.128317 -122.918586 
L 130.686792 -122.924213 
L 131.245266 -122.929413 
L 131.80374 -122.934218 
L 132.362214 -122.938658 
L 132.920688 -122.942762 
L 133.479163 -122.946554 
L 134.037637 -122.950058 
L 134.596111 -122.953296 
L 135.154585 -122.956288 
L 135.713059 -122.959053 
L 136.271534 -122.961607 
L 136.830008 -122.963968 
L 137.388482 -122.96615 
L 137.946956 -122.968166 
L 138.50543 -122.970028 
L 139.063905 -122.971749 
L 139.622379 -122.97334 
L 140.180853 -122.97481 
L 140.739327 -122.976168 
L 141.297801 -122.977422 
L 141.856275 -122.978582 
L 142.41475 -122.979653 
L 142.973224 -122.980643 
L 143.531698 -122.981558 
L 144.090172 -122.982403 
L 144.648646 -122.983184 
L 145.207121 -122.983906 
L 145.765595 -122.984573 
L 146.324069 -122.985189 
L 146.882543 -122.985758 
L 147.441017 -122.986284 
L 147.999492 -122.98677 
L 148.557966 -122.98722 
L 149.11644 -122.987635 
L 149.674914 -122.988018 
L 150.233388 -122.988373 
L 150.791862 -122.9887 
L 151.350337 -122.989002 
L 151.908811 -122.989282 
L 152.467285 -122.98954 
L 153.025759 -122.989779 
L 153.584233 -122.99 
L 154.142708 -122.990203 
L 154.701182 -122.990392 
L 154.701182 -150.633879 
L 154.701182 -150.633879 
L 154.142708 -150.633691 
L 153.584233 -150.633487 
L 153.025759 -150.633267 
L 152.467285 -150.633028 
L 151.908811 -150.63277 
L 151.350337 -150.63249 
L 150.791862 -150.632188 
L 150.233388 -150.63186 
L 149.674914 -150.631506 
L 149.11644 -150.631123 
L 148.557966 -150.630707 
L 147.999492 -150.630258 
L 147.441017 -150.629772 
L 146.882543 -150.629246 
L 146.324069 -150.628677 
L 145.765595 -150.628061 
L 145.207121 -150.627394 
L 144.648646 -150.626672 
L 144.090172 -150.625891 
L 143.531698 -150.625046 
L 142.973224 -150.624131 
L 142.41475 -150.623141 
L 141.856275 -150.62207 
L 141.297801 -150.62091 
L 140.739327 -150.619655 
L 140.180853 -150.618297 
L 139.622379 -150.616828 
L 139.063905 -150.615237 
L 138.50543 -150.613516 
L 137.946956 -150.611653 
L 137.388482 -150.609638 
L 136.830008 -150.607456 
L 136.271534 -150.605095 
L 135.713059 -150.60254 
L 135.154585 -150.599776 
L 134.596111 -150.596783 
L 134.037637 -150.593546 
L 133.479163 -150.590042 
L 132.920688 -150.58625 
L 132.362214 -150.582146 
L 131.80374 -150.577706 
L 131.245266 -150.572901 
L 130.686792 -150.567701 
L 130.128317 -150.562074 
L 129.569843 -150.555985 
L 129.011369 -150.549396 
L 128.452895 -150.542267 
L 127.894421 -150.534552 
L 127.335947 -150.526205 
L 126.777472 -150.517172 
L 126.218998 -150.507399 
L 125.660524 -150.496825 
L 125.10205 -150.485383 
L 124.543576 -150.473004 
L 123.985101 -150.459611 
L 123.426627 -150.445121 
L 122.868153 -150.429445 
L 122.309679 -150.412485 
L 121.751205 -150.394138 
L 121.19273 -150.374291 
L 120.634256 -150.352821 
L 120.075782 -150.329598 
L 119.517308 -150.304479 
L 118.958834 -150.27731 
L 118.40036 -150.247926 
L 117.841885 -150.216147 
L 117.283411 -150.181781 
L 116.724937 -150.144619 
L 116.166463 -150.104437 
L 115.607989 -150.060992 
L 115.049514 -150.014023 
L 114.49104 -149.963249 
L 113.932566 -149.908366 
L 113.374092 -149.849048 
L 112.815618 -149.784944 
L 112.257143 -149.715675 
L 111.698669 -149.640835 
L 111.140195 -149.559987 
L 110.581721 -149.472661 
L 110.023247 -149.378353 
L 109.464772 -149.276524 
L 108.906298 -149.166593 
L 108.347824 -149.047941 
L 107.78935 -148.919901 
L 107.230876 -148.781766 
L 106.672402 -148.632776 
L 106.113927 -148.472122 
L 105.555453 -148.298942 
L 104.996979 -148.112318 
L 104.438505 -147.911277 
L 103.880031 -147.694783 
L 103.321556 -147.461742 
L 102.763082 -147.210995 
L 102.204608 -146.941322 
L 101.646134 -146.651437 
L 101.08766 -146.339991 
L 100.529185 -146.005571 
L 99.970711 -145.646702 
L 99.412237 -145.261851 
L 98.853763 -144.849426 
L 98.295289 -144.407787 
L 97.736815 -143.935245 
L 97.17834 -143.430078 
L 96.619866 -142.89053 
L 96.061392 -142.314833 
L 95.502918 -141.701211 
L 94.944444 -141.0479 
L 94.385969 -140.353166 
L 93.827495 -139.615323 
L 93.269021 -138.832752 
L 92.710547 -138.003931 
L 92.152073 -137.127459 
L 91.593598 -136.202083 
L 91.035124 -135.226728 
L 90.47665 -134.200529 
L 89.918176 -133.122863 
L 89.359702 -131.993379 
L 88.801228 -130.812032 
L 88.242753 -129.57911 
L 87.684279 -128.295263 
L 87.125805 -126.961524 
L 86.567331 -125.579335 
L 86.008857 -124.150554 
L 85.450382 -122.67747 
L 84.891908 -121.162797 
L 84.333434 -119.609674 
L 83.77496 -118.021644 
L 83.216486 -116.402636 
L 82.658011 -114.756929 
L 82.099537 -113.089113 
L 81.541063 -111.404042 
L 80.982589 -109.706779 
L 80.424115 -108.002539 
L 79.86564 -106.296621 
L 79.307166 -104.594346 
L 78.748692 -102.900989 
L 78.190218 -101.221716 
L 77.631744 -99.561519 
L 77.07327 -97.92516 
L 76.514795 -96.317122 
L 75.956321 -94.741556 
L 75.397847 -93.202253 
L 74.839373 -91.702608 
L 74.280899 -90.245605 
L 73.722424 -88.833802 
L 73.16395 -87.469326 
L 72.605476 -86.153882 
L 72.047002 -84.888758 
L 71.488528 -83.674842 
L 70.930053 -82.51265 
L 70.371579 -81.402341 
L 69.813105 -80.343753 
L 69.254631 -79.336433 
L 68.696157 -78.379663 
L 68.137683 -77.472498 
L 67.579208 -76.613793 
L 67.020734 -75.802237 
L 66.46226 -75.036381 
L 65.903786 -74.314663 
L 65.345312 -73.63544 
L 64.786837 -72.997002 
L 64.228363 -72.397604 
L 63.669889 -71.835475 
L 63.111415 -71.30884 
L 62.552941 -70.815934 
L 61.994466 -70.355014 
L 61.435992 -69.924367 
L 60.877518 -69.522322 
L 60.319044 -69.147257 
L 59.76057 -68.7976 
L 59.202095 -68.47184 
L 58.643621 -68.168525 
L 58.085147 -67.886264 
L 57.526673 -67.623733 
L 56.968199 -67.379669 
L 56.409725 -67.152875 
L 55.85125 -66.942217 
L 55.292776 -66.746622 
L 54.734302 -66.565078 
L 54.175828 -66.396631 
L 53.617354 -66.240386 
L 53.058879 -66.095499 
L 52.500405 -65.961181 
L 51.941931 -65.836692 
L 51.383457 -65.721338 
L 50.824983 -65.614471 
L 50.266508 -65.515488 
L 49.708034 -65.423822 
L 49.14956 -65.338947 
L 48.591086 -65.260372 
L 48.032612 -65.18764 
L 47.474138 -65.120326 
L 46.915663 -65.058034 
L 46.357189 -65.000395 
L 45.798715 -64.947067 
L 45.240241 -64.897734 
L 44.681767 -64.852099 
L 44.123292 -64.809889 
L 43.564818 -64.770851 
z
" style="stroke: #87ceeb; stroke-opacity: 0.2; stroke-width: 0.8"/>
    </defs>
    <g clip-path="url(#p82de45a079)">
     <use xlink:href="#mbc33522c38" x="0" y="159.558656" style="fill: #87ceeb; fill-opacity: 0.2; stroke: #87ceeb; stroke-opacity: 0.2; stroke-width: 0.8"/>
    </g>
   </g>
   <g id="PathCollection_1">
    <defs>
     <path id="C0_0_b20b7a5e4c" d="M 0 1.936492 
C 0.513564 1.936492 1.006162 1.732451 1.369306 1.369306 
C 1.732451 1.006162 1.936492 0.513564 1.936492 -0 
C 1.936492 -0.513564 1.732451 -1.006162 1.369306 -1.369306 
C 1.006162 -1.732451 0.513564 -1.936492 0 -1.936492 
C -0.513564 -1.936492 -1.006162 -1.732451 -1.369306 -1.369306 
C -1.732451 -1.006162 -1.936492 -0.513564 -1.936492 0 
C -1.936492 0.513564 -1.732451 1.006162 -1.369306 1.369306 
C -1.006162 1.732451 -0.513564 1.936492 0 1.936492 
z
"/>
    </defs>
    <g clip-path="url(#p82de45a079)">
     <use xlink:href="#C0_0_b20b7a5e4c" x="55.699289" y="112.91602" style="stroke: #000000; stroke-width: 0.309839"/>
    </g>
    <g clip-path="url(#p82de45a079)">
     <use xlink:href="#C0_0_b20b7a5e4c" x="65.083822" y="107.410756" style="stroke: #000000; stroke-width: 0.309839"/>
    </g>
    <g clip-path="url(#p82de45a079)">
     <use xlink:href="#C0_0_b20b7a5e4c" x="69.215323" y="78.953374" style="stroke: #000000; stroke-width: 0.309839"/>
    </g>
    <g clip-path="url(#p82de45a079)">
     <use xlink:href="#C0_0_b20b7a5e4c" x="64.229893" y="113.687664" style="stroke: #000000; stroke-width: 0.309839"/>
    </g>
    <g clip-path="url(#p82de45a079)">
     <use xlink:href="#C0_0_b20b7a5e4c" x="144.527289" y="12.026501" style="stroke: #000000; stroke-width: 0.309839"/>
    </g>
    <g clip-path="url(#p82de45a079)">
     <use xlink:href="#C0_0_b20b7a5e4c" x="70.494815" y="101.875986" style="stroke: #000000; stroke-width: 0.309839"/>
    </g>
    <g clip-path="url(#p82de45a079)">
     <use xlink:href="#C0_0_b20b7a5e4c" x="110.18248" y="18.930576" style="stroke: #000000; stroke-width: 0.309839"/>
    </g>
    <g clip-path="url(#p82de45a079)">
     <use xlink:href="#C0_0_b20b7a5e4c" x="61.921795" y="105.582689" style="stroke: #000000; stroke-width: 0.309839"/>
    </g>
    <g clip-path="url(#p82de45a079)">
     <use xlink:href="#C0_0_b20b7a5e4c" x="57.216638" y="102.156129" style="stroke: #000000; stroke-width: 0.309839"/>
    </g>
    <g clip-path="url(#p82de45a079)">
     <use xlink:href="#C0_0_b20b7a5e4c" x="62.491069" y="98.895395" style="stroke: #000000; stroke-width: 0.309839"/>
    </g>
    <g clip-path="url(#p82de45a079)">
     <use xlink:href="#C0_0_b20b7a5e4c" x="83.390427" y="53.831016" style="stroke: #000000; stroke-width: 0.309839"/>
    </g>
    <g clip-path="url(#p82de45a079)">
     <use xlink:href="#C0_0_b20b7a5e4c" x="138.050371" y="11.394585" style="stroke: #000000; stroke-width: 0.309839"/>
    </g>
    <g clip-path="url(#p82de45a079)">
     <use xlink:href="#C0_0_b20b7a5e4c" x="78.09433" y="62.986826" style="stroke: #000000; stroke-width: 0.309839"/>
    </g>
    <g clip-path="url(#p82de45a079)">
     <use xlink:href="#C0_0_b20b7a5e4c" x="132.125007" y="38.951091" style="stroke: #000000; stroke-width: 0.309839"/>
    </g>
    <g clip-path="url(#p82de45a079)">
     <use xlink:href="#C0_0_b20b7a5e4c" x="147.534847" y="34.528489" style="stroke: #000000; stroke-width: 0.309839"/>
    </g>
    <g clip-path="url(#p82de45a079)">
     <use xlink:href="#C0_0_b20b7a5e4c" x="126.405839" y="17.47244" style="stroke: #000000; stroke-width: 0.309839"/>
    </g>
    <g clip-path="url(#p82de45a079)">
     <use xlink:href="#C0_0_b20b7a5e4c" x="141.125962" y="18.178012" style="stroke: #000000; stroke-width: 0.309839"/>
    </g>
    <g clip-path="url(#p82de45a079)">
     <use xlink:href="#C0_0_b20b7a5e4c" x="82.861553" y="44.914766" style="stroke: #000000; stroke-width: 0.309839"/>
    </g>
    <g clip-path="url(#p82de45a079)">
     <use xlink:href="#C0_0_b20b7a5e4c" x="110.383672" y="28.275764" style="stroke: #000000; stroke-width: 0.309839"/>
    </g>
    <g clip-path="url(#p82de45a079)">
     <use xlink:href="#C0_0_b20b7a5e4c" x="123.977921" y="18.730748" style="stroke: #000000; stroke-width: 0.309839"/>
    </g>
    <g clip-path="url(#p82de45a079)">
     <use xlink:href="#C0_0_b20b7a5e4c" x="43.564818" y="119.784588" style="stroke: #000000; stroke-width: 0.309839"/>
    </g>
    <g clip-path="url(#p82de45a079)">
     <use xlink:href="#C0_0_b20b7a5e4c" x="68.292678" y="61.631983" style="stroke: #000000; stroke-width: 0.309839"/>
    </g>
    <g clip-path="url(#p82de45a079)">
     <use xlink:href="#C0_0_b20b7a5e4c" x="45.11352" y="75.956833" style="stroke: #000000; stroke-width: 0.309839"/>
    </g>
    <g clip-path="url(#p82de45a079)">
     <use xlink:href="#C0_0_b20b7a5e4c" x="70.494255" y="81.36199" style="stroke: #000000; stroke-width: 0.309839"/>
    </g>
    <g clip-path="url(#p82de45a079)">
     <use xlink:href="#C0_0_b20b7a5e4c" x="85.287125" y="43.470459" style="stroke: #000000; stroke-width: 0.309839"/>
    </g>
    <g clip-path="url(#p82de45a079)">
     <use xlink:href="#C0_0_b20b7a5e4c" x="154.701182" y="29.292432" style="stroke: #000000; stroke-width: 0.309839"/>
    </g>
    <g clip-path="url(#p82de45a079)">
     <use xlink:href="#C0_0_b20b7a5e4c" x="51.621719" y="112.91602" style="fill: #ff6347; stroke: #ff6347; stroke-width: 0.309839"/>
    </g>
    <g clip-path="url(#p82de45a079)">
     <use xlink:href="#C0_0_b20b7a5e4c" x="76.842083" y="107.410756" style="fill: #ff6347; stroke: #ff6347; stroke-width: 0.309839"/>
    </g>
    <g clip-path="url(#p82de45a079)">
     <use xlink:href="#C0_0_b20b7a5e4c" x="68.296995" y="78.953374" style="fill: #ff6347; stroke: #ff6347; stroke-width: 0.309839"/>
    </g>
    <g clip-path="url(#p82de45a079)">
     <use xlink:href="#C0_0_b20b7a5e4c" x="70.458214" y="113.687664" style="fill: #ff6347; stroke: #ff6347; stroke-width: 0.309839"/>
    </g>
    <g clip-path="url(#p82de45a079)">
     <use xlink:href="#C0_0_b20b7a5e4c" x="125.967632" y="12.026501" style="fill: #ff6347; stroke: #ff6347; stroke-width: 0.309839"/>
    </g>
    <g clip-path="url(#p82de45a079)">
     <use xlink:href="#C0_0_b20b7a5e4c" x="66.331779" y="101.875986" style="fill: #ff6347; stroke: #ff6347; stroke-width: 0.309839"/>
    </g>
    <g clip-path="url(#p82de45a079)">
     <use xlink:href="#C0_0_b20b7a5e4c" x="113.886211" y="18.930576" style="fill: #ff6347; stroke: #ff6347; stroke-width: 0.309839"/>
    </g>
    <g clip-path="url(#p82de45a079)">
     <use xlink:href="#C0_0_b20b7a5e4c" x="71.654095" y="105.582689" style="fill: #ff6347; stroke: #ff6347; stroke-width: 0.309839"/>
    </g>
    <g clip-path="url(#p82de45a079)">
     <use xlink:href="#C0_0_b20b7a5e4c" x="75.862669" y="102.156129" style="fill: #ff6347; stroke: #ff6347; stroke-width: 0.309839"/>
    </g>
    <g clip-path="url(#p82de45a079)">
     <use xlink:href="#C0_0_b20b7a5e4c" x="68.501965" y="98.895395" style="fill: #ff6347; stroke: #ff6347; stroke-width: 0.309839"/>
    </g>
    <g clip-path="url(#p82de45a079)">
     <use xlink:href="#C0_0_b20b7a5e4c" x="90.477392" y="53.831016" style="fill: #ff6347; stroke: #ff6347; stroke-width: 0.309839"/>
    </g>
    <g clip-path="url(#p82de45a079)">
     <use xlink:href="#C0_0_b20b7a5e4c" x="129.510782" y="11.394585" style="fill: #ff6347; stroke: #ff6347; stroke-width: 0.309839"/>
    </g>
    <g clip-path="url(#p82de45a079)">
     <use xlink:href="#C0_0_b20b7a5e4c" x="84.172442" y="62.986826" style="fill: #ff6347; stroke: #ff6347; stroke-width: 0.309839"/>
    </g>
    <g clip-path="url(#p82de45a079)">
     <use xlink:href="#C0_0_b20b7a5e4c" x="116.773091" y="38.951091" style="fill: #ff6347; stroke: #ff6347; stroke-width: 0.309839"/>
    </g>
    <g clip-path="url(#p82de45a079)">
     <use xlink:href="#C0_0_b20b7a5e4c" x="143.845064" y="34.528489" style="fill: #ff6347; stroke: #ff6347; stroke-width: 0.309839"/>
    </g>
    <g clip-path="url(#p82de45a079)">
     <use xlink:href="#C0_0_b20b7a5e4c" x="115.864402" y="17.47244" style="fill: #ff6347; stroke: #ff6347; stroke-width: 0.309839"/>
    </g>
    <g clip-path="url(#p82de45a079)">
     <use xlink:href="#C0_0_b20b7a5e4c" x="127.904996" y="18.178012" style="fill: #ff6347; stroke: #ff6347; stroke-width: 0.309839"/>
    </g>
    <g clip-path="url(#p82de45a079)">
     <use xlink:href="#C0_0_b20b7a5e4c" x="98.934936" y="44.914766" style="fill: #ff6347; stroke: #ff6347; stroke-width: 0.309839"/>
    </g>
    <g clip-path="url(#p82de45a079)">
     <use xlink:href="#C0_0_b20b7a5e4c" x="100.471334" y="28.275764" style="fill: #ff6347; stroke: #ff6347; stroke-width: 0.309839"/>
    </g>
    <g clip-path="url(#p82de45a079)">
     <use xlink:href="#C0_0_b20b7a5e4c" x="98.725517" y="18.730748" style="fill: #ff6347; stroke: #ff6347; stroke-width: 0.309839"/>
    </g>
    <g clip-path="url(#p82de45a079)">
     <use xlink:href="#C0_0_b20b7a5e4c" x="45.152107" y="119.784588" style="fill: #ff6347; stroke: #ff6347; stroke-width: 0.309839"/>
    </g>
    <g clip-path="url(#p82de45a079)">
     <use xlink:href="#C0_0_b20b7a5e4c" x="88.885039" y="61.631983" style="fill: #ff6347; stroke: #ff6347; stroke-width: 0.309839"/>
    </g>
    <g clip-path="url(#p82de45a079)">
     <use xlink:href="#C0_0_b20b7a5e4c" x="77.243688" y="75.956833" style="fill: #ff6347; stroke: #ff6347; stroke-width: 0.309839"/>
    </g>
    <g clip-path="url(#p82de45a079)">
     <use xlink:href="#C0_0_b20b7a5e4c" x="71.996669" y="81.36199" style="fill: #ff6347; stroke: #ff6347; stroke-width: 0.309839"/>
    </g>
    <g clip-path="url(#p82de45a079)">
     <use xlink:href="#C0_0_b20b7a5e4c" x="80.807455" y="43.470459" style="fill: #ff6347; stroke: #ff6347; stroke-width: 0.309839"/>
    </g>
    <g clip-path="url(#p82de45a079)">
     <use xlink:href="#C0_0_b20b7a5e4c" x="83.072088" y="29.292432" style="fill: #ff6347; stroke: #ff6347; stroke-width: 0.309839"/>
    </g>
   </g>
   <g id="matplotlib.axis_1">
    <g id="xtick_1">
     <g id="line2d_1">
      <defs>
       <path id="m2ea80e97a8" d="M 0 0 
L 0 4.8 
" style="stroke: #000000; stroke-width: 0.5"/>
      </defs>
      <g>
       <use xlink:href="#m2ea80e97a8" x="38.132848" y="130.98" style="stroke: #000000; stroke-width: 0.5"/>
      </g>
     </g>
     <g id="text_1">
      <!-- 0.5 -->
      <g transform="translate(32.016848 145.578875) scale(0.088 -0.088)">
       <defs>
        <path id="ArialMT-30" d="M 266 2259 
Q 266 3072 433 3567 
Q 600 4063 929 4331 
Q 1259 4600 1759 4600 
Q 2128 4600 2406 4451 
Q 2684 4303 2865 4023 
Q 3047 3744 3150 3342 
Q 3253 2941 3253 2259 
Q 3253 1453 3087 958 
Q 2922 463 2592 192 
Q 2263 -78 1759 -78 
Q 1097 -78 719 397 
Q 266 969 266 2259 
z
M 844 2259 
Q 844 1131 1108 757 
Q 1372 384 1759 384 
Q 2147 384 2411 759 
Q 2675 1134 2675 2259 
Q 2675 3391 2411 3762 
Q 2147 4134 1753 4134 
Q 1366 4134 1134 3806 
Q 844 3388 844 2259 
z
" transform="scale(0.015625)"/>
        <path id="ArialMT-2e" d="M 581 0 
L 581 641 
L 1222 641 
L 1222 0 
L 581 0 
z
" transform="scale(0.015625)"/>
        <path id="ArialMT-35" d="M 266 1200 
L 856 1250 
Q 922 819 1161 601 
Q 1400 384 1738 384 
Q 2144 384 2425 690 
Q 2706 997 2706 1503 
Q 2706 1984 2436 2262 
Q 2166 2541 1728 2541 
Q 1456 2541 1237 2417 
Q 1019 2294 894 2097 
L 366 2166 
L 809 4519 
L 3088 4519 
L 3088 3981 
L 1259 3981 
L 1013 2750 
Q 1425 3038 1878 3038 
Q 2478 3038 2890 2622 
Q 3303 2206 3303 1553 
Q 3303 931 2941 478 
Q 2500 -78 1738 -78 
Q 1113 -78 717 272 
Q 322 622 266 1200 
z
" transform="scale(0.015625)"/>
       </defs>
       <use xlink:href="#ArialMT-30"/>
       <use xlink:href="#ArialMT-2e" x="55.615234"/>
       <use xlink:href="#ArialMT-35" x="83.398438"/>
      </g>
     </g>
    </g>
    <g id="xtick_2">
     <g id="line2d_2">
      <g>
       <use xlink:href="#m2ea80e97a8" x="87.393153" y="130.98" style="stroke: #000000; stroke-width: 0.5"/>
      </g>
     </g>
     <g id="text_2">
      <!-- 1.0 -->
      <g transform="translate(81.277153 145.578875) scale(0.088 -0.088)">
       <defs>
        <path id="ArialMT-31" d="M 2384 0 
L 1822 0 
L 1822 3584 
Q 1619 3391 1289 3197 
Q 959 3003 697 2906 
L 697 3450 
Q 1169 3672 1522 3987 
Q 1875 4303 2022 4600 
L 2384 4600 
L 2384 0 
z
" transform="scale(0.015625)"/>
       </defs>
       <use xlink:href="#ArialMT-31"/>
       <use xlink:href="#ArialMT-2e" x="55.615234"/>
       <use xlink:href="#ArialMT-30" x="83.398438"/>
      </g>
     </g>
    </g>
    <g id="xtick_3">
     <g id="line2d_3">
      <g>
       <use xlink:href="#m2ea80e97a8" x="136.653459" y="130.98" style="stroke: #000000; stroke-width: 0.5"/>
      </g>
     </g>
     <g id="text_3">
      <!-- 1.5 -->
      <g transform="translate(130.537459 145.578875) scale(0.088 -0.088)">
       <use xlink:href="#ArialMT-31"/>
       <use xlink:href="#ArialMT-2e" x="55.615234"/>
       <use xlink:href="#ArialMT-35" x="83.398438"/>
      </g>
     </g>
    </g>
    <g id="text_4">
     <!-- Ratio -->
     <g transform="translate(88.628313 157.769906) scale(0.09 -0.09)">
      <defs>
       <path id="ArialMT-52" d="M 503 0 
L 503 4581 
L 2534 4581 
Q 3147 4581 3465 4457 
Q 3784 4334 3975 4021 
Q 4166 3709 4166 3331 
Q 4166 2844 3850 2509 
Q 3534 2175 2875 2084 
Q 3116 1969 3241 1856 
Q 3506 1613 3744 1247 
L 4541 0 
L 3778 0 
L 3172 953 
Q 2906 1366 2734 1584 
Q 2563 1803 2427 1890 
Q 2291 1978 2150 2013 
Q 2047 2034 1813 2034 
L 1109 2034 
L 1109 0 
L 503 0 
z
M 1109 2559 
L 2413 2559 
Q 2828 2559 3062 2645 
Q 3297 2731 3419 2920 
Q 3541 3109 3541 3331 
Q 3541 3656 3305 3865 
Q 3069 4075 2559 4075 
L 1109 4075 
L 1109 2559 
z
" transform="scale(0.015625)"/>
       <path id="ArialMT-61" d="M 2588 409 
Q 2275 144 1986 34 
Q 1697 -75 1366 -75 
Q 819 -75 525 192 
Q 231 459 231 875 
Q 231 1119 342 1320 
Q 453 1522 633 1644 
Q 813 1766 1038 1828 
Q 1203 1872 1538 1913 
Q 2219 1994 2541 2106 
Q 2544 2222 2544 2253 
Q 2544 2597 2384 2738 
Q 2169 2928 1744 2928 
Q 1347 2928 1158 2789 
Q 969 2650 878 2297 
L 328 2372 
Q 403 2725 575 2942 
Q 747 3159 1072 3276 
Q 1397 3394 1825 3394 
Q 2250 3394 2515 3294 
Q 2781 3194 2906 3042 
Q 3031 2891 3081 2659 
Q 3109 2516 3109 2141 
L 3109 1391 
Q 3109 606 3145 398 
Q 3181 191 3288 0 
L 2700 0 
Q 2613 175 2588 409 
z
M 2541 1666 
Q 2234 1541 1622 1453 
Q 1275 1403 1131 1340 
Q 988 1278 909 1158 
Q 831 1038 831 891 
Q 831 666 1001 516 
Q 1172 366 1500 366 
Q 1825 366 2078 508 
Q 2331 650 2450 897 
Q 2541 1088 2541 1459 
L 2541 1666 
z
" transform="scale(0.015625)"/>
       <path id="ArialMT-74" d="M 1650 503 
L 1731 6 
Q 1494 -44 1306 -44 
Q 1000 -44 831 53 
Q 663 150 594 308 
Q 525 466 525 972 
L 525 2881 
L 113 2881 
L 113 3319 
L 525 3319 
L 525 4141 
L 1084 4478 
L 1084 3319 
L 1650 3319 
L 1650 2881 
L 1084 2881 
L 1084 941 
Q 1084 700 1114 631 
Q 1144 563 1211 522 
Q 1278 481 1403 481 
Q 1497 481 1650 503 
z
" transform="scale(0.015625)"/>
       <path id="ArialMT-69" d="M 425 3934 
L 425 4581 
L 988 4581 
L 988 3934 
L 425 3934 
z
M 425 0 
L 425 3319 
L 988 3319 
L 988 0 
L 425 0 
z
" transform="scale(0.015625)"/>
       <path id="ArialMT-6f" d="M 213 1659 
Q 213 2581 725 3025 
Q 1153 3394 1769 3394 
Q 2453 3394 2887 2945 
Q 3322 2497 3322 1706 
Q 3322 1066 3130 698 
Q 2938 331 2570 128 
Q 2203 -75 1769 -75 
Q 1072 -75 642 372 
Q 213 819 213 1659 
z
M 791 1659 
Q 791 1022 1069 705 
Q 1347 388 1769 388 
Q 2188 388 2466 706 
Q 2744 1025 2744 1678 
Q 2744 2294 2464 2611 
Q 2184 2928 1769 2928 
Q 1347 2928 1069 2612 
Q 791 2297 791 1659 
z
" transform="scale(0.015625)"/>
      </defs>
      <use xlink:href="#ArialMT-52"/>
      <use xlink:href="#ArialMT-61" x="72.216797"/>
      <use xlink:href="#ArialMT-74" x="127.832031"/>
      <use xlink:href="#ArialMT-69" x="155.615234"/>
      <use xlink:href="#ArialMT-6f" x="177.832031"/>
     </g>
    </g>
   </g>
   <g id="matplotlib.axis_2">
    <g id="ytick_1">
     <g id="line2d_4">
      <defs>
       <path id="md0561dc5fd" d="M 0 0 
L -4.8 0 
" style="stroke: #000000; stroke-width: 0.5"/>
      </defs>
      <g>
       <use xlink:href="#md0561dc5fd" x="38.008" y="112.351536" style="stroke: #000000; stroke-width: 0.5"/>
      </g>
     </g>
     <g id="text_5">
      <!-- −2.5 -->
      <g transform="translate(12.33625 115.500974) scale(0.088 -0.088)">
       <defs>
        <path id="ArialMT-2212" d="M 3381 1997 
L 356 1997 
L 356 2522 
L 3381 2522 
L 3381 1997 
z
" transform="scale(0.015625)"/>
        <path id="ArialMT-32" d="M 3222 541 
L 3222 0 
L 194 0 
Q 188 203 259 391 
Q 375 700 629 1000 
Q 884 1300 1366 1694 
Q 2113 2306 2375 2664 
Q 2638 3022 2638 3341 
Q 2638 3675 2398 3904 
Q 2159 4134 1775 4134 
Q 1369 4134 1125 3890 
Q 881 3647 878 3216 
L 300 3275 
Q 359 3922 746 4261 
Q 1134 4600 1788 4600 
Q 2447 4600 2831 4234 
Q 3216 3869 3216 3328 
Q 3216 3053 3103 2787 
Q 2991 2522 2730 2228 
Q 2469 1934 1863 1422 
Q 1356 997 1212 845 
Q 1069 694 975 541 
L 3222 541 
z
" transform="scale(0.015625)"/>
       </defs>
       <use xlink:href="#ArialMT-2212"/>
       <use xlink:href="#ArialMT-32" x="58.398438"/>
       <use xlink:href="#ArialMT-2e" x="114.013672"/>
       <use xlink:href="#ArialMT-35" x="141.796875"/>
      </g>
     </g>
    </g>
    <g id="ytick_2">
     <g id="line2d_5">
      <g>
       <use xlink:href="#md0561dc5fd" x="38.008" y="89.125232" style="stroke: #000000; stroke-width: 0.5"/>
      </g>
     </g>
     <g id="text_6">
      <!-- 0.0 -->
      <g transform="translate(17.476 92.27467) scale(0.088 -0.088)">
       <use xlink:href="#ArialMT-30"/>
       <use xlink:href="#ArialMT-2e" x="55.615234"/>
       <use xlink:href="#ArialMT-30" x="83.398438"/>
      </g>
     </g>
    </g>
    <g id="ytick_3">
     <g id="line2d_6">
      <g>
       <use xlink:href="#md0561dc5fd" x="38.008" y="65.898928" style="stroke: #000000; stroke-width: 0.5"/>
      </g>
     </g>
     <g id="text_7">
      <!-- 2.5 -->
      <g transform="translate(17.476 69.048365) scale(0.088 -0.088)">
       <use xlink:href="#ArialMT-32"/>
       <use xlink:href="#ArialMT-2e" x="55.615234"/>
       <use xlink:href="#ArialMT-35" x="83.398438"/>
      </g>
     </g>
    </g>
    <g id="ytick_4">
     <g id="line2d_7">
      <g>
       <use xlink:href="#md0561dc5fd" x="38.008" y="42.672624" style="stroke: #000000; stroke-width: 0.5"/>
      </g>
     </g>
     <g id="text_8">
      <!-- 5.0 -->
      <g transform="translate(17.476 45.822061) scale(0.088 -0.088)">
       <use xlink:href="#ArialMT-35"/>
       <use xlink:href="#ArialMT-2e" x="55.615234"/>
       <use xlink:href="#ArialMT-30" x="83.398438"/>
      </g>
     </g>
    </g>
    <g id="ytick_5">
     <g id="line2d_8">
      <g>
       <use xlink:href="#md0561dc5fd" x="38.008" y="19.446319" style="stroke: #000000; stroke-width: 0.5"/>
      </g>
     </g>
     <g id="text_9">
      <!-- 7.5 -->
      <g transform="translate(17.476 22.595757) scale(0.088 -0.088)">
       <defs>
        <path id="ArialMT-37" d="M 303 3981 
L 303 4522 
L 3269 4522 
L 3269 4084 
Q 2831 3619 2401 2847 
Q 1972 2075 1738 1259 
Q 1569 684 1522 0 
L 944 0 
Q 953 541 1156 1306 
Q 1359 2072 1739 2783 
Q 2119 3494 2547 3981 
L 303 3981 
z
" transform="scale(0.015625)"/>
       </defs>
       <use xlink:href="#ArialMT-37"/>
       <use xlink:href="#ArialMT-2e" x="55.615234"/>
       <use xlink:href="#ArialMT-35" x="83.398438"/>
      </g>
     </g>
    </g>
    <g id="text_10">
     <!-- logRFP -->
     <g transform="translate(6.442031 80.494687) rotate(-90) scale(0.09 -0.09)">
      <defs>
       <path id="ArialMT-6c" d="M 409 0 
L 409 4581 
L 972 4581 
L 972 0 
L 409 0 
z
" transform="scale(0.015625)"/>
       <path id="ArialMT-67" d="M 319 -275 
L 866 -356 
Q 900 -609 1056 -725 
Q 1266 -881 1628 -881 
Q 2019 -881 2231 -725 
Q 2444 -569 2519 -288 
Q 2563 -116 2559 434 
Q 2191 0 1641 0 
Q 956 0 581 494 
Q 206 988 206 1678 
Q 206 2153 378 2554 
Q 550 2956 876 3175 
Q 1203 3394 1644 3394 
Q 2231 3394 2613 2919 
L 2613 3319 
L 3131 3319 
L 3131 450 
Q 3131 -325 2973 -648 
Q 2816 -972 2473 -1159 
Q 2131 -1347 1631 -1347 
Q 1038 -1347 672 -1080 
Q 306 -813 319 -275 
z
M 784 1719 
Q 784 1066 1043 766 
Q 1303 466 1694 466 
Q 2081 466 2343 764 
Q 2606 1063 2606 1700 
Q 2606 2309 2336 2618 
Q 2066 2928 1684 2928 
Q 1309 2928 1046 2623 
Q 784 2319 784 1719 
z
" transform="scale(0.015625)"/>
       <path id="ArialMT-46" d="M 525 0 
L 525 4581 
L 3616 4581 
L 3616 4041 
L 1131 4041 
L 1131 2622 
L 3281 2622 
L 3281 2081 
L 1131 2081 
L 1131 0 
L 525 0 
z
" transform="scale(0.015625)"/>
       <path id="ArialMT-50" d="M 494 0 
L 494 4581 
L 2222 4581 
Q 2678 4581 2919 4538 
Q 3256 4481 3484 4323 
Q 3713 4166 3852 3881 
Q 3991 3597 3991 3256 
Q 3991 2672 3619 2267 
Q 3247 1863 2275 1863 
L 1100 1863 
L 1100 0 
L 494 0 
z
M 1100 2403 
L 2284 2403 
Q 2872 2403 3119 2622 
Q 3366 2841 3366 3238 
Q 3366 3525 3220 3729 
Q 3075 3934 2838 4000 
Q 2684 4041 2272 4041 
L 1100 4041 
L 1100 2403 
z
" transform="scale(0.015625)"/>
      </defs>
      <use xlink:href="#ArialMT-6c"/>
      <use xlink:href="#ArialMT-6f" x="22.216797"/>
      <use xlink:href="#ArialMT-67" x="77.832031"/>
      <use xlink:href="#ArialMT-52" x="133.447266"/>
      <use xlink:href="#ArialMT-46" x="205.664062"/>
      <use xlink:href="#ArialMT-50" x="266.748047"/>
     </g>
    </g>
   </g>
   <g id="line2d_9">
    <path d="M 43.564818 108.609549 
L 48.032612 108.19276 
L 51.383457 107.659063 
L 54.175828 106.983769 
L 56.409725 106.227525 
L 58.643621 105.211875 
L 60.319044 104.233143 
L 61.994466 103.025386 
L 63.669889 101.544925 
L 65.345312 99.744961 
L 67.020734 97.578163 
L 68.696157 95.000737 
L 70.371579 91.97806 
L 72.047002 88.491643 
L 73.722424 84.546598 
L 75.956321 78.638844 
L 78.748692 70.479411 
L 84.333434 53.770726 
L 86.567331 47.801065 
L 88.801228 42.568368 
L 90.47665 39.179872 
L 92.152073 36.252941 
L 93.827495 33.765078 
L 95.502918 31.67919 
L 97.17834 29.950323 
L 98.853763 28.530974 
L 100.529185 27.374829 
L 102.204608 26.439079 
L 104.438505 25.469123 
L 106.672402 24.747624 
L 109.464772 24.103876 
L 112.815618 23.595456 
L 116.724937 23.235781 
L 122.309679 22.967915 
L 131.245266 22.8075 
L 150.791862 22.748212 
L 154.701182 22.746521 
L 154.701182 22.746521 
" clip-path="url(#p82de45a079)" style="fill: none; stroke: #87ceeb; stroke-linecap: square"/>
   </g>
   <g id="line2d_10"/>
   <g id="line2d_11"/>
   <g id="LineCollection_1">
    <path d="M 55.699289 120.583436 
L 55.699289 105.248605 
" clip-path="url(#p82de45a079)" style="fill: none; stroke: #000000; stroke-opacity: 0.8; stroke-width: 0.5"/>
    <path d="M 65.083822 114.655702 
L 65.083822 100.165809 
" clip-path="url(#p82de45a079)" style="fill: none; stroke: #000000; stroke-opacity: 0.8; stroke-width: 0.5"/>
    <path d="M 69.215323 82.727718 
L 69.215323 75.17903 
" clip-path="url(#p82de45a079)" style="fill: none; stroke: #000000; stroke-opacity: 0.8; stroke-width: 0.5"/>
    <path d="M 64.229893 122.010188 
L 64.229893 105.365141 
" clip-path="url(#p82de45a079)" style="fill: none; stroke: #000000; stroke-opacity: 0.8; stroke-width: 0.5"/>
    <path d="M 144.527289 18.099366 
L 144.527289 5.953636 
" clip-path="url(#p82de45a079)" style="fill: none; stroke: #000000; stroke-opacity: 0.8; stroke-width: 0.5"/>
    <path d="M 70.494815 109.315603 
L 70.494815 94.436369 
" clip-path="url(#p82de45a079)" style="fill: none; stroke: #000000; stroke-opacity: 0.8; stroke-width: 0.5"/>
    <path d="M 110.18248 26.559597 
L 110.18248 11.301554 
" clip-path="url(#p82de45a079)" style="fill: none; stroke: #000000; stroke-opacity: 0.8; stroke-width: 0.5"/>
    <path d="M 61.921795 118.506282 
L 61.921795 92.659095 
" clip-path="url(#p82de45a079)" style="fill: none; stroke: #000000; stroke-opacity: 0.8; stroke-width: 0.5"/>
    <path d="M 57.216638 109.713719 
L 57.216638 94.59854 
" clip-path="url(#p82de45a079)" style="fill: none; stroke: #000000; stroke-opacity: 0.8; stroke-width: 0.5"/>
    <path d="M 62.491069 108.049143 
L 62.491069 89.741646 
" clip-path="url(#p82de45a079)" style="fill: none; stroke: #000000; stroke-opacity: 0.8; stroke-width: 0.5"/>
    <path d="M 83.390427 59.216178 
L 83.390427 48.445853 
" clip-path="url(#p82de45a079)" style="fill: none; stroke: #000000; stroke-opacity: 0.8; stroke-width: 0.5"/>
    <path d="M 138.050371 14.970769 
L 138.050371 7.8184 
" clip-path="url(#p82de45a079)" style="fill: none; stroke: #000000; stroke-opacity: 0.8; stroke-width: 0.5"/>
    <path d="M 78.09433 73.608606 
L 78.09433 52.365047 
" clip-path="url(#p82de45a079)" style="fill: none; stroke: #000000; stroke-opacity: 0.8; stroke-width: 0.5"/>
    <path d="M 132.125007 53.791822 
L 132.125007 24.11036 
" clip-path="url(#p82de45a079)" style="fill: none; stroke: #000000; stroke-opacity: 0.8; stroke-width: 0.5"/>
    <path d="M 147.534847 50.756814 
L 147.534847 18.300163 
" clip-path="url(#p82de45a079)" style="fill: none; stroke: #000000; stroke-opacity: 0.8; stroke-width: 0.5"/>
    <path d="M 126.405839 24.555802 
L 126.405839 10.389078 
" clip-path="url(#p82de45a079)" style="fill: none; stroke: #000000; stroke-opacity: 0.8; stroke-width: 0.5"/>
    <path d="M 141.125962 27.732528 
L 141.125962 8.623497 
" clip-path="url(#p82de45a079)" style="fill: none; stroke: #000000; stroke-opacity: 0.8; stroke-width: 0.5"/>
    <path d="M 82.861553 57.473157 
L 82.861553 32.356375 
" clip-path="url(#p82de45a079)" style="fill: none; stroke: #000000; stroke-opacity: 0.8; stroke-width: 0.5"/>
    <path d="M 110.383672 38.338965 
L 110.383672 18.212563 
" clip-path="url(#p82de45a079)" style="fill: none; stroke: #000000; stroke-opacity: 0.8; stroke-width: 0.5"/>
    <path d="M 123.977921 20.983818 
L 123.977921 16.477677 
" clip-path="url(#p82de45a079)" style="fill: none; stroke: #000000; stroke-opacity: 0.8; stroke-width: 0.5"/>
    <path d="M 43.564818 125.026364 
L 43.564818 114.542812 
" clip-path="url(#p82de45a079)" style="fill: none; stroke: #000000; stroke-opacity: 0.8; stroke-width: 0.5"/>
    <path d="M 68.292678 73.835614 
L 68.292678 49.428353 
" clip-path="url(#p82de45a079)" style="fill: none; stroke: #000000; stroke-opacity: 0.8; stroke-width: 0.5"/>
    <path d="M 45.11352 85.738851 
L 45.11352 66.174816 
" clip-path="url(#p82de45a079)" style="fill: none; stroke: #000000; stroke-opacity: 0.8; stroke-width: 0.5"/>
    <path d="M 70.494255 85.846263 
L 70.494255 76.877717 
" clip-path="url(#p82de45a079)" style="fill: none; stroke: #000000; stroke-opacity: 0.8; stroke-width: 0.5"/>
    <path d="M 85.287125 55.363095 
L 85.287125 31.577823 
" clip-path="url(#p82de45a079)" style="fill: none; stroke: #000000; stroke-opacity: 0.8; stroke-width: 0.5"/>
    <path d="M 154.701182 44.062262 
L 154.701182 14.522601 
" clip-path="url(#p82de45a079)" style="fill: none; stroke: #000000; stroke-opacity: 0.8; stroke-width: 0.5"/>
   </g>
   <g id="LineCollection_2">
    <path d="M 51.621719 120.583436 
L 51.621719 105.248605 
" clip-path="url(#p82de45a079)" style="fill: none; stroke: #ff6347; stroke-opacity: 0.8; stroke-width: 0.5"/>
    <path d="M 76.842083 114.655702 
L 76.842083 100.165809 
" clip-path="url(#p82de45a079)" style="fill: none; stroke: #ff6347; stroke-opacity: 0.8; stroke-width: 0.5"/>
    <path d="M 68.296995 82.727718 
L 68.296995 75.17903 
" clip-path="url(#p82de45a079)" style="fill: none; stroke: #ff6347; stroke-opacity: 0.8; stroke-width: 0.5"/>
    <path d="M 70.458214 122.010188 
L 70.458214 105.365141 
" clip-path="url(#p82de45a079)" style="fill: none; stroke: #ff6347; stroke-opacity: 0.8; stroke-width: 0.5"/>
    <path d="M 125.967632 18.099366 
L 125.967632 5.953636 
" clip-path="url(#p82de45a079)" style="fill: none; stroke: #ff6347; stroke-opacity: 0.8; stroke-width: 0.5"/>
    <path d="M 66.331779 109.315603 
L 66.331779 94.436369 
" clip-path="url(#p82de45a079)" style="fill: none; stroke: #ff6347; stroke-opacity: 0.8; stroke-width: 0.5"/>
    <path d="M 113.886211 26.559597 
L 113.886211 11.301554 
" clip-path="url(#p82de45a079)" style="fill: none; stroke: #ff6347; stroke-opacity: 0.8; stroke-width: 0.5"/>
    <path d="M 71.654095 118.506282 
L 71.654095 92.659095 
" clip-path="url(#p82de45a079)" style="fill: none; stroke: #ff6347; stroke-opacity: 0.8; stroke-width: 0.5"/>
    <path d="M 75.862669 109.713719 
L 75.862669 94.59854 
" clip-path="url(#p82de45a079)" style="fill: none; stroke: #ff6347; stroke-opacity: 0.8; stroke-width: 0.5"/>
    <path d="M 68.501965 108.049143 
L 68.501965 89.741646 
" clip-path="url(#p82de45a079)" style="fill: none; stroke: #ff6347; stroke-opacity: 0.8; stroke-width: 0.5"/>
    <path d="M 90.477392 59.216178 
L 90.477392 48.445853 
" clip-path="url(#p82de45a079)" style="fill: none; stroke: #ff6347; stroke-opacity: 0.8; stroke-width: 0.5"/>
    <path d="M 129.510782 14.970769 
L 129.510782 7.8184 
" clip-path="url(#p82de45a079)" style="fill: none; stroke: #ff6347; stroke-opacity: 0.8; stroke-width: 0.5"/>
    <path d="M 84.172442 73.608606 
L 84.172442 52.365047 
" clip-path="url(#p82de45a079)" style="fill: none; stroke: #ff6347; stroke-opacity: 0.8; stroke-width: 0.5"/>
    <path d="M 116.773091 53.791822 
L 116.773091 24.11036 
" clip-path="url(#p82de45a079)" style="fill: none; stroke: #ff6347; stroke-opacity: 0.8; stroke-width: 0.5"/>
    <path d="M 143.845064 50.756814 
L 143.845064 18.300163 
" clip-path="url(#p82de45a079)" style="fill: none; stroke: #ff6347; stroke-opacity: 0.8; stroke-width: 0.5"/>
    <path d="M 115.864402 24.555802 
L 115.864402 10.389078 
" clip-path="url(#p82de45a079)" style="fill: none; stroke: #ff6347; stroke-opacity: 0.8; stroke-width: 0.5"/>
    <path d="M 127.904996 27.732528 
L 127.904996 8.623497 
" clip-path="url(#p82de45a079)" style="fill: none; stroke: #ff6347; stroke-opacity: 0.8; stroke-width: 0.5"/>
    <path d="M 98.934936 57.473157 
L 98.934936 32.356375 
" clip-path="url(#p82de45a079)" style="fill: none; stroke: #ff6347; stroke-opacity: 0.8; stroke-width: 0.5"/>
    <path d="M 100.471334 38.338965 
L 100.471334 18.212563 
" clip-path="url(#p82de45a079)" style="fill: none; stroke: #ff6347; stroke-opacity: 0.8; stroke-width: 0.5"/>
    <path d="M 98.725517 20.983818 
L 98.725517 16.477677 
" clip-path="url(#p82de45a079)" style="fill: none; stroke: #ff6347; stroke-opacity: 0.8; stroke-width: 0.5"/>
    <path d="M 45.152107 125.026364 
L 45.152107 114.542812 
" clip-path="url(#p82de45a079)" style="fill: none; stroke: #ff6347; stroke-opacity: 0.8; stroke-width: 0.5"/>
    <path d="M 88.885039 73.835614 
L 88.885039 49.428353 
" clip-path="url(#p82de45a079)" style="fill: none; stroke: #ff6347; stroke-opacity: 0.8; stroke-width: 0.5"/>
    <path d="M 77.243688 85.738851 
L 77.243688 66.174816 
" clip-path="url(#p82de45a079)" style="fill: none; stroke: #ff6347; stroke-opacity: 0.8; stroke-width: 0.5"/>
    <path d="M 71.996669 85.846263 
L 71.996669 76.877717 
" clip-path="url(#p82de45a079)" style="fill: none; stroke: #ff6347; stroke-opacity: 0.8; stroke-width: 0.5"/>
    <path d="M 80.807455 55.363095 
L 80.807455 31.577823 
" clip-path="url(#p82de45a079)" style="fill: none; stroke: #ff6347; stroke-opacity: 0.8; stroke-width: 0.5"/>
    <path d="M 83.072088 44.062262 
L 83.072088 14.522601 
" clip-path="url(#p82de45a079)" style="fill: none; stroke: #ff6347; stroke-opacity: 0.8; stroke-width: 0.5"/>
   </g>
   <g id="line2d_12">
    <path d="M 38.008 65.915628 
L 160.258 65.915628 
" clip-path="url(#p82de45a079)" style="fill: none; stroke-dasharray: 1.85,0.8; stroke-dashoffset: 0; stroke: #808080; stroke-width: 0.5"/>
   </g>
   <g id="line2d_13">
    <path d="M 84.936982 130.98 
L 84.936982 -0 
" clip-path="url(#p82de45a079)" style="fill: none; stroke-dasharray: 1.85,0.8; stroke-dashoffset: 0; stroke: #808080; stroke-width: 0.5"/>
   </g>
   <g id="patch_3">
    <path d="M 38.008 130.98 
L 38.008 -0 
" style="fill: none; stroke: #000000; stroke-width: 0.5; stroke-linejoin: miter; stroke-linecap: square"/>
   </g>
   <g id="patch_4">
    <path d="M 160.258 130.98 
L 160.258 -0 
" style="fill: none; stroke: #000000; stroke-width: 0.5; stroke-linejoin: miter; stroke-linecap: square"/>
   </g>
   <g id="patch_5">
    <path d="M 38.008 130.98 
L 160.258 130.98 
" style="fill: none; stroke: #000000; stroke-width: 0.5; stroke-linejoin: miter; stroke-linecap: square"/>
   </g>
   <g id="patch_6">
    <path d="M 38.008 -0 
L 160.258 -0 
" style="fill: none; stroke: #000000; stroke-width: 0.5; stroke-linejoin: miter; stroke-linecap: square"/>
   </g>
   <g id="legend_1">
    <g id="line2d_14">
     <defs>
      <path id="m2190f0d953" d="M 0 1.936492 
C 0.513564 1.936492 1.006162 1.732451 1.369306 1.369306 
C 1.732451 1.006162 1.936492 0.513564 1.936492 0 
C 1.936492 -0.513564 1.732451 -1.006162 1.369306 -1.369306 
C 1.006162 -1.732451 0.513564 -1.936492 0 -1.936492 
C -0.513564 -1.936492 -1.006162 -1.732451 -1.369306 -1.369306 
C -1.732451 -1.006162 -1.936492 -0.513564 -1.936492 0 
C -1.936492 0.513564 -1.732451 1.006162 -1.369306 1.369306 
C -1.006162 1.732451 -0.513564 1.936492 0 1.936492 
z
" style="stroke: #000000; stroke-width: 0.309839"/>
     </defs>
     <g>
      <use xlink:href="#m2190f0d953" x="101.274625" y="105.757" style="stroke: #000000; stroke-width: 0.309839"/>
     </g>
    </g>
    <g id="text_11">
     <!-- Replicate 1 -->
     <g transform="translate(108.314625 108.837) scale(0.088 -0.088)">
      <defs>
       <path id="ArialMT-65" d="M 2694 1069 
L 3275 997 
Q 3138 488 2766 206 
Q 2394 -75 1816 -75 
Q 1088 -75 661 373 
Q 234 822 234 1631 
Q 234 2469 665 2931 
Q 1097 3394 1784 3394 
Q 2450 3394 2872 2941 
Q 3294 2488 3294 1666 
Q 3294 1616 3291 1516 
L 816 1516 
Q 847 969 1125 678 
Q 1403 388 1819 388 
Q 2128 388 2347 550 
Q 2566 713 2694 1069 
z
M 847 1978 
L 2700 1978 
Q 2663 2397 2488 2606 
Q 2219 2931 1791 2931 
Q 1403 2931 1139 2672 
Q 875 2413 847 1978 
z
" transform="scale(0.015625)"/>
       <path id="ArialMT-70" d="M 422 -1272 
L 422 3319 
L 934 3319 
L 934 2888 
Q 1116 3141 1344 3267 
Q 1572 3394 1897 3394 
Q 2322 3394 2647 3175 
Q 2972 2956 3137 2557 
Q 3303 2159 3303 1684 
Q 3303 1175 3120 767 
Q 2938 359 2589 142 
Q 2241 -75 1856 -75 
Q 1575 -75 1351 44 
Q 1128 163 984 344 
L 984 -1272 
L 422 -1272 
z
M 931 1641 
Q 931 1000 1190 694 
Q 1450 388 1819 388 
Q 2194 388 2461 705 
Q 2728 1022 2728 1688 
Q 2728 2322 2467 2637 
Q 2206 2953 1844 2953 
Q 1484 2953 1207 2617 
Q 931 2281 931 1641 
z
" transform="scale(0.015625)"/>
       <path id="ArialMT-63" d="M 2588 1216 
L 3141 1144 
Q 3050 572 2676 248 
Q 2303 -75 1759 -75 
Q 1078 -75 664 370 
Q 250 816 250 1647 
Q 250 2184 428 2587 
Q 606 2991 970 3192 
Q 1334 3394 1763 3394 
Q 2303 3394 2647 3120 
Q 2991 2847 3088 2344 
L 2541 2259 
Q 2463 2594 2264 2762 
Q 2066 2931 1784 2931 
Q 1359 2931 1093 2626 
Q 828 2322 828 1663 
Q 828 994 1084 691 
Q 1341 388 1753 388 
Q 2084 388 2306 591 
Q 2528 794 2588 1216 
z
" transform="scale(0.015625)"/>
       <path id="ArialMT-20" transform="scale(0.015625)"/>
      </defs>
      <use xlink:href="#ArialMT-52"/>
      <use xlink:href="#ArialMT-65" x="72.216797"/>
      <use xlink:href="#ArialMT-70" x="127.832031"/>
      <use xlink:href="#ArialMT-6c" x="183.447266"/>
      <use xlink:href="#ArialMT-69" x="205.664062"/>
      <use xlink:href="#ArialMT-63" x="227.880859"/>
      <use xlink:href="#ArialMT-61" x="277.880859"/>
      <use xlink:href="#ArialMT-74" x="333.496094"/>
      <use xlink:href="#ArialMT-65" x="361.279297"/>
      <use xlink:href="#ArialMT-20" x="416.894531"/>
      <use xlink:href="#ArialMT-31" x="444.677734"/>
     </g>
    </g>
    <g id="line2d_15">
     <defs>
      <path id="me09fb0e5d4" d="M 0 1.936492 
C 0.513564 1.936492 1.006162 1.732451 1.369306 1.369306 
C 1.732451 1.006162 1.936492 0.513564 1.936492 0 
C 1.936492 -0.513564 1.732451 -1.006162 1.369306 -1.369306 
C 1.006162 -1.732451 0.513564 -1.936492 0 -1.936492 
C -0.513564 -1.936492 -1.006162 -1.732451 -1.369306 -1.369306 
C -1.732451 -1.006162 -1.936492 -0.513564 -1.936492 0 
C -1.936492 0.513564 -1.732451 1.006162 -1.369306 1.369306 
C -1.006162 1.732451 -0.513564 1.936492 0 1.936492 
z
" style="stroke: #ff6347; stroke-width: 0.309839"/>
     </defs>
     <g>
      <use xlink:href="#me09fb0e5d4" x="101.274625" y="118.231" style="fill: #ff6347; stroke: #ff6347; stroke-width: 0.309839"/>
     </g>
    </g>
    <g id="text_12">
     <!-- Replicate 2 -->
     <g transform="translate(108.314625 121.311) scale(0.088 -0.088)">
      <use xlink:href="#ArialMT-52"/>
      <use xlink:href="#ArialMT-65" x="72.216797"/>
      <use xlink:href="#ArialMT-70" x="127.832031"/>
      <use xlink:href="#ArialMT-6c" x="183.447266"/>
      <use xlink:href="#ArialMT-69" x="205.664062"/>
      <use xlink:href="#ArialMT-63" x="227.880859"/>
      <use xlink:href="#ArialMT-61" x="277.880859"/>
      <use xlink:href="#ArialMT-74" x="333.496094"/>
      <use xlink:href="#ArialMT-65" x="361.279297"/>
      <use xlink:href="#ArialMT-20" x="416.894531"/>
      <use xlink:href="#ArialMT-32" x="444.677734"/>
     </g>
    </g>
   </g>
  </g>
 </g>
 <defs>
  <clipPath id="p82de45a079">
   <rect x="38.008" y="-0" width="122.25" height="130.98"/>
  </clipPath>
 </defs>
</svg>
