<?xml version="1.0" encoding="utf-8" standalone="no"?>
<!DOCTYPE svg PUBLIC "-//W3C//DTD SVG 1.1//EN"
  "http://www.w3.org/Graphics/SVG/1.1/DTD/svg11.dtd">
<svg xmlns:xlink="http://www.w3.org/1999/xlink" width="160.258pt" height="159.558656pt" viewBox="0 0 160.258 159.558656" xmlns="http://www.w3.org/2000/svg" version="1.1">
 <metadata>
  <rdf:RDF xmlns:dc="http://purl.org/dc/elements/1.1/" xmlns:cc="http://creativecommons.org/ns#" xmlns:rdf="http://www.w3.org/1999/02/22-rdf-syntax-ns#">
   <cc:Work>
    <dc:type rdf:resource="http://purl.org/dc/dcmitype/StillImage"/>
    <dc:date>2025-05-27T13:27:53.798292</dc:date>
    <dc:format>image/svg+xml</dc:format>
    <dc:creator>
     <cc:Agent>
      <dc:title>Matplotlib v3.8.4, https://matplotlib.org/</dc:title>
     </cc:Agent>
    </dc:creator>
   </cc:Work>
  </rdf:RDF>
 </metadata>
 <defs>
  <style type="text/css">*{stroke-linejoin: round; stroke-linecap: butt}</style>
 </defs>
 <g id="figure_1">
  <g id="patch_1">
   <path d="M 0 159.558656 
L 160.258 159.558656 
L 160.258 0 
L 0 0 
L 0 159.558656 
z
" style="fill: none"/>
  </g>
  <g id="axes_1">
   <g id="patch_2">
    <path d="M 38.008 130.98 
L 160.258 130.98 
L 160.258 0 
L 38.008 0 
L 38.008 130.98 
z
" style="fill: none"/>
   </g>
   <g id="PolyCollection_1"/>
   <g id="PolyCollection_2">
    <defs>
     <path id="m90858f7cd6" d="M 43.564818 -70.36187 
L 43.564818 -38.355247 
L 44.123292 -38.417842 
L 44.681767 -38.484111 
L 45.240241 -38.554265 
L 45.798715 -38.628524 
L 46.357189 -38.707119 
L 46.915663 -38.790295 
L 47.474138 -38.878309 
L 48.032612 -38.97143 
L 48.591086 -39.069943 
L 49.14956 -39.174146 
L 49.708034 -39.28435 
L 50.266508 -39.400884 
L 50.824983 -39.524091 
L 51.383457 -39.654331 
L 51.941931 -39.791981 
L 52.500405 -39.937435 
L 53.058879 -40.091103 
L 53.617354 -40.253415 
L 54.175828 -40.424819 
L 54.734302 -40.60578 
L 55.292776 -40.796785 
L 55.85125 -40.998335 
L 56.409725 -41.210955 
L 56.968199 -41.435185 
L 57.526673 -41.671587 
L 58.085147 -41.920738 
L 58.643621 -42.183236 
L 59.202095 -42.459695 
L 59.76057 -42.750744 
L 60.319044 -43.057032 
L 60.877518 -43.379217 
L 61.435992 -43.717974 
L 61.994466 -44.073987 
L 62.552941 -44.44795 
L 63.111415 -44.840565 
L 63.669889 -45.252535 
L 64.228363 -45.684569 
L 64.786837 -46.137371 
L 65.345312 -46.611641 
L 65.903786 -47.10807 
L 66.46226 -47.627335 
L 67.020734 -48.170094 
L 67.579208 -48.736982 
L 68.137683 -49.328606 
L 68.696157 -49.945539 
L 69.254631 -50.58831 
L 69.813105 -51.257405 
L 70.371579 -51.953254 
L 70.930053 -52.676228 
L 71.488528 -53.426629 
L 72.047002 -54.204688 
L 72.605476 -55.01055 
L 73.16395 -55.844276 
L 73.722424 -56.705831 
L 74.280899 -57.595079 
L 74.839373 -58.511776 
L 75.397847 -59.455566 
L 75.956321 -60.425978 
L 76.514795 -61.422418 
L 77.07327 -62.444169 
L 77.631744 -63.490387 
L 78.190218 -64.560103 
L 78.748692 -65.65222 
L 79.307166 -66.765516 
L 79.86564 -67.89865 
L 80.424115 -69.05016 
L 80.982589 -70.218475 
L 81.541063 -71.401916 
L 82.099537 -72.598712 
L 82.658011 -73.807002 
L 83.216486 -75.024851 
L 83.77496 -76.250261 
L 84.333434 -77.48118 
L 84.891908 -78.715521 
L 85.450382 -79.951174 
L 86.008857 -81.186019 
L 86.567331 -82.417941 
L 87.125805 -83.644847 
L 87.684279 -84.864675 
L 88.242753 -86.075413 
L 88.801228 -87.275111 
L 89.359702 -88.461889 
L 89.918176 -89.633952 
L 90.47665 -90.789601 
L 91.035124 -91.927237 
L 91.593598 -93.045372 
L 92.152073 -94.142635 
L 92.710547 -95.217776 
L 93.269021 -96.269669 
L 93.827495 -97.297313 
L 94.385969 -98.299835 
L 94.944444 -99.276488 
L 95.502918 -100.22665 
L 96.061392 -101.149819 
L 96.619866 -102.045614 
L 97.17834 -102.913763 
L 97.736815 -103.754107 
L 98.295289 -104.566587 
L 98.853763 -105.35124 
L 99.412237 -106.108193 
L 99.970711 -106.837658 
L 100.529185 -107.539919 
L 101.08766 -108.215333 
L 101.646134 -108.864315 
L 102.204608 -109.487339 
L 102.763082 -110.084925 
L 103.321556 -110.657635 
L 103.880031 -111.20607 
L 104.438505 -111.730856 
L 104.996979 -112.232649 
L 105.555453 -112.712121 
L 106.113927 -113.16996 
L 106.672402 -113.606864 
L 107.230876 -114.023536 
L 107.78935 -114.420685 
L 108.347824 -114.799015 
L 108.906298 -115.159229 
L 109.464772 -115.502022 
L 110.023247 -115.828083 
L 110.581721 -116.138086 
L 111.140195 -116.432697 
L 111.698669 -116.712564 
L 112.257143 -116.978322 
L 112.815618 -117.230589 
L 113.374092 -117.469966 
L 113.932566 -117.697037 
L 114.49104 -117.912365 
L 115.049514 -118.116497 
L 115.607989 -118.30996 
L 116.166463 -118.493262 
L 116.724937 -118.666893 
L 117.283411 -118.831324 
L 117.841885 -118.987006 
L 118.40036 -119.134373 
L 118.958834 -119.273841 
L 119.517308 -119.405806 
L 120.075782 -119.530651 
L 120.634256 -119.648739 
L 121.19273 -119.760416 
L 121.751205 -119.866015 
L 122.309679 -119.965852 
L 122.868153 -120.060228 
L 123.426627 -120.149431 
L 123.985101 -120.233732 
L 124.543576 -120.313393 
L 125.10205 -120.38866 
L 125.660524 -120.459769 
L 126.218998 -120.526941 
L 126.777472 -120.59039 
L 127.335947 -120.650317 
L 127.894421 -120.706912 
L 128.452895 -120.760356 
L 129.011369 -120.810821 
L 129.569843 -120.85847 
L 130.128317 -120.903456 
L 130.686792 -120.945927 
L 131.245266 -120.98602 
L 131.80374 -121.023866 
L 132.362214 -121.059589 
L 132.920688 -121.093307 
L 133.479163 -121.125131 
L 134.037637 -121.155166 
L 134.596111 -121.183511 
L 135.154585 -121.210261 
L 135.713059 -121.235503 
L 136.271534 -121.259323 
L 136.830008 -121.281799 
L 137.388482 -121.303007 
L 137.946956 -121.323018 
L 138.50543 -121.341899 
L 139.063905 -121.359713 
L 139.622379 -121.376519 
L 140.180853 -121.392376 
L 140.739327 -121.407335 
L 141.297801 -121.421448 
L 141.856275 -121.434762 
L 142.41475 -121.447322 
L 142.973224 -121.459171 
L 143.531698 -121.470348 
L 144.090172 -121.480892 
L 144.648646 -121.490838 
L 145.207121 -121.50022 
L 145.765595 -121.50907 
L 146.324069 -121.517418 
L 146.882543 -121.525293 
L 147.441017 -121.53272 
L 147.999492 -121.539727 
L 148.557966 -121.546335 
L 149.11644 -121.552568 
L 149.674914 -121.558448 
L 150.233388 -121.563993 
L 150.791862 -121.569223 
L 151.350337 -121.574157 
L 151.908811 -121.57881 
L 152.467285 -121.583199 
L 153.025759 -121.587338 
L 153.584233 -121.591242 
L 154.142708 -121.594924 
L 154.701182 -121.598397 
L 154.701182 -153.60502 
L 154.701182 -153.60502 
L 154.142708 -153.601547 
L 153.584233 -153.597865 
L 153.025759 -153.593961 
L 152.467285 -153.589821 
L 151.908811 -153.585432 
L 151.350337 -153.580779 
L 150.791862 -153.575846 
L 150.233388 -153.570615 
L 149.674914 -153.56507 
L 149.11644 -153.559191 
L 148.557966 -153.552958 
L 147.999492 -153.546349 
L 147.441017 -153.539343 
L 146.882543 -153.531915 
L 146.324069 -153.524041 
L 145.765595 -153.515693 
L 145.207121 -153.506843 
L 144.648646 -153.49746 
L 144.090172 -153.487514 
L 143.531698 -153.476971 
L 142.973224 -153.465793 
L 142.41475 -153.453945 
L 141.856275 -153.441385 
L 141.297801 -153.428071 
L 140.739327 -153.413958 
L 140.180853 -153.398998 
L 139.622379 -153.383142 
L 139.063905 -153.366335 
L 138.50543 -153.348521 
L 137.946956 -153.329641 
L 137.388482 -153.30963 
L 136.830008 -153.288422 
L 136.271534 -153.265945 
L 135.713059 -153.242126 
L 135.154585 -153.216883 
L 134.596111 -153.190134 
L 134.037637 -153.161789 
L 133.479163 -153.131754 
L 132.920688 -153.09993 
L 132.362214 -153.066212 
L 131.80374 -153.030488 
L 131.245266 -152.992642 
L 130.686792 -152.952549 
L 130.128317 -152.910079 
L 129.569843 -152.865092 
L 129.011369 -152.817443 
L 128.452895 -152.766978 
L 127.894421 -152.713534 
L 127.335947 -152.65694 
L 126.777472 -152.597013 
L 126.218998 -152.533564 
L 125.660524 -152.466391 
L 125.10205 -152.395283 
L 124.543576 -152.320016 
L 123.985101 -152.240355 
L 123.426627 -152.156053 
L 122.868153 -152.066851 
L 122.309679 -151.972475 
L 121.751205 -151.872638 
L 121.19273 -151.767039 
L 120.634256 -151.655361 
L 120.075782 -151.537274 
L 119.517308 -151.412429 
L 118.958834 -151.280463 
L 118.40036 -151.140996 
L 117.841885 -150.993629 
L 117.283411 -150.837947 
L 116.724937 -150.673516 
L 116.166463 -150.499885 
L 115.607989 -150.316582 
L 115.049514 -150.123119 
L 114.49104 -149.918987 
L 113.932566 -149.703659 
L 113.374092 -149.476589 
L 112.815618 -149.237212 
L 112.257143 -148.984945 
L 111.698669 -148.719187 
L 111.140195 -148.43932 
L 110.581721 -148.144709 
L 110.023247 -147.834705 
L 109.464772 -147.508645 
L 108.906298 -147.165851 
L 108.347824 -146.805637 
L 107.78935 -146.427307 
L 107.230876 -146.030159 
L 106.672402 -145.613486 
L 106.113927 -145.176583 
L 105.555453 -144.718744 
L 104.996979 -144.239272 
L 104.438505 -143.737479 
L 103.880031 -143.212692 
L 103.321556 -142.664258 
L 102.763082 -142.091547 
L 102.204608 -141.493961 
L 101.646134 -140.870938 
L 101.08766 -140.221955 
L 100.529185 -139.546542 
L 99.970711 -138.84428 
L 99.412237 -138.114816 
L 98.853763 -137.357862 
L 98.295289 -136.573209 
L 97.736815 -135.76073 
L 97.17834 -134.920386 
L 96.619866 -134.052236 
L 96.061392 -133.156442 
L 95.502918 -132.233272 
L 94.944444 -131.283111 
L 94.385969 -130.306457 
L 93.827495 -129.303935 
L 93.269021 -128.276291 
L 92.710547 -127.224399 
L 92.152073 -126.149258 
L 91.593598 -125.051994 
L 91.035124 -123.933859 
L 90.47665 -122.796223 
L 89.918176 -121.640575 
L 89.359702 -120.468511 
L 88.801228 -119.281734 
L 88.242753 -118.082036 
L 87.684279 -116.871297 
L 87.125805 -115.651469 
L 86.567331 -114.424564 
L 86.008857 -113.192642 
L 85.450382 -111.957797 
L 84.891908 -110.722144 
L 84.333434 -109.487802 
L 83.77496 -108.256883 
L 83.216486 -107.031474 
L 82.658011 -105.813625 
L 82.099537 -104.605335 
L 81.541063 -103.408539 
L 80.982589 -102.225097 
L 80.424115 -101.056783 
L 79.86564 -99.905273 
L 79.307166 -98.772139 
L 78.748692 -97.658842 
L 78.190218 -96.566725 
L 77.631744 -95.49701 
L 77.07327 -94.450791 
L 76.514795 -93.429041 
L 75.956321 -92.432601 
L 75.397847 -91.462189 
L 74.839373 -90.518398 
L 74.280899 -89.601701 
L 73.722424 -88.712454 
L 73.16395 -87.850899 
L 72.605476 -87.017173 
L 72.047002 -86.21131 
L 71.488528 -85.433252 
L 70.930053 -84.68285 
L 70.371579 -83.959876 
L 69.813105 -83.264027 
L 69.254631 -82.594932 
L 68.696157 -81.952161 
L 68.137683 -81.335229 
L 67.579208 -80.743605 
L 67.020734 -80.176716 
L 66.46226 -79.633958 
L 65.903786 -79.114693 
L 65.345312 -78.618264 
L 64.786837 -78.143994 
L 64.228363 -77.691192 
L 63.669889 -77.259158 
L 63.111415 -76.847187 
L 62.552941 -76.454573 
L 61.994466 -76.08061 
L 61.435992 -75.724597 
L 60.877518 -75.38584 
L 60.319044 -75.063654 
L 59.76057 -74.757367 
L 59.202095 -74.466317 
L 58.643621 -74.189858 
L 58.085147 -73.92736 
L 57.526673 -73.678209 
L 56.968199 -73.441808 
L 56.409725 -73.217577 
L 55.85125 -73.004958 
L 55.292776 -72.803407 
L 54.734302 -72.612403 
L 54.175828 -72.431442 
L 53.617354 -72.260038 
L 53.058879 -72.097725 
L 52.500405 -71.944057 
L 51.941931 -71.798604 
L 51.383457 -71.660954 
L 50.824983 -71.530713 
L 50.266508 -71.407506 
L 49.708034 -71.290972 
L 49.14956 -71.180768 
L 48.591086 -71.076566 
L 48.032612 -70.978053 
L 47.474138 -70.884931 
L 46.915663 -70.796917 
L 46.357189 -70.713741 
L 45.798715 -70.635146 
L 45.240241 -70.560888 
L 44.681767 -70.490734 
L 44.123292 -70.424464 
L 43.564818 -70.36187 
z
" style="stroke: #87ceeb; stroke-opacity: 0.2; stroke-width: 0.8"/>
    </defs>
    <g clip-path="url(#p9aa07cad48)">
     <use xlink:href="#m90858f7cd6" x="0" y="159.558656" style="fill: #87ceeb; fill-opacity: 0.2; stroke: #87ceeb; stroke-opacity: 0.2; stroke-width: 0.8"/>
    </g>
   </g>
   <g id="PathCollection_1">
    <defs>
     <path id="C0_0_dc724202f1" d="M 0 1.936492 
C 0.513564 1.936492 1.006162 1.732451 1.369306 1.369306 
C 1.732451 1.006162 1.936492 0.513564 1.936492 -0 
C 1.936492 -0.513564 1.732451 -1.006162 1.369306 -1.369306 
C 1.006162 -1.732451 0.513564 -1.936492 0 -1.936492 
C -0.513564 -1.936492 -1.006162 -1.732451 -1.369306 -1.369306 
C -1.732451 -1.006162 -1.936492 -0.513564 -1.936492 0 
C -1.936492 0.513564 -1.732451 1.006162 -1.369306 1.369306 
C -1.006162 1.732451 -0.513564 1.936492 0 1.936492 
z
"/>
    </defs>
    <g clip-path="url(#p9aa07cad48)">
     <use xlink:href="#C0_0_dc724202f1" x="44.473261" y="113.104379" style="stroke: #000000; stroke-width: 0.309839"/>
    </g>
    <g clip-path="url(#p9aa07cad48)">
     <use xlink:href="#C0_0_dc724202f1" x="74.417308" y="107.68474" style="stroke: #000000; stroke-width: 0.309839"/>
    </g>
    <g clip-path="url(#p9aa07cad48)">
     <use xlink:href="#C0_0_dc724202f1" x="59.262913" y="79.66997" style="stroke: #000000; stroke-width: 0.309839"/>
    </g>
    <g clip-path="url(#p9aa07cad48)">
     <use xlink:href="#C0_0_dc724202f1" x="69.824801" y="113.864021" style="stroke: #000000; stroke-width: 0.309839"/>
    </g>
    <g clip-path="url(#p9aa07cad48)">
     <use xlink:href="#C0_0_dc724202f1" x="112.792515" y="13.784043" style="stroke: #000000; stroke-width: 0.309839"/>
    </g>
    <g clip-path="url(#p9aa07cad48)">
     <use xlink:href="#C0_0_dc724202f1" x="62.059397" y="102.236055" style="stroke: #000000; stroke-width: 0.309839"/>
    </g>
    <g clip-path="url(#p9aa07cad48)">
     <use xlink:href="#C0_0_dc724202f1" x="90.261515" y="20.580735" style="stroke: #000000; stroke-width: 0.309839"/>
    </g>
    <g clip-path="url(#p9aa07cad48)">
     <use xlink:href="#C0_0_dc724202f1" x="84.475953" y="105.885106" style="stroke: #000000; stroke-width: 0.309839"/>
    </g>
    <g clip-path="url(#p9aa07cad48)">
     <use xlink:href="#C0_0_dc724202f1" x="67.876895" y="102.511841" style="stroke: #000000; stroke-width: 0.309839"/>
    </g>
    <g clip-path="url(#p9aa07cad48)">
     <use xlink:href="#C0_0_dc724202f1" x="68.279847" y="99.301822" style="stroke: #000000; stroke-width: 0.309839"/>
    </g>
    <g clip-path="url(#p9aa07cad48)">
     <use xlink:href="#C0_0_dc724202f1" x="85.510492" y="54.938351" style="stroke: #000000; stroke-width: 0.309839"/>
    </g>
    <g clip-path="url(#p9aa07cad48)">
     <use xlink:href="#C0_0_dc724202f1" x="128.812059" y="13.161955" style="stroke: #000000; stroke-width: 0.309839"/>
    </g>
    <g clip-path="url(#p9aa07cad48)">
     <use xlink:href="#C0_0_dc724202f1" x="63.226243" y="63.951757" style="stroke: #000000; stroke-width: 0.309839"/>
    </g>
    <g clip-path="url(#p9aa07cad48)">
     <use xlink:href="#C0_0_dc724202f1" x="125.490633" y="40.289862" style="stroke: #000000; stroke-width: 0.309839"/>
    </g>
    <g clip-path="url(#p9aa07cad48)">
     <use xlink:href="#C0_0_dc724202f1" x="147.287944" y="35.936046" style="stroke: #000000; stroke-width: 0.309839"/>
    </g>
    <g clip-path="url(#p9aa07cad48)">
     <use xlink:href="#C0_0_dc724202f1" x="128.715959" y="19.145279" style="stroke: #000000; stroke-width: 0.309839"/>
    </g>
    <g clip-path="url(#p9aa07cad48)">
     <use xlink:href="#C0_0_dc724202f1" x="138.263326" y="19.839877" style="stroke: #000000; stroke-width: 0.309839"/>
    </g>
    <g clip-path="url(#p9aa07cad48)">
     <use xlink:href="#C0_0_dc724202f1" x="107.282224" y="46.160781" style="stroke: #000000; stroke-width: 0.309839"/>
    </g>
    <g clip-path="url(#p9aa07cad48)">
     <use xlink:href="#C0_0_dc724202f1" x="113.997787" y="29.780573" style="stroke: #000000; stroke-width: 0.309839"/>
    </g>
    <g clip-path="url(#p9aa07cad48)">
     <use xlink:href="#C0_0_dc724202f1" x="103.393844" y="20.384015" style="stroke: #000000; stroke-width: 0.309839"/>
    </g>
    <g clip-path="url(#p9aa07cad48)">
     <use xlink:href="#C0_0_dc724202f1" x="55.630648" y="119.866116" style="stroke: #000000; stroke-width: 0.309839"/>
    </g>
    <g clip-path="url(#p9aa07cad48)">
     <use xlink:href="#C0_0_dc724202f1" x="65.45649" y="62.617987" style="stroke: #000000; stroke-width: 0.309839"/>
    </g>
    <g clip-path="url(#p9aa07cad48)">
     <use xlink:href="#C0_0_dc724202f1" x="88.047681" y="76.720036" style="stroke: #000000; stroke-width: 0.309839"/>
    </g>
    <g clip-path="url(#p9aa07cad48)">
     <use xlink:href="#C0_0_dc724202f1" x="53.20742" y="82.041124" style="stroke: #000000; stroke-width: 0.309839"/>
    </g>
    <g clip-path="url(#p9aa07cad48)">
     <use xlink:href="#C0_0_dc724202f1" x="75.702628" y="44.738938" style="stroke: #000000; stroke-width: 0.309839"/>
    </g>
    <g clip-path="url(#p9aa07cad48)">
     <use xlink:href="#C0_0_dc724202f1" x="94.74292" y="30.781428" style="stroke: #000000; stroke-width: 0.309839"/>
    </g>
    <g clip-path="url(#p9aa07cad48)">
     <use xlink:href="#C0_0_dc724202f1" x="56.629345" y="113.104379" style="fill: #ff6347; stroke: #ff6347; stroke-width: 0.309839"/>
    </g>
    <g clip-path="url(#p9aa07cad48)">
     <use xlink:href="#C0_0_dc724202f1" x="61.313506" y="107.68474" style="fill: #ff6347; stroke: #ff6347; stroke-width: 0.309839"/>
    </g>
    <g clip-path="url(#p9aa07cad48)">
     <use xlink:href="#C0_0_dc724202f1" x="73.696571" y="79.66997" style="fill: #ff6347; stroke: #ff6347; stroke-width: 0.309839"/>
    </g>
    <g clip-path="url(#p9aa07cad48)">
     <use xlink:href="#C0_0_dc724202f1" x="56.200014" y="113.864021" style="fill: #ff6347; stroke: #ff6347; stroke-width: 0.309839"/>
    </g>
    <g clip-path="url(#p9aa07cad48)">
     <use xlink:href="#C0_0_dc724202f1" x="154.701182" y="13.784043" style="fill: #ff6347; stroke: #ff6347; stroke-width: 0.309839"/>
    </g>
    <g clip-path="url(#p9aa07cad48)">
     <use xlink:href="#C0_0_dc724202f1" x="80.568181" y="102.236055" style="fill: #ff6347; stroke: #ff6347; stroke-width: 0.309839"/>
    </g>
    <g clip-path="url(#p9aa07cad48)">
     <use xlink:href="#C0_0_dc724202f1" x="121.686737" y="20.580735" style="fill: #ff6347; stroke: #ff6347; stroke-width: 0.309839"/>
    </g>
    <g clip-path="url(#p9aa07cad48)">
     <use xlink:href="#C0_0_dc724202f1" x="69.214241" y="105.885106" style="fill: #ff6347; stroke: #ff6347; stroke-width: 0.309839"/>
    </g>
    <g clip-path="url(#p9aa07cad48)">
     <use xlink:href="#C0_0_dc724202f1" x="67.527295" y="102.511841" style="fill: #ff6347; stroke: #ff6347; stroke-width: 0.309839"/>
    </g>
    <g clip-path="url(#p9aa07cad48)">
     <use xlink:href="#C0_0_dc724202f1" x="67.036109" y="99.301822" style="fill: #ff6347; stroke: #ff6347; stroke-width: 0.309839"/>
    </g>
    <g clip-path="url(#p9aa07cad48)">
     <use xlink:href="#C0_0_dc724202f1" x="88.294841" y="54.938351" style="fill: #ff6347; stroke: #ff6347; stroke-width: 0.309839"/>
    </g>
    <g clip-path="url(#p9aa07cad48)">
     <use xlink:href="#C0_0_dc724202f1" x="137.589858" y="13.161955" style="fill: #ff6347; stroke: #ff6347; stroke-width: 0.309839"/>
    </g>
    <g clip-path="url(#p9aa07cad48)">
     <use xlink:href="#C0_0_dc724202f1" x="81.728396" y="63.951757" style="fill: #ff6347; stroke: #ff6347; stroke-width: 0.309839"/>
    </g>
    <g clip-path="url(#p9aa07cad48)">
     <use xlink:href="#C0_0_dc724202f1" x="104.127849" y="40.289862" style="fill: #ff6347; stroke: #ff6347; stroke-width: 0.309839"/>
    </g>
    <g clip-path="url(#p9aa07cad48)">
     <use xlink:href="#C0_0_dc724202f1" x="117.262161" y="35.936046" style="fill: #ff6347; stroke: #ff6347; stroke-width: 0.309839"/>
    </g>
    <g clip-path="url(#p9aa07cad48)">
     <use xlink:href="#C0_0_dc724202f1" x="134.115157" y="19.145279" style="fill: #ff6347; stroke: #ff6347; stroke-width: 0.309839"/>
    </g>
    <g clip-path="url(#p9aa07cad48)">
     <use xlink:href="#C0_0_dc724202f1" x="127.968331" y="19.839877" style="fill: #ff6347; stroke: #ff6347; stroke-width: 0.309839"/>
    </g>
    <g clip-path="url(#p9aa07cad48)">
     <use xlink:href="#C0_0_dc724202f1" x="99.430603" y="46.160781" style="fill: #ff6347; stroke: #ff6347; stroke-width: 0.309839"/>
    </g>
    <g clip-path="url(#p9aa07cad48)">
     <use xlink:href="#C0_0_dc724202f1" x="109.533511" y="29.780573" style="fill: #ff6347; stroke: #ff6347; stroke-width: 0.309839"/>
    </g>
    <g clip-path="url(#p9aa07cad48)">
     <use xlink:href="#C0_0_dc724202f1" x="105.562448" y="20.384015" style="fill: #ff6347; stroke: #ff6347; stroke-width: 0.309839"/>
    </g>
    <g clip-path="url(#p9aa07cad48)">
     <use xlink:href="#C0_0_dc724202f1" x="43.564818" y="119.866116" style="fill: #ff6347; stroke: #ff6347; stroke-width: 0.309839"/>
    </g>
    <g clip-path="url(#p9aa07cad48)">
     <use xlink:href="#C0_0_dc724202f1" x="85.060763" y="62.617987" style="fill: #ff6347; stroke: #ff6347; stroke-width: 0.309839"/>
    </g>
    <g clip-path="url(#p9aa07cad48)">
     <use xlink:href="#C0_0_dc724202f1" x="74.236574" y="76.720036" style="fill: #ff6347; stroke: #ff6347; stroke-width: 0.309839"/>
    </g>
    <g clip-path="url(#p9aa07cad48)">
     <use xlink:href="#C0_0_dc724202f1" x="66.239551" y="82.041124" style="fill: #ff6347; stroke: #ff6347; stroke-width: 0.309839"/>
    </g>
    <g clip-path="url(#p9aa07cad48)">
     <use xlink:href="#C0_0_dc724202f1" x="91.945205" y="44.738938" style="fill: #ff6347; stroke: #ff6347; stroke-width: 0.309839"/>
    </g>
    <g clip-path="url(#p9aa07cad48)">
     <use xlink:href="#C0_0_dc724202f1" x="135.931312" y="30.781428" style="fill: #ff6347; stroke: #ff6347; stroke-width: 0.309839"/>
    </g>
   </g>
   <g id="matplotlib.axis_1">
    <g id="xtick_1">
     <g id="line2d_1">
      <defs>
       <path id="m817d3a1e66" d="M 0 0 
L 0 4.8 
" style="stroke: #000000; stroke-width: 0.5"/>
      </defs>
      <g>
       <use xlink:href="#m817d3a1e66" x="51.477866" y="130.98" style="stroke: #000000; stroke-width: 0.5"/>
      </g>
     </g>
     <g id="text_1">
      <!-- 0.5 -->
      <g transform="translate(45.361866 145.578875) scale(0.088 -0.088)">
       <defs>
        <path id="ArialMT-30" d="M 266 2259 
Q 266 3072 433 3567 
Q 600 4063 929 4331 
Q 1259 4600 1759 4600 
Q 2128 4600 2406 4451 
Q 2684 4303 2865 4023 
Q 3047 3744 3150 3342 
Q 3253 2941 3253 2259 
Q 3253 1453 3087 958 
Q 2922 463 2592 192 
Q 2263 -78 1759 -78 
Q 1097 -78 719 397 
Q 266 969 266 2259 
z
M 844 2259 
Q 844 1131 1108 757 
Q 1372 384 1759 384 
Q 2147 384 2411 759 
Q 2675 1134 2675 2259 
Q 2675 3391 2411 3762 
Q 2147 4134 1753 4134 
Q 1366 4134 1134 3806 
Q 844 3388 844 2259 
z
" transform="scale(0.015625)"/>
        <path id="ArialMT-2e" d="M 581 0 
L 581 641 
L 1222 641 
L 1222 0 
L 581 0 
z
" transform="scale(0.015625)"/>
        <path id="ArialMT-35" d="M 266 1200 
L 856 1250 
Q 922 819 1161 601 
Q 1400 384 1738 384 
Q 2144 384 2425 690 
Q 2706 997 2706 1503 
Q 2706 1984 2436 2262 
Q 2166 2541 1728 2541 
Q 1456 2541 1237 2417 
Q 1019 2294 894 2097 
L 366 2166 
L 809 4519 
L 3088 4519 
L 3088 3981 
L 1259 3981 
L 1013 2750 
Q 1425 3038 1878 3038 
Q 2478 3038 2890 2622 
Q 3303 2206 3303 1553 
Q 3303 931 2941 478 
Q 2500 -78 1738 -78 
Q 1113 -78 717 272 
Q 322 622 266 1200 
z
" transform="scale(0.015625)"/>
       </defs>
       <use xlink:href="#ArialMT-30"/>
       <use xlink:href="#ArialMT-2e" x="55.615234"/>
       <use xlink:href="#ArialMT-35" x="83.398438"/>
      </g>
     </g>
    </g>
    <g id="xtick_2">
     <g id="line2d_2">
      <g>
       <use xlink:href="#m817d3a1e66" x="95.761903" y="130.98" style="stroke: #000000; stroke-width: 0.5"/>
      </g>
     </g>
     <g id="text_2">
      <!-- 1.0 -->
      <g transform="translate(89.645903 145.578875) scale(0.088 -0.088)">
       <defs>
        <path id="ArialMT-31" d="M 2384 0 
L 1822 0 
L 1822 3584 
Q 1619 3391 1289 3197 
Q 959 3003 697 2906 
L 697 3450 
Q 1169 3672 1522 3987 
Q 1875 4303 2022 4600 
L 2384 4600 
L 2384 0 
z
" transform="scale(0.015625)"/>
       </defs>
       <use xlink:href="#ArialMT-31"/>
       <use xlink:href="#ArialMT-2e" x="55.615234"/>
       <use xlink:href="#ArialMT-30" x="83.398438"/>
      </g>
     </g>
    </g>
    <g id="xtick_3">
     <g id="line2d_3">
      <g>
       <use xlink:href="#m817d3a1e66" x="140.04594" y="130.98" style="stroke: #000000; stroke-width: 0.5"/>
      </g>
     </g>
     <g id="text_3">
      <!-- 1.5 -->
      <g transform="translate(133.92994 145.578875) scale(0.088 -0.088)">
       <use xlink:href="#ArialMT-31"/>
       <use xlink:href="#ArialMT-2e" x="55.615234"/>
       <use xlink:href="#ArialMT-35" x="83.398438"/>
      </g>
     </g>
    </g>
    <g id="text_4">
     <!-- Ratio -->
     <g transform="translate(88.628313 157.769906) scale(0.09 -0.09)">
      <defs>
       <path id="ArialMT-52" d="M 503 0 
L 503 4581 
L 2534 4581 
Q 3147 4581 3465 4457 
Q 3784 4334 3975 4021 
Q 4166 3709 4166 3331 
Q 4166 2844 3850 2509 
Q 3534 2175 2875 2084 
Q 3116 1969 3241 1856 
Q 3506 1613 3744 1247 
L 4541 0 
L 3778 0 
L 3172 953 
Q 2906 1366 2734 1584 
Q 2563 1803 2427 1890 
Q 2291 1978 2150 2013 
Q 2047 2034 1813 2034 
L 1109 2034 
L 1109 0 
L 503 0 
z
M 1109 2559 
L 2413 2559 
Q 2828 2559 3062 2645 
Q 3297 2731 3419 2920 
Q 3541 3109 3541 3331 
Q 3541 3656 3305 3865 
Q 3069 4075 2559 4075 
L 1109 4075 
L 1109 2559 
z
" transform="scale(0.015625)"/>
       <path id="ArialMT-61" d="M 2588 409 
Q 2275 144 1986 34 
Q 1697 -75 1366 -75 
Q 819 -75 525 192 
Q 231 459 231 875 
Q 231 1119 342 1320 
Q 453 1522 633 1644 
Q 813 1766 1038 1828 
Q 1203 1872 1538 1913 
Q 2219 1994 2541 2106 
Q 2544 2222 2544 2253 
Q 2544 2597 2384 2738 
Q 2169 2928 1744 2928 
Q 1347 2928 1158 2789 
Q 969 2650 878 2297 
L 328 2372 
Q 403 2725 575 2942 
Q 747 3159 1072 3276 
Q 1397 3394 1825 3394 
Q 2250 3394 2515 3294 
Q 2781 3194 2906 3042 
Q 3031 2891 3081 2659 
Q 3109 2516 3109 2141 
L 3109 1391 
Q 3109 606 3145 398 
Q 3181 191 3288 0 
L 2700 0 
Q 2613 175 2588 409 
z
M 2541 1666 
Q 2234 1541 1622 1453 
Q 1275 1403 1131 1340 
Q 988 1278 909 1158 
Q 831 1038 831 891 
Q 831 666 1001 516 
Q 1172 366 1500 366 
Q 1825 366 2078 508 
Q 2331 650 2450 897 
Q 2541 1088 2541 1459 
L 2541 1666 
z
" transform="scale(0.015625)"/>
       <path id="ArialMT-74" d="M 1650 503 
L 1731 6 
Q 1494 -44 1306 -44 
Q 1000 -44 831 53 
Q 663 150 594 308 
Q 525 466 525 972 
L 525 2881 
L 113 2881 
L 113 3319 
L 525 3319 
L 525 4141 
L 1084 4478 
L 1084 3319 
L 1650 3319 
L 1650 2881 
L 1084 2881 
L 1084 941 
Q 1084 700 1114 631 
Q 1144 563 1211 522 
Q 1278 481 1403 481 
Q 1497 481 1650 503 
z
" transform="scale(0.015625)"/>
       <path id="ArialMT-69" d="M 425 3934 
L 425 4581 
L 988 4581 
L 988 3934 
L 425 3934 
z
M 425 0 
L 425 3319 
L 988 3319 
L 988 0 
L 425 0 
z
" transform="scale(0.015625)"/>
       <path id="ArialMT-6f" d="M 213 1659 
Q 213 2581 725 3025 
Q 1153 3394 1769 3394 
Q 2453 3394 2887 2945 
Q 3322 2497 3322 1706 
Q 3322 1066 3130 698 
Q 2938 331 2570 128 
Q 2203 -75 1769 -75 
Q 1072 -75 642 372 
Q 213 819 213 1659 
z
M 791 1659 
Q 791 1022 1069 705 
Q 1347 388 1769 388 
Q 2188 388 2466 706 
Q 2744 1025 2744 1678 
Q 2744 2294 2464 2611 
Q 2184 2928 1769 2928 
Q 1347 2928 1069 2612 
Q 791 2297 791 1659 
z
" transform="scale(0.015625)"/>
      </defs>
      <use xlink:href="#ArialMT-52"/>
      <use xlink:href="#ArialMT-61" x="72.216797"/>
      <use xlink:href="#ArialMT-74" x="127.832031"/>
      <use xlink:href="#ArialMT-69" x="155.615234"/>
      <use xlink:href="#ArialMT-6f" x="177.832031"/>
     </g>
    </g>
   </g>
   <g id="matplotlib.axis_2">
    <g id="ytick_1">
     <g id="line2d_4">
      <defs>
       <path id="mccb04c5677" d="M 0 0 
L -4.8 0 
" style="stroke: #000000; stroke-width: 0.5"/>
      </defs>
      <g>
       <use xlink:href="#mccb04c5677" x="38.008" y="112.548674" style="stroke: #000000; stroke-width: 0.5"/>
      </g>
     </g>
     <g id="text_5">
      <!-- −2.5 -->
      <g transform="translate(12.33625 115.698112) scale(0.088 -0.088)">
       <defs>
        <path id="ArialMT-2212" d="M 3381 1997 
L 356 1997 
L 356 2522 
L 3381 2522 
L 3381 1997 
z
" transform="scale(0.015625)"/>
        <path id="ArialMT-32" d="M 3222 541 
L 3222 0 
L 194 0 
Q 188 203 259 391 
Q 375 700 629 1000 
Q 884 1300 1366 1694 
Q 2113 2306 2375 2664 
Q 2638 3022 2638 3341 
Q 2638 3675 2398 3904 
Q 2159 4134 1775 4134 
Q 1369 4134 1125 3890 
Q 881 3647 878 3216 
L 300 3275 
Q 359 3922 746 4261 
Q 1134 4600 1788 4600 
Q 2447 4600 2831 4234 
Q 3216 3869 3216 3328 
Q 3216 3053 3103 2787 
Q 2991 2522 2730 2228 
Q 2469 1934 1863 1422 
Q 1356 997 1212 845 
Q 1069 694 975 541 
L 3222 541 
z
" transform="scale(0.015625)"/>
       </defs>
       <use xlink:href="#ArialMT-2212"/>
       <use xlink:href="#ArialMT-32" x="58.398438"/>
       <use xlink:href="#ArialMT-2e" x="114.013672"/>
       <use xlink:href="#ArialMT-35" x="141.796875"/>
      </g>
     </g>
    </g>
    <g id="ytick_2">
     <g id="line2d_5">
      <g>
       <use xlink:href="#mccb04c5677" x="38.008" y="89.68362" style="stroke: #000000; stroke-width: 0.5"/>
      </g>
     </g>
     <g id="text_6">
      <!-- 0.0 -->
      <g transform="translate(17.476 92.833057) scale(0.088 -0.088)">
       <use xlink:href="#ArialMT-30"/>
       <use xlink:href="#ArialMT-2e" x="55.615234"/>
       <use xlink:href="#ArialMT-30" x="83.398438"/>
      </g>
     </g>
    </g>
    <g id="ytick_3">
     <g id="line2d_6">
      <g>
       <use xlink:href="#mccb04c5677" x="38.008" y="66.818566" style="stroke: #000000; stroke-width: 0.5"/>
      </g>
     </g>
     <g id="text_7">
      <!-- 2.5 -->
      <g transform="translate(17.476 69.968003) scale(0.088 -0.088)">
       <use xlink:href="#ArialMT-32"/>
       <use xlink:href="#ArialMT-2e" x="55.615234"/>
       <use xlink:href="#ArialMT-35" x="83.398438"/>
      </g>
     </g>
    </g>
    <g id="ytick_4">
     <g id="line2d_7">
      <g>
       <use xlink:href="#mccb04c5677" x="38.008" y="43.953511" style="stroke: #000000; stroke-width: 0.5"/>
      </g>
     </g>
     <g id="text_8">
      <!-- 5.0 -->
      <g transform="translate(17.476 47.102949) scale(0.088 -0.088)">
       <use xlink:href="#ArialMT-35"/>
       <use xlink:href="#ArialMT-2e" x="55.615234"/>
       <use xlink:href="#ArialMT-30" x="83.398438"/>
      </g>
     </g>
    </g>
    <g id="ytick_5">
     <g id="line2d_8">
      <g>
       <use xlink:href="#mccb04c5677" x="38.008" y="21.088457" style="stroke: #000000; stroke-width: 0.5"/>
      </g>
     </g>
     <g id="text_9">
      <!-- 7.5 -->
      <g transform="translate(17.476 24.237895) scale(0.088 -0.088)">
       <defs>
        <path id="ArialMT-37" d="M 303 3981 
L 303 4522 
L 3269 4522 
L 3269 4084 
Q 2831 3619 2401 2847 
Q 1972 2075 1738 1259 
Q 1569 684 1522 0 
L 944 0 
Q 953 541 1156 1306 
Q 1359 2072 1739 2783 
Q 2119 3494 2547 3981 
L 303 3981 
z
" transform="scale(0.015625)"/>
       </defs>
       <use xlink:href="#ArialMT-37"/>
       <use xlink:href="#ArialMT-2e" x="55.615234"/>
       <use xlink:href="#ArialMT-35" x="83.398438"/>
      </g>
     </g>
    </g>
    <g id="text_10">
     <!-- logRFP -->
     <g transform="translate(6.442031 80.494688) rotate(-90) scale(0.09 -0.09)">
      <defs>
       <path id="ArialMT-6c" d="M 409 0 
L 409 4581 
L 972 4581 
L 972 0 
L 409 0 
z
" transform="scale(0.015625)"/>
       <path id="ArialMT-67" d="M 319 -275 
L 866 -356 
Q 900 -609 1056 -725 
Q 1266 -881 1628 -881 
Q 2019 -881 2231 -725 
Q 2444 -569 2519 -288 
Q 2563 -116 2559 434 
Q 2191 0 1641 0 
Q 956 0 581 494 
Q 206 988 206 1678 
Q 206 2153 378 2554 
Q 550 2956 876 3175 
Q 1203 3394 1644 3394 
Q 2231 3394 2613 2919 
L 2613 3319 
L 3131 3319 
L 3131 450 
Q 3131 -325 2973 -648 
Q 2816 -972 2473 -1159 
Q 2131 -1347 1631 -1347 
Q 1038 -1347 672 -1080 
Q 306 -813 319 -275 
z
M 784 1719 
Q 784 1066 1043 766 
Q 1303 466 1694 466 
Q 2081 466 2343 764 
Q 2606 1063 2606 1700 
Q 2606 2309 2336 2618 
Q 2066 2928 1684 2928 
Q 1309 2928 1046 2623 
Q 784 2319 784 1719 
z
" transform="scale(0.015625)"/>
       <path id="ArialMT-46" d="M 525 0 
L 525 4581 
L 3616 4581 
L 3616 4041 
L 1131 4041 
L 1131 2622 
L 3281 2622 
L 3281 2081 
L 1131 2081 
L 1131 0 
L 525 0 
z
" transform="scale(0.015625)"/>
       <path id="ArialMT-50" d="M 494 0 
L 494 4581 
L 2222 4581 
Q 2678 4581 2919 4538 
Q 3256 4481 3484 4323 
Q 3713 4166 3852 3881 
Q 3991 3597 3991 3256 
Q 3991 2672 3619 2267 
Q 3247 1863 2275 1863 
L 1100 1863 
L 1100 0 
L 494 0 
z
M 1100 2403 
L 2284 2403 
Q 2872 2403 3119 2622 
Q 3366 2841 3366 3238 
Q 3366 3525 3220 3729 
Q 3075 3934 2838 4000 
Q 2684 4041 2272 4041 
L 1100 4041 
L 1100 2403 
z
" transform="scale(0.015625)"/>
      </defs>
      <use xlink:href="#ArialMT-6c"/>
      <use xlink:href="#ArialMT-6f" x="22.216797"/>
      <use xlink:href="#ArialMT-67" x="77.832031"/>
      <use xlink:href="#ArialMT-52" x="133.447266"/>
      <use xlink:href="#ArialMT-46" x="205.664062"/>
      <use xlink:href="#ArialMT-50" x="266.748047"/>
     </g>
    </g>
   </g>
   <g id="line2d_9">
    <path d="M 43.564818 105.200098 
L 47.474138 104.677036 
L 50.824983 104.031254 
L 53.617354 103.30193 
L 56.409725 102.34439 
L 58.643621 101.372109 
L 60.877518 100.176128 
L 63.111415 98.71478 
L 65.345312 96.943704 
L 67.579208 94.818363 
L 69.813105 92.29794 
L 72.047002 89.350657 
L 74.280899 85.960266 
L 76.514795 82.132927 
L 78.748692 77.903125 
L 81.541063 72.153428 
L 86.567331 61.137404 
L 90.47665 52.765744 
L 93.269021 47.285676 
L 95.502918 43.328695 
L 97.736815 39.801238 
L 99.970711 36.717687 
L 102.204608 34.068006 
L 104.438505 31.824489 
L 106.672402 29.948481 
L 108.906298 28.396116 
L 111.140195 27.122648 
L 113.374092 26.085379 
L 116.166463 25.062083 
L 118.958834 24.281504 
L 122.309679 23.589493 
L 126.218998 23.028404 
L 130.686792 22.609418 
L 136.830008 22.273546 
L 145.207121 22.055125 
L 154.701182 21.956948 
L 154.701182 21.956948 
" clip-path="url(#p9aa07cad48)" style="fill: none; stroke: #87ceeb; stroke-linecap: square"/>
   </g>
   <g id="line2d_10"/>
   <g id="line2d_11"/>
   <g id="LineCollection_1">
    <path d="M 44.473261 120.652539 
L 44.473261 105.556219 
" clip-path="url(#p9aa07cad48)" style="fill: none; stroke: #000000; stroke-opacity: 0.8; stroke-width: 0.5"/>
    <path d="M 74.417308 114.817002 
L 74.417308 100.552478 
" clip-path="url(#p9aa07cad48)" style="fill: none; stroke: #000000; stroke-opacity: 0.8; stroke-width: 0.5"/>
    <path d="M 59.262913 83.38561 
L 59.262913 75.95433 
" clip-path="url(#p9aa07cad48)" style="fill: none; stroke: #000000; stroke-opacity: 0.8; stroke-width: 0.5"/>
    <path d="M 69.824801 122.0571 
L 69.824801 105.670942 
" clip-path="url(#p9aa07cad48)" style="fill: none; stroke: #000000; stroke-opacity: 0.8; stroke-width: 0.5"/>
    <path d="M 112.792515 19.762453 
L 112.792515 7.805632 
" clip-path="url(#p9aa07cad48)" style="fill: none; stroke: #000000; stroke-opacity: 0.8; stroke-width: 0.5"/>
    <path d="M 62.059397 109.55996 
L 62.059397 94.91215 
" clip-path="url(#p9aa07cad48)" style="fill: none; stroke: #000000; stroke-opacity: 0.8; stroke-width: 0.5"/>
    <path d="M 90.261515 28.091098 
L 90.261515 13.070372 
" clip-path="url(#p9aa07cad48)" style="fill: none; stroke: #000000; stroke-opacity: 0.8; stroke-width: 0.5"/>
    <path d="M 84.475953 118.607692 
L 84.475953 93.162519 
" clip-path="url(#p9aa07cad48)" style="fill: none; stroke: #000000; stroke-opacity: 0.8; stroke-width: 0.5"/>
    <path d="M 67.876895 109.951884 
L 67.876895 95.071798 
" clip-path="url(#p9aa07cad48)" style="fill: none; stroke: #000000; stroke-opacity: 0.8; stroke-width: 0.5"/>
    <path d="M 68.279847 108.313198 
L 68.279847 90.290446 
" clip-path="url(#p9aa07cad48)" style="fill: none; stroke: #000000; stroke-opacity: 0.8; stroke-width: 0.5"/>
    <path d="M 85.510492 60.239756 
L 85.510492 49.636947 
" clip-path="url(#p9aa07cad48)" style="fill: none; stroke: #000000; stroke-opacity: 0.8; stroke-width: 0.5"/>
    <path d="M 128.812059 16.682517 
L 128.812059 9.641392 
" clip-path="url(#p9aa07cad48)" style="fill: none; stroke: #000000; stroke-opacity: 0.8; stroke-width: 0.5"/>
    <path d="M 63.226243 74.408331 
L 63.226243 53.495184 
" clip-path="url(#p9aa07cad48)" style="fill: none; stroke: #000000; stroke-opacity: 0.8; stroke-width: 0.5"/>
    <path d="M 125.490633 54.899768 
L 125.490633 25.679956 
" clip-path="url(#p9aa07cad48)" style="fill: none; stroke: #000000; stroke-opacity: 0.8; stroke-width: 0.5"/>
    <path d="M 147.287944 51.911964 
L 147.287944 19.960128 
" clip-path="url(#p9aa07cad48)" style="fill: none; stroke: #000000; stroke-opacity: 0.8; stroke-width: 0.5"/>
    <path d="M 128.715959 26.118469 
L 128.715959 12.172088 
" clip-path="url(#p9aa07cad48)" style="fill: none; stroke: #000000; stroke-opacity: 0.8; stroke-width: 0.5"/>
    <path d="M 138.263326 29.245786 
L 138.263326 10.433967 
" clip-path="url(#p9aa07cad48)" style="fill: none; stroke: #000000; stroke-opacity: 0.8; stroke-width: 0.5"/>
    <path d="M 107.282224 58.523845 
L 107.282224 33.797717 
" clip-path="url(#p9aa07cad48)" style="fill: none; stroke: #000000; stroke-opacity: 0.8; stroke-width: 0.5"/>
    <path d="M 113.997787 39.687256 
L 113.997787 19.87389 
" clip-path="url(#p9aa07cad48)" style="fill: none; stroke: #000000; stroke-opacity: 0.8; stroke-width: 0.5"/>
    <path d="M 103.393844 22.602042 
L 103.393844 18.165988 
" clip-path="url(#p9aa07cad48)" style="fill: none; stroke: #000000; stroke-opacity: 0.8; stroke-width: 0.5"/>
    <path d="M 55.630648 125.026364 
L 55.630648 114.705868 
" clip-path="url(#p9aa07cad48)" style="fill: none; stroke: #000000; stroke-opacity: 0.8; stroke-width: 0.5"/>
    <path d="M 65.45649 74.631809 
L 65.45649 50.604165 
" clip-path="url(#p9aa07cad48)" style="fill: none; stroke: #000000; stroke-opacity: 0.8; stroke-width: 0.5"/>
    <path d="M 88.047681 86.349908 
L 88.047681 67.090163 
" clip-path="url(#p9aa07cad48)" style="fill: none; stroke: #000000; stroke-opacity: 0.8; stroke-width: 0.5"/>
    <path d="M 53.20742 86.45565 
L 53.20742 77.626597 
" clip-path="url(#p9aa07cad48)" style="fill: none; stroke: #000000; stroke-opacity: 0.8; stroke-width: 0.5"/>
    <path d="M 75.702628 56.446601 
L 75.702628 33.031274 
" clip-path="url(#p9aa07cad48)" style="fill: none; stroke: #000000; stroke-opacity: 0.8; stroke-width: 0.5"/>
    <path d="M 94.74292 45.321536 
L 94.74292 16.24132 
" clip-path="url(#p9aa07cad48)" style="fill: none; stroke: #000000; stroke-opacity: 0.8; stroke-width: 0.5"/>
   </g>
   <g id="LineCollection_2">
    <path d="M 56.629345 120.652539 
L 56.629345 105.556219 
" clip-path="url(#p9aa07cad48)" style="fill: none; stroke: #ff6347; stroke-opacity: 0.8; stroke-width: 0.5"/>
    <path d="M 61.313506 114.817002 
L 61.313506 100.552478 
" clip-path="url(#p9aa07cad48)" style="fill: none; stroke: #ff6347; stroke-opacity: 0.8; stroke-width: 0.5"/>
    <path d="M 73.696571 83.38561 
L 73.696571 75.95433 
" clip-path="url(#p9aa07cad48)" style="fill: none; stroke: #ff6347; stroke-opacity: 0.8; stroke-width: 0.5"/>
    <path d="M 56.200014 122.0571 
L 56.200014 105.670942 
" clip-path="url(#p9aa07cad48)" style="fill: none; stroke: #ff6347; stroke-opacity: 0.8; stroke-width: 0.5"/>
    <path d="M 154.701182 19.762453 
L 154.701182 7.805632 
" clip-path="url(#p9aa07cad48)" style="fill: none; stroke: #ff6347; stroke-opacity: 0.8; stroke-width: 0.5"/>
    <path d="M 80.568181 109.55996 
L 80.568181 94.91215 
" clip-path="url(#p9aa07cad48)" style="fill: none; stroke: #ff6347; stroke-opacity: 0.8; stroke-width: 0.5"/>
    <path d="M 121.686737 28.091098 
L 121.686737 13.070372 
" clip-path="url(#p9aa07cad48)" style="fill: none; stroke: #ff6347; stroke-opacity: 0.8; stroke-width: 0.5"/>
    <path d="M 69.214241 118.607692 
L 69.214241 93.162519 
" clip-path="url(#p9aa07cad48)" style="fill: none; stroke: #ff6347; stroke-opacity: 0.8; stroke-width: 0.5"/>
    <path d="M 67.527295 109.951884 
L 67.527295 95.071798 
" clip-path="url(#p9aa07cad48)" style="fill: none; stroke: #ff6347; stroke-opacity: 0.8; stroke-width: 0.5"/>
    <path d="M 67.036109 108.313198 
L 67.036109 90.290446 
" clip-path="url(#p9aa07cad48)" style="fill: none; stroke: #ff6347; stroke-opacity: 0.8; stroke-width: 0.5"/>
    <path d="M 88.294841 60.239756 
L 88.294841 49.636947 
" clip-path="url(#p9aa07cad48)" style="fill: none; stroke: #ff6347; stroke-opacity: 0.8; stroke-width: 0.5"/>
    <path d="M 137.589858 16.682517 
L 137.589858 9.641392 
" clip-path="url(#p9aa07cad48)" style="fill: none; stroke: #ff6347; stroke-opacity: 0.8; stroke-width: 0.5"/>
    <path d="M 81.728396 74.408331 
L 81.728396 53.495184 
" clip-path="url(#p9aa07cad48)" style="fill: none; stroke: #ff6347; stroke-opacity: 0.8; stroke-width: 0.5"/>
    <path d="M 104.127849 54.899768 
L 104.127849 25.679956 
" clip-path="url(#p9aa07cad48)" style="fill: none; stroke: #ff6347; stroke-opacity: 0.8; stroke-width: 0.5"/>
    <path d="M 117.262161 51.911964 
L 117.262161 19.960128 
" clip-path="url(#p9aa07cad48)" style="fill: none; stroke: #ff6347; stroke-opacity: 0.8; stroke-width: 0.5"/>
    <path d="M 134.115157 26.118469 
L 134.115157 12.172088 
" clip-path="url(#p9aa07cad48)" style="fill: none; stroke: #ff6347; stroke-opacity: 0.8; stroke-width: 0.5"/>
    <path d="M 127.968331 29.245786 
L 127.968331 10.433967 
" clip-path="url(#p9aa07cad48)" style="fill: none; stroke: #ff6347; stroke-opacity: 0.8; stroke-width: 0.5"/>
    <path d="M 99.430603 58.523845 
L 99.430603 33.797717 
" clip-path="url(#p9aa07cad48)" style="fill: none; stroke: #ff6347; stroke-opacity: 0.8; stroke-width: 0.5"/>
    <path d="M 109.533511 39.687256 
L 109.533511 19.87389 
" clip-path="url(#p9aa07cad48)" style="fill: none; stroke: #ff6347; stroke-opacity: 0.8; stroke-width: 0.5"/>
    <path d="M 105.562448 22.602042 
L 105.562448 18.165988 
" clip-path="url(#p9aa07cad48)" style="fill: none; stroke: #ff6347; stroke-opacity: 0.8; stroke-width: 0.5"/>
    <path d="M 43.564818 125.026364 
L 43.564818 114.705868 
" clip-path="url(#p9aa07cad48)" style="fill: none; stroke: #ff6347; stroke-opacity: 0.8; stroke-width: 0.5"/>
    <path d="M 85.060763 74.631809 
L 85.060763 50.604165 
" clip-path="url(#p9aa07cad48)" style="fill: none; stroke: #ff6347; stroke-opacity: 0.8; stroke-width: 0.5"/>
    <path d="M 74.236574 86.349908 
L 74.236574 67.090163 
" clip-path="url(#p9aa07cad48)" style="fill: none; stroke: #ff6347; stroke-opacity: 0.8; stroke-width: 0.5"/>
    <path d="M 66.239551 86.45565 
L 66.239551 77.626597 
" clip-path="url(#p9aa07cad48)" style="fill: none; stroke: #ff6347; stroke-opacity: 0.8; stroke-width: 0.5"/>
    <path d="M 91.945205 56.446601 
L 91.945205 33.031274 
" clip-path="url(#p9aa07cad48)" style="fill: none; stroke: #ff6347; stroke-opacity: 0.8; stroke-width: 0.5"/>
    <path d="M 135.931312 45.321536 
L 135.931312 16.24132 
" clip-path="url(#p9aa07cad48)" style="fill: none; stroke: #ff6347; stroke-opacity: 0.8; stroke-width: 0.5"/>
   </g>
   <g id="line2d_12">
    <path d="M 38.008 64.075252 
L 160.258 64.075252 
" clip-path="url(#p9aa07cad48)" style="fill: none; stroke-dasharray: 1.85,0.8; stroke-dashoffset: 0; stroke: #808080; stroke-width: 0.5"/>
   </g>
   <g id="line2d_13">
    <path d="M 92.850394 130.98 
L 92.850394 0 
" clip-path="url(#p9aa07cad48)" style="fill: none; stroke-dasharray: 1.85,0.8; stroke-dashoffset: 0; stroke: #808080; stroke-width: 0.5"/>
   </g>
   <g id="patch_3">
    <path d="M 38.008 130.98 
L 38.008 -0 
" style="fill: none; stroke: #000000; stroke-width: 0.5; stroke-linejoin: miter; stroke-linecap: square"/>
   </g>
   <g id="patch_4">
    <path d="M 160.258 130.98 
L 160.258 -0 
" style="fill: none; stroke: #000000; stroke-width: 0.5; stroke-linejoin: miter; stroke-linecap: square"/>
   </g>
   <g id="patch_5">
    <path d="M 38.008 130.98 
L 160.258 130.98 
" style="fill: none; stroke: #000000; stroke-width: 0.5; stroke-linejoin: miter; stroke-linecap: square"/>
   </g>
   <g id="patch_6">
    <path d="M 38.008 0 
L 160.258 0 
" style="fill: none; stroke: #000000; stroke-width: 0.5; stroke-linejoin: miter; stroke-linecap: square"/>
   </g>
   <g id="legend_1">
    <g id="line2d_14">
     <defs>
      <path id="m846a683f55" d="M 0 1.936492 
C 0.513564 1.936492 1.006162 1.732451 1.369306 1.369306 
C 1.732451 1.006162 1.936492 0.513564 1.936492 0 
C 1.936492 -0.513564 1.732451 -1.006162 1.369306 -1.369306 
C 1.006162 -1.732451 0.513564 -1.936492 0 -1.936492 
C -0.513564 -1.936492 -1.006162 -1.732451 -1.369306 -1.369306 
C -1.732451 -1.006162 -1.936492 -0.513564 -1.936492 0 
C -1.936492 0.513564 -1.732451 1.006162 -1.369306 1.369306 
C -1.006162 1.732451 -0.513564 1.936492 0 1.936492 
z
" style="stroke: #000000; stroke-width: 0.309839"/>
     </defs>
     <g>
      <use xlink:href="#m846a683f55" x="101.274625" y="105.757" style="stroke: #000000; stroke-width: 0.309839"/>
     </g>
    </g>
    <g id="text_11">
     <!-- Replicate 1 -->
     <g transform="translate(108.314625 108.837) scale(0.088 -0.088)">
      <defs>
       <path id="ArialMT-65" d="M 2694 1069 
L 3275 997 
Q 3138 488 2766 206 
Q 2394 -75 1816 -75 
Q 1088 -75 661 373 
Q 234 822 234 1631 
Q 234 2469 665 2931 
Q 1097 3394 1784 3394 
Q 2450 3394 2872 2941 
Q 3294 2488 3294 1666 
Q 3294 1616 3291 1516 
L 816 1516 
Q 847 969 1125 678 
Q 1403 388 1819 388 
Q 2128 388 2347 550 
Q 2566 713 2694 1069 
z
M 847 1978 
L 2700 1978 
Q 2663 2397 2488 2606 
Q 2219 2931 1791 2931 
Q 1403 2931 1139 2672 
Q 875 2413 847 1978 
z
" transform="scale(0.015625)"/>
       <path id="ArialMT-70" d="M 422 -1272 
L 422 3319 
L 934 3319 
L 934 2888 
Q 1116 3141 1344 3267 
Q 1572 3394 1897 3394 
Q 2322 3394 2647 3175 
Q 2972 2956 3137 2557 
Q 3303 2159 3303 1684 
Q 3303 1175 3120 767 
Q 2938 359 2589 142 
Q 2241 -75 1856 -75 
Q 1575 -75 1351 44 
Q 1128 163 984 344 
L 984 -1272 
L 422 -1272 
z
M 931 1641 
Q 931 1000 1190 694 
Q 1450 388 1819 388 
Q 2194 388 2461 705 
Q 2728 1022 2728 1688 
Q 2728 2322 2467 2637 
Q 2206 2953 1844 2953 
Q 1484 2953 1207 2617 
Q 931 2281 931 1641 
z
" transform="scale(0.015625)"/>
       <path id="ArialMT-63" d="M 2588 1216 
L 3141 1144 
Q 3050 572 2676 248 
Q 2303 -75 1759 -75 
Q 1078 -75 664 370 
Q 250 816 250 1647 
Q 250 2184 428 2587 
Q 606 2991 970 3192 
Q 1334 3394 1763 3394 
Q 2303 3394 2647 3120 
Q 2991 2847 3088 2344 
L 2541 2259 
Q 2463 2594 2264 2762 
Q 2066 2931 1784 2931 
Q 1359 2931 1093 2626 
Q 828 2322 828 1663 
Q 828 994 1084 691 
Q 1341 388 1753 388 
Q 2084 388 2306 591 
Q 2528 794 2588 1216 
z
" transform="scale(0.015625)"/>
       <path id="ArialMT-20" transform="scale(0.015625)"/>
      </defs>
      <use xlink:href="#ArialMT-52"/>
      <use xlink:href="#ArialMT-65" x="72.216797"/>
      <use xlink:href="#ArialMT-70" x="127.832031"/>
      <use xlink:href="#ArialMT-6c" x="183.447266"/>
      <use xlink:href="#ArialMT-69" x="205.664062"/>
      <use xlink:href="#ArialMT-63" x="227.880859"/>
      <use xlink:href="#ArialMT-61" x="277.880859"/>
      <use xlink:href="#ArialMT-74" x="333.496094"/>
      <use xlink:href="#ArialMT-65" x="361.279297"/>
      <use xlink:href="#ArialMT-20" x="416.894531"/>
      <use xlink:href="#ArialMT-31" x="444.677734"/>
     </g>
    </g>
    <g id="line2d_15">
     <defs>
      <path id="m16a9a850a5" d="M 0 1.936492 
C 0.513564 1.936492 1.006162 1.732451 1.369306 1.369306 
C 1.732451 1.006162 1.936492 0.513564 1.936492 0 
C 1.936492 -0.513564 1.732451 -1.006162 1.369306 -1.369306 
C 1.006162 -1.732451 0.513564 -1.936492 0 -1.936492 
C -0.513564 -1.936492 -1.006162 -1.732451 -1.369306 -1.369306 
C -1.732451 -1.006162 -1.936492 -0.513564 -1.936492 0 
C -1.936492 0.513564 -1.732451 1.006162 -1.369306 1.369306 
C -1.006162 1.732451 -0.513564 1.936492 0 1.936492 
z
" style="stroke: #ff6347; stroke-width: 0.309839"/>
     </defs>
     <g>
      <use xlink:href="#m16a9a850a5" x="101.274625" y="118.231" style="fill: #ff6347; stroke: #ff6347; stroke-width: 0.309839"/>
     </g>
    </g>
    <g id="text_12">
     <!-- Replicate 2 -->
     <g transform="translate(108.314625 121.311) scale(0.088 -0.088)">
      <use xlink:href="#ArialMT-52"/>
      <use xlink:href="#ArialMT-65" x="72.216797"/>
      <use xlink:href="#ArialMT-70" x="127.832031"/>
      <use xlink:href="#ArialMT-6c" x="183.447266"/>
      <use xlink:href="#ArialMT-69" x="205.664062"/>
      <use xlink:href="#ArialMT-63" x="227.880859"/>
      <use xlink:href="#ArialMT-61" x="277.880859"/>
      <use xlink:href="#ArialMT-74" x="333.496094"/>
      <use xlink:href="#ArialMT-65" x="361.279297"/>
      <use xlink:href="#ArialMT-20" x="416.894531"/>
      <use xlink:href="#ArialMT-32" x="444.677734"/>
     </g>
    </g>
   </g>
  </g>
 </g>
 <defs>
  <clipPath id="p9aa07cad48">
   <rect x="38.008" y="0" width="122.25" height="130.98"/>
  </clipPath>
 </defs>
</svg>
