<?xml version="1.0" encoding="utf-8" standalone="no"?>
<!DOCTYPE svg PUBLIC "-//W3C//DTD SVG 1.1//EN"
  "http://www.w3.org/Graphics/SVG/1.1/DTD/svg11.dtd">
<svg xmlns:xlink="http://www.w3.org/1999/xlink" width="170.262281pt" height="305.778656pt" viewBox="0 0 170.262281 305.778656" xmlns="http://www.w3.org/2000/svg" version="1.1">
 <metadata>
  <rdf:RDF xmlns:dc="http://purl.org/dc/elements/1.1/" xmlns:cc="http://creativecommons.org/ns#" xmlns:rdf="http://www.w3.org/1999/02/22-rdf-syntax-ns#">
   <cc:Work>
    <dc:type rdf:resource="http://purl.org/dc/dcmitype/StillImage"/>
    <dc:date>2025-05-27T13:30:10.213226</dc:date>
    <dc:format>image/svg+xml</dc:format>
    <dc:creator>
     <cc:Agent>
      <dc:title>Matplotlib v3.8.4, https://matplotlib.org/</dc:title>
     </cc:Agent>
    </dc:creator>
   </cc:Work>
  </rdf:RDF>
 </metadata>
 <defs>
  <style type="text/css">*{stroke-linejoin: round; stroke-linecap: butt}</style>
 </defs>
 <g id="figure_1">
  <g id="patch_1">
   <path d="M 0 305.778656 
L 170.262281 305.778656 
L 170.262281 0 
L 0 0 
L 0 305.778656 
z
" style="fill: none"/>
  </g>
  <g id="axes_1">
   <g id="patch_2">
    <path d="M 58.662281 277.2 
L 170.262281 277.2 
L 170.262281 0 
L 58.662281 0 
L 58.662281 277.2 
z
" style="fill: none"/>
   </g>
   <g id="patch_3">
    <path d="M 58.662281 2.717647 
L 60.594749 2.717647 
L 60.594749 9.776471 
L 58.662281 9.776471 
z
" clip-path="url(#pc27e5bdaaf)" style="fill: #e8735e; stroke: #000000; stroke-width: 0.5; stroke-linejoin: miter"/>
   </g>
   <g id="patch_4">
    <path d="M 58.662281 11.541176 
L 60.594749 11.541176 
L 60.594749 18.6 
L 58.662281 18.6 
z
" clip-path="url(#pc27e5bdaaf)" style="fill: #e8735e; stroke: #000000; stroke-width: 0.5; stroke-linejoin: miter"/>
   </g>
   <g id="patch_5">
    <path d="M 58.662281 20.364706 
L 60.594749 20.364706 
L 60.594749 27.423529 
L 58.662281 27.423529 
z
" clip-path="url(#pc27e5bdaaf)" style="fill: #e8735e; stroke: #000000; stroke-width: 0.5; stroke-linejoin: miter"/>
   </g>
   <g id="patch_6">
    <path d="M 58.662281 29.188235 
L 60.594749 29.188235 
L 60.594749 36.247059 
L 58.662281 36.247059 
z
" clip-path="url(#pc27e5bdaaf)" style="fill: #e8735e; stroke: #000000; stroke-width: 0.5; stroke-linejoin: miter"/>
   </g>
   <g id="patch_7">
    <path d="M 58.662281 38.011765 
L 60.594749 38.011765 
L 60.594749 45.070588 
L 58.662281 45.070588 
z
" clip-path="url(#pc27e5bdaaf)" style="fill: #e8735e; stroke: #000000; stroke-width: 0.5; stroke-linejoin: miter"/>
   </g>
   <g id="patch_8">
    <path d="M 58.662281 46.835294 
L 60.594749 46.835294 
L 60.594749 53.894118 
L 58.662281 53.894118 
z
" clip-path="url(#pc27e5bdaaf)" style="fill: #e8735e; stroke: #000000; stroke-width: 0.5; stroke-linejoin: miter"/>
   </g>
   <g id="patch_9">
    <path d="M 58.662281 55.658824 
L 62.527216 55.658824 
L 62.527216 62.717647 
L 58.662281 62.717647 
z
" clip-path="url(#pc27e5bdaaf)" style="fill: #e8735e; stroke: #000000; stroke-width: 0.5; stroke-linejoin: miter"/>
   </g>
   <g id="patch_10">
    <path d="M 58.662281 64.482353 
L 62.527216 64.482353 
L 62.527216 71.541176 
L 58.662281 71.541176 
z
" clip-path="url(#pc27e5bdaaf)" style="fill: #e8735e; stroke: #000000; stroke-width: 0.5; stroke-linejoin: miter"/>
   </g>
   <g id="patch_11">
    <path d="M 58.662281 73.305882 
L 62.527216 73.305882 
L 62.527216 80.364706 
L 58.662281 80.364706 
z
" clip-path="url(#pc27e5bdaaf)" style="fill: #e8735e; stroke: #000000; stroke-width: 0.5; stroke-linejoin: miter"/>
   </g>
   <g id="patch_12">
    <path d="M 58.662281 82.129412 
L 62.527216 82.129412 
L 62.527216 89.188235 
L 58.662281 89.188235 
z
" clip-path="url(#pc27e5bdaaf)" style="fill: #e8735e; stroke: #000000; stroke-width: 0.5; stroke-linejoin: miter"/>
   </g>
   <g id="patch_13">
    <path d="M 58.662281 90.952941 
L 64.459684 90.952941 
L 64.459684 98.011765 
L 58.662281 98.011765 
z
" clip-path="url(#pc27e5bdaaf)" style="fill: #e8735e; stroke: #000000; stroke-width: 0.5; stroke-linejoin: miter"/>
   </g>
   <g id="patch_14">
    <path d="M 58.662281 99.776471 
L 68.324619 99.776471 
L 68.324619 106.835294 
L 58.662281 106.835294 
z
" clip-path="url(#pc27e5bdaaf)" style="fill: #e8735e; stroke: #000000; stroke-width: 0.5; stroke-linejoin: miter"/>
   </g>
   <g id="patch_15">
    <path d="M 58.662281 108.6 
L 70.257086 108.6 
L 70.257086 115.658824 
L 58.662281 115.658824 
z
" clip-path="url(#pc27e5bdaaf)" style="fill: #e8735e; stroke: #000000; stroke-width: 0.5; stroke-linejoin: miter"/>
   </g>
   <g id="patch_16">
    <path d="M 58.662281 117.423529 
L 70.257086 117.423529 
L 70.257086 124.482353 
L 58.662281 124.482353 
z
" clip-path="url(#pc27e5bdaaf)" style="fill: #e8735e; stroke: #000000; stroke-width: 0.5; stroke-linejoin: miter"/>
   </g>
   <g id="patch_17">
    <path d="M 58.662281 126.247059 
L 70.257086 126.247059 
L 70.257086 133.305882 
L 58.662281 133.305882 
z
" clip-path="url(#pc27e5bdaaf)" style="fill: #e8735e; stroke: #000000; stroke-width: 0.5; stroke-linejoin: miter"/>
   </g>
   <g id="patch_18">
    <path d="M 58.662281 135.070588 
L 72.189554 135.070588 
L 72.189554 142.129412 
L 58.662281 142.129412 
z
" clip-path="url(#pc27e5bdaaf)" style="fill: #e8735e; stroke: #000000; stroke-width: 0.5; stroke-linejoin: miter"/>
   </g>
   <g id="patch_19">
    <path d="M 58.662281 143.894118 
L 72.189554 143.894118 
L 72.189554 150.952941 
L 58.662281 150.952941 
z
" clip-path="url(#pc27e5bdaaf)" style="fill: #e8735e; stroke: #000000; stroke-width: 0.5; stroke-linejoin: miter"/>
   </g>
   <g id="patch_20">
    <path d="M 58.662281 152.717647 
L 74.122022 152.717647 
L 74.122022 159.776471 
L 58.662281 159.776471 
z
" clip-path="url(#pc27e5bdaaf)" style="fill: #e8735e; stroke: #000000; stroke-width: 0.5; stroke-linejoin: miter"/>
   </g>
   <g id="patch_21">
    <path d="M 58.662281 161.541176 
L 74.122022 161.541176 
L 74.122022 168.6 
L 58.662281 168.6 
z
" clip-path="url(#pc27e5bdaaf)" style="fill: #e8735e; stroke: #000000; stroke-width: 0.5; stroke-linejoin: miter"/>
   </g>
   <g id="patch_22">
    <path d="M 58.662281 170.364706 
L 76.054489 170.364706 
L 76.054489 177.423529 
L 58.662281 177.423529 
z
" clip-path="url(#pc27e5bdaaf)" style="fill: #e8735e; stroke: #000000; stroke-width: 0.5; stroke-linejoin: miter"/>
   </g>
   <g id="patch_23">
    <path d="M 58.662281 179.188235 
L 79.919424 179.188235 
L 79.919424 186.247059 
L 58.662281 186.247059 
z
" clip-path="url(#pc27e5bdaaf)" style="fill: #e8735e; stroke: #000000; stroke-width: 0.5; stroke-linejoin: miter"/>
   </g>
   <g id="patch_24">
    <path d="M 58.662281 188.011765 
L 79.919424 188.011765 
L 79.919424 195.070588 
L 58.662281 195.070588 
z
" clip-path="url(#pc27e5bdaaf)" style="fill: #e8735e; stroke: #000000; stroke-width: 0.5; stroke-linejoin: miter"/>
   </g>
   <g id="patch_25">
    <path d="M 58.662281 196.835294 
L 85.716827 196.835294 
L 85.716827 203.894118 
L 58.662281 203.894118 
z
" clip-path="url(#pc27e5bdaaf)" style="fill: #e8735e; stroke: #000000; stroke-width: 0.5; stroke-linejoin: miter"/>
   </g>
   <g id="patch_26">
    <path d="M 58.662281 205.658824 
L 87.649294 205.658824 
L 87.649294 212.717647 
L 58.662281 212.717647 
z
" clip-path="url(#pc27e5bdaaf)" style="fill: #e8735e; stroke: #000000; stroke-width: 0.5; stroke-linejoin: miter"/>
   </g>
   <g id="patch_27">
    <path d="M 58.662281 214.482353 
L 89.581762 214.482353 
L 89.581762 221.541176 
L 58.662281 221.541176 
z
" clip-path="url(#pc27e5bdaaf)" style="fill: #e8735e; stroke: #000000; stroke-width: 0.5; stroke-linejoin: miter"/>
   </g>
   <g id="patch_28">
    <path d="M 58.662281 223.305882 
L 93.446697 223.305882 
L 93.446697 230.364706 
L 58.662281 230.364706 
z
" clip-path="url(#pc27e5bdaaf)" style="fill: #e8735e; stroke: #000000; stroke-width: 0.5; stroke-linejoin: miter"/>
   </g>
   <g id="patch_29">
    <path d="M 58.662281 232.129412 
L 97.311632 232.129412 
L 97.311632 239.188235 
L 58.662281 239.188235 
z
" clip-path="url(#pc27e5bdaaf)" style="fill: #e8735e; stroke: #000000; stroke-width: 0.5; stroke-linejoin: miter"/>
   </g>
   <g id="patch_30">
    <path d="M 58.662281 240.952941 
L 103.109034 240.952941 
L 103.109034 248.011765 
L 58.662281 248.011765 
z
" clip-path="url(#pc27e5bdaaf)" style="fill: #e8735e; stroke: #000000; stroke-width: 0.5; stroke-linejoin: miter"/>
   </g>
   <g id="patch_31">
    <path d="M 58.662281 249.776471 
L 126.298645 249.776471 
L 126.298645 256.835294 
L 58.662281 256.835294 
z
" clip-path="url(#pc27e5bdaaf)" style="fill: #e8735e; stroke: #000000; stroke-width: 0.5; stroke-linejoin: miter"/>
   </g>
   <g id="patch_32">
    <path d="M 58.662281 258.6 
L 149.488255 258.6 
L 149.488255 265.658824 
L 58.662281 265.658824 
z
" clip-path="url(#pc27e5bdaaf)" style="fill: #e8735e; stroke: #000000; stroke-width: 0.5; stroke-linejoin: miter"/>
   </g>
   <g id="patch_33">
    <path d="M 58.662281 267.423529 
L 164.947996 267.423529 
L 164.947996 274.482353 
L 58.662281 274.482353 
z
" clip-path="url(#pc27e5bdaaf)" style="fill: #e8735e; stroke: #000000; stroke-width: 0.5; stroke-linejoin: miter"/>
   </g>
   <g id="matplotlib.axis_1">
    <g id="xtick_1">
     <g id="line2d_1">
      <defs>
       <path id="m10982bf47d" d="M 0 0 
L 0 4.8 
" style="stroke: #000000; stroke-width: 0.5"/>
      </defs>
      <g>
       <use xlink:href="#m10982bf47d" x="58.662281" y="277.2" style="stroke: #000000; stroke-width: 0.5"/>
      </g>
     </g>
     <g id="text_1">
      <!-- 0 -->
      <g transform="translate(56.215469 291.798875) scale(0.088 -0.088)">
       <defs>
        <path id="ArialMT-30" d="M 266 2259 
Q 266 3072 433 3567 
Q 600 4063 929 4331 
Q 1259 4600 1759 4600 
Q 2128 4600 2406 4451 
Q 2684 4303 2865 4023 
Q 3047 3744 3150 3342 
Q 3253 2941 3253 2259 
Q 3253 1453 3087 958 
Q 2922 463 2592 192 
Q 2263 -78 1759 -78 
Q 1097 -78 719 397 
Q 266 969 266 2259 
z
M 844 2259 
Q 844 1131 1108 757 
Q 1372 384 1759 384 
Q 2147 384 2411 759 
Q 2675 1134 2675 2259 
Q 2675 3391 2411 3762 
Q 2147 4134 1753 4134 
Q 1366 4134 1134 3806 
Q 844 3388 844 2259 
z
" transform="scale(0.015625)"/>
       </defs>
       <use xlink:href="#ArialMT-30"/>
      </g>
     </g>
    </g>
    <g id="xtick_2">
     <g id="line2d_2">
      <g>
       <use xlink:href="#m10982bf47d" x="97.311632" y="277.2" style="stroke: #000000; stroke-width: 0.5"/>
      </g>
     </g>
     <g id="text_2">
      <!-- 20 -->
      <g transform="translate(92.418007 291.798875) scale(0.088 -0.088)">
       <defs>
        <path id="ArialMT-32" d="M 3222 541 
L 3222 0 
L 194 0 
Q 188 203 259 391 
Q 375 700 629 1000 
Q 884 1300 1366 1694 
Q 2113 2306 2375 2664 
Q 2638 3022 2638 3341 
Q 2638 3675 2398 3904 
Q 2159 4134 1775 4134 
Q 1369 4134 1125 3890 
Q 881 3647 878 3216 
L 300 3275 
Q 359 3922 746 4261 
Q 1134 4600 1788 4600 
Q 2447 4600 2831 4234 
Q 3216 3869 3216 3328 
Q 3216 3053 3103 2787 
Q 2991 2522 2730 2228 
Q 2469 1934 1863 1422 
Q 1356 997 1212 845 
Q 1069 694 975 541 
L 3222 541 
z
" transform="scale(0.015625)"/>
       </defs>
       <use xlink:href="#ArialMT-32"/>
       <use xlink:href="#ArialMT-30" x="55.615234"/>
      </g>
     </g>
    </g>
    <g id="xtick_3">
     <g id="line2d_3">
      <g>
       <use xlink:href="#m10982bf47d" x="135.960983" y="277.2" style="stroke: #000000; stroke-width: 0.5"/>
      </g>
     </g>
     <g id="text_3">
      <!-- 40 -->
      <g transform="translate(131.067358 291.798875) scale(0.088 -0.088)">
       <defs>
        <path id="ArialMT-34" d="M 2069 0 
L 2069 1097 
L 81 1097 
L 81 1613 
L 2172 4581 
L 2631 4581 
L 2631 1613 
L 3250 1613 
L 3250 1097 
L 2631 1097 
L 2631 0 
L 2069 0 
z
M 2069 1613 
L 2069 3678 
L 634 1613 
L 2069 1613 
z
" transform="scale(0.015625)"/>
       </defs>
       <use xlink:href="#ArialMT-34"/>
       <use xlink:href="#ArialMT-30" x="55.615234"/>
      </g>
     </g>
    </g>
    <g id="text_4">
     <!-- Count -->
     <g transform="translate(102.455016 303.989906) scale(0.09 -0.09)">
      <defs>
       <path id="ArialMT-43" d="M 3763 1606 
L 4369 1453 
Q 4178 706 3683 314 
Q 3188 -78 2472 -78 
Q 1731 -78 1267 223 
Q 803 525 561 1097 
Q 319 1669 319 2325 
Q 319 3041 592 3573 
Q 866 4106 1370 4382 
Q 1875 4659 2481 4659 
Q 3169 4659 3637 4309 
Q 4106 3959 4291 3325 
L 3694 3184 
Q 3534 3684 3231 3912 
Q 2928 4141 2469 4141 
Q 1941 4141 1586 3887 
Q 1231 3634 1087 3207 
Q 944 2781 944 2328 
Q 944 1744 1114 1308 
Q 1284 872 1643 656 
Q 2003 441 2422 441 
Q 2931 441 3284 734 
Q 3638 1028 3763 1606 
z
" transform="scale(0.015625)"/>
       <path id="ArialMT-6f" d="M 213 1659 
Q 213 2581 725 3025 
Q 1153 3394 1769 3394 
Q 2453 3394 2887 2945 
Q 3322 2497 3322 1706 
Q 3322 1066 3130 698 
Q 2938 331 2570 128 
Q 2203 -75 1769 -75 
Q 1072 -75 642 372 
Q 213 819 213 1659 
z
M 791 1659 
Q 791 1022 1069 705 
Q 1347 388 1769 388 
Q 2188 388 2466 706 
Q 2744 1025 2744 1678 
Q 2744 2294 2464 2611 
Q 2184 2928 1769 2928 
Q 1347 2928 1069 2612 
Q 791 2297 791 1659 
z
" transform="scale(0.015625)"/>
       <path id="ArialMT-75" d="M 2597 0 
L 2597 488 
Q 2209 -75 1544 -75 
Q 1250 -75 995 37 
Q 741 150 617 320 
Q 494 491 444 738 
Q 409 903 409 1263 
L 409 3319 
L 972 3319 
L 972 1478 
Q 972 1038 1006 884 
Q 1059 663 1231 536 
Q 1403 409 1656 409 
Q 1909 409 2131 539 
Q 2353 669 2445 892 
Q 2538 1116 2538 1541 
L 2538 3319 
L 3100 3319 
L 3100 0 
L 2597 0 
z
" transform="scale(0.015625)"/>
       <path id="ArialMT-6e" d="M 422 0 
L 422 3319 
L 928 3319 
L 928 2847 
Q 1294 3394 1984 3394 
Q 2284 3394 2536 3286 
Q 2788 3178 2913 3003 
Q 3038 2828 3088 2588 
Q 3119 2431 3119 2041 
L 3119 0 
L 2556 0 
L 2556 2019 
Q 2556 2363 2490 2533 
Q 2425 2703 2258 2804 
Q 2091 2906 1866 2906 
Q 1506 2906 1245 2678 
Q 984 2450 984 1813 
L 984 0 
L 422 0 
z
" transform="scale(0.015625)"/>
       <path id="ArialMT-74" d="M 1650 503 
L 1731 6 
Q 1494 -44 1306 -44 
Q 1000 -44 831 53 
Q 663 150 594 308 
Q 525 466 525 972 
L 525 2881 
L 113 2881 
L 113 3319 
L 525 3319 
L 525 4141 
L 1084 4478 
L 1084 3319 
L 1650 3319 
L 1650 2881 
L 1084 2881 
L 1084 941 
Q 1084 700 1114 631 
Q 1144 563 1211 522 
Q 1278 481 1403 481 
Q 1497 481 1650 503 
z
" transform="scale(0.015625)"/>
      </defs>
      <use xlink:href="#ArialMT-43"/>
      <use xlink:href="#ArialMT-6f" x="72.216797"/>
      <use xlink:href="#ArialMT-75" x="127.832031"/>
      <use xlink:href="#ArialMT-6e" x="183.447266"/>
      <use xlink:href="#ArialMT-74" x="239.0625"/>
     </g>
    </g>
   </g>
   <g id="matplotlib.axis_2">
    <g id="ytick_1">
     <g id="line2d_4">
      <defs>
       <path id="m16aeded356" d="M 0 0 
L -4.8 0 
" style="stroke: #000000; stroke-width: 0.5"/>
      </defs>
      <g>
       <use xlink:href="#m16aeded356" x="58.662281" y="6.247059" style="stroke: #000000; stroke-width: 0.5"/>
      </g>
     </g>
     <g id="text_5">
      <!-- LDLEL -->
      <g transform="translate(23.456281 9.396496) scale(0.088 -0.088)">
       <defs>
        <path id="ArialMT-4c" d="M 469 0 
L 469 4581 
L 1075 4581 
L 1075 541 
L 3331 541 
L 3331 0 
L 469 0 
z
" transform="scale(0.015625)"/>
        <path id="ArialMT-44" d="M 494 0 
L 494 4581 
L 2072 4581 
Q 2606 4581 2888 4516 
Q 3281 4425 3559 4188 
Q 3922 3881 4101 3404 
Q 4281 2928 4281 2316 
Q 4281 1794 4159 1391 
Q 4038 988 3847 723 
Q 3656 459 3429 307 
Q 3203 156 2883 78 
Q 2563 0 2147 0 
L 494 0 
z
M 1100 541 
L 2078 541 
Q 2531 541 2789 625 
Q 3047 709 3200 863 
Q 3416 1078 3536 1442 
Q 3656 1806 3656 2325 
Q 3656 3044 3420 3430 
Q 3184 3816 2847 3947 
Q 2603 4041 2063 4041 
L 1100 4041 
L 1100 541 
z
" transform="scale(0.015625)"/>
        <path id="ArialMT-45" d="M 506 0 
L 506 4581 
L 3819 4581 
L 3819 4041 
L 1113 4041 
L 1113 2638 
L 3647 2638 
L 3647 2100 
L 1113 2100 
L 1113 541 
L 3925 541 
L 3925 0 
L 506 0 
z
" transform="scale(0.015625)"/>
       </defs>
       <use xlink:href="#ArialMT-4c"/>
       <use xlink:href="#ArialMT-44" x="55.615234"/>
       <use xlink:href="#ArialMT-4c" x="127.832031"/>
       <use xlink:href="#ArialMT-45" x="183.447266"/>
       <use xlink:href="#ArialMT-4c" x="250.146484"/>
      </g>
     </g>
    </g>
    <g id="ytick_2">
     <g id="line2d_5">
      <g>
       <use xlink:href="#m16aeded356" x="58.662281" y="15.070588" style="stroke: #000000; stroke-width: 0.5"/>
      </g>
     </g>
     <g id="text_6">
      <!-- LMLDL -->
      <g transform="translate(21.996031 18.220026) scale(0.088 -0.088)">
       <defs>
        <path id="ArialMT-4d" d="M 475 0 
L 475 4581 
L 1388 4581 
L 2472 1338 
Q 2622 884 2691 659 
Q 2769 909 2934 1394 
L 4031 4581 
L 4847 4581 
L 4847 0 
L 4263 0 
L 4263 3834 
L 2931 0 
L 2384 0 
L 1059 3900 
L 1059 0 
L 475 0 
z
" transform="scale(0.015625)"/>
       </defs>
       <use xlink:href="#ArialMT-4c"/>
       <use xlink:href="#ArialMT-4d" x="55.615234"/>
       <use xlink:href="#ArialMT-4c" x="138.916016"/>
       <use xlink:href="#ArialMT-44" x="194.53125"/>
       <use xlink:href="#ArialMT-4c" x="266.748047"/>
      </g>
     </g>
    </g>
    <g id="ytick_3">
     <g id="line2d_6">
      <g>
       <use xlink:href="#m16aeded356" x="58.662281" y="23.894118" style="stroke: #000000; stroke-width: 0.5"/>
      </g>
     </g>
     <g id="text_7">
      <!-- LQLAL -->
      <g transform="translate(22.966781 27.043555) scale(0.088 -0.088)">
       <defs>
        <path id="ArialMT-51" d="M 3966 491 
Q 4388 200 4744 66 
L 4566 -356 
Q 4072 -178 3581 206 
Q 3072 -78 2456 -78 
Q 1834 -78 1328 222 
Q 822 522 548 1065 
Q 275 1609 275 2291 
Q 275 2969 550 3525 
Q 825 4081 1333 4372 
Q 1841 4663 2469 4663 
Q 3103 4663 3612 4361 
Q 4122 4059 4389 3517 
Q 4656 2975 4656 2294 
Q 4656 1728 4484 1276 
Q 4313 825 3966 491 
z
M 2631 1266 
Q 3156 1119 3497 828 
Q 4031 1316 4031 2294 
Q 4031 2850 3842 3265 
Q 3653 3681 3289 3911 
Q 2925 4141 2472 4141 
Q 1794 4141 1347 3677 
Q 900 3213 900 2291 
Q 900 1397 1342 919 
Q 1784 441 2472 441 
Q 2797 441 3084 563 
Q 2800 747 2484 825 
L 2631 1266 
z
" transform="scale(0.015625)"/>
        <path id="ArialMT-41" d="M -9 0 
L 1750 4581 
L 2403 4581 
L 4278 0 
L 3588 0 
L 3053 1388 
L 1138 1388 
L 634 0 
L -9 0 
z
M 1313 1881 
L 2866 1881 
L 2388 3150 
Q 2169 3728 2063 4100 
Q 1975 3659 1816 3225 
L 1313 1881 
z
" transform="scale(0.015625)"/>
       </defs>
       <use xlink:href="#ArialMT-4c"/>
       <use xlink:href="#ArialMT-51" x="55.615234"/>
       <use xlink:href="#ArialMT-4c" x="133.398438"/>
       <use xlink:href="#ArialMT-41" x="189.013672"/>
       <use xlink:href="#ArialMT-4c" x="255.712891"/>
      </g>
     </g>
    </g>
    <g id="ytick_4">
     <g id="line2d_7">
      <g>
       <use xlink:href="#m16aeded356" x="58.662281" y="32.717647" style="stroke: #000000; stroke-width: 0.5"/>
      </g>
     </g>
     <g id="text_8">
      <!-- FSLSF -->
      <g transform="translate(22.979156 35.867085) scale(0.088 -0.088)">
       <defs>
        <path id="ArialMT-46" d="M 525 0 
L 525 4581 
L 3616 4581 
L 3616 4041 
L 1131 4041 
L 1131 2622 
L 3281 2622 
L 3281 2081 
L 1131 2081 
L 1131 0 
L 525 0 
z
" transform="scale(0.015625)"/>
        <path id="ArialMT-53" d="M 288 1472 
L 859 1522 
Q 900 1178 1048 958 
Q 1197 738 1509 602 
Q 1822 466 2213 466 
Q 2559 466 2825 569 
Q 3091 672 3220 851 
Q 3350 1031 3350 1244 
Q 3350 1459 3225 1620 
Q 3100 1781 2813 1891 
Q 2628 1963 1997 2114 
Q 1366 2266 1113 2400 
Q 784 2572 623 2826 
Q 463 3081 463 3397 
Q 463 3744 659 4045 
Q 856 4347 1234 4503 
Q 1613 4659 2075 4659 
Q 2584 4659 2973 4495 
Q 3363 4331 3572 4012 
Q 3781 3694 3797 3291 
L 3216 3247 
Q 3169 3681 2898 3903 
Q 2628 4125 2100 4125 
Q 1550 4125 1298 3923 
Q 1047 3722 1047 3438 
Q 1047 3191 1225 3031 
Q 1400 2872 2139 2705 
Q 2878 2538 3153 2413 
Q 3553 2228 3743 1945 
Q 3934 1663 3934 1294 
Q 3934 928 3725 604 
Q 3516 281 3123 101 
Q 2731 -78 2241 -78 
Q 1619 -78 1198 103 
Q 778 284 539 648 
Q 300 1013 288 1472 
z
" transform="scale(0.015625)"/>
       </defs>
       <use xlink:href="#ArialMT-46"/>
       <use xlink:href="#ArialMT-53" x="61.083984"/>
       <use xlink:href="#ArialMT-4c" x="127.783203"/>
       <use xlink:href="#ArialMT-53" x="183.398438"/>
       <use xlink:href="#ArialMT-46" x="250.097656"/>
      </g>
     </g>
    </g>
    <g id="ytick_5">
     <g id="line2d_8">
      <g>
       <use xlink:href="#m16aeded356" x="58.662281" y="41.541176" style="stroke: #000000; stroke-width: 0.5"/>
      </g>
     </g>
     <g id="text_9">
      <!-- LCL -->
      <g transform="translate(34.219781 44.690614) scale(0.088 -0.088)">
       <use xlink:href="#ArialMT-4c"/>
       <use xlink:href="#ArialMT-43" x="55.615234"/>
       <use xlink:href="#ArialMT-4c" x="127.832031"/>
      </g>
     </g>
    </g>
    <g id="ytick_6">
     <g id="line2d_9">
      <g>
       <use xlink:href="#m16aeded356" x="58.662281" y="50.364706" style="stroke: #000000; stroke-width: 0.5"/>
      </g>
     </g>
     <g id="text_10">
      <!-- LWL -->
      <g transform="translate(32.917656 53.514143) scale(0.088 -0.088)">
       <defs>
        <path id="ArialMT-57" d="M 1294 0 
L 78 4581 
L 700 4581 
L 1397 1578 
Q 1509 1106 1591 641 
Q 1766 1375 1797 1488 
L 2669 4581 
L 3400 4581 
L 4056 2263 
Q 4303 1400 4413 641 
Q 4500 1075 4641 1638 
L 5359 4581 
L 5969 4581 
L 4713 0 
L 4128 0 
L 3163 3491 
Q 3041 3928 3019 4028 
Q 2947 3713 2884 3491 
L 1913 0 
L 1294 0 
z
" transform="scale(0.015625)"/>
       </defs>
       <use xlink:href="#ArialMT-4c"/>
       <use xlink:href="#ArialMT-57" x="48.240234"/>
       <use xlink:href="#ArialMT-4c" x="142.625"/>
      </g>
     </g>
    </g>
    <g id="ytick_7">
     <g id="line2d_10">
      <g>
       <use xlink:href="#m16aeded356" x="58.662281" y="59.188235" style="stroke: #000000; stroke-width: 0.5"/>
      </g>
     </g>
     <g id="text_11">
      <!-- LELGL -->
      <g transform="translate(22.966781 62.337673) scale(0.088 -0.088)">
       <defs>
        <path id="ArialMT-47" d="M 2638 1797 
L 2638 2334 
L 4578 2338 
L 4578 638 
Q 4131 281 3656 101 
Q 3181 -78 2681 -78 
Q 2006 -78 1454 211 
Q 903 500 622 1047 
Q 341 1594 341 2269 
Q 341 2938 620 3517 
Q 900 4097 1425 4378 
Q 1950 4659 2634 4659 
Q 3131 4659 3532 4498 
Q 3934 4338 4162 4050 
Q 4391 3763 4509 3300 
L 3963 3150 
Q 3859 3500 3706 3700 
Q 3553 3900 3268 4020 
Q 2984 4141 2638 4141 
Q 2222 4141 1919 4014 
Q 1616 3888 1430 3681 
Q 1244 3475 1141 3228 
Q 966 2803 966 2306 
Q 966 1694 1177 1281 
Q 1388 869 1791 669 
Q 2194 469 2647 469 
Q 3041 469 3416 620 
Q 3791 772 3984 944 
L 3984 1797 
L 2638 1797 
z
" transform="scale(0.015625)"/>
       </defs>
       <use xlink:href="#ArialMT-4c"/>
       <use xlink:href="#ArialMT-45" x="55.615234"/>
       <use xlink:href="#ArialMT-4c" x="122.314453"/>
       <use xlink:href="#ArialMT-47" x="177.929688"/>
       <use xlink:href="#ArialMT-4c" x="255.712891"/>
      </g>
     </g>
    </g>
    <g id="ytick_8">
     <g id="line2d_11">
      <g>
       <use xlink:href="#m16aeded356" x="58.662281" y="68.011765" style="stroke: #000000; stroke-width: 0.5"/>
      </g>
     </g>
     <g id="text_12">
      <!-- LMLEL -->
      <g transform="translate(22.481406 71.161202) scale(0.088 -0.088)">
       <use xlink:href="#ArialMT-4c"/>
       <use xlink:href="#ArialMT-4d" x="55.615234"/>
       <use xlink:href="#ArialMT-4c" x="138.916016"/>
       <use xlink:href="#ArialMT-45" x="194.53125"/>
       <use xlink:href="#ArialMT-4c" x="261.230469"/>
      </g>
     </g>
    </g>
    <g id="ytick_9">
     <g id="line2d_12">
      <g>
       <use xlink:href="#m16aeded356" x="58.662281" y="76.835294" style="stroke: #000000; stroke-width: 0.5"/>
      </g>
     </g>
     <g id="text_13">
      <!-- DLNIIEP -->
      <g transform="translate(16.128906 79.984732) scale(0.088 -0.088)">
       <defs>
        <path id="ArialMT-4e" d="M 488 0 
L 488 4581 
L 1109 4581 
L 3516 984 
L 3516 4581 
L 4097 4581 
L 4097 0 
L 3475 0 
L 1069 3600 
L 1069 0 
L 488 0 
z
" transform="scale(0.015625)"/>
        <path id="ArialMT-49" d="M 597 0 
L 597 4581 
L 1203 4581 
L 1203 0 
L 597 0 
z
" transform="scale(0.015625)"/>
        <path id="ArialMT-50" d="M 494 0 
L 494 4581 
L 2222 4581 
Q 2678 4581 2919 4538 
Q 3256 4481 3484 4323 
Q 3713 4166 3852 3881 
Q 3991 3597 3991 3256 
Q 3991 2672 3619 2267 
Q 3247 1863 2275 1863 
L 1100 1863 
L 1100 0 
L 494 0 
z
M 1100 2403 
L 2284 2403 
Q 2872 2403 3119 2622 
Q 3366 2841 3366 3238 
Q 3366 3525 3220 3729 
Q 3075 3934 2838 4000 
Q 2684 4041 2272 4041 
L 1100 4041 
L 1100 2403 
z
" transform="scale(0.015625)"/>
       </defs>
       <use xlink:href="#ArialMT-44"/>
       <use xlink:href="#ArialMT-4c" x="72.216797"/>
       <use xlink:href="#ArialMT-4e" x="127.832031"/>
       <use xlink:href="#ArialMT-49" x="200.048828"/>
       <use xlink:href="#ArialMT-49" x="227.832031"/>
       <use xlink:href="#ArialMT-45" x="255.615234"/>
       <use xlink:href="#ArialMT-50" x="322.314453"/>
      </g>
     </g>
    </g>
    <g id="ytick_10">
     <g id="line2d_13">
      <g>
       <use xlink:href="#m16aeded356" x="58.662281" y="85.658824" style="stroke: #000000; stroke-width: 0.5"/>
      </g>
     </g>
     <g id="text_14">
      <!-- FSLEF -->
      <g transform="translate(22.979156 88.808261) scale(0.088 -0.088)">
       <use xlink:href="#ArialMT-46"/>
       <use xlink:href="#ArialMT-53" x="61.083984"/>
       <use xlink:href="#ArialMT-4c" x="127.783203"/>
       <use xlink:href="#ArialMT-45" x="183.398438"/>
       <use xlink:href="#ArialMT-46" x="250.097656"/>
      </g>
     </g>
    </g>
    <g id="ytick_11">
     <g id="line2d_14">
      <g>
       <use xlink:href="#m16aeded356" x="58.662281" y="94.482353" style="stroke: #000000; stroke-width: 0.5"/>
      </g>
     </g>
     <g id="text_15">
      <!-- DDDDDD -->
      <g transform="translate(12.230781 97.63179) scale(0.088 -0.088)">
       <use xlink:href="#ArialMT-44"/>
       <use xlink:href="#ArialMT-44" x="72.216797"/>
       <use xlink:href="#ArialMT-44" x="144.433594"/>
       <use xlink:href="#ArialMT-44" x="216.650391"/>
       <use xlink:href="#ArialMT-44" x="288.867188"/>
       <use xlink:href="#ArialMT-44" x="361.083984"/>
      </g>
     </g>
    </g>
    <g id="ytick_12">
     <g id="line2d_15">
      <g>
       <use xlink:href="#m16aeded356" x="58.662281" y="103.305882" style="stroke: #000000; stroke-width: 0.5"/>
      </g>
     </g>
     <g id="text_16">
      <!-- LELEL -->
      <g transform="translate(23.941656 106.45532) scale(0.088 -0.088)">
       <use xlink:href="#ArialMT-4c"/>
       <use xlink:href="#ArialMT-45" x="55.615234"/>
       <use xlink:href="#ArialMT-4c" x="122.314453"/>
       <use xlink:href="#ArialMT-45" x="177.929688"/>
       <use xlink:href="#ArialMT-4c" x="244.628906"/>
      </g>
     </g>
    </g>
    <g id="ytick_13">
     <g id="line2d_16">
      <g>
       <use xlink:href="#m16aeded356" x="58.662281" y="112.129412" style="stroke: #000000; stroke-width: 0.5"/>
      </g>
     </g>
     <g id="text_17">
      <!-- LQL -->
      <g transform="translate(33.730281 115.278849) scale(0.088 -0.088)">
       <use xlink:href="#ArialMT-4c"/>
       <use xlink:href="#ArialMT-51" x="55.615234"/>
       <use xlink:href="#ArialMT-4c" x="133.398438"/>
      </g>
     </g>
    </g>
    <g id="ytick_14">
     <g id="line2d_17">
      <g>
       <use xlink:href="#m16aeded356" x="58.662281" y="120.952941" style="stroke: #000000; stroke-width: 0.5"/>
      </g>
     </g>
     <g id="text_18">
      <!-- LHL -->
      <g transform="translate(34.219781 124.102379) scale(0.088 -0.088)">
       <defs>
        <path id="ArialMT-48" d="M 513 0 
L 513 4581 
L 1119 4581 
L 1119 2700 
L 3500 2700 
L 3500 4581 
L 4106 4581 
L 4106 0 
L 3500 0 
L 3500 2159 
L 1119 2159 
L 1119 0 
L 513 0 
z
" transform="scale(0.015625)"/>
       </defs>
       <use xlink:href="#ArialMT-4c"/>
       <use xlink:href="#ArialMT-48" x="55.615234"/>
       <use xlink:href="#ArialMT-4c" x="127.832031"/>
      </g>
     </g>
    </g>
    <g id="ytick_15">
     <g id="line2d_18">
      <g>
       <use xlink:href="#m16aeded356" x="58.662281" y="129.776471" style="stroke: #000000; stroke-width: 0.5"/>
      </g>
     </g>
     <g id="text_19">
      <!-- LLL -->
      <g transform="translate(35.681406 132.925908) scale(0.088 -0.088)">
       <use xlink:href="#ArialMT-4c"/>
       <use xlink:href="#ArialMT-4c" x="55.615234"/>
       <use xlink:href="#ArialMT-4c" x="111.230469"/>
      </g>
     </g>
    </g>
    <g id="ytick_16">
     <g id="line2d_19">
      <g>
       <use xlink:href="#m16aeded356" x="58.662281" y="138.6" style="stroke: #000000; stroke-width: 0.5"/>
      </g>
     </g>
     <g id="text_20">
      <!-- LPL -->
      <g transform="translate(34.705156 141.749438) scale(0.088 -0.088)">
       <use xlink:href="#ArialMT-4c"/>
       <use xlink:href="#ArialMT-50" x="55.615234"/>
       <use xlink:href="#ArialMT-4c" x="122.314453"/>
      </g>
     </g>
    </g>
    <g id="ytick_17">
     <g id="line2d_20">
      <g>
       <use xlink:href="#m16aeded356" x="58.662281" y="147.423529" style="stroke: #000000; stroke-width: 0.5"/>
      </g>
     </g>
     <g id="text_21">
      <!-- DDDDD -->
      <g transform="translate(18.586031 150.572967) scale(0.088 -0.088)">
       <use xlink:href="#ArialMT-44"/>
       <use xlink:href="#ArialMT-44" x="72.216797"/>
       <use xlink:href="#ArialMT-44" x="144.433594"/>
       <use xlink:href="#ArialMT-44" x="216.650391"/>
       <use xlink:href="#ArialMT-44" x="288.867188"/>
      </g>
     </g>
    </g>
    <g id="ytick_18">
     <g id="line2d_21">
      <g>
       <use xlink:href="#m16aeded356" x="58.662281" y="156.247059" style="stroke: #000000; stroke-width: 0.5"/>
      </g>
     </g>
     <g id="text_22">
      <!-- LRL -->
      <g transform="translate(34.219781 159.396496) scale(0.088 -0.088)">
       <defs>
        <path id="ArialMT-52" d="M 503 0 
L 503 4581 
L 2534 4581 
Q 3147 4581 3465 4457 
Q 3784 4334 3975 4021 
Q 4166 3709 4166 3331 
Q 4166 2844 3850 2509 
Q 3534 2175 2875 2084 
Q 3116 1969 3241 1856 
Q 3506 1613 3744 1247 
L 4541 0 
L 3778 0 
L 3172 953 
Q 2906 1366 2734 1584 
Q 2563 1803 2427 1890 
Q 2291 1978 2150 2013 
Q 2047 2034 1813 2034 
L 1109 2034 
L 1109 0 
L 503 0 
z
M 1109 2559 
L 2413 2559 
Q 2828 2559 3062 2645 
Q 3297 2731 3419 2920 
Q 3541 3109 3541 3331 
Q 3541 3656 3305 3865 
Q 3069 4075 2559 4075 
L 1109 4075 
L 1109 2559 
z
" transform="scale(0.015625)"/>
       </defs>
       <use xlink:href="#ArialMT-4c"/>
       <use xlink:href="#ArialMT-52" x="55.615234"/>
       <use xlink:href="#ArialMT-4c" x="127.832031"/>
      </g>
     </g>
    </g>
    <g id="ytick_19">
     <g id="line2d_22">
      <g>
       <use xlink:href="#m16aeded356" x="58.662281" y="165.070588" style="stroke: #000000; stroke-width: 0.5"/>
      </g>
     </g>
     <g id="text_23">
      <!-- LVL -->
      <g transform="translate(35.354156 168.220026) scale(0.088 -0.088)">
       <defs>
        <path id="ArialMT-56" d="M 1803 0 
L 28 4581 
L 684 4581 
L 1875 1253 
Q 2019 853 2116 503 
Q 2222 878 2363 1253 
L 3600 4581 
L 4219 4581 
L 2425 0 
L 1803 0 
z
" transform="scale(0.015625)"/>
       </defs>
       <use xlink:href="#ArialMT-4c"/>
       <use xlink:href="#ArialMT-56" x="48.240234"/>
       <use xlink:href="#ArialMT-4c" x="114.939453"/>
      </g>
     </g>
    </g>
    <g id="ytick_20">
     <g id="line2d_23">
      <g>
       <use xlink:href="#m16aeded356" x="58.662281" y="173.894118" style="stroke: #000000; stroke-width: 0.5"/>
      </g>
     </g>
     <g id="text_24">
      <!-- LKL -->
      <g transform="translate(34.705156 177.043555) scale(0.088 -0.088)">
       <defs>
        <path id="ArialMT-4b" d="M 469 0 
L 469 4581 
L 1075 4581 
L 1075 2309 
L 3350 4581 
L 4172 4581 
L 2250 2725 
L 4256 0 
L 3456 0 
L 1825 2319 
L 1075 1588 
L 1075 0 
L 469 0 
z
" transform="scale(0.015625)"/>
       </defs>
       <use xlink:href="#ArialMT-4c"/>
       <use xlink:href="#ArialMT-4b" x="55.615234"/>
       <use xlink:href="#ArialMT-4c" x="122.314453"/>
      </g>
     </g>
    </g>
    <g id="ytick_21">
     <g id="line2d_24">
      <g>
       <use xlink:href="#m16aeded356" x="58.662281" y="182.717647" style="stroke: #000000; stroke-width: 0.5"/>
      </g>
     </g>
     <g id="text_25">
      <!-- LAL -->
      <g transform="translate(34.705156 185.867085) scale(0.088 -0.088)">
       <use xlink:href="#ArialMT-4c"/>
       <use xlink:href="#ArialMT-41" x="55.615234"/>
       <use xlink:href="#ArialMT-4c" x="122.314453"/>
      </g>
     </g>
    </g>
    <g id="ytick_22">
     <g id="line2d_25">
      <g>
       <use xlink:href="#m16aeded356" x="58.662281" y="191.541176" style="stroke: #000000; stroke-width: 0.5"/>
      </g>
     </g>
     <g id="text_26">
      <!-- LIL -->
      <g transform="translate(38.130281 194.690614) scale(0.088 -0.088)">
       <use xlink:href="#ArialMT-4c"/>
       <use xlink:href="#ArialMT-49" x="55.615234"/>
       <use xlink:href="#ArialMT-4c" x="83.398438"/>
      </g>
     </g>
    </g>
    <g id="ytick_23">
     <g id="line2d_26">
      <g>
       <use xlink:href="#m16aeded356" x="58.662281" y="200.364706" style="stroke: #000000; stroke-width: 0.5"/>
      </g>
     </g>
     <g id="text_27">
      <!-- LFL -->
      <g transform="translate(35.200156 203.514143) scale(0.088 -0.088)">
       <use xlink:href="#ArialMT-4c"/>
       <use xlink:href="#ArialMT-46" x="55.615234"/>
       <use xlink:href="#ArialMT-4c" x="116.699219"/>
      </g>
     </g>
    </g>
    <g id="ytick_24">
     <g id="line2d_27">
      <g>
       <use xlink:href="#m16aeded356" x="58.662281" y="209.188235" style="stroke: #000000; stroke-width: 0.5"/>
      </g>
     </g>
     <g id="text_28">
      <!-- LYL -->
      <g transform="translate(35.354156 212.337673) scale(0.088 -0.088)">
       <defs>
        <path id="ArialMT-59" d="M 1784 0 
L 1784 1941 
L 19 4581 
L 756 4581 
L 1659 3200 
Q 1909 2813 2125 2425 
Q 2331 2784 2625 3234 
L 3513 4581 
L 4219 4581 
L 2391 1941 
L 2391 0 
L 1784 0 
z
" transform="scale(0.015625)"/>
       </defs>
       <use xlink:href="#ArialMT-4c"/>
       <use xlink:href="#ArialMT-59" x="48.240234"/>
       <use xlink:href="#ArialMT-4c" x="114.939453"/>
      </g>
     </g>
    </g>
    <g id="ytick_25">
     <g id="line2d_28">
      <g>
       <use xlink:href="#m16aeded356" x="58.662281" y="218.011765" style="stroke: #000000; stroke-width: 0.5"/>
      </g>
     </g>
     <g id="text_29">
      <!-- LML -->
      <g transform="translate(33.244906 221.161202) scale(0.088 -0.088)">
       <use xlink:href="#ArialMT-4c"/>
       <use xlink:href="#ArialMT-4d" x="55.615234"/>
       <use xlink:href="#ArialMT-4c" x="138.916016"/>
      </g>
     </g>
    </g>
    <g id="ytick_26">
     <g id="line2d_29">
      <g>
       <use xlink:href="#m16aeded356" x="58.662281" y="226.835294" style="stroke: #000000; stroke-width: 0.5"/>
      </g>
     </g>
     <g id="text_30">
      <!-- LNL -->
      <g transform="translate(34.219781 229.984732) scale(0.088 -0.088)">
       <use xlink:href="#ArialMT-4c"/>
       <use xlink:href="#ArialMT-4e" x="55.615234"/>
       <use xlink:href="#ArialMT-4c" x="127.832031"/>
      </g>
     </g>
    </g>
    <g id="ytick_27">
     <g id="line2d_30">
      <g>
       <use xlink:href="#m16aeded356" x="58.662281" y="235.658824" style="stroke: #000000; stroke-width: 0.5"/>
      </g>
     </g>
     <g id="text_31">
      <!-- LTL -->
      <g transform="translate(35.849156 238.808261) scale(0.088 -0.088)">
       <defs>
        <path id="ArialMT-54" d="M 1659 0 
L 1659 4041 
L 150 4041 
L 150 4581 
L 3781 4581 
L 3781 4041 
L 2266 4041 
L 2266 0 
L 1659 0 
z
" transform="scale(0.015625)"/>
       </defs>
       <use xlink:href="#ArialMT-4c"/>
       <use xlink:href="#ArialMT-54" x="48.240234"/>
       <use xlink:href="#ArialMT-4c" x="109.324219"/>
      </g>
     </g>
    </g>
    <g id="ytick_28">
     <g id="line2d_31">
      <g>
       <use xlink:href="#m16aeded356" x="58.662281" y="244.482353" style="stroke: #000000; stroke-width: 0.5"/>
      </g>
     </g>
     <g id="text_32">
      <!-- LSL -->
      <g transform="translate(34.705156 247.63179) scale(0.088 -0.088)">
       <use xlink:href="#ArialMT-4c"/>
       <use xlink:href="#ArialMT-53" x="55.615234"/>
       <use xlink:href="#ArialMT-4c" x="122.314453"/>
      </g>
     </g>
    </g>
    <g id="ytick_29">
     <g id="line2d_32">
      <g>
       <use xlink:href="#m16aeded356" x="58.662281" y="253.305882" style="stroke: #000000; stroke-width: 0.5"/>
      </g>
     </g>
     <g id="text_33">
      <!-- LGL -->
      <g transform="translate(33.730281 256.45532) scale(0.088 -0.088)">
       <use xlink:href="#ArialMT-4c"/>
       <use xlink:href="#ArialMT-47" x="55.615234"/>
       <use xlink:href="#ArialMT-4c" x="133.398438"/>
      </g>
     </g>
    </g>
    <g id="ytick_30">
     <g id="line2d_33">
      <g>
       <use xlink:href="#m16aeded356" x="58.662281" y="262.129412" style="stroke: #000000; stroke-width: 0.5"/>
      </g>
     </g>
     <g id="text_34">
      <!-- LDL -->
      <g transform="translate(34.219781 265.278849) scale(0.088 -0.088)">
       <use xlink:href="#ArialMT-4c"/>
       <use xlink:href="#ArialMT-44" x="55.615234"/>
       <use xlink:href="#ArialMT-4c" x="127.832031"/>
      </g>
     </g>
    </g>
    <g id="ytick_31">
     <g id="line2d_34">
      <g>
       <use xlink:href="#m16aeded356" x="58.662281" y="270.952941" style="stroke: #000000; stroke-width: 0.5"/>
      </g>
     </g>
     <g id="text_35">
      <!-- LEL -->
      <g transform="translate(34.705156 274.102379) scale(0.088 -0.088)">
       <use xlink:href="#ArialMT-4c"/>
       <use xlink:href="#ArialMT-45" x="55.615234"/>
       <use xlink:href="#ArialMT-4c" x="122.314453"/>
      </g>
     </g>
    </g>
    <g id="text_36">
     <!-- Motif -->
     <g transform="translate(6.442031 148.350938) rotate(-90) scale(0.09 -0.09)">
      <defs>
       <path id="ArialMT-69" d="M 425 3934 
L 425 4581 
L 988 4581 
L 988 3934 
L 425 3934 
z
M 425 0 
L 425 3319 
L 988 3319 
L 988 0 
L 425 0 
z
" transform="scale(0.015625)"/>
       <path id="ArialMT-66" d="M 556 0 
L 556 2881 
L 59 2881 
L 59 3319 
L 556 3319 
L 556 3672 
Q 556 4006 616 4169 
Q 697 4388 901 4523 
Q 1106 4659 1475 4659 
Q 1713 4659 2000 4603 
L 1916 4113 
Q 1741 4144 1584 4144 
Q 1328 4144 1222 4034 
Q 1116 3925 1116 3625 
L 1116 3319 
L 1763 3319 
L 1763 2881 
L 1116 2881 
L 1116 0 
L 556 0 
z
" transform="scale(0.015625)"/>
      </defs>
      <use xlink:href="#ArialMT-4d"/>
      <use xlink:href="#ArialMT-6f" x="83.300781"/>
      <use xlink:href="#ArialMT-74" x="138.916016"/>
      <use xlink:href="#ArialMT-69" x="166.699219"/>
      <use xlink:href="#ArialMT-66" x="188.916016"/>
     </g>
    </g>
   </g>
   <g id="line2d_35">
    <path clip-path="url(#pc27e5bdaaf)" style="fill: none; stroke: #424242; stroke-width: 1.8; stroke-linecap: square"/>
   </g>
   <g id="line2d_36">
    <path clip-path="url(#pc27e5bdaaf)" style="fill: none; stroke: #424242; stroke-width: 1.8; stroke-linecap: square"/>
   </g>
   <g id="line2d_37">
    <path clip-path="url(#pc27e5bdaaf)" style="fill: none; stroke: #424242; stroke-width: 1.8; stroke-linecap: square"/>
   </g>
   <g id="line2d_38">
    <path clip-path="url(#pc27e5bdaaf)" style="fill: none; stroke: #424242; stroke-width: 1.8; stroke-linecap: square"/>
   </g>
   <g id="line2d_39">
    <path clip-path="url(#pc27e5bdaaf)" style="fill: none; stroke: #424242; stroke-width: 1.8; stroke-linecap: square"/>
   </g>
   <g id="line2d_40">
    <path clip-path="url(#pc27e5bdaaf)" style="fill: none; stroke: #424242; stroke-width: 1.8; stroke-linecap: square"/>
   </g>
   <g id="line2d_41">
    <path clip-path="url(#pc27e5bdaaf)" style="fill: none; stroke: #424242; stroke-width: 1.8; stroke-linecap: square"/>
   </g>
   <g id="line2d_42">
    <path clip-path="url(#pc27e5bdaaf)" style="fill: none; stroke: #424242; stroke-width: 1.8; stroke-linecap: square"/>
   </g>
   <g id="line2d_43">
    <path clip-path="url(#pc27e5bdaaf)" style="fill: none; stroke: #424242; stroke-width: 1.8; stroke-linecap: square"/>
   </g>
   <g id="line2d_44">
    <path clip-path="url(#pc27e5bdaaf)" style="fill: none; stroke: #424242; stroke-width: 1.8; stroke-linecap: square"/>
   </g>
   <g id="line2d_45">
    <path clip-path="url(#pc27e5bdaaf)" style="fill: none; stroke: #424242; stroke-width: 1.8; stroke-linecap: square"/>
   </g>
   <g id="line2d_46">
    <path clip-path="url(#pc27e5bdaaf)" style="fill: none; stroke: #424242; stroke-width: 1.8; stroke-linecap: square"/>
   </g>
   <g id="line2d_47">
    <path clip-path="url(#pc27e5bdaaf)" style="fill: none; stroke: #424242; stroke-width: 1.8; stroke-linecap: square"/>
   </g>
   <g id="line2d_48">
    <path clip-path="url(#pc27e5bdaaf)" style="fill: none; stroke: #424242; stroke-width: 1.8; stroke-linecap: square"/>
   </g>
   <g id="line2d_49">
    <path clip-path="url(#pc27e5bdaaf)" style="fill: none; stroke: #424242; stroke-width: 1.8; stroke-linecap: square"/>
   </g>
   <g id="line2d_50">
    <path clip-path="url(#pc27e5bdaaf)" style="fill: none; stroke: #424242; stroke-width: 1.8; stroke-linecap: square"/>
   </g>
   <g id="line2d_51">
    <path clip-path="url(#pc27e5bdaaf)" style="fill: none; stroke: #424242; stroke-width: 1.8; stroke-linecap: square"/>
   </g>
   <g id="line2d_52">
    <path clip-path="url(#pc27e5bdaaf)" style="fill: none; stroke: #424242; stroke-width: 1.8; stroke-linecap: square"/>
   </g>
   <g id="line2d_53">
    <path clip-path="url(#pc27e5bdaaf)" style="fill: none; stroke: #424242; stroke-width: 1.8; stroke-linecap: square"/>
   </g>
   <g id="line2d_54">
    <path clip-path="url(#pc27e5bdaaf)" style="fill: none; stroke: #424242; stroke-width: 1.8; stroke-linecap: square"/>
   </g>
   <g id="line2d_55">
    <path clip-path="url(#pc27e5bdaaf)" style="fill: none; stroke: #424242; stroke-width: 1.8; stroke-linecap: square"/>
   </g>
   <g id="line2d_56">
    <path clip-path="url(#pc27e5bdaaf)" style="fill: none; stroke: #424242; stroke-width: 1.8; stroke-linecap: square"/>
   </g>
   <g id="line2d_57">
    <path clip-path="url(#pc27e5bdaaf)" style="fill: none; stroke: #424242; stroke-width: 1.8; stroke-linecap: square"/>
   </g>
   <g id="line2d_58">
    <path clip-path="url(#pc27e5bdaaf)" style="fill: none; stroke: #424242; stroke-width: 1.8; stroke-linecap: square"/>
   </g>
   <g id="line2d_59">
    <path clip-path="url(#pc27e5bdaaf)" style="fill: none; stroke: #424242; stroke-width: 1.8; stroke-linecap: square"/>
   </g>
   <g id="line2d_60">
    <path clip-path="url(#pc27e5bdaaf)" style="fill: none; stroke: #424242; stroke-width: 1.8; stroke-linecap: square"/>
   </g>
   <g id="line2d_61">
    <path clip-path="url(#pc27e5bdaaf)" style="fill: none; stroke: #424242; stroke-width: 1.8; stroke-linecap: square"/>
   </g>
   <g id="line2d_62">
    <path clip-path="url(#pc27e5bdaaf)" style="fill: none; stroke: #424242; stroke-width: 1.8; stroke-linecap: square"/>
   </g>
   <g id="line2d_63">
    <path clip-path="url(#pc27e5bdaaf)" style="fill: none; stroke: #424242; stroke-width: 1.8; stroke-linecap: square"/>
   </g>
   <g id="line2d_64">
    <path clip-path="url(#pc27e5bdaaf)" style="fill: none; stroke: #424242; stroke-width: 1.8; stroke-linecap: square"/>
   </g>
   <g id="line2d_65">
    <path clip-path="url(#pc27e5bdaaf)" style="fill: none; stroke: #424242; stroke-width: 1.8; stroke-linecap: square"/>
   </g>
   <g id="patch_34">
    <path d="M 58.662281 277.2 
L 58.662281 0 
" style="fill: none; stroke: #000000; stroke-width: 0.5; stroke-linejoin: miter; stroke-linecap: square"/>
   </g>
   <g id="patch_35">
    <path d="M 170.262281 277.2 
L 170.262281 0 
" style="fill: none; stroke: #000000; stroke-width: 0.5; stroke-linejoin: miter; stroke-linecap: square"/>
   </g>
   <g id="patch_36">
    <path d="M 58.662281 277.2 
L 170.262281 277.2 
" style="fill: none; stroke: #000000; stroke-width: 0.5; stroke-linejoin: miter; stroke-linecap: square"/>
   </g>
   <g id="patch_37">
    <path d="M 58.662281 0 
L 170.262281 0 
" style="fill: none; stroke: #000000; stroke-width: 0.5; stroke-linejoin: miter; stroke-linecap: square"/>
   </g>
  </g>
 </g>
 <defs>
  <clipPath id="pc27e5bdaaf">
   <rect x="58.662281" y="0" width="111.6" height="277.2"/>
  </clipPath>
 </defs>
</svg>
