<?xml version="1.0" encoding="utf-8" standalone="no"?>
<!DOCTYPE svg PUBLIC "-//W3C//DTD SVG 1.1//EN"
  "http://www.w3.org/Graphics/SVG/1.1/DTD/svg11.dtd">
<svg xmlns:xlink="http://www.w3.org/1999/xlink" width="198.531687pt" height="267.364931pt" viewBox="0 0 198.531687 267.364931" xmlns="http://www.w3.org/2000/svg" version="1.1">
 <metadata>
  <rdf:RDF xmlns:dc="http://purl.org/dc/elements/1.1/" xmlns:cc="http://creativecommons.org/ns#" xmlns:rdf="http://www.w3.org/1999/02/22-rdf-syntax-ns#">
   <cc:Work>
    <dc:type rdf:resource="http://purl.org/dc/dcmitype/StillImage"/>
    <dc:date>2025-05-27T13:43:23.621856</dc:date>
    <dc:format>image/svg+xml</dc:format>
    <dc:creator>
     <cc:Agent>
      <dc:title>Matplotlib v3.8.4, https://matplotlib.org/</dc:title>
     </cc:Agent>
    </dc:creator>
   </cc:Work>
  </rdf:RDF>
 </metadata>
 <defs>
  <style type="text/css">*{stroke-linejoin: round; stroke-linecap: butt}</style>
 </defs>
 <g id="figure_1">
  <g id="patch_1">
   <path d="M 0 267.364931 
L 198.531687 267.364931 
L 198.531687 0 
L 0 0 
L 0 267.364931 
z
" style="fill: none"/>
  </g>
  <g id="axes_1">
   <g id="patch_2">
    <path d="M 87.646875 238.786275 
L 196.216875 238.786275 
L 196.216875 27.382275 
L 87.646875 27.382275 
L 87.646875 238.786275 
z
" style="fill: none"/>
   </g>
   <g id="patch_3">
    <path d="M 87.646875 236.269561 
L 144.094834 236.269561 
L 144.094834 231.236132 
L 87.646875 231.236132 
z
" clip-path="url(#p3a29b4b90a)" style="fill: #ff6347; stroke: #000000; stroke-width: 0.5; stroke-linejoin: miter"/>
   </g>
   <g id="patch_4">
    <path d="M 87.646875 226.202704 
L 87.646875 226.202704 
L 87.646875 221.169275 
L 87.646875 221.169275 
z
" clip-path="url(#p3a29b4b90a)" style="fill: #ff6347; stroke: #000000; stroke-width: 0.5; stroke-linejoin: miter"/>
   </g>
   <g id="patch_5">
    <path d="M 87.646875 216.135846 
L 87.646875 216.135846 
L 87.646875 211.102418 
L 87.646875 211.102418 
z
" clip-path="url(#p3a29b4b90a)" style="fill: #ff6347; stroke: #000000; stroke-width: 0.5; stroke-linejoin: miter"/>
   </g>
   <g id="patch_6">
    <path d="M 87.646875 206.068989 
L 139.762693 206.068989 
L 139.762693 201.035561 
L 87.646875 201.035561 
z
" clip-path="url(#p3a29b4b90a)" style="fill: #ff6347; stroke: #000000; stroke-width: 0.5; stroke-linejoin: miter"/>
   </g>
   <g id="patch_7">
    <path d="M 87.646875 196.002132 
L 143.00411 196.002132 
L 143.00411 190.968704 
L 87.646875 190.968704 
z
" clip-path="url(#p3a29b4b90a)" style="fill: #ff6347; stroke: #000000; stroke-width: 0.5; stroke-linejoin: miter"/>
   </g>
   <g id="patch_8">
    <path d="M 87.646875 185.935275 
L 139.346875 185.935275 
L 139.346875 180.901846 
L 87.646875 180.901846 
z
" clip-path="url(#p3a29b4b90a)" style="fill: #ff6347; stroke: #000000; stroke-width: 0.5; stroke-linejoin: miter"/>
   </g>
   <g id="patch_9">
    <path d="M 87.646875 175.868418 
L 117.189732 175.868418 
L 117.189732 170.834989 
L 87.646875 170.834989 
z
" clip-path="url(#p3a29b4b90a)" style="fill: #ff6347; stroke: #000000; stroke-width: 0.5; stroke-linejoin: miter"/>
   </g>
   <g id="patch_10">
    <path d="M 87.646875 165.801561 
L 140.310229 165.801561 
L 140.310229 160.768132 
L 87.646875 160.768132 
z
" clip-path="url(#p3a29b4b90a)" style="fill: #ff6347; stroke: #000000; stroke-width: 0.5; stroke-linejoin: miter"/>
   </g>
   <g id="patch_11">
    <path d="M 87.646875 155.734704 
L 135.253958 155.734704 
L 135.253958 150.701275 
L 87.646875 150.701275 
z
" clip-path="url(#p3a29b4b90a)" style="fill: #ff6347; stroke: #000000; stroke-width: 0.5; stroke-linejoin: miter"/>
   </g>
   <g id="patch_12">
    <path d="M 87.646875 145.667846 
L 139.346875 145.667846 
L 139.346875 140.634418 
L 87.646875 140.634418 
z
" clip-path="url(#p3a29b4b90a)" style="fill: #ff6347; stroke: #000000; stroke-width: 0.5; stroke-linejoin: miter"/>
   </g>
   <g id="patch_13">
    <path d="M 87.646875 135.600989 
L 139.346875 135.600989 
L 139.346875 130.567561 
L 87.646875 130.567561 
z
" clip-path="url(#p3a29b4b90a)" style="fill: #ff6347; stroke: #000000; stroke-width: 0.5; stroke-linejoin: miter"/>
   </g>
   <g id="patch_14">
    <path d="M 87.646875 125.534132 
L 137.747906 125.534132 
L 137.747906 120.500704 
L 87.646875 120.500704 
z
" clip-path="url(#p3a29b4b90a)" style="fill: #ff6347; stroke: #000000; stroke-width: 0.5; stroke-linejoin: miter"/>
   </g>
   <g id="patch_15">
    <path d="M 87.646875 115.467275 
L 140.9625 115.467275 
L 140.9625 110.433846 
L 87.646875 110.433846 
z
" clip-path="url(#p3a29b4b90a)" style="fill: #ff6347; stroke: #000000; stroke-width: 0.5; stroke-linejoin: miter"/>
   </g>
   <g id="patch_16">
    <path d="M 87.646875 105.400418 
L 114.235446 105.400418 
L 114.235446 100.366989 
L 87.646875 100.366989 
z
" clip-path="url(#p3a29b4b90a)" style="fill: #ff6347; stroke: #000000; stroke-width: 0.5; stroke-linejoin: miter"/>
   </g>
   <g id="patch_17">
    <path d="M 87.646875 95.333561 
L 132.499193 95.333561 
L 132.499193 90.300132 
L 87.646875 90.300132 
z
" clip-path="url(#p3a29b4b90a)" style="fill: #ff6347; stroke: #000000; stroke-width: 0.5; stroke-linejoin: miter"/>
   </g>
   <g id="patch_18">
    <path d="M 87.646875 85.266704 
L 137.84105 85.266704 
L 137.84105 80.233275 
L 87.646875 80.233275 
z
" clip-path="url(#p3a29b4b90a)" style="fill: #ff6347; stroke: #000000; stroke-width: 0.5; stroke-linejoin: miter"/>
   </g>
   <g id="patch_19">
    <path d="M 87.646875 75.199846 
L 153.446875 75.199846 
L 153.446875 70.166418 
L 87.646875 70.166418 
z
" clip-path="url(#p3a29b4b90a)" style="fill: #ff6347; stroke: #000000; stroke-width: 0.5; stroke-linejoin: miter"/>
   </g>
   <g id="patch_20">
    <path d="M 87.646875 65.132989 
L 104.880208 65.132989 
L 104.880208 60.099561 
L 87.646875 60.099561 
z
" clip-path="url(#p3a29b4b90a)" style="fill: #ff6347; stroke: #000000; stroke-width: 0.5; stroke-linejoin: miter"/>
   </g>
   <g id="patch_21">
    <path d="M 87.646875 55.066132 
L 114.857401 55.066132 
L 114.857401 50.032704 
L 87.646875 50.032704 
z
" clip-path="url(#p3a29b4b90a)" style="fill: #ff6347; stroke: #000000; stroke-width: 0.5; stroke-linejoin: miter"/>
   </g>
   <g id="patch_22">
    <path d="M 87.646875 44.999275 
L 146.732589 44.999275 
L 146.732589 39.965846 
L 87.646875 39.965846 
z
" clip-path="url(#p3a29b4b90a)" style="fill: #ff6347; stroke: #000000; stroke-width: 0.5; stroke-linejoin: miter"/>
   </g>
   <g id="patch_23">
    <path d="M 87.646875 34.932418 
L 151.277644 34.932418 
L 151.277644 29.898989 
L 87.646875 29.898989 
z
" clip-path="url(#p3a29b4b90a)" style="fill: #ff6347; stroke: #000000; stroke-width: 0.5; stroke-linejoin: miter"/>
   </g>
   <g id="patch_24">
    <path d="M 144.094834 236.269561 
L 191.046875 236.269561 
L 191.046875 231.236132 
L 144.094834 231.236132 
z
" clip-path="url(#p3a29b4b90a)" style="fill: #808080; stroke: #000000; stroke-width: 0.5; stroke-linejoin: miter"/>
   </g>
   <g id="patch_25">
    <path d="M 87.646875 226.202704 
L 191.046875 226.202704 
L 191.046875 221.169275 
L 87.646875 221.169275 
z
" clip-path="url(#p3a29b4b90a)" style="fill: #808080; stroke: #000000; stroke-width: 0.5; stroke-linejoin: miter"/>
   </g>
   <g id="patch_26">
    <path d="M 87.646875 216.135846 
L 191.046875 216.135846 
L 191.046875 211.102418 
L 87.646875 211.102418 
z
" clip-path="url(#p3a29b4b90a)" style="fill: #808080; stroke: #000000; stroke-width: 0.5; stroke-linejoin: miter"/>
   </g>
   <g id="patch_27">
    <path d="M 139.762693 206.068989 
L 191.046875 206.068989 
L 191.046875 201.035561 
L 139.762693 201.035561 
z
" clip-path="url(#p3a29b4b90a)" style="fill: #808080; stroke: #000000; stroke-width: 0.5; stroke-linejoin: miter"/>
   </g>
   <g id="patch_28">
    <path d="M 143.00411 196.002132 
L 191.046875 196.002132 
L 191.046875 190.968704 
L 143.00411 190.968704 
z
" clip-path="url(#p3a29b4b90a)" style="fill: #808080; stroke: #000000; stroke-width: 0.5; stroke-linejoin: miter"/>
   </g>
   <g id="patch_29">
    <path d="M 139.346875 185.935275 
L 191.046875 185.935275 
L 191.046875 180.901846 
L 139.346875 180.901846 
z
" clip-path="url(#p3a29b4b90a)" style="fill: #808080; stroke: #000000; stroke-width: 0.5; stroke-linejoin: miter"/>
   </g>
   <g id="patch_30">
    <path d="M 117.189732 175.868418 
L 191.046875 175.868418 
L 191.046875 170.834989 
L 117.189732 170.834989 
z
" clip-path="url(#p3a29b4b90a)" style="fill: #808080; stroke: #000000; stroke-width: 0.5; stroke-linejoin: miter"/>
   </g>
   <g id="patch_31">
    <path d="M 140.310229 165.801561 
L 191.046875 165.801561 
L 191.046875 160.768132 
L 140.310229 160.768132 
z
" clip-path="url(#p3a29b4b90a)" style="fill: #808080; stroke: #000000; stroke-width: 0.5; stroke-linejoin: miter"/>
   </g>
   <g id="patch_32">
    <path d="M 135.253958 155.734704 
L 191.046875 155.734704 
L 191.046875 150.701275 
L 135.253958 150.701275 
z
" clip-path="url(#p3a29b4b90a)" style="fill: #808080; stroke: #000000; stroke-width: 0.5; stroke-linejoin: miter"/>
   </g>
   <g id="patch_33">
    <path d="M 139.346875 145.667846 
L 191.046875 145.667846 
L 191.046875 140.634418 
L 139.346875 140.634418 
z
" clip-path="url(#p3a29b4b90a)" style="fill: #808080; stroke: #000000; stroke-width: 0.5; stroke-linejoin: miter"/>
   </g>
   <g id="patch_34">
    <path d="M 139.346875 135.600989 
L 191.046875 135.600989 
L 191.046875 130.567561 
L 139.346875 130.567561 
z
" clip-path="url(#p3a29b4b90a)" style="fill: #808080; stroke: #000000; stroke-width: 0.5; stroke-linejoin: miter"/>
   </g>
   <g id="patch_35">
    <path d="M 137.747906 125.534132 
L 191.046875 125.534132 
L 191.046875 120.500704 
L 137.747906 120.500704 
z
" clip-path="url(#p3a29b4b90a)" style="fill: #808080; stroke: #000000; stroke-width: 0.5; stroke-linejoin: miter"/>
   </g>
   <g id="patch_36">
    <path d="M 140.9625 115.467275 
L 191.046875 115.467275 
L 191.046875 110.433846 
L 140.9625 110.433846 
z
" clip-path="url(#p3a29b4b90a)" style="fill: #808080; stroke: #000000; stroke-width: 0.5; stroke-linejoin: miter"/>
   </g>
   <g id="patch_37">
    <path d="M 114.235446 105.400418 
L 191.046875 105.400418 
L 191.046875 100.366989 
L 114.235446 100.366989 
z
" clip-path="url(#p3a29b4b90a)" style="fill: #808080; stroke: #000000; stroke-width: 0.5; stroke-linejoin: miter"/>
   </g>
   <g id="patch_38">
    <path d="M 132.499193 95.333561 
L 191.046875 95.333561 
L 191.046875 90.300132 
L 132.499193 90.300132 
z
" clip-path="url(#p3a29b4b90a)" style="fill: #808080; stroke: #000000; stroke-width: 0.5; stroke-linejoin: miter"/>
   </g>
   <g id="patch_39">
    <path d="M 137.84105 85.266704 
L 191.046875 85.266704 
L 191.046875 80.233275 
L 137.84105 80.233275 
z
" clip-path="url(#p3a29b4b90a)" style="fill: #808080; stroke: #000000; stroke-width: 0.5; stroke-linejoin: miter"/>
   </g>
   <g id="patch_40">
    <path d="M 153.446875 75.199846 
L 191.046875 75.199846 
L 191.046875 70.166418 
L 153.446875 70.166418 
z
" clip-path="url(#p3a29b4b90a)" style="fill: #808080; stroke: #000000; stroke-width: 0.5; stroke-linejoin: miter"/>
   </g>
   <g id="patch_41">
    <path d="M 104.880208 65.132989 
L 191.046875 65.132989 
L 191.046875 60.099561 
L 104.880208 60.099561 
z
" clip-path="url(#p3a29b4b90a)" style="fill: #808080; stroke: #000000; stroke-width: 0.5; stroke-linejoin: miter"/>
   </g>
   <g id="patch_42">
    <path d="M 114.857401 55.066132 
L 191.046875 55.066132 
L 191.046875 50.032704 
L 114.857401 50.032704 
z
" clip-path="url(#p3a29b4b90a)" style="fill: #808080; stroke: #000000; stroke-width: 0.5; stroke-linejoin: miter"/>
   </g>
   <g id="patch_43">
    <path d="M 146.732589 44.999275 
L 191.046875 44.999275 
L 191.046875 39.965846 
L 146.732589 39.965846 
z
" clip-path="url(#p3a29b4b90a)" style="fill: #808080; stroke: #000000; stroke-width: 0.5; stroke-linejoin: miter"/>
   </g>
   <g id="patch_44">
    <path d="M 151.277644 34.932418 
L 191.046875 34.932418 
L 191.046875 29.898989 
L 151.277644 29.898989 
z
" clip-path="url(#p3a29b4b90a)" style="fill: #808080; stroke: #000000; stroke-width: 0.5; stroke-linejoin: miter"/>
   </g>
   <g id="matplotlib.axis_1">
    <g id="xtick_1">
     <g id="line2d_1">
      <defs>
       <path id="m1073725cc3" d="M 0 0 
L 0 4.8 
" style="stroke: #000000; stroke-width: 0.5"/>
      </defs>
      <g>
       <use xlink:href="#m1073725cc3" x="87.646875" y="238.786275" style="stroke: #000000; stroke-width: 0.5"/>
      </g>
     </g>
     <g id="text_1">
      <!-- 0.0 -->
      <g transform="translate(81.530875 253.38515) scale(0.088 -0.088)">
       <defs>
        <path id="ArialMT-30" d="M 266 2259 
Q 266 3072 433 3567 
Q 600 4063 929 4331 
Q 1259 4600 1759 4600 
Q 2128 4600 2406 4451 
Q 2684 4303 2865 4023 
Q 3047 3744 3150 3342 
Q 3253 2941 3253 2259 
Q 3253 1453 3087 958 
Q 2922 463 2592 192 
Q 2263 -78 1759 -78 
Q 1097 -78 719 397 
Q 266 969 266 2259 
z
M 844 2259 
Q 844 1131 1108 757 
Q 1372 384 1759 384 
Q 2147 384 2411 759 
Q 2675 1134 2675 2259 
Q 2675 3391 2411 3762 
Q 2147 4134 1753 4134 
Q 1366 4134 1134 3806 
Q 844 3388 844 2259 
z
" transform="scale(0.015625)"/>
        <path id="ArialMT-2e" d="M 581 0 
L 581 641 
L 1222 641 
L 1222 0 
L 581 0 
z
" transform="scale(0.015625)"/>
       </defs>
       <use xlink:href="#ArialMT-30"/>
       <use xlink:href="#ArialMT-2e" x="55.615234"/>
       <use xlink:href="#ArialMT-30" x="83.398438"/>
      </g>
     </g>
    </g>
    <g id="xtick_2">
     <g id="line2d_2">
      <g>
       <use xlink:href="#m1073725cc3" x="139.346875" y="238.786275" style="stroke: #000000; stroke-width: 0.5"/>
      </g>
     </g>
     <g id="text_2">
      <!-- 0.5 -->
      <g transform="translate(133.230875 253.38515) scale(0.088 -0.088)">
       <defs>
        <path id="ArialMT-35" d="M 266 1200 
L 856 1250 
Q 922 819 1161 601 
Q 1400 384 1738 384 
Q 2144 384 2425 690 
Q 2706 997 2706 1503 
Q 2706 1984 2436 2262 
Q 2166 2541 1728 2541 
Q 1456 2541 1237 2417 
Q 1019 2294 894 2097 
L 366 2166 
L 809 4519 
L 3088 4519 
L 3088 3981 
L 1259 3981 
L 1013 2750 
Q 1425 3038 1878 3038 
Q 2478 3038 2890 2622 
Q 3303 2206 3303 1553 
Q 3303 931 2941 478 
Q 2500 -78 1738 -78 
Q 1113 -78 717 272 
Q 322 622 266 1200 
z
" transform="scale(0.015625)"/>
       </defs>
       <use xlink:href="#ArialMT-30"/>
       <use xlink:href="#ArialMT-2e" x="55.615234"/>
       <use xlink:href="#ArialMT-35" x="83.398438"/>
      </g>
     </g>
    </g>
    <g id="xtick_3">
     <g id="line2d_3">
      <g>
       <use xlink:href="#m1073725cc3" x="191.046875" y="238.786275" style="stroke: #000000; stroke-width: 0.5"/>
      </g>
     </g>
     <g id="text_3">
      <!-- 1.0 -->
      <g transform="translate(184.930875 253.38515) scale(0.088 -0.088)">
       <defs>
        <path id="ArialMT-31" d="M 2384 0 
L 1822 0 
L 1822 3584 
Q 1619 3391 1289 3197 
Q 959 3003 697 2906 
L 697 3450 
Q 1169 3672 1522 3987 
Q 1875 4303 2022 4600 
L 2384 4600 
L 2384 0 
z
" transform="scale(0.015625)"/>
       </defs>
       <use xlink:href="#ArialMT-31"/>
       <use xlink:href="#ArialMT-2e" x="55.615234"/>
       <use xlink:href="#ArialMT-30" x="83.398438"/>
      </g>
     </g>
    </g>
    <g id="text_4">
     <!-- Normalized Count -->
     <g transform="translate(105.918516 265.576181) scale(0.09 -0.09)">
      <defs>
       <path id="ArialMT-4e" d="M 488 0 
L 488 4581 
L 1109 4581 
L 3516 984 
L 3516 4581 
L 4097 4581 
L 4097 0 
L 3475 0 
L 1069 3600 
L 1069 0 
L 488 0 
z
" transform="scale(0.015625)"/>
       <path id="ArialMT-6f" d="M 213 1659 
Q 213 2581 725 3025 
Q 1153 3394 1769 3394 
Q 2453 3394 2887 2945 
Q 3322 2497 3322 1706 
Q 3322 1066 3130 698 
Q 2938 331 2570 128 
Q 2203 -75 1769 -75 
Q 1072 -75 642 372 
Q 213 819 213 1659 
z
M 791 1659 
Q 791 1022 1069 705 
Q 1347 388 1769 388 
Q 2188 388 2466 706 
Q 2744 1025 2744 1678 
Q 2744 2294 2464 2611 
Q 2184 2928 1769 2928 
Q 1347 2928 1069 2612 
Q 791 2297 791 1659 
z
" transform="scale(0.015625)"/>
       <path id="ArialMT-72" d="M 416 0 
L 416 3319 
L 922 3319 
L 922 2816 
Q 1116 3169 1280 3281 
Q 1444 3394 1641 3394 
Q 1925 3394 2219 3213 
L 2025 2691 
Q 1819 2813 1613 2813 
Q 1428 2813 1281 2702 
Q 1134 2591 1072 2394 
Q 978 2094 978 1738 
L 978 0 
L 416 0 
z
" transform="scale(0.015625)"/>
       <path id="ArialMT-6d" d="M 422 0 
L 422 3319 
L 925 3319 
L 925 2853 
Q 1081 3097 1340 3245 
Q 1600 3394 1931 3394 
Q 2300 3394 2536 3241 
Q 2772 3088 2869 2813 
Q 3263 3394 3894 3394 
Q 4388 3394 4653 3120 
Q 4919 2847 4919 2278 
L 4919 0 
L 4359 0 
L 4359 2091 
Q 4359 2428 4304 2576 
Q 4250 2725 4106 2815 
Q 3963 2906 3769 2906 
Q 3419 2906 3187 2673 
Q 2956 2441 2956 1928 
L 2956 0 
L 2394 0 
L 2394 2156 
Q 2394 2531 2256 2718 
Q 2119 2906 1806 2906 
Q 1569 2906 1367 2781 
Q 1166 2656 1075 2415 
Q 984 2175 984 1722 
L 984 0 
L 422 0 
z
" transform="scale(0.015625)"/>
       <path id="ArialMT-61" d="M 2588 409 
Q 2275 144 1986 34 
Q 1697 -75 1366 -75 
Q 819 -75 525 192 
Q 231 459 231 875 
Q 231 1119 342 1320 
Q 453 1522 633 1644 
Q 813 1766 1038 1828 
Q 1203 1872 1538 1913 
Q 2219 1994 2541 2106 
Q 2544 2222 2544 2253 
Q 2544 2597 2384 2738 
Q 2169 2928 1744 2928 
Q 1347 2928 1158 2789 
Q 969 2650 878 2297 
L 328 2372 
Q 403 2725 575 2942 
Q 747 3159 1072 3276 
Q 1397 3394 1825 3394 
Q 2250 3394 2515 3294 
Q 2781 3194 2906 3042 
Q 3031 2891 3081 2659 
Q 3109 2516 3109 2141 
L 3109 1391 
Q 3109 606 3145 398 
Q 3181 191 3288 0 
L 2700 0 
Q 2613 175 2588 409 
z
M 2541 1666 
Q 2234 1541 1622 1453 
Q 1275 1403 1131 1340 
Q 988 1278 909 1158 
Q 831 1038 831 891 
Q 831 666 1001 516 
Q 1172 366 1500 366 
Q 1825 366 2078 508 
Q 2331 650 2450 897 
Q 2541 1088 2541 1459 
L 2541 1666 
z
" transform="scale(0.015625)"/>
       <path id="ArialMT-6c" d="M 409 0 
L 409 4581 
L 972 4581 
L 972 0 
L 409 0 
z
" transform="scale(0.015625)"/>
       <path id="ArialMT-69" d="M 425 3934 
L 425 4581 
L 988 4581 
L 988 3934 
L 425 3934 
z
M 425 0 
L 425 3319 
L 988 3319 
L 988 0 
L 425 0 
z
" transform="scale(0.015625)"/>
       <path id="ArialMT-7a" d="M 125 0 
L 125 456 
L 2238 2881 
Q 1878 2863 1603 2863 
L 250 2863 
L 250 3319 
L 2963 3319 
L 2963 2947 
L 1166 841 
L 819 456 
Q 1197 484 1528 484 
L 3063 484 
L 3063 0 
L 125 0 
z
" transform="scale(0.015625)"/>
       <path id="ArialMT-65" d="M 2694 1069 
L 3275 997 
Q 3138 488 2766 206 
Q 2394 -75 1816 -75 
Q 1088 -75 661 373 
Q 234 822 234 1631 
Q 234 2469 665 2931 
Q 1097 3394 1784 3394 
Q 2450 3394 2872 2941 
Q 3294 2488 3294 1666 
Q 3294 1616 3291 1516 
L 816 1516 
Q 847 969 1125 678 
Q 1403 388 1819 388 
Q 2128 388 2347 550 
Q 2566 713 2694 1069 
z
M 847 1978 
L 2700 1978 
Q 2663 2397 2488 2606 
Q 2219 2931 1791 2931 
Q 1403 2931 1139 2672 
Q 875 2413 847 1978 
z
" transform="scale(0.015625)"/>
       <path id="ArialMT-64" d="M 2575 0 
L 2575 419 
Q 2259 -75 1647 -75 
Q 1250 -75 917 144 
Q 584 363 401 755 
Q 219 1147 219 1656 
Q 219 2153 384 2558 
Q 550 2963 881 3178 
Q 1213 3394 1622 3394 
Q 1922 3394 2156 3267 
Q 2391 3141 2538 2938 
L 2538 4581 
L 3097 4581 
L 3097 0 
L 2575 0 
z
M 797 1656 
Q 797 1019 1065 703 
Q 1334 388 1700 388 
Q 2069 388 2326 689 
Q 2584 991 2584 1609 
Q 2584 2291 2321 2609 
Q 2059 2928 1675 2928 
Q 1300 2928 1048 2622 
Q 797 2316 797 1656 
z
" transform="scale(0.015625)"/>
       <path id="ArialMT-20" transform="scale(0.015625)"/>
       <path id="ArialMT-43" d="M 3763 1606 
L 4369 1453 
Q 4178 706 3683 314 
Q 3188 -78 2472 -78 
Q 1731 -78 1267 223 
Q 803 525 561 1097 
Q 319 1669 319 2325 
Q 319 3041 592 3573 
Q 866 4106 1370 4382 
Q 1875 4659 2481 4659 
Q 3169 4659 3637 4309 
Q 4106 3959 4291 3325 
L 3694 3184 
Q 3534 3684 3231 3912 
Q 2928 4141 2469 4141 
Q 1941 4141 1586 3887 
Q 1231 3634 1087 3207 
Q 944 2781 944 2328 
Q 944 1744 1114 1308 
Q 1284 872 1643 656 
Q 2003 441 2422 441 
Q 2931 441 3284 734 
Q 3638 1028 3763 1606 
z
" transform="scale(0.015625)"/>
       <path id="ArialMT-75" d="M 2597 0 
L 2597 488 
Q 2209 -75 1544 -75 
Q 1250 -75 995 37 
Q 741 150 617 320 
Q 494 491 444 738 
Q 409 903 409 1263 
L 409 3319 
L 972 3319 
L 972 1478 
Q 972 1038 1006 884 
Q 1059 663 1231 536 
Q 1403 409 1656 409 
Q 1909 409 2131 539 
Q 2353 669 2445 892 
Q 2538 1116 2538 1541 
L 2538 3319 
L 3100 3319 
L 3100 0 
L 2597 0 
z
" transform="scale(0.015625)"/>
       <path id="ArialMT-6e" d="M 422 0 
L 422 3319 
L 928 3319 
L 928 2847 
Q 1294 3394 1984 3394 
Q 2284 3394 2536 3286 
Q 2788 3178 2913 3003 
Q 3038 2828 3088 2588 
Q 3119 2431 3119 2041 
L 3119 0 
L 2556 0 
L 2556 2019 
Q 2556 2363 2490 2533 
Q 2425 2703 2258 2804 
Q 2091 2906 1866 2906 
Q 1506 2906 1245 2678 
Q 984 2450 984 1813 
L 984 0 
L 422 0 
z
" transform="scale(0.015625)"/>
       <path id="ArialMT-74" d="M 1650 503 
L 1731 6 
Q 1494 -44 1306 -44 
Q 1000 -44 831 53 
Q 663 150 594 308 
Q 525 466 525 972 
L 525 2881 
L 113 2881 
L 113 3319 
L 525 3319 
L 525 4141 
L 1084 4478 
L 1084 3319 
L 1650 3319 
L 1650 2881 
L 1084 2881 
L 1084 941 
Q 1084 700 1114 631 
Q 1144 563 1211 522 
Q 1278 481 1403 481 
Q 1497 481 1650 503 
z
" transform="scale(0.015625)"/>
      </defs>
      <use xlink:href="#ArialMT-4e"/>
      <use xlink:href="#ArialMT-6f" x="72.216797"/>
      <use xlink:href="#ArialMT-72" x="127.832031"/>
      <use xlink:href="#ArialMT-6d" x="161.132812"/>
      <use xlink:href="#ArialMT-61" x="244.433594"/>
      <use xlink:href="#ArialMT-6c" x="300.048828"/>
      <use xlink:href="#ArialMT-69" x="322.265625"/>
      <use xlink:href="#ArialMT-7a" x="344.482422"/>
      <use xlink:href="#ArialMT-65" x="394.482422"/>
      <use xlink:href="#ArialMT-64" x="450.097656"/>
      <use xlink:href="#ArialMT-20" x="505.712891"/>
      <use xlink:href="#ArialMT-43" x="533.496094"/>
      <use xlink:href="#ArialMT-6f" x="605.712891"/>
      <use xlink:href="#ArialMT-75" x="661.328125"/>
      <use xlink:href="#ArialMT-6e" x="716.943359"/>
      <use xlink:href="#ArialMT-74" x="772.558594"/>
     </g>
    </g>
   </g>
   <g id="matplotlib.axis_2">
    <g id="ytick_1">
     <g id="line2d_4">
      <defs>
       <path id="mcea5d70213" d="M 0 0 
L -4.8 0 
" style="stroke: #000000; stroke-width: 0.5"/>
      </defs>
      <g>
       <use xlink:href="#mcea5d70213" x="87.646875" y="233.752846" style="stroke: #000000; stroke-width: 0.5"/>
      </g>
     </g>
     <g id="text_5">
      <!-- Alphaflexiviridae -->
      <g transform="translate(15.2705 236.955909) scale(0.088 -0.088)">
       <defs>
        <path id="ArialMT-41" d="M -9 0 
L 1750 4581 
L 2403 4581 
L 4278 0 
L 3588 0 
L 3053 1388 
L 1138 1388 
L 634 0 
L -9 0 
z
M 1313 1881 
L 2866 1881 
L 2388 3150 
Q 2169 3728 2063 4100 
Q 1975 3659 1816 3225 
L 1313 1881 
z
" transform="scale(0.015625)"/>
        <path id="ArialMT-70" d="M 422 -1272 
L 422 3319 
L 934 3319 
L 934 2888 
Q 1116 3141 1344 3267 
Q 1572 3394 1897 3394 
Q 2322 3394 2647 3175 
Q 2972 2956 3137 2557 
Q 3303 2159 3303 1684 
Q 3303 1175 3120 767 
Q 2938 359 2589 142 
Q 2241 -75 1856 -75 
Q 1575 -75 1351 44 
Q 1128 163 984 344 
L 984 -1272 
L 422 -1272 
z
M 931 1641 
Q 931 1000 1190 694 
Q 1450 388 1819 388 
Q 2194 388 2461 705 
Q 2728 1022 2728 1688 
Q 2728 2322 2467 2637 
Q 2206 2953 1844 2953 
Q 1484 2953 1207 2617 
Q 931 2281 931 1641 
z
" transform="scale(0.015625)"/>
        <path id="ArialMT-68" d="M 422 0 
L 422 4581 
L 984 4581 
L 984 2938 
Q 1378 3394 1978 3394 
Q 2347 3394 2619 3248 
Q 2891 3103 3008 2847 
Q 3125 2591 3125 2103 
L 3125 0 
L 2563 0 
L 2563 2103 
Q 2563 2525 2380 2717 
Q 2197 2909 1863 2909 
Q 1613 2909 1392 2779 
Q 1172 2650 1078 2428 
Q 984 2206 984 1816 
L 984 0 
L 422 0 
z
" transform="scale(0.015625)"/>
        <path id="ArialMT-66" d="M 556 0 
L 556 2881 
L 59 2881 
L 59 3319 
L 556 3319 
L 556 3672 
Q 556 4006 616 4169 
Q 697 4388 901 4523 
Q 1106 4659 1475 4659 
Q 1713 4659 2000 4603 
L 1916 4113 
Q 1741 4144 1584 4144 
Q 1328 4144 1222 4034 
Q 1116 3925 1116 3625 
L 1116 3319 
L 1763 3319 
L 1763 2881 
L 1116 2881 
L 1116 0 
L 556 0 
z
" transform="scale(0.015625)"/>
        <path id="ArialMT-78" d="M 47 0 
L 1259 1725 
L 138 3319 
L 841 3319 
L 1350 2541 
Q 1494 2319 1581 2169 
Q 1719 2375 1834 2534 
L 2394 3319 
L 3066 3319 
L 1919 1756 
L 3153 0 
L 2463 0 
L 1781 1031 
L 1600 1309 
L 728 0 
L 47 0 
z
" transform="scale(0.015625)"/>
        <path id="ArialMT-76" d="M 1344 0 
L 81 3319 
L 675 3319 
L 1388 1331 
Q 1503 1009 1600 663 
Q 1675 925 1809 1294 
L 2547 3319 
L 3125 3319 
L 1869 0 
L 1344 0 
z
" transform="scale(0.015625)"/>
       </defs>
       <use xlink:href="#ArialMT-41"/>
       <use xlink:href="#ArialMT-6c" x="66.699219"/>
       <use xlink:href="#ArialMT-70" x="88.916016"/>
       <use xlink:href="#ArialMT-68" x="144.53125"/>
       <use xlink:href="#ArialMT-61" x="200.146484"/>
       <use xlink:href="#ArialMT-66" x="255.761719"/>
       <use xlink:href="#ArialMT-6c" x="283.544922"/>
       <use xlink:href="#ArialMT-65" x="305.761719"/>
       <use xlink:href="#ArialMT-78" x="361.376953"/>
       <use xlink:href="#ArialMT-69" x="411.376953"/>
       <use xlink:href="#ArialMT-76" x="433.59375"/>
       <use xlink:href="#ArialMT-69" x="483.59375"/>
       <use xlink:href="#ArialMT-72" x="505.810547"/>
       <use xlink:href="#ArialMT-69" x="539.111328"/>
       <use xlink:href="#ArialMT-64" x="561.328125"/>
       <use xlink:href="#ArialMT-61" x="616.943359"/>
       <use xlink:href="#ArialMT-65" x="672.558594"/>
      </g>
     </g>
    </g>
    <g id="ytick_2">
     <g id="line2d_5">
      <g>
       <use xlink:href="#mcea5d70213" x="87.646875" y="223.685989" style="stroke: #000000; stroke-width: 0.5"/>
      </g>
     </g>
     <g id="text_6">
      <!-- Alphasatellitidae -->
      <g transform="translate(15.26225 226.835427) scale(0.088 -0.088)">
       <defs>
        <path id="ArialMT-73" d="M 197 991 
L 753 1078 
Q 800 744 1014 566 
Q 1228 388 1613 388 
Q 2000 388 2187 545 
Q 2375 703 2375 916 
Q 2375 1106 2209 1216 
Q 2094 1291 1634 1406 
Q 1016 1563 777 1677 
Q 538 1791 414 1992 
Q 291 2194 291 2438 
Q 291 2659 392 2848 
Q 494 3038 669 3163 
Q 800 3259 1026 3326 
Q 1253 3394 1513 3394 
Q 1903 3394 2198 3281 
Q 2494 3169 2634 2976 
Q 2775 2784 2828 2463 
L 2278 2388 
Q 2241 2644 2061 2787 
Q 1881 2931 1553 2931 
Q 1166 2931 1000 2803 
Q 834 2675 834 2503 
Q 834 2394 903 2306 
Q 972 2216 1119 2156 
Q 1203 2125 1616 2013 
Q 2213 1853 2448 1751 
Q 2684 1650 2818 1456 
Q 2953 1263 2953 975 
Q 2953 694 2789 445 
Q 2625 197 2315 61 
Q 2006 -75 1616 -75 
Q 969 -75 630 194 
Q 291 463 197 991 
z
" transform="scale(0.015625)"/>
       </defs>
       <use xlink:href="#ArialMT-41"/>
       <use xlink:href="#ArialMT-6c" x="66.699219"/>
       <use xlink:href="#ArialMT-70" x="88.916016"/>
       <use xlink:href="#ArialMT-68" x="144.53125"/>
       <use xlink:href="#ArialMT-61" x="200.146484"/>
       <use xlink:href="#ArialMT-73" x="255.761719"/>
       <use xlink:href="#ArialMT-61" x="305.761719"/>
       <use xlink:href="#ArialMT-74" x="361.376953"/>
       <use xlink:href="#ArialMT-65" x="389.160156"/>
       <use xlink:href="#ArialMT-6c" x="444.775391"/>
       <use xlink:href="#ArialMT-6c" x="466.992188"/>
       <use xlink:href="#ArialMT-69" x="489.208984"/>
       <use xlink:href="#ArialMT-74" x="511.425781"/>
       <use xlink:href="#ArialMT-69" x="539.208984"/>
       <use xlink:href="#ArialMT-64" x="561.425781"/>
       <use xlink:href="#ArialMT-61" x="617.041016"/>
       <use xlink:href="#ArialMT-65" x="672.65625"/>
      </g>
     </g>
    </g>
    <g id="ytick_3">
     <g id="line2d_6">
      <g>
       <use xlink:href="#mcea5d70213" x="87.646875" y="213.619132" style="stroke: #000000; stroke-width: 0.5"/>
      </g>
     </g>
     <g id="text_7">
      <!-- Amesuviridae -->
      <g transform="translate(26.038125 216.76857) scale(0.088 -0.088)">
       <use xlink:href="#ArialMT-41"/>
       <use xlink:href="#ArialMT-6d" x="66.699219"/>
       <use xlink:href="#ArialMT-65" x="150"/>
       <use xlink:href="#ArialMT-73" x="205.615234"/>
       <use xlink:href="#ArialMT-75" x="255.615234"/>
       <use xlink:href="#ArialMT-76" x="311.230469"/>
       <use xlink:href="#ArialMT-69" x="361.230469"/>
       <use xlink:href="#ArialMT-72" x="383.447266"/>
       <use xlink:href="#ArialMT-69" x="416.748047"/>
       <use xlink:href="#ArialMT-64" x="438.964844"/>
       <use xlink:href="#ArialMT-61" x="494.580078"/>
       <use xlink:href="#ArialMT-65" x="550.195312"/>
      </g>
     </g>
    </g>
    <g id="ytick_4">
     <g id="line2d_7">
      <g>
       <use xlink:href="#mcea5d70213" x="87.646875" y="203.552275" style="stroke: #000000; stroke-width: 0.5"/>
      </g>
     </g>
     <g id="text_8">
      <!-- Betaflexiviridae -->
      <g transform="translate(19.674625 206.701712) scale(0.088 -0.088)">
       <defs>
        <path id="ArialMT-42" d="M 469 0 
L 469 4581 
L 2188 4581 
Q 2713 4581 3030 4442 
Q 3347 4303 3526 4014 
Q 3706 3725 3706 3409 
Q 3706 3116 3547 2856 
Q 3388 2597 3066 2438 
Q 3481 2316 3704 2022 
Q 3928 1728 3928 1328 
Q 3928 1006 3792 729 
Q 3656 453 3456 303 
Q 3256 153 2954 76 
Q 2653 0 2216 0 
L 469 0 
z
M 1075 2656 
L 2066 2656 
Q 2469 2656 2644 2709 
Q 2875 2778 2992 2937 
Q 3109 3097 3109 3338 
Q 3109 3566 3000 3739 
Q 2891 3913 2687 3977 
Q 2484 4041 1991 4041 
L 1075 4041 
L 1075 2656 
z
M 1075 541 
L 2216 541 
Q 2509 541 2628 563 
Q 2838 600 2978 687 
Q 3119 775 3209 942 
Q 3300 1109 3300 1328 
Q 3300 1584 3169 1773 
Q 3038 1963 2805 2039 
Q 2572 2116 2134 2116 
L 1075 2116 
L 1075 541 
z
" transform="scale(0.015625)"/>
       </defs>
       <use xlink:href="#ArialMT-42"/>
       <use xlink:href="#ArialMT-65" x="66.699219"/>
       <use xlink:href="#ArialMT-74" x="122.314453"/>
       <use xlink:href="#ArialMT-61" x="150.097656"/>
       <use xlink:href="#ArialMT-66" x="205.712891"/>
       <use xlink:href="#ArialMT-6c" x="233.496094"/>
       <use xlink:href="#ArialMT-65" x="255.712891"/>
       <use xlink:href="#ArialMT-78" x="311.328125"/>
       <use xlink:href="#ArialMT-69" x="361.328125"/>
       <use xlink:href="#ArialMT-76" x="383.544922"/>
       <use xlink:href="#ArialMT-69" x="433.544922"/>
       <use xlink:href="#ArialMT-72" x="455.761719"/>
       <use xlink:href="#ArialMT-69" x="489.0625"/>
       <use xlink:href="#ArialMT-64" x="511.279297"/>
       <use xlink:href="#ArialMT-61" x="566.894531"/>
       <use xlink:href="#ArialMT-65" x="622.509766"/>
      </g>
     </g>
    </g>
    <g id="ytick_5">
     <g id="line2d_8">
      <g>
       <use xlink:href="#mcea5d70213" x="87.646875" y="193.485418" style="stroke: #000000; stroke-width: 0.5"/>
      </g>
     </g>
     <g id="text_9">
      <!-- Caulimoviridae -->
      <g transform="translate(21.148625 196.634855) scale(0.088 -0.088)">
       <use xlink:href="#ArialMT-43"/>
       <use xlink:href="#ArialMT-61" x="72.216797"/>
       <use xlink:href="#ArialMT-75" x="127.832031"/>
       <use xlink:href="#ArialMT-6c" x="183.447266"/>
       <use xlink:href="#ArialMT-69" x="205.664062"/>
       <use xlink:href="#ArialMT-6d" x="227.880859"/>
       <use xlink:href="#ArialMT-6f" x="311.181641"/>
       <use xlink:href="#ArialMT-76" x="366.796875"/>
       <use xlink:href="#ArialMT-69" x="416.796875"/>
       <use xlink:href="#ArialMT-72" x="439.013672"/>
       <use xlink:href="#ArialMT-69" x="472.314453"/>
       <use xlink:href="#ArialMT-64" x="494.53125"/>
       <use xlink:href="#ArialMT-61" x="550.146484"/>
       <use xlink:href="#ArialMT-65" x="605.761719"/>
      </g>
     </g>
    </g>
    <g id="ytick_6">
     <g id="line2d_9">
      <g>
       <use xlink:href="#mcea5d70213" x="87.646875" y="183.418561" style="stroke: #000000; stroke-width: 0.5"/>
      </g>
     </g>
     <g id="text_10">
      <!-- Closteroviridae -->
      <g transform="translate(20.659125 186.567998) scale(0.088 -0.088)">
       <use xlink:href="#ArialMT-43"/>
       <use xlink:href="#ArialMT-6c" x="72.216797"/>
       <use xlink:href="#ArialMT-6f" x="94.433594"/>
       <use xlink:href="#ArialMT-73" x="150.048828"/>
       <use xlink:href="#ArialMT-74" x="200.048828"/>
       <use xlink:href="#ArialMT-65" x="227.832031"/>
       <use xlink:href="#ArialMT-72" x="283.447266"/>
       <use xlink:href="#ArialMT-6f" x="316.748047"/>
       <use xlink:href="#ArialMT-76" x="372.363281"/>
       <use xlink:href="#ArialMT-69" x="422.363281"/>
       <use xlink:href="#ArialMT-72" x="444.580078"/>
       <use xlink:href="#ArialMT-69" x="477.880859"/>
       <use xlink:href="#ArialMT-64" x="500.097656"/>
       <use xlink:href="#ArialMT-61" x="555.712891"/>
       <use xlink:href="#ArialMT-65" x="611.328125"/>
      </g>
     </g>
    </g>
    <g id="ytick_7">
     <g id="line2d_10">
      <g>
       <use xlink:href="#mcea5d70213" x="87.646875" y="173.351704" style="stroke: #000000; stroke-width: 0.5"/>
      </g>
     </g>
     <g id="text_11">
      <!-- Deltaflexiviridae -->
      <g transform="translate(17.234 176.501141) scale(0.088 -0.088)">
       <defs>
        <path id="ArialMT-44" d="M 494 0 
L 494 4581 
L 2072 4581 
Q 2606 4581 2888 4516 
Q 3281 4425 3559 4188 
Q 3922 3881 4101 3404 
Q 4281 2928 4281 2316 
Q 4281 1794 4159 1391 
Q 4038 988 3847 723 
Q 3656 459 3429 307 
Q 3203 156 2883 78 
Q 2563 0 2147 0 
L 494 0 
z
M 1100 541 
L 2078 541 
Q 2531 541 2789 625 
Q 3047 709 3200 863 
Q 3416 1078 3536 1442 
Q 3656 1806 3656 2325 
Q 3656 3044 3420 3430 
Q 3184 3816 2847 3947 
Q 2603 4041 2063 4041 
L 1100 4041 
L 1100 541 
z
" transform="scale(0.015625)"/>
       </defs>
       <use xlink:href="#ArialMT-44"/>
       <use xlink:href="#ArialMT-65" x="72.216797"/>
       <use xlink:href="#ArialMT-6c" x="127.832031"/>
       <use xlink:href="#ArialMT-74" x="150.048828"/>
       <use xlink:href="#ArialMT-61" x="177.832031"/>
       <use xlink:href="#ArialMT-66" x="233.447266"/>
       <use xlink:href="#ArialMT-6c" x="261.230469"/>
       <use xlink:href="#ArialMT-65" x="283.447266"/>
       <use xlink:href="#ArialMT-78" x="339.0625"/>
       <use xlink:href="#ArialMT-69" x="389.0625"/>
       <use xlink:href="#ArialMT-76" x="411.279297"/>
       <use xlink:href="#ArialMT-69" x="461.279297"/>
       <use xlink:href="#ArialMT-72" x="483.496094"/>
       <use xlink:href="#ArialMT-69" x="516.796875"/>
       <use xlink:href="#ArialMT-64" x="539.013672"/>
       <use xlink:href="#ArialMT-61" x="594.628906"/>
       <use xlink:href="#ArialMT-65" x="650.244141"/>
      </g>
     </g>
    </g>
    <g id="ytick_8">
     <g id="line2d_11">
      <g>
       <use xlink:href="#mcea5d70213" x="87.646875" y="163.284846" style="stroke: #000000; stroke-width: 0.5"/>
      </g>
     </g>
     <g id="text_12">
      <!-- Endornaviridae -->
      <g transform="translate(20.15725 166.434284) scale(0.088 -0.088)">
       <defs>
        <path id="ArialMT-45" d="M 506 0 
L 506 4581 
L 3819 4581 
L 3819 4041 
L 1113 4041 
L 1113 2638 
L 3647 2638 
L 3647 2100 
L 1113 2100 
L 1113 541 
L 3925 541 
L 3925 0 
L 506 0 
z
" transform="scale(0.015625)"/>
       </defs>
       <use xlink:href="#ArialMT-45"/>
       <use xlink:href="#ArialMT-6e" x="66.699219"/>
       <use xlink:href="#ArialMT-64" x="122.314453"/>
       <use xlink:href="#ArialMT-6f" x="177.929688"/>
       <use xlink:href="#ArialMT-72" x="233.544922"/>
       <use xlink:href="#ArialMT-6e" x="266.845703"/>
       <use xlink:href="#ArialMT-61" x="322.460938"/>
       <use xlink:href="#ArialMT-76" x="378.076172"/>
       <use xlink:href="#ArialMT-69" x="428.076172"/>
       <use xlink:href="#ArialMT-72" x="450.292969"/>
       <use xlink:href="#ArialMT-69" x="483.59375"/>
       <use xlink:href="#ArialMT-64" x="505.810547"/>
       <use xlink:href="#ArialMT-61" x="561.425781"/>
       <use xlink:href="#ArialMT-65" x="617.041016"/>
      </g>
     </g>
    </g>
    <g id="ytick_9">
     <g id="line2d_12">
      <g>
       <use xlink:href="#mcea5d70213" x="87.646875" y="153.217989" style="stroke: #000000; stroke-width: 0.5"/>
      </g>
     </g>
     <g id="text_13">
      <!-- Geminiviridae -->
      <g transform="translate(25.55275 156.367427) scale(0.088 -0.088)">
       <defs>
        <path id="ArialMT-47" d="M 2638 1797 
L 2638 2334 
L 4578 2338 
L 4578 638 
Q 4131 281 3656 101 
Q 3181 -78 2681 -78 
Q 2006 -78 1454 211 
Q 903 500 622 1047 
Q 341 1594 341 2269 
Q 341 2938 620 3517 
Q 900 4097 1425 4378 
Q 1950 4659 2634 4659 
Q 3131 4659 3532 4498 
Q 3934 4338 4162 4050 
Q 4391 3763 4509 3300 
L 3963 3150 
Q 3859 3500 3706 3700 
Q 3553 3900 3268 4020 
Q 2984 4141 2638 4141 
Q 2222 4141 1919 4014 
Q 1616 3888 1430 3681 
Q 1244 3475 1141 3228 
Q 966 2803 966 2306 
Q 966 1694 1177 1281 
Q 1388 869 1791 669 
Q 2194 469 2647 469 
Q 3041 469 3416 620 
Q 3791 772 3984 944 
L 3984 1797 
L 2638 1797 
z
" transform="scale(0.015625)"/>
       </defs>
       <use xlink:href="#ArialMT-47"/>
       <use xlink:href="#ArialMT-65" x="77.783203"/>
       <use xlink:href="#ArialMT-6d" x="133.398438"/>
       <use xlink:href="#ArialMT-69" x="216.699219"/>
       <use xlink:href="#ArialMT-6e" x="238.916016"/>
       <use xlink:href="#ArialMT-69" x="294.53125"/>
       <use xlink:href="#ArialMT-76" x="316.748047"/>
       <use xlink:href="#ArialMT-69" x="366.748047"/>
       <use xlink:href="#ArialMT-72" x="388.964844"/>
       <use xlink:href="#ArialMT-69" x="422.265625"/>
       <use xlink:href="#ArialMT-64" x="444.482422"/>
       <use xlink:href="#ArialMT-61" x="500.097656"/>
       <use xlink:href="#ArialMT-65" x="555.712891"/>
      </g>
     </g>
    </g>
    <g id="ytick_10">
     <g id="line2d_13">
      <g>
       <use xlink:href="#mcea5d70213" x="87.646875" y="143.151132" style="stroke: #000000; stroke-width: 0.5"/>
      </g>
     </g>
     <g id="text_14">
      <!-- Genomoviridae -->
      <g transform="translate(19.676 146.30057) scale(0.088 -0.088)">
       <use xlink:href="#ArialMT-47"/>
       <use xlink:href="#ArialMT-65" x="77.783203"/>
       <use xlink:href="#ArialMT-6e" x="133.398438"/>
       <use xlink:href="#ArialMT-6f" x="189.013672"/>
       <use xlink:href="#ArialMT-6d" x="244.628906"/>
       <use xlink:href="#ArialMT-6f" x="327.929688"/>
       <use xlink:href="#ArialMT-76" x="383.544922"/>
       <use xlink:href="#ArialMT-69" x="433.544922"/>
       <use xlink:href="#ArialMT-72" x="455.761719"/>
       <use xlink:href="#ArialMT-69" x="489.0625"/>
       <use xlink:href="#ArialMT-64" x="511.279297"/>
       <use xlink:href="#ArialMT-61" x="566.894531"/>
       <use xlink:href="#ArialMT-65" x="622.509766"/>
      </g>
     </g>
    </g>
    <g id="ytick_11">
     <g id="line2d_14">
      <g>
       <use xlink:href="#mcea5d70213" x="87.646875" y="133.084275" style="stroke: #000000; stroke-width: 0.5"/>
      </g>
     </g>
     <g id="text_15">
      <!-- Incertae sedis -->
      <g transform="translate(24.5655 136.233712) scale(0.088 -0.088)">
       <defs>
        <path id="ArialMT-49" d="M 597 0 
L 597 4581 
L 1203 4581 
L 1203 0 
L 597 0 
z
" transform="scale(0.015625)"/>
        <path id="ArialMT-63" d="M 2588 1216 
L 3141 1144 
Q 3050 572 2676 248 
Q 2303 -75 1759 -75 
Q 1078 -75 664 370 
Q 250 816 250 1647 
Q 250 2184 428 2587 
Q 606 2991 970 3192 
Q 1334 3394 1763 3394 
Q 2303 3394 2647 3120 
Q 2991 2847 3088 2344 
L 2541 2259 
Q 2463 2594 2264 2762 
Q 2066 2931 1784 2931 
Q 1359 2931 1093 2626 
Q 828 2322 828 1663 
Q 828 994 1084 691 
Q 1341 388 1753 388 
Q 2084 388 2306 591 
Q 2528 794 2588 1216 
z
" transform="scale(0.015625)"/>
       </defs>
       <use xlink:href="#ArialMT-49"/>
       <use xlink:href="#ArialMT-6e" x="27.783203"/>
       <use xlink:href="#ArialMT-63" x="83.398438"/>
       <use xlink:href="#ArialMT-65" x="133.398438"/>
       <use xlink:href="#ArialMT-72" x="189.013672"/>
       <use xlink:href="#ArialMT-74" x="222.314453"/>
       <use xlink:href="#ArialMT-61" x="250.097656"/>
       <use xlink:href="#ArialMT-65" x="305.712891"/>
       <use xlink:href="#ArialMT-20" x="361.328125"/>
       <use xlink:href="#ArialMT-73" x="389.111328"/>
       <use xlink:href="#ArialMT-65" x="439.111328"/>
       <use xlink:href="#ArialMT-64" x="494.726562"/>
       <use xlink:href="#ArialMT-69" x="550.341797"/>
       <use xlink:href="#ArialMT-73" x="572.558594"/>
      </g>
     </g>
    </g>
    <g id="ytick_12">
     <g id="line2d_15">
      <g>
       <use xlink:href="#mcea5d70213" x="87.646875" y="123.017418" style="stroke: #000000; stroke-width: 0.5"/>
      </g>
     </g>
     <g id="text_16">
      <!-- Potyviridae -->
      <g transform="translate(35.817125 126.166855) scale(0.088 -0.088)">
       <defs>
        <path id="ArialMT-50" d="M 494 0 
L 494 4581 
L 2222 4581 
Q 2678 4581 2919 4538 
Q 3256 4481 3484 4323 
Q 3713 4166 3852 3881 
Q 3991 3597 3991 3256 
Q 3991 2672 3619 2267 
Q 3247 1863 2275 1863 
L 1100 1863 
L 1100 0 
L 494 0 
z
M 1100 2403 
L 2284 2403 
Q 2872 2403 3119 2622 
Q 3366 2841 3366 3238 
Q 3366 3525 3220 3729 
Q 3075 3934 2838 4000 
Q 2684 4041 2272 4041 
L 1100 4041 
L 1100 2403 
z
" transform="scale(0.015625)"/>
        <path id="ArialMT-79" d="M 397 -1278 
L 334 -750 
Q 519 -800 656 -800 
Q 844 -800 956 -737 
Q 1069 -675 1141 -563 
Q 1194 -478 1313 -144 
Q 1328 -97 1363 -6 
L 103 3319 
L 709 3319 
L 1400 1397 
Q 1534 1031 1641 628 
Q 1738 1016 1872 1384 
L 2581 3319 
L 3144 3319 
L 1881 -56 
Q 1678 -603 1566 -809 
Q 1416 -1088 1222 -1217 
Q 1028 -1347 759 -1347 
Q 597 -1347 397 -1278 
z
" transform="scale(0.015625)"/>
       </defs>
       <use xlink:href="#ArialMT-50"/>
       <use xlink:href="#ArialMT-6f" x="66.699219"/>
       <use xlink:href="#ArialMT-74" x="122.314453"/>
       <use xlink:href="#ArialMT-79" x="150.097656"/>
       <use xlink:href="#ArialMT-76" x="200.097656"/>
       <use xlink:href="#ArialMT-69" x="250.097656"/>
       <use xlink:href="#ArialMT-72" x="272.314453"/>
       <use xlink:href="#ArialMT-69" x="305.615234"/>
       <use xlink:href="#ArialMT-64" x="327.832031"/>
       <use xlink:href="#ArialMT-61" x="383.447266"/>
       <use xlink:href="#ArialMT-65" x="439.0625"/>
      </g>
     </g>
    </g>
    <g id="ytick_13">
     <g id="line2d_16">
      <g>
       <use xlink:href="#mcea5d70213" x="87.646875" y="112.950561" style="stroke: #000000; stroke-width: 0.5"/>
      </g>
     </g>
     <g id="text_17">
      <!-- Rhabdoviridae -->
      <g transform="translate(22.602 116.099998) scale(0.088 -0.088)">
       <defs>
        <path id="ArialMT-52" d="M 503 0 
L 503 4581 
L 2534 4581 
Q 3147 4581 3465 4457 
Q 3784 4334 3975 4021 
Q 4166 3709 4166 3331 
Q 4166 2844 3850 2509 
Q 3534 2175 2875 2084 
Q 3116 1969 3241 1856 
Q 3506 1613 3744 1247 
L 4541 0 
L 3778 0 
L 3172 953 
Q 2906 1366 2734 1584 
Q 2563 1803 2427 1890 
Q 2291 1978 2150 2013 
Q 2047 2034 1813 2034 
L 1109 2034 
L 1109 0 
L 503 0 
z
M 1109 2559 
L 2413 2559 
Q 2828 2559 3062 2645 
Q 3297 2731 3419 2920 
Q 3541 3109 3541 3331 
Q 3541 3656 3305 3865 
Q 3069 4075 2559 4075 
L 1109 4075 
L 1109 2559 
z
" transform="scale(0.015625)"/>
        <path id="ArialMT-62" d="M 941 0 
L 419 0 
L 419 4581 
L 981 4581 
L 981 2947 
Q 1338 3394 1891 3394 
Q 2197 3394 2470 3270 
Q 2744 3147 2920 2923 
Q 3097 2700 3197 2384 
Q 3297 2069 3297 1709 
Q 3297 856 2875 390 
Q 2453 -75 1863 -75 
Q 1275 -75 941 416 
L 941 0 
z
M 934 1684 
Q 934 1088 1097 822 
Q 1363 388 1816 388 
Q 2184 388 2453 708 
Q 2722 1028 2722 1663 
Q 2722 2313 2464 2622 
Q 2206 2931 1841 2931 
Q 1472 2931 1203 2611 
Q 934 2291 934 1684 
z
" transform="scale(0.015625)"/>
       </defs>
       <use xlink:href="#ArialMT-52"/>
       <use xlink:href="#ArialMT-68" x="72.216797"/>
       <use xlink:href="#ArialMT-61" x="127.832031"/>
       <use xlink:href="#ArialMT-62" x="183.447266"/>
       <use xlink:href="#ArialMT-64" x="239.0625"/>
       <use xlink:href="#ArialMT-6f" x="294.677734"/>
       <use xlink:href="#ArialMT-76" x="350.292969"/>
       <use xlink:href="#ArialMT-69" x="400.292969"/>
       <use xlink:href="#ArialMT-72" x="422.509766"/>
       <use xlink:href="#ArialMT-69" x="455.810547"/>
       <use xlink:href="#ArialMT-64" x="478.027344"/>
       <use xlink:href="#ArialMT-61" x="533.642578"/>
       <use xlink:href="#ArialMT-65" x="589.257812"/>
      </g>
     </g>
    </g>
    <g id="ytick_14">
     <g id="line2d_17">
      <g>
       <use xlink:href="#mcea5d70213" x="87.646875" y="102.883704" style="stroke: #000000; stroke-width: 0.5"/>
      </g>
     </g>
     <g id="text_18">
      <!-- Secoviridae -->
      <g transform="translate(33.36825 106.033141) scale(0.088 -0.088)">
       <defs>
        <path id="ArialMT-53" d="M 288 1472 
L 859 1522 
Q 900 1178 1048 958 
Q 1197 738 1509 602 
Q 1822 466 2213 466 
Q 2559 466 2825 569 
Q 3091 672 3220 851 
Q 3350 1031 3350 1244 
Q 3350 1459 3225 1620 
Q 3100 1781 2813 1891 
Q 2628 1963 1997 2114 
Q 1366 2266 1113 2400 
Q 784 2572 623 2826 
Q 463 3081 463 3397 
Q 463 3744 659 4045 
Q 856 4347 1234 4503 
Q 1613 4659 2075 4659 
Q 2584 4659 2973 4495 
Q 3363 4331 3572 4012 
Q 3781 3694 3797 3291 
L 3216 3247 
Q 3169 3681 2898 3903 
Q 2628 4125 2100 4125 
Q 1550 4125 1298 3923 
Q 1047 3722 1047 3438 
Q 1047 3191 1225 3031 
Q 1400 2872 2139 2705 
Q 2878 2538 3153 2413 
Q 3553 2228 3743 1945 
Q 3934 1663 3934 1294 
Q 3934 928 3725 604 
Q 3516 281 3123 101 
Q 2731 -78 2241 -78 
Q 1619 -78 1198 103 
Q 778 284 539 648 
Q 300 1013 288 1472 
z
" transform="scale(0.015625)"/>
       </defs>
       <use xlink:href="#ArialMT-53"/>
       <use xlink:href="#ArialMT-65" x="66.699219"/>
       <use xlink:href="#ArialMT-63" x="122.314453"/>
       <use xlink:href="#ArialMT-6f" x="172.314453"/>
       <use xlink:href="#ArialMT-76" x="227.929688"/>
       <use xlink:href="#ArialMT-69" x="277.929688"/>
       <use xlink:href="#ArialMT-72" x="300.146484"/>
       <use xlink:href="#ArialMT-69" x="333.447266"/>
       <use xlink:href="#ArialMT-64" x="355.664062"/>
       <use xlink:href="#ArialMT-61" x="411.279297"/>
       <use xlink:href="#ArialMT-65" x="466.894531"/>
      </g>
     </g>
    </g>
    <g id="ytick_15">
     <g id="line2d_18">
      <g>
       <use xlink:href="#mcea5d70213" x="87.646875" y="92.816846" style="stroke: #000000; stroke-width: 0.5"/>
      </g>
     </g>
     <g id="text_19">
      <!-- Solemoviridae -->
      <g transform="translate(23.58925 95.966284) scale(0.088 -0.088)">
       <use xlink:href="#ArialMT-53"/>
       <use xlink:href="#ArialMT-6f" x="66.699219"/>
       <use xlink:href="#ArialMT-6c" x="122.314453"/>
       <use xlink:href="#ArialMT-65" x="144.53125"/>
       <use xlink:href="#ArialMT-6d" x="200.146484"/>
       <use xlink:href="#ArialMT-6f" x="283.447266"/>
       <use xlink:href="#ArialMT-76" x="339.0625"/>
       <use xlink:href="#ArialMT-69" x="389.0625"/>
       <use xlink:href="#ArialMT-72" x="411.279297"/>
       <use xlink:href="#ArialMT-69" x="444.580078"/>
       <use xlink:href="#ArialMT-64" x="466.796875"/>
       <use xlink:href="#ArialMT-61" x="522.412109"/>
       <use xlink:href="#ArialMT-65" x="578.027344"/>
      </g>
     </g>
    </g>
    <g id="ytick_16">
     <g id="line2d_19">
      <g>
       <use xlink:href="#mcea5d70213" x="87.646875" y="82.749989" style="stroke: #000000; stroke-width: 0.5"/>
      </g>
     </g>
     <g id="text_20">
      <!-- Tolecusatellitidae -->
      <g transform="translate(12.33625 85.899427) scale(0.088 -0.088)">
       <defs>
        <path id="ArialMT-54" d="M 1659 0 
L 1659 4041 
L 150 4041 
L 150 4581 
L 3781 4581 
L 3781 4041 
L 2266 4041 
L 2266 0 
L 1659 0 
z
" transform="scale(0.015625)"/>
       </defs>
       <use xlink:href="#ArialMT-54"/>
       <use xlink:href="#ArialMT-6f" x="49.958984"/>
       <use xlink:href="#ArialMT-6c" x="105.574219"/>
       <use xlink:href="#ArialMT-65" x="127.791016"/>
       <use xlink:href="#ArialMT-63" x="183.40625"/>
       <use xlink:href="#ArialMT-75" x="233.40625"/>
       <use xlink:href="#ArialMT-73" x="289.021484"/>
       <use xlink:href="#ArialMT-61" x="339.021484"/>
       <use xlink:href="#ArialMT-74" x="394.636719"/>
       <use xlink:href="#ArialMT-65" x="422.419922"/>
       <use xlink:href="#ArialMT-6c" x="478.035156"/>
       <use xlink:href="#ArialMT-6c" x="500.251953"/>
       <use xlink:href="#ArialMT-69" x="522.46875"/>
       <use xlink:href="#ArialMT-74" x="544.685547"/>
       <use xlink:href="#ArialMT-69" x="572.46875"/>
       <use xlink:href="#ArialMT-64" x="594.685547"/>
       <use xlink:href="#ArialMT-61" x="650.300781"/>
       <use xlink:href="#ArialMT-65" x="705.916016"/>
      </g>
     </g>
    </g>
    <g id="ytick_17">
     <g id="line2d_20">
      <g>
       <use xlink:href="#mcea5d70213" x="87.646875" y="72.683132" style="stroke: #000000; stroke-width: 0.5"/>
      </g>
     </g>
     <g id="text_21">
      <!-- Tombusviridae -->
      <g transform="translate(22.6185 75.83257) scale(0.088 -0.088)">
       <use xlink:href="#ArialMT-54"/>
       <use xlink:href="#ArialMT-6f" x="49.958984"/>
       <use xlink:href="#ArialMT-6d" x="105.574219"/>
       <use xlink:href="#ArialMT-62" x="188.875"/>
       <use xlink:href="#ArialMT-75" x="244.490234"/>
       <use xlink:href="#ArialMT-73" x="300.105469"/>
       <use xlink:href="#ArialMT-76" x="350.105469"/>
       <use xlink:href="#ArialMT-69" x="400.105469"/>
       <use xlink:href="#ArialMT-72" x="422.322266"/>
       <use xlink:href="#ArialMT-69" x="455.623047"/>
       <use xlink:href="#ArialMT-64" x="477.839844"/>
       <use xlink:href="#ArialMT-61" x="533.455078"/>
       <use xlink:href="#ArialMT-65" x="589.070312"/>
      </g>
     </g>
    </g>
    <g id="ytick_18">
     <g id="line2d_21">
      <g>
       <use xlink:href="#mcea5d70213" x="87.646875" y="62.616275" style="stroke: #000000; stroke-width: 0.5"/>
      </g>
     </g>
     <g id="text_22">
      <!-- Tospoviridae -->
      <g transform="translate(29.948625 65.765713) scale(0.088 -0.088)">
       <use xlink:href="#ArialMT-54"/>
       <use xlink:href="#ArialMT-6f" x="49.958984"/>
       <use xlink:href="#ArialMT-73" x="105.574219"/>
       <use xlink:href="#ArialMT-70" x="155.574219"/>
       <use xlink:href="#ArialMT-6f" x="211.189453"/>
       <use xlink:href="#ArialMT-76" x="266.804688"/>
       <use xlink:href="#ArialMT-69" x="316.804688"/>
       <use xlink:href="#ArialMT-72" x="339.021484"/>
       <use xlink:href="#ArialMT-69" x="372.322266"/>
       <use xlink:href="#ArialMT-64" x="394.539062"/>
       <use xlink:href="#ArialMT-61" x="450.154297"/>
       <use xlink:href="#ArialMT-65" x="505.769531"/>
      </g>
     </g>
    </g>
    <g id="ytick_19">
     <g id="line2d_22">
      <g>
       <use xlink:href="#mcea5d70213" x="87.646875" y="52.549418" style="stroke: #000000; stroke-width: 0.5"/>
      </g>
     </g>
     <g id="text_23">
      <!-- Totiviridae -->
      <g transform="translate(39.735875 55.698855) scale(0.088 -0.088)">
       <use xlink:href="#ArialMT-54"/>
       <use xlink:href="#ArialMT-6f" x="49.958984"/>
       <use xlink:href="#ArialMT-74" x="105.574219"/>
       <use xlink:href="#ArialMT-69" x="133.357422"/>
       <use xlink:href="#ArialMT-76" x="155.574219"/>
       <use xlink:href="#ArialMT-69" x="205.574219"/>
       <use xlink:href="#ArialMT-72" x="227.791016"/>
       <use xlink:href="#ArialMT-69" x="261.091797"/>
       <use xlink:href="#ArialMT-64" x="283.308594"/>
       <use xlink:href="#ArialMT-61" x="338.923828"/>
       <use xlink:href="#ArialMT-65" x="394.539062"/>
      </g>
     </g>
    </g>
    <g id="ytick_20">
     <g id="line2d_23">
      <g>
       <use xlink:href="#mcea5d70213" x="87.646875" y="42.482561" style="stroke: #000000; stroke-width: 0.5"/>
      </g>
     </g>
     <g id="text_24">
      <!-- Tymoviridae -->
      <g transform="translate(31.91075 45.631998) scale(0.088 -0.088)">
       <use xlink:href="#ArialMT-54"/>
       <use xlink:href="#ArialMT-79" x="55.583984"/>
       <use xlink:href="#ArialMT-6d" x="105.583984"/>
       <use xlink:href="#ArialMT-6f" x="188.884766"/>
       <use xlink:href="#ArialMT-76" x="244.5"/>
       <use xlink:href="#ArialMT-69" x="294.5"/>
       <use xlink:href="#ArialMT-72" x="316.716797"/>
       <use xlink:href="#ArialMT-69" x="350.017578"/>
       <use xlink:href="#ArialMT-64" x="372.234375"/>
       <use xlink:href="#ArialMT-61" x="427.849609"/>
       <use xlink:href="#ArialMT-65" x="483.464844"/>
      </g>
     </g>
    </g>
    <g id="ytick_21">
     <g id="line2d_24">
      <g>
       <use xlink:href="#mcea5d70213" x="87.646875" y="32.415704" style="stroke: #000000; stroke-width: 0.5"/>
      </g>
     </g>
     <g id="text_25">
      <!-- Virgaviridae -->
      <g transform="translate(33.036875 35.565141) scale(0.088 -0.088)">
       <defs>
        <path id="ArialMT-56" d="M 1803 0 
L 28 4581 
L 684 4581 
L 1875 1253 
Q 2019 853 2116 503 
Q 2222 878 2363 1253 
L 3600 4581 
L 4219 4581 
L 2425 0 
L 1803 0 
z
" transform="scale(0.015625)"/>
        <path id="ArialMT-67" d="M 319 -275 
L 866 -356 
Q 900 -609 1056 -725 
Q 1266 -881 1628 -881 
Q 2019 -881 2231 -725 
Q 2444 -569 2519 -288 
Q 2563 -116 2559 434 
Q 2191 0 1641 0 
Q 956 0 581 494 
Q 206 988 206 1678 
Q 206 2153 378 2554 
Q 550 2956 876 3175 
Q 1203 3394 1644 3394 
Q 2231 3394 2613 2919 
L 2613 3319 
L 3131 3319 
L 3131 450 
Q 3131 -325 2973 -648 
Q 2816 -972 2473 -1159 
Q 2131 -1347 1631 -1347 
Q 1038 -1347 672 -1080 
Q 306 -813 319 -275 
z
M 784 1719 
Q 784 1066 1043 766 
Q 1303 466 1694 466 
Q 2081 466 2343 764 
Q 2606 1063 2606 1700 
Q 2606 2309 2336 2618 
Q 2066 2928 1684 2928 
Q 1309 2928 1046 2623 
Q 784 2319 784 1719 
z
" transform="scale(0.015625)"/>
       </defs>
       <use xlink:href="#ArialMT-56"/>
       <use xlink:href="#ArialMT-69" x="64.949219"/>
       <use xlink:href="#ArialMT-72" x="87.166016"/>
       <use xlink:href="#ArialMT-67" x="120.466797"/>
       <use xlink:href="#ArialMT-61" x="176.082031"/>
       <use xlink:href="#ArialMT-76" x="231.697266"/>
       <use xlink:href="#ArialMT-69" x="281.697266"/>
       <use xlink:href="#ArialMT-72" x="303.914062"/>
       <use xlink:href="#ArialMT-69" x="337.214844"/>
       <use xlink:href="#ArialMT-64" x="359.431641"/>
       <use xlink:href="#ArialMT-61" x="415.046875"/>
       <use xlink:href="#ArialMT-65" x="470.662109"/>
      </g>
     </g>
    </g>
    <g id="text_26">
     <!-- Virus Family -->
     <g transform="translate(6.442031 157.756931) rotate(-90) scale(0.09 -0.09)">
      <defs>
       <path id="ArialMT-46" d="M 525 0 
L 525 4581 
L 3616 4581 
L 3616 4041 
L 1131 4041 
L 1131 2622 
L 3281 2622 
L 3281 2081 
L 1131 2081 
L 1131 0 
L 525 0 
z
" transform="scale(0.015625)"/>
      </defs>
      <use xlink:href="#ArialMT-56"/>
      <use xlink:href="#ArialMT-69" x="64.949219"/>
      <use xlink:href="#ArialMT-72" x="87.166016"/>
      <use xlink:href="#ArialMT-75" x="120.466797"/>
      <use xlink:href="#ArialMT-73" x="176.082031"/>
      <use xlink:href="#ArialMT-20" x="226.082031"/>
      <use xlink:href="#ArialMT-46" x="253.865234"/>
      <use xlink:href="#ArialMT-61" x="314.949219"/>
      <use xlink:href="#ArialMT-6d" x="370.564453"/>
      <use xlink:href="#ArialMT-69" x="453.865234"/>
      <use xlink:href="#ArialMT-6c" x="476.082031"/>
      <use xlink:href="#ArialMT-79" x="498.298828"/>
     </g>
    </g>
   </g>
   <g id="patch_45">
    <path d="M 87.646875 238.786275 
L 87.646875 27.382275 
" style="fill: none; stroke: #000000; stroke-width: 0.5; stroke-linejoin: miter; stroke-linecap: square"/>
   </g>
   <g id="patch_46">
    <path d="M 196.216875 238.786275 
L 196.216875 27.382275 
" style="fill: none; stroke: #000000; stroke-width: 0.5; stroke-linejoin: miter; stroke-linecap: square"/>
   </g>
   <g id="patch_47">
    <path d="M 87.646875 238.786275 
L 196.216875 238.786275 
" style="fill: none; stroke: #000000; stroke-width: 0.5; stroke-linejoin: miter; stroke-linecap: square"/>
   </g>
   <g id="patch_48">
    <path d="M 87.646875 27.382275 
L 196.216875 27.382275 
" style="fill: none; stroke: #000000; stroke-width: 0.5; stroke-linejoin: miter; stroke-linecap: square"/>
   </g>
   <g id="legend_1">
    <g id="text_27">
     <!-- Activator -->
     <g transform="translate(123.259875 10.3915) scale(0.096 -0.096)">
      <use xlink:href="#ArialMT-41"/>
      <use xlink:href="#ArialMT-63" x="66.699219"/>
      <use xlink:href="#ArialMT-74" x="116.699219"/>
      <use xlink:href="#ArialMT-69" x="144.482422"/>
      <use xlink:href="#ArialMT-76" x="166.699219"/>
      <use xlink:href="#ArialMT-61" x="216.699219"/>
      <use xlink:href="#ArialMT-74" x="272.314453"/>
      <use xlink:href="#ArialMT-6f" x="300.097656"/>
      <use xlink:href="#ArialMT-72" x="355.712891"/>
     </g>
    </g>
    <g id="patch_49">
     <path d="M 88.852063 22.998375 
L 106.452063 22.998375 
L 106.452063 16.838375 
L 88.852063 16.838375 
z
" style="fill: #ff6347; stroke: #000000; stroke-width: 0.5; stroke-linejoin: miter"/>
    </g>
    <g id="text_28">
     <!-- True -->
     <g transform="translate(113.492063 22.998375) scale(0.088 -0.088)">
      <use xlink:href="#ArialMT-54"/>
      <use xlink:href="#ArialMT-72" x="57.333984"/>
      <use xlink:href="#ArialMT-75" x="90.634766"/>
      <use xlink:href="#ArialMT-65" x="146.25"/>
     </g>
    </g>
    <g id="patch_50">
     <path d="M 148.854313 22.998375 
L 166.454313 22.998375 
L 166.454313 16.838375 
L 148.854313 16.838375 
z
" style="fill: #808080; stroke: #000000; stroke-width: 0.5; stroke-linejoin: miter"/>
    </g>
    <g id="text_29">
     <!-- False -->
     <g transform="translate(173.494313 22.998375) scale(0.088 -0.088)">
      <use xlink:href="#ArialMT-46"/>
      <use xlink:href="#ArialMT-61" x="61.083984"/>
      <use xlink:href="#ArialMT-6c" x="116.699219"/>
      <use xlink:href="#ArialMT-73" x="138.916016"/>
      <use xlink:href="#ArialMT-65" x="188.916016"/>
     </g>
    </g>
   </g>
  </g>
 </g>
 <defs>
  <clipPath id="p3a29b4b90a">
   <rect x="87.646875" y="27.382275" width="108.57" height="211.404"/>
  </clipPath>
 </defs>
</svg>
