<?xml version="1.0" encoding="utf-8" standalone="no"?>
<!DOCTYPE svg PUBLIC "-//W3C//DTD SVG 1.1//EN"
  "http://www.w3.org/Graphics/SVG/1.1/DTD/svg11.dtd">
<svg xmlns:xlink="http://www.w3.org/1999/xlink" width="400.431031pt" height="132.286656pt" viewBox="0 0 400.431031 132.286656" xmlns="http://www.w3.org/2000/svg" version="1.1">
 <metadata>
  <rdf:RDF xmlns:dc="http://purl.org/dc/elements/1.1/" xmlns:cc="http://creativecommons.org/ns#" xmlns:rdf="http://www.w3.org/1999/02/22-rdf-syntax-ns#">
   <cc:Work>
    <dc:type rdf:resource="http://purl.org/dc/dcmitype/StillImage"/>
    <dc:date>2025-05-27T13:46:29.720974</dc:date>
    <dc:format>image/svg+xml</dc:format>
    <dc:creator>
     <cc:Agent>
      <dc:title>Matplotlib v3.8.4, https://matplotlib.org/</dc:title>
     </cc:Agent>
    </dc:creator>
   </cc:Work>
  </rdf:RDF>
 </metadata>
 <defs>
  <style type="text/css">*{stroke-linejoin: round; stroke-linecap: butt}</style>
 </defs>
 <g id="figure_1">
  <g id="patch_1">
   <path d="M 0 132.286656 
L 400.431031 132.286656 
L 400.431031 0 
L 0 0 
L 0 132.286656 
z
" style="fill: none"/>
  </g>
  <g id="axes_1">
   <g id="patch_2">
    <path d="M 32.86825 103.708 
L 367.66825 103.708 
L 367.66825 20.548 
L 32.86825 20.548 
L 32.86825 103.708 
z
" style="fill: none"/>
   </g>
   <g id="matplotlib.axis_1">
    <g id="xtick_1">
     <g id="line2d_1">
      <defs>
       <path id="mf804e00cb6" d="M 0 0 
L 0 4.8 
" style="stroke: #000000; stroke-width: 0.5"/>
      </defs>
      <g>
       <use xlink:href="#mf804e00cb6" x="48.086432" y="103.708" style="stroke: #000000; stroke-width: 0.5"/>
      </g>
     </g>
     <g id="text_1">
      <!-- 0 -->
      <g transform="translate(45.639619 118.306875) scale(0.088 -0.088)">
       <defs>
        <path id="ArialMT-30" d="M 266 2259 
Q 266 3072 433 3567 
Q 600 4063 929 4331 
Q 1259 4600 1759 4600 
Q 2128 4600 2406 4451 
Q 2684 4303 2865 4023 
Q 3047 3744 3150 3342 
Q 3253 2941 3253 2259 
Q 3253 1453 3087 958 
Q 2922 463 2592 192 
Q 2263 -78 1759 -78 
Q 1097 -78 719 397 
Q 266 969 266 2259 
z
M 844 2259 
Q 844 1131 1108 757 
Q 1372 384 1759 384 
Q 2147 384 2411 759 
Q 2675 1134 2675 2259 
Q 2675 3391 2411 3762 
Q 2147 4134 1753 4134 
Q 1366 4134 1134 3806 
Q 844 3388 844 2259 
z
" transform="scale(0.015625)"/>
       </defs>
       <use xlink:href="#ArialMT-30"/>
      </g>
     </g>
    </g>
    <g id="xtick_2">
     <g id="line2d_2">
      <g>
       <use xlink:href="#mf804e00cb6" x="88.995523" y="103.708" style="stroke: #000000; stroke-width: 0.5"/>
      </g>
     </g>
     <g id="text_2">
      <!-- 50 -->
      <g transform="translate(84.101898 118.306875) scale(0.088 -0.088)">
       <defs>
        <path id="ArialMT-35" d="M 266 1200 
L 856 1250 
Q 922 819 1161 601 
Q 1400 384 1738 384 
Q 2144 384 2425 690 
Q 2706 997 2706 1503 
Q 2706 1984 2436 2262 
Q 2166 2541 1728 2541 
Q 1456 2541 1237 2417 
Q 1019 2294 894 2097 
L 366 2166 
L 809 4519 
L 3088 4519 
L 3088 3981 
L 1259 3981 
L 1013 2750 
Q 1425 3038 1878 3038 
Q 2478 3038 2890 2622 
Q 3303 2206 3303 1553 
Q 3303 931 2941 478 
Q 2500 -78 1738 -78 
Q 1113 -78 717 272 
Q 322 622 266 1200 
z
" transform="scale(0.015625)"/>
       </defs>
       <use xlink:href="#ArialMT-35"/>
       <use xlink:href="#ArialMT-30" x="55.615234"/>
      </g>
     </g>
    </g>
    <g id="xtick_3">
     <g id="line2d_3">
      <g>
       <use xlink:href="#mf804e00cb6" x="129.904614" y="103.708" style="stroke: #000000; stroke-width: 0.5"/>
      </g>
     </g>
     <g id="text_3">
      <!-- 100 -->
      <g transform="translate(122.564176 118.306875) scale(0.088 -0.088)">
       <defs>
        <path id="ArialMT-31" d="M 2384 0 
L 1822 0 
L 1822 3584 
Q 1619 3391 1289 3197 
Q 959 3003 697 2906 
L 697 3450 
Q 1169 3672 1522 3987 
Q 1875 4303 2022 4600 
L 2384 4600 
L 2384 0 
z
" transform="scale(0.015625)"/>
       </defs>
       <use xlink:href="#ArialMT-31"/>
       <use xlink:href="#ArialMT-30" x="55.615234"/>
       <use xlink:href="#ArialMT-30" x="111.230469"/>
      </g>
     </g>
    </g>
    <g id="xtick_4">
     <g id="line2d_4">
      <g>
       <use xlink:href="#mf804e00cb6" x="170.813705" y="103.708" style="stroke: #000000; stroke-width: 0.5"/>
      </g>
     </g>
     <g id="text_4">
      <!-- 150 -->
      <g transform="translate(163.473267 118.306875) scale(0.088 -0.088)">
       <use xlink:href="#ArialMT-31"/>
       <use xlink:href="#ArialMT-35" x="55.615234"/>
       <use xlink:href="#ArialMT-30" x="111.230469"/>
      </g>
     </g>
    </g>
    <g id="xtick_5">
     <g id="line2d_5">
      <g>
       <use xlink:href="#mf804e00cb6" x="211.722795" y="103.708" style="stroke: #000000; stroke-width: 0.5"/>
      </g>
     </g>
     <g id="text_5">
      <!-- 200 -->
      <g transform="translate(204.382358 118.306875) scale(0.088 -0.088)">
       <defs>
        <path id="ArialMT-32" d="M 3222 541 
L 3222 0 
L 194 0 
Q 188 203 259 391 
Q 375 700 629 1000 
Q 884 1300 1366 1694 
Q 2113 2306 2375 2664 
Q 2638 3022 2638 3341 
Q 2638 3675 2398 3904 
Q 2159 4134 1775 4134 
Q 1369 4134 1125 3890 
Q 881 3647 878 3216 
L 300 3275 
Q 359 3922 746 4261 
Q 1134 4600 1788 4600 
Q 2447 4600 2831 4234 
Q 3216 3869 3216 3328 
Q 3216 3053 3103 2787 
Q 2991 2522 2730 2228 
Q 2469 1934 1863 1422 
Q 1356 997 1212 845 
Q 1069 694 975 541 
L 3222 541 
z
" transform="scale(0.015625)"/>
       </defs>
       <use xlink:href="#ArialMT-32"/>
       <use xlink:href="#ArialMT-30" x="55.615234"/>
       <use xlink:href="#ArialMT-30" x="111.230469"/>
      </g>
     </g>
    </g>
    <g id="xtick_6">
     <g id="line2d_6">
      <g>
       <use xlink:href="#mf804e00cb6" x="252.631886" y="103.708" style="stroke: #000000; stroke-width: 0.5"/>
      </g>
     </g>
     <g id="text_6">
      <!-- 250 -->
      <g transform="translate(245.291449 118.306875) scale(0.088 -0.088)">
       <use xlink:href="#ArialMT-32"/>
       <use xlink:href="#ArialMT-35" x="55.615234"/>
       <use xlink:href="#ArialMT-30" x="111.230469"/>
      </g>
     </g>
    </g>
    <g id="xtick_7">
     <g id="line2d_7">
      <g>
       <use xlink:href="#mf804e00cb6" x="293.540977" y="103.708" style="stroke: #000000; stroke-width: 0.5"/>
      </g>
     </g>
     <g id="text_7">
      <!-- 300 -->
      <g transform="translate(286.20054 118.306875) scale(0.088 -0.088)">
       <defs>
        <path id="ArialMT-33" d="M 269 1209 
L 831 1284 
Q 928 806 1161 595 
Q 1394 384 1728 384 
Q 2125 384 2398 659 
Q 2672 934 2672 1341 
Q 2672 1728 2419 1979 
Q 2166 2231 1775 2231 
Q 1616 2231 1378 2169 
L 1441 2663 
Q 1497 2656 1531 2656 
Q 1891 2656 2178 2843 
Q 2466 3031 2466 3422 
Q 2466 3731 2256 3934 
Q 2047 4138 1716 4138 
Q 1388 4138 1169 3931 
Q 950 3725 888 3313 
L 325 3413 
Q 428 3978 793 4289 
Q 1159 4600 1703 4600 
Q 2078 4600 2393 4439 
Q 2709 4278 2876 4000 
Q 3044 3722 3044 3409 
Q 3044 3113 2884 2869 
Q 2725 2625 2413 2481 
Q 2819 2388 3044 2092 
Q 3269 1797 3269 1353 
Q 3269 753 2831 336 
Q 2394 -81 1725 -81 
Q 1122 -81 723 278 
Q 325 638 269 1209 
z
" transform="scale(0.015625)"/>
       </defs>
       <use xlink:href="#ArialMT-33"/>
       <use xlink:href="#ArialMT-30" x="55.615234"/>
       <use xlink:href="#ArialMT-30" x="111.230469"/>
      </g>
     </g>
    </g>
    <g id="xtick_8">
     <g id="line2d_8">
      <g>
       <use xlink:href="#mf804e00cb6" x="334.450068" y="103.708" style="stroke: #000000; stroke-width: 0.5"/>
      </g>
     </g>
     <g id="text_8">
      <!-- 350 -->
      <g transform="translate(327.109631 118.306875) scale(0.088 -0.088)">
       <use xlink:href="#ArialMT-33"/>
       <use xlink:href="#ArialMT-35" x="55.615234"/>
       <use xlink:href="#ArialMT-30" x="111.230469"/>
      </g>
     </g>
    </g>
    <g id="text_9">
     <!-- Tile Position -->
     <g transform="translate(175.927469 130.497906) scale(0.09 -0.09)">
      <defs>
       <path id="ArialMT-54" d="M 1659 0 
L 1659 4041 
L 150 4041 
L 150 4581 
L 3781 4581 
L 3781 4041 
L 2266 4041 
L 2266 0 
L 1659 0 
z
" transform="scale(0.015625)"/>
       <path id="ArialMT-69" d="M 425 3934 
L 425 4581 
L 988 4581 
L 988 3934 
L 425 3934 
z
M 425 0 
L 425 3319 
L 988 3319 
L 988 0 
L 425 0 
z
" transform="scale(0.015625)"/>
       <path id="ArialMT-6c" d="M 409 0 
L 409 4581 
L 972 4581 
L 972 0 
L 409 0 
z
" transform="scale(0.015625)"/>
       <path id="ArialMT-65" d="M 2694 1069 
L 3275 997 
Q 3138 488 2766 206 
Q 2394 -75 1816 -75 
Q 1088 -75 661 373 
Q 234 822 234 1631 
Q 234 2469 665 2931 
Q 1097 3394 1784 3394 
Q 2450 3394 2872 2941 
Q 3294 2488 3294 1666 
Q 3294 1616 3291 1516 
L 816 1516 
Q 847 969 1125 678 
Q 1403 388 1819 388 
Q 2128 388 2347 550 
Q 2566 713 2694 1069 
z
M 847 1978 
L 2700 1978 
Q 2663 2397 2488 2606 
Q 2219 2931 1791 2931 
Q 1403 2931 1139 2672 
Q 875 2413 847 1978 
z
" transform="scale(0.015625)"/>
       <path id="ArialMT-20" transform="scale(0.015625)"/>
       <path id="ArialMT-50" d="M 494 0 
L 494 4581 
L 2222 4581 
Q 2678 4581 2919 4538 
Q 3256 4481 3484 4323 
Q 3713 4166 3852 3881 
Q 3991 3597 3991 3256 
Q 3991 2672 3619 2267 
Q 3247 1863 2275 1863 
L 1100 1863 
L 1100 0 
L 494 0 
z
M 1100 2403 
L 2284 2403 
Q 2872 2403 3119 2622 
Q 3366 2841 3366 3238 
Q 3366 3525 3220 3729 
Q 3075 3934 2838 4000 
Q 2684 4041 2272 4041 
L 1100 4041 
L 1100 2403 
z
" transform="scale(0.015625)"/>
       <path id="ArialMT-6f" d="M 213 1659 
Q 213 2581 725 3025 
Q 1153 3394 1769 3394 
Q 2453 3394 2887 2945 
Q 3322 2497 3322 1706 
Q 3322 1066 3130 698 
Q 2938 331 2570 128 
Q 2203 -75 1769 -75 
Q 1072 -75 642 372 
Q 213 819 213 1659 
z
M 791 1659 
Q 791 1022 1069 705 
Q 1347 388 1769 388 
Q 2188 388 2466 706 
Q 2744 1025 2744 1678 
Q 2744 2294 2464 2611 
Q 2184 2928 1769 2928 
Q 1347 2928 1069 2612 
Q 791 2297 791 1659 
z
" transform="scale(0.015625)"/>
       <path id="ArialMT-73" d="M 197 991 
L 753 1078 
Q 800 744 1014 566 
Q 1228 388 1613 388 
Q 2000 388 2187 545 
Q 2375 703 2375 916 
Q 2375 1106 2209 1216 
Q 2094 1291 1634 1406 
Q 1016 1563 777 1677 
Q 538 1791 414 1992 
Q 291 2194 291 2438 
Q 291 2659 392 2848 
Q 494 3038 669 3163 
Q 800 3259 1026 3326 
Q 1253 3394 1513 3394 
Q 1903 3394 2198 3281 
Q 2494 3169 2634 2976 
Q 2775 2784 2828 2463 
L 2278 2388 
Q 2241 2644 2061 2787 
Q 1881 2931 1553 2931 
Q 1166 2931 1000 2803 
Q 834 2675 834 2503 
Q 834 2394 903 2306 
Q 972 2216 1119 2156 
Q 1203 2125 1616 2013 
Q 2213 1853 2448 1751 
Q 2684 1650 2818 1456 
Q 2953 1263 2953 975 
Q 2953 694 2789 445 
Q 2625 197 2315 61 
Q 2006 -75 1616 -75 
Q 969 -75 630 194 
Q 291 463 197 991 
z
" transform="scale(0.015625)"/>
       <path id="ArialMT-74" d="M 1650 503 
L 1731 6 
Q 1494 -44 1306 -44 
Q 1000 -44 831 53 
Q 663 150 594 308 
Q 525 466 525 972 
L 525 2881 
L 113 2881 
L 113 3319 
L 525 3319 
L 525 4141 
L 1084 4478 
L 1084 3319 
L 1650 3319 
L 1650 2881 
L 1084 2881 
L 1084 941 
Q 1084 700 1114 631 
Q 1144 563 1211 522 
Q 1278 481 1403 481 
Q 1497 481 1650 503 
z
" transform="scale(0.015625)"/>
       <path id="ArialMT-6e" d="M 422 0 
L 422 3319 
L 928 3319 
L 928 2847 
Q 1294 3394 1984 3394 
Q 2284 3394 2536 3286 
Q 2788 3178 2913 3003 
Q 3038 2828 3088 2588 
Q 3119 2431 3119 2041 
L 3119 0 
L 2556 0 
L 2556 2019 
Q 2556 2363 2490 2533 
Q 2425 2703 2258 2804 
Q 2091 2906 1866 2906 
Q 1506 2906 1245 2678 
Q 984 2450 984 1813 
L 984 0 
L 422 0 
z
" transform="scale(0.015625)"/>
      </defs>
      <use xlink:href="#ArialMT-54"/>
      <use xlink:href="#ArialMT-69" x="57.333984"/>
      <use xlink:href="#ArialMT-6c" x="79.550781"/>
      <use xlink:href="#ArialMT-65" x="101.767578"/>
      <use xlink:href="#ArialMT-20" x="157.382812"/>
      <use xlink:href="#ArialMT-50" x="185.166016"/>
      <use xlink:href="#ArialMT-6f" x="251.865234"/>
      <use xlink:href="#ArialMT-73" x="307.480469"/>
      <use xlink:href="#ArialMT-69" x="357.480469"/>
      <use xlink:href="#ArialMT-74" x="379.697266"/>
      <use xlink:href="#ArialMT-69" x="407.480469"/>
      <use xlink:href="#ArialMT-6f" x="429.697266"/>
      <use xlink:href="#ArialMT-6e" x="485.3125"/>
     </g>
    </g>
   </g>
   <g id="matplotlib.axis_2">
    <g id="ytick_1">
     <g id="line2d_9">
      <defs>
       <path id="m07d76a1506" d="M 0 0 
L -4.8 0 
" style="stroke: #000000; stroke-width: 0.5"/>
      </defs>
      <g>
       <use xlink:href="#m07d76a1506" x="32.86825" y="96.778" style="stroke: #000000; stroke-width: 0.5"/>
      </g>
     </g>
     <g id="text_10">
      <!-- 0.0 -->
      <g transform="translate(12.33625 99.927437) scale(0.088 -0.088)">
       <defs>
        <path id="ArialMT-2e" d="M 581 0 
L 581 641 
L 1222 641 
L 1222 0 
L 581 0 
z
" transform="scale(0.015625)"/>
       </defs>
       <use xlink:href="#ArialMT-30"/>
       <use xlink:href="#ArialMT-2e" x="55.615234"/>
       <use xlink:href="#ArialMT-30" x="83.398438"/>
      </g>
     </g>
    </g>
    <g id="ytick_2">
     <g id="line2d_10">
      <g>
       <use xlink:href="#m07d76a1506" x="32.86825" y="62.128" style="stroke: #000000; stroke-width: 0.5"/>
      </g>
     </g>
     <g id="text_11">
      <!-- 0.5 -->
      <g transform="translate(12.33625 65.277437) scale(0.088 -0.088)">
       <use xlink:href="#ArialMT-30"/>
       <use xlink:href="#ArialMT-2e" x="55.615234"/>
       <use xlink:href="#ArialMT-35" x="83.398438"/>
      </g>
     </g>
    </g>
    <g id="ytick_3">
     <g id="line2d_11">
      <g>
       <use xlink:href="#m07d76a1506" x="32.86825" y="27.478" style="stroke: #000000; stroke-width: 0.5"/>
      </g>
     </g>
     <g id="text_12">
      <!-- 1.0 -->
      <g transform="translate(12.33625 30.627437) scale(0.088 -0.088)">
       <use xlink:href="#ArialMT-31"/>
       <use xlink:href="#ArialMT-2e" x="55.615234"/>
       <use xlink:href="#ArialMT-30" x="83.398438"/>
      </g>
     </g>
    </g>
    <g id="text_13">
     <!-- Predicted Activity -->
     <g transform="translate(6.442031 96.391984) rotate(-90) scale(0.09 -0.09)">
      <defs>
       <path id="ArialMT-72" d="M 416 0 
L 416 3319 
L 922 3319 
L 922 2816 
Q 1116 3169 1280 3281 
Q 1444 3394 1641 3394 
Q 1925 3394 2219 3213 
L 2025 2691 
Q 1819 2813 1613 2813 
Q 1428 2813 1281 2702 
Q 1134 2591 1072 2394 
Q 978 2094 978 1738 
L 978 0 
L 416 0 
z
" transform="scale(0.015625)"/>
       <path id="ArialMT-64" d="M 2575 0 
L 2575 419 
Q 2259 -75 1647 -75 
Q 1250 -75 917 144 
Q 584 363 401 755 
Q 219 1147 219 1656 
Q 219 2153 384 2558 
Q 550 2963 881 3178 
Q 1213 3394 1622 3394 
Q 1922 3394 2156 3267 
Q 2391 3141 2538 2938 
L 2538 4581 
L 3097 4581 
L 3097 0 
L 2575 0 
z
M 797 1656 
Q 797 1019 1065 703 
Q 1334 388 1700 388 
Q 2069 388 2326 689 
Q 2584 991 2584 1609 
Q 2584 2291 2321 2609 
Q 2059 2928 1675 2928 
Q 1300 2928 1048 2622 
Q 797 2316 797 1656 
z
" transform="scale(0.015625)"/>
       <path id="ArialMT-63" d="M 2588 1216 
L 3141 1144 
Q 3050 572 2676 248 
Q 2303 -75 1759 -75 
Q 1078 -75 664 370 
Q 250 816 250 1647 
Q 250 2184 428 2587 
Q 606 2991 970 3192 
Q 1334 3394 1763 3394 
Q 2303 3394 2647 3120 
Q 2991 2847 3088 2344 
L 2541 2259 
Q 2463 2594 2264 2762 
Q 2066 2931 1784 2931 
Q 1359 2931 1093 2626 
Q 828 2322 828 1663 
Q 828 994 1084 691 
Q 1341 388 1753 388 
Q 2084 388 2306 591 
Q 2528 794 2588 1216 
z
" transform="scale(0.015625)"/>
       <path id="ArialMT-41" d="M -9 0 
L 1750 4581 
L 2403 4581 
L 4278 0 
L 3588 0 
L 3053 1388 
L 1138 1388 
L 634 0 
L -9 0 
z
M 1313 1881 
L 2866 1881 
L 2388 3150 
Q 2169 3728 2063 4100 
Q 1975 3659 1816 3225 
L 1313 1881 
z
" transform="scale(0.015625)"/>
       <path id="ArialMT-76" d="M 1344 0 
L 81 3319 
L 675 3319 
L 1388 1331 
Q 1503 1009 1600 663 
Q 1675 925 1809 1294 
L 2547 3319 
L 3125 3319 
L 1869 0 
L 1344 0 
z
" transform="scale(0.015625)"/>
       <path id="ArialMT-79" d="M 397 -1278 
L 334 -750 
Q 519 -800 656 -800 
Q 844 -800 956 -737 
Q 1069 -675 1141 -563 
Q 1194 -478 1313 -144 
Q 1328 -97 1363 -6 
L 103 3319 
L 709 3319 
L 1400 1397 
Q 1534 1031 1641 628 
Q 1738 1016 1872 1384 
L 2581 3319 
L 3144 3319 
L 1881 -56 
Q 1678 -603 1566 -809 
Q 1416 -1088 1222 -1217 
Q 1028 -1347 759 -1347 
Q 597 -1347 397 -1278 
z
" transform="scale(0.015625)"/>
      </defs>
      <use xlink:href="#ArialMT-50"/>
      <use xlink:href="#ArialMT-72" x="66.699219"/>
      <use xlink:href="#ArialMT-65" x="100"/>
      <use xlink:href="#ArialMT-64" x="155.615234"/>
      <use xlink:href="#ArialMT-69" x="211.230469"/>
      <use xlink:href="#ArialMT-63" x="233.447266"/>
      <use xlink:href="#ArialMT-74" x="283.447266"/>
      <use xlink:href="#ArialMT-65" x="311.230469"/>
      <use xlink:href="#ArialMT-64" x="366.845703"/>
      <use xlink:href="#ArialMT-20" x="422.460938"/>
      <use xlink:href="#ArialMT-41" x="444.744141"/>
      <use xlink:href="#ArialMT-63" x="511.443359"/>
      <use xlink:href="#ArialMT-74" x="561.443359"/>
      <use xlink:href="#ArialMT-69" x="589.226562"/>
      <use xlink:href="#ArialMT-76" x="611.443359"/>
      <use xlink:href="#ArialMT-69" x="661.443359"/>
      <use xlink:href="#ArialMT-74" x="683.660156"/>
      <use xlink:href="#ArialMT-79" x="711.443359"/>
     </g>
    </g>
   </g>
   <g id="line2d_12">
    <path d="M 48.086432 89.154753 
L 48.904614 89.369327 
L 49.722795 88.887929 
L 51.359159 88.333066 
L 52.995523 88.380035 
L 53.813705 88.520577 
L 59.540977 90.310737 
L 61.177341 90.524176 
L 62.813705 90.552747 
L 65.26825 90.584696 
L 67.722795 90.859427 
L 70.177341 90.756752 
L 77.540977 90.109305 
L 82.450068 89.379737 
L 90.631886 89.542251 
L 95.540977 89.940286 
L 97.177341 89.728506 
L 100.450068 89.103953 
L 105.359159 88.31753 
L 106.995523 88.055876 
L 111.086432 87.836474 
L 113.540977 88.055723 
L 117.631886 88.631085 
L 120.086432 89.079434 
L 123.359159 89.953057 
L 125.813705 90.559952 
L 131.540977 91.406287 
L 136.450068 91.49326 
L 138.904614 91.654518 
L 140.540977 92.054843 
L 142.995523 92.770355 
L 149.540977 93.911734 
L 150.359159 93.965627 
L 151.995523 93.753815 
L 152.813705 93.396984 
L 153.631886 92.759169 
L 156.086432 90.265369 
L 159.359159 86.421448 
L 163.450068 80.750732 
L 165.904614 76.987217 
L 170.813705 70.378257 
L 174.904614 65.528261 
L 177.359159 62.880479 
L 179.813705 60.214586 
L 181.450068 58.581118 
L 182.26825 57.919568 
L 183.904614 56.820865 
L 186.359159 54.926473 
L 187.995523 53.460312 
L 189.631886 52.547268 
L 191.26825 52.162468 
L 192.904614 52.007501 
L 193.722795 51.969961 
L 195.359159 52.135918 
L 196.177341 52.42595 
L 196.995523 52.990127 
L 199.450068 55.178111 
L 201.086432 56.83347 
L 205.995523 62.705749 
L 210.086432 68.222569 
L 213.359159 72.148771 
L 219.904614 78.980191 
L 222.359159 81.312531 
L 224.813705 83.416688 
L 225.631886 83.941174 
L 227.26825 84.742563 
L 229.722795 86.236202 
L 231.359159 87.330127 
L 232.995523 88.000193 
L 235.450068 88.371302 
L 245.26825 89.277527 
L 254.26825 89.954055 
L 259.177341 90.446043 
L 263.26825 90.827131 
L 266.540977 91.482687 
L 277.177341 93.748994 
L 282.904614 94.414616 
L 291.904614 95.088631 
L 302.540977 95.542477 
L 314.813705 95.244447 
L 336.904614 94.590794 
L 340.995523 94.174991 
L 345.904614 93.614407 
L 347.540977 93.499489 
L 348.359159 93.593554 
L 352.450068 93.459842 
L 352.450068 93.459842 
" clip-path="url(#p323eba22d8)" style="fill: none; stroke: #a6c194; stroke-width: 2; stroke-linecap: square"/>
   </g>
   <g id="line2d_13">
    <path d="M 48.086432 64.289008 
L 48.904614 70.842711 
L 49.722795 74.212239 
L 50.540977 75.352307 
L 51.359159 75.513558 
L 52.177341 74.567637 
L 52.995523 74.322427 
L 53.813705 73.948688 
L 54.631886 73.764217 
L 55.450068 74.025322 
L 57.904614 76.851316 
L 58.722795 77.495028 
L 59.540977 77.950434 
L 60.359159 78.075119 
L 61.995523 78.115917 
L 62.813705 78.275776 
L 64.450068 78.971072 
L 66.086432 79.735908 
L 66.904614 79.987772 
L 68.540977 80.050725 
L 69.359159 80.080492 
L 70.995523 80.510468 
L 74.26825 81.475025 
L 75.904614 81.488835 
L 77.540977 81.706877 
L 78.359159 81.664275 
L 79.995523 81.268036 
L 80.813705 81.636021 
L 81.631886 81.703857 
L 82.450068 81.437672 
L 83.26825 80.921829 
L 84.086432 80.694849 
L 84.904614 80.672569 
L 85.722795 80.340956 
L 87.359159 79.418451 
L 88.177341 79.08007 
L 92.26825 76.654596 
L 93.904614 75.943999 
L 96.359159 74.483229 
L 97.995523 73.875924 
L 99.631886 73.628544 
L 101.26825 73.456411 
L 102.904614 72.943996 
L 106.177341 72.30256 
L 107.813705 72.492534 
L 108.631886 72.599805 
L 109.450068 72.554403 
L 110.26825 72.354554 
L 111.086432 72.279069 
L 114.359159 73.339267 
L 115.177341 73.864383 
L 115.995523 74.711358 
L 117.631886 75.94858 
L 118.450068 76.8309 
L 120.086432 78.916075 
L 120.904614 79.698555 
L 126.631886 84.044806 
L 127.450068 84.761668 
L 129.086432 85.775372 
L 129.904614 86.155048 
L 131.540977 86.553676 
L 133.177341 86.986851 
L 133.995523 87.466838 
L 135.631886 88.587344 
L 137.26825 89.213871 
L 138.904614 89.559425 
L 141.359159 89.777846 
L 142.995523 89.040818 
L 143.813705 88.58512 
L 145.450068 86.937587 
L 146.26825 86.008384 
L 147.904614 85.11089 
L 148.722795 84.712961 
L 150.359159 83.626905 
L 151.995523 82.680896 
L 153.631886 81.594254 
L 155.26825 81.129087 
L 156.086432 80.408818 
L 157.722795 78.481207 
L 159.359159 75.9715 
L 162.631886 70.646296 
L 164.26825 68.439388 
L 165.904614 65.862261 
L 169.177341 59.719937 
L 170.813705 56.672433 
L 174.086432 51.345204 
L 175.722795 49.594702 
L 177.359159 48.183973 
L 178.995523 47.056903 
L 180.631886 44.874184 
L 182.26825 42.655868 
L 186.359159 37.621283 
L 187.995523 35.306875 
L 188.813705 34.653283 
L 189.631886 34.447852 
L 190.450068 34.666361 
L 191.26825 35.031995 
L 192.086432 35.541789 
L 192.904614 36.305132 
L 195.359159 39.046169 
L 196.177341 39.796969 
L 197.813705 41.898816 
L 198.631886 43.139307 
L 202.722795 50.497031 
L 205.995523 55.529749 
L 208.450068 58.736086 
L 210.086432 61.69652 
L 215.813705 72.919525 
L 221.540977 82.258706 
L 222.359159 83.19948 
L 225.631886 85.410389 
L 227.26825 86.007548 
L 228.086432 86.167761 
L 231.359159 86.220879 
L 234.631886 85.699412 
L 236.26825 85.342135 
L 237.904614 85.196212 
L 238.722795 85.232313 
L 240.359159 85.724772 
L 241.177341 86.094811 
L 241.995523 86.192682 
L 244.450068 85.958196 
L 246.086432 85.596985 
L 249.359159 85.445041 
L 250.995523 85.666217 
L 252.631886 85.971243 
L 260.813705 86.789346 
L 261.631886 87.020459 
L 263.26825 87.113209 
L 264.086432 87.048938 
L 265.722795 86.62361 
L 267.359159 86.927941 
L 268.995523 87.669508 
L 270.631886 88.021914 
L 273.904614 88.231654 
L 277.995523 88.432426 
L 278.813705 88.53964 
L 279.631886 88.496095 
L 282.086432 88.061109 
L 284.540977 87.909948 
L 286.995523 87.457065 
L 288.631886 87.540946 
L 291.904614 88.07831 
L 293.540977 88.511145 
L 295.177341 88.885472 
L 296.813705 89.408026 
L 297.631886 89.783519 
L 299.26825 89.917314 
L 300.904614 89.947654 
L 304.995523 89.630421 
L 308.26825 89.792184 
L 309.904614 89.392112 
L 313.995523 86.77959 
L 317.26825 85.643383 
L 318.904614 85.151802 
L 320.540977 84.447601 
L 321.359159 84.045949 
L 323.813705 83.595474 
L 325.450068 83.221573 
L 327.086432 82.65917 
L 329.540977 81.473179 
L 334.450068 78.966799 
L 337.722795 77.105145 
L 338.540977 76.42743 
L 340.995523 73.742392 
L 342.631886 72.349961 
L 343.450068 72.412406 
L 344.26825 72.79742 
L 345.086432 73.48734 
L 346.722795 75.414409 
L 348.359159 76.314542 
L 349.177341 76.390049 
L 350.813705 75.09494 
L 351.631886 75.103032 
L 352.450068 74.848344 
L 352.450068 74.848344 
" clip-path="url(#p323eba22d8)" style="fill: none; stroke: #85d5e0; stroke-width: 2; stroke-linecap: square"/>
   </g>
   <g id="patch_3">
    <path d="M 32.86825 103.708 
L 32.86825 20.548 
" style="fill: none; stroke: #000000; stroke-width: 0.5; stroke-linejoin: miter; stroke-linecap: square"/>
   </g>
   <g id="patch_4">
    <path d="M 367.66825 103.708 
L 367.66825 20.548 
" style="fill: none; stroke: #000000; stroke-width: 0.5; stroke-linejoin: miter; stroke-linecap: square"/>
   </g>
   <g id="patch_5">
    <path d="M 32.86825 103.708 
L 367.66825 103.708 
" style="fill: none; stroke: #000000; stroke-width: 0.5; stroke-linejoin: miter; stroke-linecap: square"/>
   </g>
   <g id="patch_6">
    <path d="M 32.86825 20.548 
L 367.66825 20.548 
" style="fill: none; stroke: #000000; stroke-width: 0.5; stroke-linejoin: miter; stroke-linecap: square"/>
   </g>
   <g id="legend_1">
    <g id="line2d_14">
     <path d="M 94.028875 6.738875 
L 102.828875 6.738875 
L 111.628875 6.738875 
" style="fill: none; stroke: #a6c194; stroke-width: 2; stroke-linecap: square"/>
    </g>
    <g id="text_14">
     <!-- PADDLE -->
     <g transform="translate(118.668875 9.818875) scale(0.088 -0.088)">
      <defs>
       <path id="ArialMT-44" d="M 494 0 
L 494 4581 
L 2072 4581 
Q 2606 4581 2888 4516 
Q 3281 4425 3559 4188 
Q 3922 3881 4101 3404 
Q 4281 2928 4281 2316 
Q 4281 1794 4159 1391 
Q 4038 988 3847 723 
Q 3656 459 3429 307 
Q 3203 156 2883 78 
Q 2563 0 2147 0 
L 494 0 
z
M 1100 541 
L 2078 541 
Q 2531 541 2789 625 
Q 3047 709 3200 863 
Q 3416 1078 3536 1442 
Q 3656 1806 3656 2325 
Q 3656 3044 3420 3430 
Q 3184 3816 2847 3947 
Q 2603 4041 2063 4041 
L 1100 4041 
L 1100 541 
z
" transform="scale(0.015625)"/>
       <path id="ArialMT-4c" d="M 469 0 
L 469 4581 
L 1075 4581 
L 1075 541 
L 3331 541 
L 3331 0 
L 469 0 
z
" transform="scale(0.015625)"/>
       <path id="ArialMT-45" d="M 506 0 
L 506 4581 
L 3819 4581 
L 3819 4041 
L 1113 4041 
L 1113 2638 
L 3647 2638 
L 3647 2100 
L 1113 2100 
L 1113 541 
L 3925 541 
L 3925 0 
L 506 0 
z
" transform="scale(0.015625)"/>
      </defs>
      <use xlink:href="#ArialMT-50"/>
      <use xlink:href="#ArialMT-41" x="59.324219"/>
      <use xlink:href="#ArialMT-44" x="126.023438"/>
      <use xlink:href="#ArialMT-44" x="198.240234"/>
      <use xlink:href="#ArialMT-4c" x="270.457031"/>
      <use xlink:href="#ArialMT-45" x="326.072266"/>
     </g>
    </g>
    <g id="line2d_15">
     <path d="M 170.833625 6.738875 
L 179.633625 6.738875 
L 188.433625 6.738875 
" style="fill: none; stroke: #85d5e0; stroke-width: 2; stroke-linecap: square"/>
    </g>
    <g id="text_15">
     <!-- TADA -->
     <g transform="translate(195.473625 9.818875) scale(0.088 -0.088)">
      <use xlink:href="#ArialMT-54"/>
      <use xlink:href="#ArialMT-41" x="53.708984"/>
      <use xlink:href="#ArialMT-44" x="120.408203"/>
      <use xlink:href="#ArialMT-41" x="192.625"/>
     </g>
    </g>
    <g id="line2d_16">
     <path d="M 235.8945 6.738875 
L 244.6945 6.738875 
L 253.4945 6.738875 
" style="fill: none; stroke-dasharray: 5,5; stroke-dashoffset: 0; stroke: #808080; stroke-width: 2"/>
    </g>
    <g id="text_16">
     <!-- Metapredict -->
     <g transform="translate(260.5345 9.818875) scale(0.088 -0.088)">
      <defs>
       <path id="ArialMT-4d" d="M 475 0 
L 475 4581 
L 1388 4581 
L 2472 1338 
Q 2622 884 2691 659 
Q 2769 909 2934 1394 
L 4031 4581 
L 4847 4581 
L 4847 0 
L 4263 0 
L 4263 3834 
L 2931 0 
L 2384 0 
L 1059 3900 
L 1059 0 
L 475 0 
z
" transform="scale(0.015625)"/>
       <path id="ArialMT-61" d="M 2588 409 
Q 2275 144 1986 34 
Q 1697 -75 1366 -75 
Q 819 -75 525 192 
Q 231 459 231 875 
Q 231 1119 342 1320 
Q 453 1522 633 1644 
Q 813 1766 1038 1828 
Q 1203 1872 1538 1913 
Q 2219 1994 2541 2106 
Q 2544 2222 2544 2253 
Q 2544 2597 2384 2738 
Q 2169 2928 1744 2928 
Q 1347 2928 1158 2789 
Q 969 2650 878 2297 
L 328 2372 
Q 403 2725 575 2942 
Q 747 3159 1072 3276 
Q 1397 3394 1825 3394 
Q 2250 3394 2515 3294 
Q 2781 3194 2906 3042 
Q 3031 2891 3081 2659 
Q 3109 2516 3109 2141 
L 3109 1391 
Q 3109 606 3145 398 
Q 3181 191 3288 0 
L 2700 0 
Q 2613 175 2588 409 
z
M 2541 1666 
Q 2234 1541 1622 1453 
Q 1275 1403 1131 1340 
Q 988 1278 909 1158 
Q 831 1038 831 891 
Q 831 666 1001 516 
Q 1172 366 1500 366 
Q 1825 366 2078 508 
Q 2331 650 2450 897 
Q 2541 1088 2541 1459 
L 2541 1666 
z
" transform="scale(0.015625)"/>
       <path id="ArialMT-70" d="M 422 -1272 
L 422 3319 
L 934 3319 
L 934 2888 
Q 1116 3141 1344 3267 
Q 1572 3394 1897 3394 
Q 2322 3394 2647 3175 
Q 2972 2956 3137 2557 
Q 3303 2159 3303 1684 
Q 3303 1175 3120 767 
Q 2938 359 2589 142 
Q 2241 -75 1856 -75 
Q 1575 -75 1351 44 
Q 1128 163 984 344 
L 984 -1272 
L 422 -1272 
z
M 931 1641 
Q 931 1000 1190 694 
Q 1450 388 1819 388 
Q 2194 388 2461 705 
Q 2728 1022 2728 1688 
Q 2728 2322 2467 2637 
Q 2206 2953 1844 2953 
Q 1484 2953 1207 2617 
Q 931 2281 931 1641 
z
" transform="scale(0.015625)"/>
      </defs>
      <use xlink:href="#ArialMT-4d"/>
      <use xlink:href="#ArialMT-65" x="83.300781"/>
      <use xlink:href="#ArialMT-74" x="138.916016"/>
      <use xlink:href="#ArialMT-61" x="166.699219"/>
      <use xlink:href="#ArialMT-70" x="222.314453"/>
      <use xlink:href="#ArialMT-72" x="277.929688"/>
      <use xlink:href="#ArialMT-65" x="311.230469"/>
      <use xlink:href="#ArialMT-64" x="366.845703"/>
      <use xlink:href="#ArialMT-69" x="422.460938"/>
      <use xlink:href="#ArialMT-63" x="444.677734"/>
      <use xlink:href="#ArialMT-74" x="494.677734"/>
     </g>
    </g>
   </g>
  </g>
  <g id="axes_2">
   <g id="matplotlib.axis_3">
    <g id="ytick_4">
     <g id="line2d_17">
      <defs>
       <path id="m10040eb7d9" d="M 0 0 
L 4.8 0 
" style="stroke: #000000; stroke-width: 0.5"/>
      </defs>
      <g>
       <use xlink:href="#m10040eb7d9" x="367.66825" y="96.778" style="stroke: #000000; stroke-width: 0.5"/>
      </g>
     </g>
     <g id="text_17">
      <!-- 0.0 -->
      <g transform="translate(375.96825 99.927437) scale(0.088 -0.088)">
       <use xlink:href="#ArialMT-30"/>
       <use xlink:href="#ArialMT-2e" x="55.615234"/>
       <use xlink:href="#ArialMT-30" x="83.398438"/>
      </g>
     </g>
    </g>
    <g id="ytick_5">
     <g id="line2d_18">
      <g>
       <use xlink:href="#m10040eb7d9" x="367.66825" y="62.128" style="stroke: #000000; stroke-width: 0.5"/>
      </g>
     </g>
     <g id="text_18">
      <!-- 0.5 -->
      <g transform="translate(375.96825 65.277437) scale(0.088 -0.088)">
       <use xlink:href="#ArialMT-30"/>
       <use xlink:href="#ArialMT-2e" x="55.615234"/>
       <use xlink:href="#ArialMT-35" x="83.398438"/>
      </g>
     </g>
    </g>
    <g id="ytick_6">
     <g id="line2d_19">
      <g>
       <use xlink:href="#m10040eb7d9" x="367.66825" y="27.478" style="stroke: #000000; stroke-width: 0.5"/>
      </g>
     </g>
     <g id="text_19">
      <!-- 1.0 -->
      <g transform="translate(375.96825 30.627437) scale(0.088 -0.088)">
       <use xlink:href="#ArialMT-31"/>
       <use xlink:href="#ArialMT-2e" x="55.615234"/>
       <use xlink:href="#ArialMT-30" x="83.398438"/>
      </g>
     </g>
    </g>
    <g id="text_20">
     <!-- Predicted Disorder -->
     <g transform="translate(398.642281 99.391516) rotate(-90) scale(0.09 -0.09)">
      <use xlink:href="#ArialMT-50"/>
      <use xlink:href="#ArialMT-72" x="66.699219"/>
      <use xlink:href="#ArialMT-65" x="100"/>
      <use xlink:href="#ArialMT-64" x="155.615234"/>
      <use xlink:href="#ArialMT-69" x="211.230469"/>
      <use xlink:href="#ArialMT-63" x="233.447266"/>
      <use xlink:href="#ArialMT-74" x="283.447266"/>
      <use xlink:href="#ArialMT-65" x="311.230469"/>
      <use xlink:href="#ArialMT-64" x="366.845703"/>
      <use xlink:href="#ArialMT-20" x="422.460938"/>
      <use xlink:href="#ArialMT-44" x="450.244141"/>
      <use xlink:href="#ArialMT-69" x="522.460938"/>
      <use xlink:href="#ArialMT-73" x="544.677734"/>
      <use xlink:href="#ArialMT-6f" x="594.677734"/>
      <use xlink:href="#ArialMT-72" x="650.292969"/>
      <use xlink:href="#ArialMT-64" x="683.59375"/>
      <use xlink:href="#ArialMT-65" x="739.208984"/>
      <use xlink:href="#ArialMT-72" x="794.824219"/>
     </g>
    </g>
   </g>
   <g id="line2d_20">
    <path d="M 48.086432 32.98735 
L 48.904614 33.35464 
L 49.722795 32.79331 
L 50.540977 33.27148 
L 51.359159 34.05457 
L 52.995523 37.25623 
L 53.813705 39.42532 
L 54.631886 39.95893 
L 56.26825 44.74756 
L 57.086432 46.51471 
L 59.540977 55.27423 
L 60.359159 57.58885 
L 61.177341 59.30056 
L 61.995523 62.16958 
L 63.631886 65.94643 
L 64.450068 69.41143 
L 65.26825 71.60824 
L 66.086432 73.0774 
L 66.904614 76.54933 
L 69.359159 83.50012 
L 70.177341 85.14946 
L 70.995523 87.24232 
L 71.813705 88.59367 
L 72.631886 89.66782 
L 73.450068 89.93116 
L 74.26825 90.59644 
L 75.086432 90.70732 
L 75.904614 91.54585 
L 76.722795 91.88542 
L 79.177341 90.90829 
L 79.995523 90.43012 
L 80.813705 90.31924 
L 81.631886 89.90344 
L 84.086432 89.14114 
L 84.904614 89.30053 
L 85.722795 89.18272 
L 86.540977 89.52229 
L 88.177341 89.21044 
L 88.995523 89.45299 
L 89.813705 89.39062 
L 90.631886 89.46685 
L 92.26825 89.79256 
L 93.086432 89.54308 
L 93.904614 88.93324 
L 94.722795 88.98175 
L 95.540977 88.65604 
L 97.177341 88.28875 
L 97.995523 88.44814 
L 98.813705 88.06006 
L 100.450068 88.30954 
L 101.26825 87.91453 
L 102.086432 87.67891 
L 102.904614 87.26311 
L 106.177341 86.1058 
L 106.995523 86.20975 
L 107.813705 85.82167 
L 108.631886 85.23262 
L 109.450068 84.3733 
L 110.26825 83.04967 
L 111.086432 82.31509 
L 111.904614 81.28252 
L 112.722795 79.46686 
L 113.540977 78.45508 
L 114.359159 76.85425 
L 115.177341 76.04344 
L 115.995523 75.44746 
L 116.813705 74.58121 
L 117.631886 73.53478 
L 119.26825 71.17165 
L 120.086432 70.35391 
L 120.904614 69.72328 
L 121.722795 68.53132 
L 124.177341 63.15364 
L 125.813705 59.4946 
L 126.631886 57.01366 
L 127.450068 55.75933 
L 129.086432 51.49738 
L 129.904614 50.39551 
L 130.722795 48.46204 
L 131.540977 47.00674 
L 132.359159 45.19108 
L 133.177341 43.04278 
L 133.995523 41.48353 
L 134.813705 40.74202 
L 135.631886 39.63322 
L 136.450068 37.92844 
L 137.26825 37.40176 
L 138.086432 36.52858 
L 138.904614 36.8335 
L 139.722795 35.12179 
L 140.540977 34.27633 
L 142.177341 32.28049 
L 144.631886 31.12318 
L 145.450068 31.07467 
L 146.26825 30.65887 
L 148.722795 30.64501 
L 149.540977 31.03309 
L 150.359159 30.98458 
L 151.177341 31.19941 
L 151.995523 31.1509 
L 152.813705 31.54591 
L 153.631886 31.53898 
L 154.450068 30.74203 
L 155.26825 30.61729 
L 156.086432 30.12526 
L 156.904614 30.943 
L 157.722795 31.0816 
L 158.540977 31.42117 
L 159.359159 32.04487 
L 160.995523 32.1904 
L 161.813705 32.16961 
L 162.631886 32.4676 
L 163.450068 33.34078 
L 164.26825 33.72193 
L 165.904614 33.45859 
L 166.722795 33.65956 
L 167.540977 32.14882 
L 168.359159 32.07259 
L 169.177341 33.95755 
L 169.995523 32.80024 
L 172.450068 33.65263 
L 173.26825 32.23198 
L 174.086432 32.58541 
L 174.904614 32.49532 
L 175.722795 32.03101 
L 176.540977 32.04487 
L 177.359159 31.83697 
L 178.177341 32.50918 
L 178.995523 32.36365 
L 179.813705 32.6755 
L 181.450068 32.75173 
L 182.26825 32.30128 
L 183.904614 32.83489 
L 184.722795 32.09338 
L 185.540977 31.17169 
L 186.359159 32.68936 
L 187.177341 32.43295 
L 187.995523 31.64293 
L 188.813705 31.85083 
L 189.631886 31.17862 
L 191.26825 33.41701 
L 192.086432 32.62699 
L 192.904614 32.77945 
L 193.722795 32.58541 
L 194.540977 32.75866 
L 195.359159 33.97141 
L 196.177341 34.00606 
L 196.995523 32.89726 
L 197.813705 32.73094 
L 199.450068 30.53413 
L 200.26825 30.27079 
L 201.086432 29.54314 
L 201.904614 30.21535 
L 202.722795 29.52235 
L 203.540977 28.45513 
L 204.359159 28.40662 
L 205.177341 28.71847 
L 206.813705 28.12249 
L 208.450068 28.40662 
L 209.26825 28.37197 
L 210.086432 28.10863 
L 210.904614 29.77876 
L 211.722795 29.77183 
L 212.540977 30.46483 
L 213.359159 28.98181 
L 214.177341 28.94716 
L 214.995523 28.4482 
L 215.813705 28.28188 
L 216.631886 29.77183 
L 217.450068 28.76698 
L 218.26825 29.48077 
L 219.086432 29.86885 
L 219.904614 29.99359 
L 220.722795 31.05388 
L 221.540977 30.34702 
L 222.359159 30.45097 
L 223.995523 29.93122 
L 224.813705 30.04903 
L 225.631886 28.60066 
L 227.26825 28.15021 
L 228.086432 27.71362 
L 228.904614 28.3789 
L 229.722795 28.7254 
L 230.540977 27.478 
L 231.359159 28.80856 
L 232.177341 29.50849 
L 232.995523 29.05111 
L 234.631886 27.6859 
L 235.450068 28.06705 
L 236.26825 28.57294 
L 237.904614 28.88479 
L 238.722795 28.59373 
L 239.540977 28.74619 
L 240.359159 28.13635 
L 241.177341 28.95409 
L 241.995523 27.8245 
L 242.813705 27.8938 
L 243.631886 28.3789 
L 244.450068 27.53344 
L 246.086432 27.478 
L 246.904614 28.31653 
L 247.722795 28.01854 
L 248.540977 27.478 
L 249.359159 27.83836 
L 250.995523 27.478 
L 251.813705 28.15714 
L 252.631886 27.478 
L 253.450068 27.58888 
L 254.26825 27.49186 
L 255.086432 27.8245 
L 255.904614 28.39276 
L 256.722795 28.71847 
L 257.540977 28.74619 
L 258.359159 29.77876 
L 259.177341 28.88479 
L 259.995523 29.2105 
L 260.813705 28.76698 
L 261.631886 28.7947 
L 262.450068 29.2798 
L 263.26825 28.84321 
L 264.086432 29.11348 
L 265.722795 28.89172 
L 266.540977 29.51542 
L 267.359159 29.4877 
L 268.177341 30.35395 
L 268.995523 30.17377 
L 269.813705 30.46483 
L 270.631886 30.62422 
L 271.450068 30.1114 
L 272.26825 29.82727 
L 273.086432 29.92429 
L 273.904614 29.7649 
L 274.722795 30.53413 
L 276.359159 30.70045 
L 277.177341 31.3588 
L 277.995523 31.85083 
L 278.813705 31.82311 
L 279.631886 32.85568 
L 281.26825 34.70599 
L 282.086432 36.29296 
L 282.904614 37.37404 
L 284.540977 41.33107 
L 285.359159 42.31513 
L 286.995523 44.88616 
L 287.813705 44.89309 
L 288.631886 45.47521 
L 289.450068 47.04832 
L 290.26825 47.74825 
L 291.086432 49.48768 
L 291.904614 50.68657 
L 292.722795 51.13009 
L 293.540977 53.07049 
L 294.359159 54.21394 
L 295.177341 54.98317 
L 295.995523 55.39897 
L 298.450068 58.40659 
L 299.26825 60.22918 
L 300.086432 60.77665 
L 300.904614 60.89446 
L 301.722795 61.89238 
L 302.540977 62.48836 
L 303.359159 62.36362 
L 304.177341 62.89723 
L 304.995523 63.14671 
L 305.813705 63.56944 
L 306.631886 63.62488 
L 307.450068 63.50707 
L 308.26825 63.77041 
L 309.086432 63.55558 
L 309.904614 62.2666 
L 310.722795 61.83694 
L 311.540977 61.24096 
L 313.995523 61.09543 
L 314.813705 61.41421 
L 315.631886 61.5736 
L 316.450068 61.435 
L 317.26825 62.34283 
L 318.086432 61.98247 
L 319.722795 60.79051 
L 320.540977 61.04692 
L 321.359159 60.59647 
L 322.177341 61.08157 
L 322.995523 60.75586 
L 323.813705 60.70042 
L 324.631886 60.37471 
L 325.450068 59.2174 
L 326.26825 59.38372 
L 327.086432 58.01851 
L 327.904614 57.72052 
L 328.722795 56.9998 
L 329.540977 57.97 
L 330.359159 56.8612 
L 331.177341 56.50777 
L 331.995523 54.21394 
L 332.813705 54.75448 
L 333.631886 53.86051 
L 334.450068 53.90902 
L 335.26825 53.44471 
L 336.086432 54.23473 
L 336.904614 53.25067 
L 337.722795 50.35393 
L 338.540977 48.961 
L 339.359159 48.91249 
L 340.177341 47.78983 
L 340.995523 47.02753 
L 341.813705 45.94645 
L 342.631886 45.23266 
L 343.450068 42.88339 
L 344.26825 42.52303 
L 345.904614 39.64708 
L 346.722795 37.84528 
L 347.540977 37.40176 
L 348.359159 36.09892 
L 349.177341 35.3782 
L 349.995523 34.31098 
L 350.813705 30.65887 
L 352.450068 27.478 
L 352.450068 27.478 
" clip-path="url(#p323eba22d8)" style="fill: none; stroke-dasharray: 5,5; stroke-dashoffset: 0; stroke: #808080; stroke-width: 2"/>
   </g>
   <g id="patch_7">
    <path d="M 32.86825 103.708 
L 32.86825 20.548 
" style="fill: none; stroke: #000000; stroke-width: 0.5; stroke-linejoin: miter; stroke-linecap: square"/>
   </g>
   <g id="patch_8">
    <path d="M 367.66825 103.708 
L 367.66825 20.548 
" style="fill: none; stroke: #000000; stroke-width: 0.5; stroke-linejoin: miter; stroke-linecap: square"/>
   </g>
   <g id="patch_9">
    <path d="M 32.86825 103.708 
L 367.66825 103.708 
" style="fill: none; stroke: #000000; stroke-width: 0.5; stroke-linejoin: miter; stroke-linecap: square"/>
   </g>
   <g id="patch_10">
    <path d="M 32.86825 20.548 
L 367.66825 20.548 
" style="fill: none; stroke: #000000; stroke-width: 0.5; stroke-linejoin: miter; stroke-linecap: square"/>
   </g>
  </g>
 </g>
 <defs>
  <clipPath id="p323eba22d8">
   <rect x="32.86825" y="20.548" width="334.8" height="83.16"/>
  </clipPath>
 </defs>
</svg>
